<svg width="18" height="40" viewBox="0 0 18 40" fill="none" xmlns="http://www.w3.org/2000/svg">
<path d="M9.91184 0.416016H8.03984C4.05584 0.416016 0.839844 3.68002 0.839844 7.66402V19.856C0.839844 23.84 4.10384 27.104 8.08784 27.104H9.95984C13.9438 27.104 17.1598 23.84 17.1598 19.856V7.66402C17.1598 3.68002 13.9438 0.416016 9.91184 0.416016ZM15.7198 19.856C15.7198 23.072 13.1278 25.664 9.91184 25.664H8.03984C4.82384 25.664 2.23184 23.072 2.23184 19.856V7.66402C2.23184 4.44802 4.82384 1.85602 8.03984 1.85602H9.91184C13.1278 1.85602 15.7198 4.44802 15.7198 7.66402V19.856Z" fill="#171717"/>
<path d="M9.00027 5.88818C8.61627 5.88818 8.28027 6.22418 8.28027 6.60818V11.7442C8.28027 12.1282 8.61627 12.4642 9.00027 12.4642C9.38427 12.4642 9.72027 12.1282 9.72027 11.7442V6.60818C9.72027 6.17618 9.38427 5.88818 9.00027 5.88818Z" fill="#171717"/>
<path d="M11.9277 34.88L9.71966 37.088V30.656C9.71966 30.272 9.38366 29.936 8.99966 29.936C8.61566 29.936 8.27966 30.272 8.27966 30.656V37.136L6.07166 34.88C5.78366 34.592 5.35166 34.592 5.06366 34.88C4.77566 35.168 4.77566 35.6 5.06366 35.888L8.51966 39.344C8.56766 39.392 8.66366 39.488 8.75966 39.488C8.85566 39.536 8.95166 39.536 8.99966 39.536C9.04766 39.536 9.19166 39.536 9.23966 39.488C9.33566 39.44 9.43166 39.392 9.47966 39.344L12.9357 35.888C13.2237 35.6 13.2237 35.168 12.9357 34.88C12.6477 34.592 12.2157 34.64 11.9277 34.88Z" fill="#171717"/>
</svg>
