<svg width="47" height="32" viewBox="0 0 47 32" fill="none" xmlns="http://www.w3.org/2000/svg">
<rect x="1" y="0.5" width="45" height="31" rx="5.5" fill="white"/>
<rect x="1" y="0.5" width="45" height="31" rx="5.5" stroke="#F5F5F5"/>
<path fill-rule="evenodd" clip-rule="evenodd" d="M14.8341 21.1441H12.0877L10.0283 13.0563C9.93058 12.6843 9.72304 12.3554 9.41774 12.2003C8.65584 11.8108 7.81628 11.5007 6.90039 11.3444V11.033H11.3245C11.9351 11.033 12.393 11.5007 12.4694 12.044L13.5379 17.878L16.2829 11.033H18.9529L14.8341 21.1441ZM20.4794 21.1441H17.8857L20.0214 11.033H22.6151L20.4794 21.1441ZM25.9707 13.8341C26.047 13.2895 26.5049 12.9781 27.0392 12.9781C27.8788 12.8999 28.7933 13.0563 29.5565 13.4445L30.0145 11.2676C29.2512 10.9562 28.4117 10.7998 27.6498 10.7998C25.1324 10.7998 23.3007 12.2003 23.3007 14.1441C23.3007 15.6228 24.5982 16.3993 25.5141 16.867C26.5049 17.3334 26.8865 17.6448 26.8102 18.1112C26.8102 18.8108 26.047 19.1222 25.2851 19.1222C24.3692 19.1222 23.4533 18.889 22.6151 18.4994L22.1571 20.6777C23.073 21.066 24.0639 21.2223 24.9798 21.2223C27.8024 21.2992 29.5565 19.9 29.5565 17.7998C29.5565 15.1551 25.9707 15.0001 25.9707 13.8341ZM38.6337 21.1441L36.5743 11.033H34.3623C33.9043 11.033 33.4464 11.3444 33.2937 11.8108L29.4802 21.1441H32.1502L32.6831 19.6668H35.9637L36.269 21.1441H38.6337ZM34.7439 13.7559L35.5058 17.5666H33.3701L34.7439 13.7559Z" fill="#172B85"/>
</svg>
