<svg width="46" height="33" viewBox="0 0 46 33" fill="none" xmlns="http://www.w3.org/2000/svg">
<rect x="0.5" y="1" width="45" height="31" fill="#1F72CD"/>
<rect x="0.5" y="1" width="45" height="31" stroke="#F5F5F5"/>
<path fill-rule="evenodd" clip-rule="evenodd" d="M8.12625 11.8333L3.88477 21.4956H8.96241L9.59189 19.9551H11.0307L11.6602 21.4956H17.2493V20.3198L17.7473 21.4956H20.6384L21.1364 20.295V21.4956H32.7602L34.1736 19.9951L35.497 21.4956L41.4672 21.5081L37.2123 16.6915L41.4672 11.8333H35.5896L34.2137 13.3062L32.932 11.8333H20.2869L19.201 14.3272L18.0897 11.8333H13.0227V12.9691L12.459 11.8333H8.12625ZM9.10875 13.2054H11.5838L14.3972 19.7575V13.2054H17.1086L19.2816 17.9032L21.2842 13.2054H23.982V20.1387H22.3405L22.3271 14.7058L19.9339 20.1387H18.4654L16.0588 14.7058V20.1387H12.6817L12.0415 18.5844H8.58261L7.94371 20.1374H6.13432L9.10875 13.2054ZM32.1588 13.2054H25.4839V20.1346H32.0555L34.1735 17.8382L36.2151 20.1346H38.3492L35.2473 16.6901L38.3492 13.2054H36.3077L34.2003 15.4755L32.1588 13.2054ZM10.3128 14.3785L9.17322 17.1474H11.451L10.3128 14.3785ZM27.1322 15.9066V14.6409V14.6397H31.2972L33.1145 16.6639L31.2166 18.6991H27.1322V17.3173H30.7737V15.9066H27.1322Z" fill="white"/>
</svg>
