<svg width="97" height="96" viewBox="0 0 97 96" fill="none" xmlns="http://www.w3.org/2000/svg">
<path d="M93.8 34C87.6 14 69.4 0.599976 48.5 0.599976C27.6 0.599976 9.3 14 3.1 34C1.7 38.5 1 43.3 1 48C1 52.7 1.7 57.5 3.1 62C9.3 82 27.5 95.4 48.4 95.4C69.3 95.4 87.5 82 93.7 62C95.1 57.5 95.8 52.7 95.8 48C95.8 43.3 95.2 38.5 93.8 34ZM48.5 93.8C28.4 93.8 10.9 81 4.9 61.8C4.9 61.8 4.9 61.6 4.9 61.5C3.5 57.1 2.9 52.6 2.9 48C2.9 43.4 3.6 38.8 4.9 34.5C4.9 34.5 4.9 34.3 4.9 34.2C10.9 15.1 28.4 2.19998 48.5 2.19998C68.6 2.19998 86.1 15 92.1 34.2C92.1 34.2 92.1 34.4 92.1 34.5C93.5 38.9 94.1 43.4 94.1 48C94.1 52.6 93.4 57.2 92.1 61.6V61.8C86.1 81 68.6 93.8 48.5 93.8Z" fill="#111111"/>
<path d="M28.8004 11.6L27.4004 12.5L28.0004 15.1L28.2004 16.1L27.4004 15.5L25.3004 13.9L23.9004 14.8L27.1004 19.8L28.3004 19L27.4004 17.5C27.0004 17 26.4004 16.3 26.0004 15.8L27.2004 16.7L29.0004 18L29.5004 17.7L29.1004 15.6L28.8004 14.2C29.1004 14.7 29.4004 15.6 29.8004 16.1L30.7004 17.6L31.9004 16.8L28.8004 11.6Z" fill="#111111"/>
<path d="M33.7004 9.5L31.9004 10.2L32.5004 16.4L34.0004 15.8L33.8004 14.5L35.3004 13.9L36.1004 15L37.7004 14.4L33.7004 9.5ZM33.6004 13.3V12.9C33.4004 12.3 33.3004 11.6 33.2004 11C33.6004 11.5 34.0004 12.1 34.3004 12.6L34.6004 12.9L33.6004 13.3Z" fill="#111111"/>
<path d="M42.3004 10.0999C41.8004 7.99994 40.4004 7.49994 38.6004 7.89994L36.9004 8.29994L38.2004 14.0999L40.0004 13.6999C41.7004 13.2999 42.7004 12.1999 42.3004 10.0999ZM39.6004 12.4999L38.7004 9.19994C39.5004 8.99994 40.3004 9.09994 40.6004 10.4999C40.9004 11.8999 40.3004 12.2999 39.5004 12.4999H39.6004Z" fill="#111111"/>
<path d="M47.8996 11.3L45.4996 11.5V10.4L47.2996 10.3V8.99995L45.3996 9.09995V8.19995L47.5996 7.99995V6.69995L43.5996 6.99995L43.9996 13L47.8996 12.7V11.3Z" fill="#111111"/>
<path d="M57.4996 7.69995L56.6996 10.2C56.4996 10.8 56.3996 11.4 56.1996 12V7.39995L54.7996 7.19995L53.7996 9.69995C53.5996 10.3 53.3996 10.9 53.1996 11.5C53.1996 10.9 53.1996 10.2 53.1996 9.59995V6.99995L51.5996 6.69995V12.8L53.4996 13.1L54.2996 10.8C54.4996 10.4 54.5996 9.89995 54.7996 9.49995V13.3L56.8996 13.6L58.8996 7.89995L57.3996 7.69995H57.4996Z" fill="#111111"/>
<path d="M60.6012 8.59998L58.7012 14.3L60.2012 14.8L62.1012 9.09998L60.6012 8.59998Z" fill="#111111"/>
<path d="M63.7 9.59998L63.1 10.8L64.5 11.5L62.5 15.7L63.9 16.4L65.9 12.2L67.3 12.9L67.9 11.7L63.7 9.59998Z" fill="#111111"/>
<path d="M72.5008 14.4L71.2008 16.2L69.7008 15.2L71.0008 13.4L69.7008 12.5L66.3008 17.4L67.6008 18.3L68.9008 16.3L70.4008 17.3L69.1008 19.3L70.4008 20.2L73.8008 15.3L72.5008 14.4Z" fill="#111111"/>
<path d="M21.8004 71L17.4004 75L18.5004 76.2L22.9004 72.2L21.8004 71Z" fill="#111111"/>
<path d="M26.7004 75.7L25.6004 77C25.1004 77.6 24.7004 78.3 24.3004 78.9L24.7004 77.5L25.4004 74.6L24.2004 73.6L20.4004 78.2L21.6004 79.2L22.7004 77.9C23.2004 77.3 23.6004 76.6 24.0004 76L23.6004 77.4L22.9004 80.3L24.1004 81.3L27.9004 76.7L26.7004 75.7Z" fill="#111111"/>
<path d="M29.9007 82.3L30.7007 82.6999L30.3007 83.4C30.2007 83.4 30.0007 83.4 29.8007 83.4C28.9007 82.9 28.7007 82.0999 29.3007 81.0999C29.8007 80.0999 30.7007 79.9 31.4007 80.3C31.8007 80.5 32.0007 80.7999 32.1007 81.1999L33.3007 80.8C33.1007 80.2 32.7007 79.5999 32.0007 79.1999C30.6007 78.3999 28.8007 78.6999 27.8007 80.4999C26.8007 82.2999 27.5007 83.7999 28.9007 84.5999C29.6007 84.9999 30.5007 85.0999 31.1007 84.9L32.5007 82.4L30.5007 81.3L29.9007 82.4V82.3Z" fill="#111111"/>
<path d="M37.6012 81.5L35.5012 80.8L33.7012 86.5L35.2012 87L35.8012 85.1L36.4012 85.3L36.8012 87.5L38.5012 88L38.0012 85.4C38.7012 85.4 39.2012 84.9 39.5012 84.1C39.7012 82.7 38.8012 81.9 37.6012 81.5ZM37.8012 83.6C37.6012 84.1 37.2012 84.3 36.6012 84.1L36.1012 83.9L36.6012 82.5L37.1012 82.7C37.7012 82.9 38.0012 83.1 37.8012 83.6Z" fill="#111111"/>
<path d="M45.3004 84.5L45.5004 83.2L41.7004 82.7L40.9004 88.6L44.8004 89.2L45.0004 87.9L42.7004 87.6L42.9004 86.5L44.8004 86.8L45.0004 85.5L43.1004 85.2V84.3L45.3004 84.5Z" fill="#111111"/>
<path d="M49.1008 83.2H47.3008L47.5008 89.3H49.4008C51.1008 89.1 52.4008 88.2 52.3008 86.1C52.2008 84 50.9008 83.2 49.1008 83.2ZM49.2008 87.9L49.0008 84.5C49.9008 84.5 50.5008 84.7 50.6008 86.1C50.6008 87.5 50.0008 87.9 49.1008 87.9H49.2008Z" fill="#111111"/>
<path d="M55.3012 82.6L53.7012 82.9L54.7012 88.8L56.3012 88.5L55.3012 82.6Z" fill="#111111"/>
<path d="M62.1996 85.5L59.9996 86.2L59.6996 85.2L61.5996 84.6L61.1996 83.3L59.2996 83.9L58.9996 83L61.1996 82.3L60.7996 81L57.0996 82.1L58.8996 87.8L62.6996 86.6L62.1996 85.5Z" fill="#111111"/>
<path d="M65.7996 82.4L68.1996 84.2L69.5996 83.5L66.7996 78.2L65.4996 78.9L66.2996 80.4C66.5996 81.1 67.1996 81.8 67.4996 82.3L66.3996 81.4L63.9996 79.6L62.5996 80.3L65.3996 85.6L66.6996 84.9L65.8996 83.4C65.5996 82.7 64.9996 82 64.6996 81.5L65.7996 82.4Z" fill="#111111"/>
<path d="M71.5008 76.4L72.8008 75.4L72.0008 74.4L68.3008 77.3L69.1008 78.3L70.3008 77.3L73.2008 81L74.4008 80L71.5008 76.4Z" fill="#111111"/>
<path d="M78.8008 73.2C78.2008 72.6 77.5008 72.6 76.8008 72.9L76.1008 73.2C75.6008 73.5 75.3008 73.6 75.1008 73.4C74.9008 73.2 75.1008 72.9 75.1008 72.7C75.4008 72.4 75.8008 72.2 76.2008 72.1L76.0008 71C75.2008 71 74.5008 71.4 74.1008 71.9C73.2008 72.9 73.2008 74.1 73.9008 74.8C74.6008 75.5 75.3008 75.3 75.9008 75.1L76.6008 74.8C77.1008 74.6 77.4008 74.4 77.6008 74.6C77.8008 74.8 77.8008 75 77.4008 75.4C77.1008 75.7 76.6008 76 76.0008 76L76.2008 77.4C77.1008 77.4 77.9008 76.9 78.4008 76.3C79.5008 75.2 79.4008 73.9 78.7008 73.2H78.8008Z" fill="#111111"/>
<path d="M58.2004 42.7H58.0004V46.5H58.3004C59.0004 46.5 59.2004 46.3 59.2004 45.2V43.8C59.2004 42.9 59.0004 42.7 58.2004 42.7ZM58.2004 42.7H58.0004V46.5H58.3004C59.0004 46.5 59.2004 46.3 59.2004 45.2V43.8C59.2004 42.9 59.0004 42.7 58.2004 42.7ZM58.2004 42.7H58.0004V46.5H58.3004C59.0004 46.5 59.2004 46.3 59.2004 45.2V43.8C59.2004 42.9 59.0004 42.7 58.2004 42.7ZM70.1004 43.1C70.1004 43.8 69.8004 48.1 69.7004 49.8H70.7004C70.7004 48.5 70.3004 44 70.2004 43.1H70.1004ZM58.2004 42.7H58.0004V46.5H58.3004C59.0004 46.5 59.2004 46.3 59.2004 45.2V43.8C59.2004 42.9 59.0004 42.7 58.2004 42.7ZM70.1004 43.1C70.1004 43.8 69.8004 48.1 69.7004 49.8H70.7004C70.7004 48.5 70.3004 44 70.2004 43.1H70.1004ZM26.1004 43.1H26.0004C26.0004 43.8 25.7004 48.1 25.6004 49.8H26.6004C26.5004 48.5 26.2004 44 26.1004 43.1ZM58.2004 42.7H58.0004V46.5H58.3004C59.0004 46.5 59.2004 46.3 59.2004 45.2V43.8C59.2004 42.9 59.0004 42.7 58.2004 42.7ZM70.1004 43.1C70.1004 43.8 69.8004 48.1 69.7004 49.8H70.7004C70.7004 48.5 70.3004 44 70.2004 43.1H70.1004ZM26.1004 43.1H26.0004C26.0004 43.8 25.7004 48.1 25.6004 49.8H26.6004C26.5004 48.5 26.2004 44 26.1004 43.1ZM58.2004 42.7H58.0004V46.5H58.3004C59.0004 46.5 59.2004 46.3 59.2004 45.2V43.8C59.2004 42.9 59.0004 42.7 58.2004 42.7ZM70.1004 43.1C70.1004 43.8 69.8004 48.1 69.7004 49.8H70.7004C70.7004 48.5 70.3004 44 70.2004 43.1H70.1004ZM26.1004 43.1H26.0004C26.0004 43.8 25.7004 48.1 25.6004 49.8H26.6004C26.5004 48.5 26.2004 44 26.1004 43.1ZM58.2004 42.7H58.0004V46.5H58.3004C59.0004 46.5 59.2004 46.3 59.2004 45.2V43.8C59.2004 42.9 59.0004 42.7 58.2004 42.7ZM70.1004 43.1C70.1004 43.8 69.8004 48.1 69.7004 49.8H70.7004C70.7004 48.5 70.3004 44 70.2004 43.1H70.1004ZM26.1004 43.1H26.0004C26.0004 43.8 25.7004 48.1 25.6004 49.8H26.6004C26.5004 48.5 26.2004 44 26.1004 43.1ZM58.2004 42.7H58.0004V46.5H58.3004C59.0004 46.5 59.2004 46.3 59.2004 45.2V43.8C59.2004 42.9 59.0004 42.7 58.2004 42.7ZM70.1004 43.1C70.1004 43.8 69.8004 48.1 69.7004 49.8H70.7004C70.7004 48.5 70.3004 44 70.2004 43.1H70.1004ZM26.1004 43.1H26.0004C26.0004 43.8 25.7004 48.1 25.6004 49.8H26.6004C26.5004 48.5 26.2004 44 26.1004 43.1ZM58.2004 42.7H58.0004V46.5H58.3004C59.0004 46.5 59.2004 46.3 59.2004 45.2V43.8C59.2004 42.9 59.0004 42.7 58.2004 42.7ZM70.1004 43.1C70.1004 43.8 69.8004 48.1 69.7004 49.8H70.7004C70.7004 48.5 70.3004 44 70.2004 43.1H70.1004ZM26.1004 43.1H26.0004C26.0004 43.8 25.7004 48.1 25.6004 49.8H26.6004C26.5004 48.5 26.2004 44 26.1004 43.1ZM58.2004 42.7H58.0004V46.5H58.3004C59.0004 46.5 59.2004 46.3 59.2004 45.2V43.8C59.2004 42.9 59.0004 42.7 58.2004 42.7ZM70.1004 43.1C70.1004 43.8 69.8004 48.1 69.7004 49.8H70.7004C70.7004 48.5 70.3004 44 70.2004 43.1H70.1004ZM26.1004 43.1H26.0004C26.0004 43.8 25.7004 48.1 25.6004 49.8H26.6004C26.5004 48.5 26.2004 44 26.1004 43.1ZM58.2004 42.7H58.0004V46.5H58.3004C59.0004 46.5 59.2004 46.3 59.2004 45.2V43.8C59.2004 42.9 59.0004 42.7 58.2004 42.7ZM70.1004 43.1C70.1004 43.8 69.8004 48.1 69.7004 49.8H70.7004C70.7004 48.5 70.3004 44 70.2004 43.1H70.1004ZM26.1004 43.1H26.0004C26.0004 43.8 25.7004 48.1 25.6004 49.8H26.6004C26.5004 48.5 26.2004 44 26.1004 43.1ZM58.2004 42.7H58.0004V46.5H58.3004C59.0004 46.5 59.2004 46.3 59.2004 45.2V43.8C59.2004 42.9 59.0004 42.7 58.2004 42.7ZM70.1004 43.1C70.1004 43.8 69.8004 48.1 69.7004 49.8H70.7004C70.7004 48.5 70.3004 44 70.2004 43.1H70.1004ZM26.1004 43.1H26.0004C26.0004 43.8 25.7004 48.1 25.6004 49.8H26.6004C26.5004 48.5 26.2004 44 26.1004 43.1ZM58.2004 42.7H58.0004V46.5H58.3004C59.0004 46.5 59.2004 46.3 59.2004 45.2V43.8C59.2004 42.9 59.0004 42.7 58.2004 42.7ZM70.1004 43.1C70.1004 43.8 69.8004 48.1 69.7004 49.8H70.7004C70.7004 48.5 70.3004 44 70.2004 43.1H70.1004ZM26.1004 43.1H26.0004C26.0004 43.8 25.7004 48.1 25.6004 49.8H26.6004C26.5004 48.5 26.2004 44 26.1004 43.1ZM58.2004 42.7H58.0004V46.5H58.3004C59.0004 46.5 59.2004 46.3 59.2004 45.2V43.8C59.2004 42.9 59.0004 42.7 58.2004 42.7ZM70.1004 43.1C70.1004 43.8 69.8004 48.1 69.7004 49.8H70.7004C70.7004 48.5 70.3004 44 70.2004 43.1H70.1004ZM26.1004 43.1H26.0004C26.0004 43.8 25.7004 48.1 25.6004 49.8H26.6004C26.5004 48.5 26.2004 44 26.1004 43.1ZM58.2004 42.7H58.0004V46.5H58.3004C59.0004 46.5 59.2004 46.3 59.2004 45.2V43.8C59.2004 42.9 59.0004 42.7 58.2004 42.7ZM70.1004 43.1C70.1004 43.8 69.8004 48.1 69.7004 49.8H70.7004C70.7004 48.5 70.3004 44 70.2004 43.1H70.1004ZM26.1004 43.1H26.0004C26.0004 43.8 25.7004 48.1 25.6004 49.8H26.6004C26.5004 48.5 26.2004 44 26.1004 43.1ZM58.2004 42.7H58.0004V46.5H58.3004C59.0004 46.5 59.2004 46.3 59.2004 45.2V43.8C59.2004 42.9 59.0004 42.7 58.2004 42.7ZM70.1004 43.1C70.1004 43.8 69.8004 48.1 69.7004 49.8H70.7004C70.7004 48.5 70.3004 44 70.2004 43.1H70.1004ZM26.1004 43.1H26.0004C26.0004 43.8 25.7004 48.1 25.6004 49.8H26.6004C26.5004 48.5 26.2004 44 26.1004 43.1ZM58.2004 42.7H58.0004V46.5H58.3004C59.0004 46.5 59.2004 46.3 59.2004 45.2V43.8C59.2004 42.9 59.0004 42.7 58.2004 42.7ZM70.1004 43.1C70.1004 43.8 69.8004 48.1 69.7004 49.8H70.7004C70.7004 48.5 70.3004 44 70.2004 43.1H70.1004ZM26.1004 43.1H26.0004C26.0004 43.8 25.7004 48.1 25.6004 49.8H26.6004C26.5004 48.5 26.2004 44 26.1004 43.1ZM58.2004 42.7H58.0004V46.5H58.3004C59.0004 46.5 59.2004 46.3 59.2004 45.2V43.8C59.2004 42.9 59.0004 42.7 58.2004 42.7ZM70.1004 43.1C70.1004 43.8 69.8004 48.1 69.7004 49.8H70.7004C70.7004 48.5 70.3004 44 70.2004 43.1H70.1004ZM26.1004 43.1H26.0004C26.0004 43.8 25.7004 48.1 25.6004 49.8H26.6004C26.5004 48.5 26.2004 44 26.1004 43.1ZM58.2004 42.7H58.0004V46.5H58.3004C59.0004 46.5 59.2004 46.3 59.2004 45.2V43.8C59.2004 42.9 59.0004 42.7 58.2004 42.7ZM70.1004 43.1C70.1004 43.8 69.8004 48.1 69.7004 49.8H70.7004C70.7004 48.5 70.3004 44 70.2004 43.1H70.1004ZM26.1004 43.1H26.0004C26.0004 43.8 25.7004 48.1 25.6004 49.8H26.6004C26.5004 48.5 26.2004 44 26.1004 43.1ZM58.2004 42.7H58.0004V46.5H58.3004C59.0004 46.5 59.2004 46.3 59.2004 45.2V43.8C59.2004 42.9 59.0004 42.7 58.2004 42.7ZM70.1004 43.1C70.1004 43.8 69.8004 48.1 69.7004 49.8H70.7004C70.7004 48.5 70.3004 44 70.2004 43.1H70.1004ZM26.1004 43.1H26.0004C26.0004 43.8 25.7004 48.1 25.6004 49.8H26.6004C26.5004 48.5 26.2004 44 26.1004 43.1ZM58.2004 42.7H58.0004V46.5H58.3004C59.0004 46.5 59.2004 46.3 59.2004 45.2V43.8C59.2004 42.9 59.0004 42.7 58.2004 42.7ZM70.1004 43.1C70.1004 43.8 69.8004 48.1 69.7004 49.8H70.7004C70.7004 48.5 70.3004 44 70.2004 43.1H70.1004ZM26.1004 43.1H26.0004C26.0004 43.8 25.7004 48.1 25.6004 49.8H26.6004C26.5004 48.5 26.2004 44 26.1004 43.1ZM58.2004 42.7H58.0004V46.5H58.3004C59.0004 46.5 59.2004 46.3 59.2004 45.2V43.8C59.2004 42.9 59.0004 42.7 58.2004 42.7ZM70.1004 43.1C70.1004 43.8 69.8004 48.1 69.7004 49.8H70.7004C70.7004 48.5 70.3004 44 70.2004 43.1H70.1004ZM26.1004 43.1H26.0004C26.0004 43.8 25.7004 48.1 25.6004 49.8H26.6004C26.5004 48.5 26.2004 44 26.1004 43.1ZM58.2004 42.7H58.0004V46.5H58.3004C59.0004 46.5 59.2004 46.3 59.2004 45.2V43.8C59.2004 42.9 59.0004 42.7 58.2004 42.7ZM70.1004 43.1C70.1004 43.8 69.8004 48.1 69.7004 49.8H70.7004C70.7004 48.5 70.3004 44 70.2004 43.1H70.1004ZM26.1004 43.1H26.0004C26.0004 43.8 25.7004 48.1 25.6004 49.8H26.6004C26.5004 48.5 26.2004 44 26.1004 43.1ZM58.2004 42.7H58.0004V46.5H58.3004C59.0004 46.5 59.2004 46.3 59.2004 45.2V43.8C59.2004 42.9 59.0004 42.7 58.2004 42.7ZM70.1004 43.1C70.1004 43.8 69.8004 48.1 69.7004 49.8H70.7004C70.7004 48.5 70.3004 44 70.2004 43.1H70.1004ZM77.2004 39.7H78.4004C77.9004 37.8 77.2004 36 76.3004 34.2C71.3004 24 60.7004 16.9 48.5004 16.9C36.3004 16.9 25.6004 24 20.5004 34.2C19.6004 35.9 18.9004 37.8 18.4004 39.7H19.0004V56.7H18.5004C19.0004 58.5 19.7004 60.2 20.5004 61.8C25.6004 72.1 36.2004 79.1 48.4004 79.1C60.6004 79.1 71.2004 72 76.3004 61.8C77.1004 60.2 77.8004 58.5 78.3004 56.7H77.2004V39.7ZM54.8004 70.4H42.1004V69.3H54.7004V70.4H54.8004ZM59.4004 67.6H37.5004V66.5H59.4004V67.6ZM61.4004 64.8H35.5004V63.7H61.4004V64.8ZM75.2004 56.7H71.0004L70.8004 53.1H69.5004L69.3004 56.7H65.2004L67.0004 39.7H73.5004L75.2004 56.7ZM63.3004 52.1C63.3004 54.1 63.3004 56.1 63.3004 56.8H59.4004C59.2004 56.5 59.2004 55.3 59.2004 51.4C59.2004 47.5 59.0004 49.6 58.2004 49.6H57.9004V56.8H53.9004V39.8H58.9004C62.2004 39.8 63.3004 41.5 63.3004 44.2V44.8C63.3004 46.7 62.7004 47.7 61.7004 48.2C62.9004 48.7 63.2004 49.6 63.2004 52.1H63.3004ZM46.7004 53.8C47.2004 53.8 47.3004 53.5 47.3004 52.9V39.7H51.5004V52.3C51.5004 55.9 49.8004 56.9 46.7004 56.9C43.6004 56.9 42.0004 55.6 42.0004 52.3V39.7H46.1004V52.9C46.2004 53.5 46.3004 53.8 46.7004 53.8ZM41.4004 20.8H41.6004C42.4004 21.4 43.3004 21.7 44.2004 22C45.1004 22.3 45.9004 22.6 46.8004 22.9C48.0004 23.4 48.9004 24.2 49.5004 25.3C49.5004 25.4 49.5004 25.4 49.5004 25.5C49.3004 25.7 49.1004 25.7 48.9004 25.7C48.6004 25.8 48.3004 25.9 47.9004 26H47.6004C46.9004 25.5 46.1004 25.1 45.4004 24.7C45.4004 24.7 45.4004 24.7 45.2004 24.6C45.9004 25.1 46.6004 25.7 47.3004 26.2C46.3004 26.7 45.5004 27.3 44.7004 28C44.5004 27.8 44.3004 27.6 44.1004 27.4C43.1004 26.5 42.5004 25.3 42.1004 24C41.9004 23.3 41.6004 22.5 41.4004 21.8C41.4004 21.6 41.2004 21.4 41.1004 21.1C41.1004 21 41.3004 20.8 41.3004 20.8H41.4004ZM51.4004 28.4C51.1004 28.5 50.8004 28.5 50.5004 28.6C49.4004 28.9 48.3004 29.3 47.2004 29.7C46.4004 30.1 45.6004 30.5 44.9004 31.1C44.4004 31.4 44.0004 31.8 43.6004 32.2C43.6004 32.2 43.6004 32.2 43.4004 32.2C43.2004 32.2 43.2004 32.2 43.1004 32.2C43.0004 32.2 43.1004 32 43.1004 31.9C43.3004 31.2 43.6004 30.5 43.9004 29.9C44.6004 28.7 45.5004 27.7 46.8004 27C47.6004 26.5 48.5004 26.3 49.3004 26.1C50.5004 25.9 51.6004 25.8 52.8004 25.7C53.8004 25.6 54.9004 25.5 55.9004 25.3C56.3004 25.2 56.8004 25 57.2004 24.9C57.4004 24.8 57.5004 24.8 57.6004 25V25.2C57.0004 25.9 56.6004 26.7 56.1004 27.5C55.6004 28.3 55.2004 29.1 54.6004 29.9C54.0004 30.8 53.1004 31.6 52.2004 32.2C51.3004 32.9 50.3004 33.4 49.1004 33.6C48.5004 33.8 47.9004 33.8 47.3004 33.8C46.7004 33.8 45.9004 33.8 45.2004 33.8C44.5004 33.8 44.4004 33.8 44.0004 34H43.8004C43.3004 34.8 43.0004 35.6 42.8004 36.4C42.8004 36.7 42.6004 36.8 42.4004 36.8C42.2004 36.8 42.1004 36.6 42.2004 36.4C42.4004 35.9 42.5004 35.5 42.7004 35C42.7004 34.7 43.0004 34.4 43.2004 34.1C44.0004 32.7 45.2004 31.5 46.6004 30.6C48.0004 29.7 49.5004 29.1 51.0004 28.5C51.3004 28.5 51.4004 28.5 51.5004 28.3C51.5004 28.3667 51.5004 28.3667 51.5004 28.3L51.4004 28.4ZM31.9004 43.1V39.7H40.0004V43.1H38.0004V56.8H34.0004V43.1H31.9004ZM31.2004 56.7H27.0004L26.8004 53.1H25.5004L25.3004 56.7H21.2004L23.0004 39.7H29.5004L31.2004 56.7ZM70.1004 43.1C70.1004 43.8 69.8004 48.1 69.7004 49.8H70.7004C70.7004 48.5 70.3004 44 70.2004 43.1H70.1004ZM58.2004 42.7H58.0004V46.5H58.3004C59.0004 46.5 59.2004 46.3 59.2004 45.2V43.8C59.2004 42.9 59.0004 42.7 58.2004 42.7ZM26.1004 43.1H26.0004C26.0004 43.8 25.7004 48.1 25.6004 49.8H26.6004C26.5004 48.5 26.2004 44 26.1004 43.1ZM70.1004 43.1C70.1004 43.8 69.8004 48.1 69.7004 49.8H70.7004C70.7004 48.5 70.3004 44 70.2004 43.1H70.1004ZM58.2004 42.7H58.0004V46.5H58.3004C59.0004 46.5 59.2004 46.3 59.2004 45.2V43.8C59.2004 42.9 59.0004 42.7 58.2004 42.7ZM26.1004 43.1H26.0004C26.0004 43.8 25.7004 48.1 25.6004 49.8H26.6004C26.5004 48.5 26.2004 44 26.1004 43.1ZM70.1004 43.1C70.1004 43.8 69.8004 48.1 69.7004 49.8H70.7004C70.7004 48.5 70.3004 44 70.2004 43.1H70.1004ZM58.2004 42.7H58.0004V46.5H58.3004C59.0004 46.5 59.2004 46.3 59.2004 45.2V43.8C59.2004 42.9 59.0004 42.7 58.2004 42.7ZM26.1004 43.1H26.0004C26.0004 43.8 25.7004 48.1 25.6004 49.8H26.6004C26.5004 48.5 26.2004 44 26.1004 43.1ZM70.1004 43.1C70.1004 43.8 69.8004 48.1 69.7004 49.8H70.7004C70.7004 48.5 70.3004 44 70.2004 43.1H70.1004ZM58.2004 42.7H58.0004V46.5H58.3004C59.0004 46.5 59.2004 46.3 59.2004 45.2V43.8C59.2004 42.9 59.0004 42.7 58.2004 42.7ZM26.1004 43.1H26.0004C26.0004 43.8 25.7004 48.1 25.6004 49.8H26.6004C26.5004 48.5 26.2004 44 26.1004 43.1ZM70.1004 43.1C70.1004 43.8 69.8004 48.1 69.7004 49.8H70.7004C70.7004 48.5 70.3004 44 70.2004 43.1H70.1004ZM58.2004 42.7H58.0004V46.5H58.3004C59.0004 46.5 59.2004 46.3 59.2004 45.2V43.8C59.2004 42.9 59.0004 42.7 58.2004 42.7ZM26.1004 43.1H26.0004C26.0004 43.8 25.7004 48.1 25.6004 49.8H26.6004C26.5004 48.5 26.2004 44 26.1004 43.1ZM70.1004 43.1C70.1004 43.8 69.8004 48.1 69.7004 49.8H70.7004C70.7004 48.5 70.3004 44 70.2004 43.1H70.1004ZM58.2004 42.7H58.0004V46.5H58.3004C59.0004 46.5 59.2004 46.3 59.2004 45.2V43.8C59.2004 42.9 59.0004 42.7 58.2004 42.7ZM26.1004 43.1H26.0004C26.0004 43.8 25.7004 48.1 25.6004 49.8H26.6004C26.5004 48.5 26.2004 44 26.1004 43.1ZM70.1004 43.1C70.1004 43.8 69.8004 48.1 69.7004 49.8H70.7004C70.7004 48.5 70.3004 44 70.2004 43.1H70.1004ZM58.2004 42.7H58.0004V46.5H58.3004C59.0004 46.5 59.2004 46.3 59.2004 45.2V43.8C59.2004 42.9 59.0004 42.7 58.2004 42.7ZM26.1004 43.1H26.0004C26.0004 43.8 25.7004 48.1 25.6004 49.8H26.6004C26.5004 48.5 26.2004 44 26.1004 43.1ZM70.1004 43.1C70.1004 43.8 69.8004 48.1 69.7004 49.8H70.7004C70.7004 48.5 70.3004 44 70.2004 43.1H70.1004ZM58.2004 42.7H58.0004V46.5H58.3004C59.0004 46.5 59.2004 46.3 59.2004 45.2V43.8C59.2004 42.9 59.0004 42.7 58.2004 42.7ZM26.1004 43.1H26.0004C26.0004 43.8 25.7004 48.1 25.6004 49.8H26.6004C26.5004 48.5 26.2004 44 26.1004 43.1ZM70.1004 43.1C70.1004 43.8 69.8004 48.1 69.7004 49.8H70.7004C70.7004 48.5 70.3004 44 70.2004 43.1H70.1004ZM58.2004 42.7H58.0004V46.5H58.3004C59.0004 46.5 59.2004 46.3 59.2004 45.2V43.8C59.2004 42.9 59.0004 42.7 58.2004 42.7ZM26.1004 43.1H26.0004C26.0004 43.8 25.7004 48.1 25.6004 49.8H26.6004C26.5004 48.5 26.2004 44 26.1004 43.1ZM70.1004 43.1C70.1004 43.8 69.8004 48.1 69.7004 49.8H70.7004C70.7004 48.5 70.3004 44 70.2004 43.1H70.1004ZM58.2004 42.7H58.0004V46.5H58.3004C59.0004 46.5 59.2004 46.3 59.2004 45.2V43.8C59.2004 42.9 59.0004 42.7 58.2004 42.7ZM26.1004 43.1H26.0004C26.0004 43.8 25.7004 48.1 25.6004 49.8H26.6004C26.5004 48.5 26.2004 44 26.1004 43.1ZM70.1004 43.1C70.1004 43.8 69.8004 48.1 69.7004 49.8H70.7004C70.7004 48.5 70.3004 44 70.2004 43.1H70.1004ZM58.2004 42.7H58.0004V46.5H58.3004C59.0004 46.5 59.2004 46.3 59.2004 45.2V43.8C59.2004 42.9 59.0004 42.7 58.2004 42.7ZM26.1004 43.1H26.0004C26.0004 43.8 25.7004 48.1 25.6004 49.8H26.6004C26.5004 48.5 26.2004 44 26.1004 43.1ZM70.1004 43.1C70.1004 43.8 69.8004 48.1 69.7004 49.8H70.7004C70.7004 48.5 70.3004 44 70.2004 43.1H70.1004ZM58.2004 42.7H58.0004V46.5H58.3004C59.0004 46.5 59.2004 46.3 59.2004 45.2V43.8C59.2004 42.9 59.0004 42.7 58.2004 42.7ZM26.1004 43.1H26.0004C26.0004 43.8 25.7004 48.1 25.6004 49.8H26.6004C26.5004 48.5 26.2004 44 26.1004 43.1ZM70.1004 43.1C70.1004 43.8 69.8004 48.1 69.7004 49.8H70.7004C70.7004 48.5 70.3004 44 70.2004 43.1H70.1004ZM58.2004 42.7H58.0004V46.5H58.3004C59.0004 46.5 59.2004 46.3 59.2004 45.2V43.8C59.2004 42.9 59.0004 42.7 58.2004 42.7ZM26.1004 43.1H26.0004C26.0004 43.8 25.7004 48.1 25.6004 49.8H26.6004C26.5004 48.5 26.2004 44 26.1004 43.1ZM70.1004 43.1C70.1004 43.8 69.8004 48.1 69.7004 49.8H70.7004C70.7004 48.5 70.3004 44 70.2004 43.1H70.1004ZM58.2004 42.7H58.0004V46.5H58.3004C59.0004 46.5 59.2004 46.3 59.2004 45.2V43.8C59.2004 42.9 59.0004 42.7 58.2004 42.7ZM26.1004 43.1H26.0004C26.0004 43.8 25.7004 48.1 25.6004 49.8H26.6004C26.5004 48.5 26.2004 44 26.1004 43.1ZM70.1004 43.1C70.1004 43.8 69.8004 48.1 69.7004 49.8H70.7004C70.7004 48.5 70.3004 44 70.2004 43.1H70.1004ZM58.2004 42.7H58.0004V46.5H58.3004C59.0004 46.5 59.2004 46.3 59.2004 45.2V43.8C59.2004 42.9 59.0004 42.7 58.2004 42.7ZM26.1004 43.1H26.0004C26.0004 43.8 25.7004 48.1 25.6004 49.8H26.6004C26.5004 48.5 26.2004 44 26.1004 43.1ZM70.1004 43.1C70.1004 43.8 69.8004 48.1 69.7004 49.8H70.7004C70.7004 48.5 70.3004 44 70.2004 43.1H70.1004ZM58.2004 42.7H58.0004V46.5H58.3004C59.0004 46.5 59.2004 46.3 59.2004 45.2V43.8C59.2004 42.9 59.0004 42.7 58.2004 42.7ZM26.1004 43.1H26.0004C26.0004 43.8 25.7004 48.1 25.6004 49.8H26.6004C26.5004 48.5 26.2004 44 26.1004 43.1ZM70.1004 43.1C70.1004 43.8 69.8004 48.1 69.7004 49.8H70.7004C70.7004 48.5 70.3004 44 70.2004 43.1H70.1004ZM58.2004 42.7H58.0004V46.5H58.3004C59.0004 46.5 59.2004 46.3 59.2004 45.2V43.8C59.2004 42.9 59.0004 42.7 58.2004 42.7ZM26.1004 43.1H26.0004C26.0004 43.8 25.7004 48.1 25.6004 49.8H26.6004C26.5004 48.5 26.2004 44 26.1004 43.1ZM70.1004 43.1C70.1004 43.8 69.8004 48.1 69.7004 49.8H70.7004C70.7004 48.5 70.3004 44 70.2004 43.1H70.1004ZM58.2004 42.7H58.0004V46.5H58.3004C59.0004 46.5 59.2004 46.3 59.2004 45.2V43.8C59.2004 42.9 59.0004 42.7 58.2004 42.7ZM26.1004 43.1H26.0004C26.0004 43.8 25.7004 48.1 25.6004 49.8H26.6004C26.5004 48.5 26.2004 44 26.1004 43.1ZM70.1004 43.1C70.1004 43.8 69.8004 48.1 69.7004 49.8H70.7004C70.7004 48.5 70.3004 44 70.2004 43.1H70.1004ZM58.2004 42.7H58.0004V46.5H58.3004C59.0004 46.5 59.2004 46.3 59.2004 45.2V43.8C59.2004 42.9 59.0004 42.7 58.2004 42.7ZM26.1004 43.1H26.0004C26.0004 43.8 25.7004 48.1 25.6004 49.8H26.6004C26.5004 48.5 26.2004 44 26.1004 43.1ZM70.1004 43.1C70.1004 43.8 69.8004 48.1 69.7004 49.8H70.7004C70.7004 48.5 70.3004 44 70.2004 43.1H70.1004ZM58.2004 42.7H58.0004V46.5H58.3004C59.0004 46.5 59.2004 46.3 59.2004 45.2V43.8C59.2004 42.9 59.0004 42.7 58.2004 42.7ZM26.1004 43.1H26.0004C26.0004 43.8 25.7004 48.1 25.6004 49.8H26.6004C26.5004 48.5 26.2004 44 26.1004 43.1ZM70.1004 43.1C70.1004 43.8 69.8004 48.1 69.7004 49.8H70.7004C70.7004 48.5 70.3004 44 70.2004 43.1H70.1004ZM58.2004 42.7H58.0004V46.5H58.3004C59.0004 46.5 59.2004 46.3 59.2004 45.2V43.8C59.2004 42.9 59.0004 42.7 58.2004 42.7ZM26.1004 43.1H26.0004C26.0004 43.8 25.7004 48.1 25.6004 49.8H26.6004C26.5004 48.5 26.2004 44 26.1004 43.1ZM70.1004 43.1C70.1004 43.8 69.8004 48.1 69.7004 49.8H70.7004C70.7004 48.5 70.3004 44 70.2004 43.1H70.1004ZM58.2004 42.7H58.0004V46.5H58.3004C59.0004 46.5 59.2004 46.3 59.2004 45.2V43.8C59.2004 42.9 59.0004 42.7 58.2004 42.7ZM70.1004 43.1C70.1004 43.8 69.8004 48.1 69.7004 49.8H70.7004C70.7004 48.5 70.3004 44 70.2004 43.1H70.1004ZM58.2004 42.7H58.0004V46.5H58.3004C59.0004 46.5 59.2004 46.3 59.2004 45.2V43.8C59.2004 42.9 59.0004 42.7 58.2004 42.7Z" fill="#111111"/>
<path d="M58.2008 42.7H58.0008V46.5H58.3008C59.0008 46.5 59.2008 46.3 59.2008 45.2V43.7999C59.2008 42.9 59.0008 42.7 58.2008 42.7ZM58.2008 42.7H58.0008V46.5H58.3008C59.0008 46.5 59.2008 46.3 59.2008 45.2V43.7999C59.2008 42.9 59.0008 42.7 58.2008 42.7ZM58.2008 42.7H58.0008V46.5H58.3008C59.0008 46.5 59.2008 46.3 59.2008 45.2V43.7999C59.2008 42.9 59.0008 42.7 58.2008 42.7ZM70.1008 43.0999C70.1008 43.7999 69.8008 48.0999 69.7008 49.7999H70.7008C70.7008 48.4999 70.3008 43.9999 70.2008 43.0999H70.1008ZM70.1008 43.0999C70.1008 43.7999 69.8008 48.0999 69.7008 49.7999H70.7008C70.7008 48.4999 70.3008 43.9999 70.2008 43.0999H70.1008ZM58.2008 42.7H58.0008V46.5H58.3008C59.0008 46.5 59.2008 46.3 59.2008 45.2V43.7999C59.2008 42.9 59.0008 42.7 58.2008 42.7ZM26.1008 43.0999H26.0008C26.0008 43.7999 25.7008 48.0999 25.6008 49.7999H26.6008C26.5008 48.4999 26.2008 43.9999 26.1008 43.0999ZM58.2008 42.7H58.0008V46.5H58.3008C59.0008 46.5 59.2008 46.3 59.2008 45.2V43.7999C59.2008 42.9 59.0008 42.7 58.2008 42.7ZM70.1008 43.0999C70.1008 43.7999 69.8008 48.0999 69.7008 49.7999H70.7008C70.7008 48.4999 70.3008 43.9999 70.2008 43.0999H70.1008ZM70.1008 43.0999C70.1008 43.7999 69.8008 48.0999 69.7008 49.7999H70.7008C70.7008 48.4999 70.3008 43.9999 70.2008 43.0999H70.1008ZM58.2008 42.7H58.0008V46.5H58.3008C59.0008 46.5 59.2008 46.3 59.2008 45.2V43.7999C59.2008 42.9 59.0008 42.7 58.2008 42.7ZM26.1008 43.0999H26.0008C26.0008 43.7999 25.7008 48.0999 25.6008 49.7999H26.6008C26.5008 48.4999 26.2008 43.9999 26.1008 43.0999ZM26.1008 43.0999H26.0008C26.0008 43.7999 25.7008 48.0999 25.6008 49.7999H26.6008C26.5008 48.4999 26.2008 43.9999 26.1008 43.0999ZM58.2008 42.7H58.0008V46.5H58.3008C59.0008 46.5 59.2008 46.3 59.2008 45.2V43.7999C59.2008 42.9 59.0008 42.7 58.2008 42.7ZM70.1008 43.0999C70.1008 43.7999 69.8008 48.0999 69.7008 49.7999H70.7008C70.7008 48.4999 70.3008 43.9999 70.2008 43.0999H70.1008ZM70.1008 43.0999C70.1008 43.7999 69.8008 48.0999 69.7008 49.7999H70.7008C70.7008 48.4999 70.3008 43.9999 70.2008 43.0999H70.1008ZM58.2008 42.7H58.0008V46.5H58.3008C59.0008 46.5 59.2008 46.3 59.2008 45.2V43.7999C59.2008 42.9 59.0008 42.7 58.2008 42.7ZM26.1008 43.0999H26.0008C26.0008 43.7999 25.7008 48.0999 25.6008 49.7999H26.6008C26.5008 48.4999 26.2008 43.9999 26.1008 43.0999ZM26.1008 43.0999H26.0008C26.0008 43.7999 25.7008 48.0999 25.6008 49.7999H26.6008C26.5008 48.4999 26.2008 43.9999 26.1008 43.0999ZM58.2008 42.7H58.0008V46.5H58.3008C59.0008 46.5 59.2008 46.3 59.2008 45.2V43.7999C59.2008 42.9 59.0008 42.7 58.2008 42.7ZM70.1008 43.0999C70.1008 43.7999 69.8008 48.0999 69.7008 49.7999H70.7008C70.7008 48.4999 70.3008 43.9999 70.2008 43.0999H70.1008ZM70.1008 43.0999C70.1008 43.7999 69.8008 48.0999 69.7008 49.7999H70.7008C70.7008 48.4999 70.3008 43.9999 70.2008 43.0999H70.1008ZM58.2008 42.7H58.0008V46.5H58.3008C59.0008 46.5 59.2008 46.3 59.2008 45.2V43.7999C59.2008 42.9 59.0008 42.7 58.2008 42.7ZM26.1008 43.0999H26.0008C26.0008 43.7999 25.7008 48.0999 25.6008 49.7999H26.6008C26.5008 48.4999 26.2008 43.9999 26.1008 43.0999ZM26.1008 43.0999H26.0008C26.0008 43.7999 25.7008 48.0999 25.6008 49.7999H26.6008C26.5008 48.4999 26.2008 43.9999 26.1008 43.0999ZM58.2008 42.7H58.0008V46.5H58.3008C59.0008 46.5 59.2008 46.3 59.2008 45.2V43.7999C59.2008 42.9 59.0008 42.7 58.2008 42.7ZM70.1008 43.0999C70.1008 43.7999 69.8008 48.0999 69.7008 49.7999H70.7008C70.7008 48.4999 70.3008 43.9999 70.2008 43.0999H70.1008ZM70.1008 43.0999C70.1008 43.7999 69.8008 48.0999 69.7008 49.7999H70.7008C70.7008 48.4999 70.3008 43.9999 70.2008 43.0999H70.1008ZM58.2008 42.7H58.0008V46.5H58.3008C59.0008 46.5 59.2008 46.3 59.2008 45.2V43.7999C59.2008 42.9 59.0008 42.7 58.2008 42.7ZM26.1008 43.0999H26.0008C26.0008 43.7999 25.7008 48.0999 25.6008 49.7999H26.6008C26.5008 48.4999 26.2008 43.9999 26.1008 43.0999ZM26.1008 43.0999H26.0008C26.0008 43.7999 25.7008 48.0999 25.6008 49.7999H26.6008C26.5008 48.4999 26.2008 43.9999 26.1008 43.0999ZM58.2008 42.7H58.0008V46.5H58.3008C59.0008 46.5 59.2008 46.3 59.2008 45.2V43.7999C59.2008 42.9 59.0008 42.7 58.2008 42.7ZM70.1008 43.0999C70.1008 43.7999 69.8008 48.0999 69.7008 49.7999H70.7008C70.7008 48.4999 70.3008 43.9999 70.2008 43.0999H70.1008ZM70.1008 43.0999C70.1008 43.7999 69.8008 48.0999 69.7008 49.7999H70.7008C70.7008 48.4999 70.3008 43.9999 70.2008 43.0999H70.1008ZM58.2008 42.7H58.0008V46.5H58.3008C59.0008 46.5 59.2008 46.3 59.2008 45.2V43.7999C59.2008 42.9 59.0008 42.7 58.2008 42.7ZM26.1008 43.0999H26.0008C26.0008 43.7999 25.7008 48.0999 25.6008 49.7999H26.6008C26.5008 48.4999 26.2008 43.9999 26.1008 43.0999ZM26.1008 43.0999H26.0008C26.0008 43.7999 25.7008 48.0999 25.6008 49.7999H26.6008C26.5008 48.4999 26.2008 43.9999 26.1008 43.0999ZM58.2008 42.7H58.0008V46.5H58.3008C59.0008 46.5 59.2008 46.3 59.2008 45.2V43.7999C59.2008 42.9 59.0008 42.7 58.2008 42.7ZM70.1008 43.0999C70.1008 43.7999 69.8008 48.0999 69.7008 49.7999H70.7008C70.7008 48.4999 70.3008 43.9999 70.2008 43.0999H70.1008ZM70.1008 43.0999C70.1008 43.7999 69.8008 48.0999 69.7008 49.7999H70.7008C70.7008 48.4999 70.3008 43.9999 70.2008 43.0999H70.1008ZM58.2008 42.7H58.0008V46.5H58.3008C59.0008 46.5 59.2008 46.3 59.2008 45.2V43.7999C59.2008 42.9 59.0008 42.7 58.2008 42.7ZM26.1008 43.0999H26.0008C26.0008 43.7999 25.7008 48.0999 25.6008 49.7999H26.6008C26.5008 48.4999 26.2008 43.9999 26.1008 43.0999ZM26.1008 43.0999H26.0008C26.0008 43.7999 25.7008 48.0999 25.6008 49.7999H26.6008C26.5008 48.4999 26.2008 43.9999 26.1008 43.0999ZM58.2008 42.7H58.0008V46.5H58.3008C59.0008 46.5 59.2008 46.3 59.2008 45.2V43.7999C59.2008 42.9 59.0008 42.7 58.2008 42.7ZM70.1008 43.0999C70.1008 43.7999 69.8008 48.0999 69.7008 49.7999H70.7008C70.7008 48.4999 70.3008 43.9999 70.2008 43.0999H70.1008ZM70.1008 43.0999C70.1008 43.7999 69.8008 48.0999 69.7008 49.7999H70.7008C70.7008 48.4999 70.3008 43.9999 70.2008 43.0999H70.1008ZM58.2008 42.7H58.0008V46.5H58.3008C59.0008 46.5 59.2008 46.3 59.2008 45.2V43.7999C59.2008 42.9 59.0008 42.7 58.2008 42.7ZM26.1008 43.0999H26.0008C26.0008 43.7999 25.7008 48.0999 25.6008 49.7999H26.6008C26.5008 48.4999 26.2008 43.9999 26.1008 43.0999ZM26.1008 43.0999H26.0008C26.0008 43.7999 25.7008 48.0999 25.6008 49.7999H26.6008C26.5008 48.4999 26.2008 43.9999 26.1008 43.0999ZM58.2008 42.7H58.0008V46.5H58.3008C59.0008 46.5 59.2008 46.3 59.2008 45.2V43.7999C59.2008 42.9 59.0008 42.7 58.2008 42.7ZM70.1008 43.0999C70.1008 43.7999 69.8008 48.0999 69.7008 49.7999H70.7008C70.7008 48.4999 70.3008 43.9999 70.2008 43.0999H70.1008ZM70.1008 43.0999C70.1008 43.7999 69.8008 48.0999 69.7008 49.7999H70.7008C70.7008 48.4999 70.3008 43.9999 70.2008 43.0999H70.1008ZM58.2008 42.7H58.0008V46.5H58.3008C59.0008 46.5 59.2008 46.3 59.2008 45.2V43.7999C59.2008 42.9 59.0008 42.7 58.2008 42.7ZM26.1008 43.0999H26.0008C26.0008 43.7999 25.7008 48.0999 25.6008 49.7999H26.6008C26.5008 48.4999 26.2008 43.9999 26.1008 43.0999ZM26.1008 43.0999H26.0008C26.0008 43.7999 25.7008 48.0999 25.6008 49.7999H26.6008C26.5008 48.4999 26.2008 43.9999 26.1008 43.0999ZM58.2008 42.7H58.0008V46.5H58.3008C59.0008 46.5 59.2008 46.3 59.2008 45.2V43.7999C59.2008 42.9 59.0008 42.7 58.2008 42.7ZM70.1008 43.0999C70.1008 43.7999 69.8008 48.0999 69.7008 49.7999H70.7008C70.7008 48.4999 70.3008 43.9999 70.2008 43.0999H70.1008ZM70.1008 43.0999C70.1008 43.7999 69.8008 48.0999 69.7008 49.7999H70.7008C70.7008 48.4999 70.3008 43.9999 70.2008 43.0999H70.1008ZM58.2008 42.7H58.0008V46.5H58.3008C59.0008 46.5 59.2008 46.3 59.2008 45.2V43.7999C59.2008 42.9 59.0008 42.7 58.2008 42.7ZM26.1008 43.0999H26.0008C26.0008 43.7999 25.7008 48.0999 25.6008 49.7999H26.6008C26.5008 48.4999 26.2008 43.9999 26.1008 43.0999ZM26.1008 43.0999H26.0008C26.0008 43.7999 25.7008 48.0999 25.6008 49.7999H26.6008C26.5008 48.4999 26.2008 43.9999 26.1008 43.0999ZM58.2008 42.7H58.0008V46.5H58.3008C59.0008 46.5 59.2008 46.3 59.2008 45.2V43.7999C59.2008 42.9 59.0008 42.7 58.2008 42.7ZM70.1008 43.0999C70.1008 43.7999 69.8008 48.0999 69.7008 49.7999H70.7008C70.7008 48.4999 70.3008 43.9999 70.2008 43.0999H70.1008ZM70.1008 43.0999C70.1008 43.7999 69.8008 48.0999 69.7008 49.7999H70.7008C70.7008 48.4999 70.3008 43.9999 70.2008 43.0999H70.1008ZM58.2008 42.7H58.0008V46.5H58.3008C59.0008 46.5 59.2008 46.3 59.2008 45.2V43.7999C59.2008 42.9 59.0008 42.7 58.2008 42.7ZM26.1008 43.0999H26.0008C26.0008 43.7999 25.7008 48.0999 25.6008 49.7999H26.6008C26.5008 48.4999 26.2008 43.9999 26.1008 43.0999ZM93.0008 34.2H44.0008C43.5008 35 43.2008 35.7999 43.0008 36.5999C43.0008 36.8999 42.8008 37 42.6008 37C42.4008 37 42.3008 36.7999 42.4008 36.5999C42.6008 36.0999 42.7008 35.7 42.9008 35.2C42.9008 34.9 43.2008 34.5999 43.4008 34.2999H3.90078C2.50078 38.6999 1.80078 43.2999 1.80078 48.0999C1.80078 52.8999 2.50078 57.5 3.90078 61.9H92.9008C94.3008 57.5 95.0008 52.8999 95.0008 48.0999C95.0008 43.2999 94.3008 38.6 93.0008 34.2ZM14.5008 56.7C14.3008 55.2 13.1008 47.4 13.0008 46.7999H12.8008C12.9008 48.6999 13.3008 54.2999 13.3008 56.2999V56.7H9.70078V39.7H13.9008C14.3008 41.6 15.6008 48.3 15.7008 49H15.9008C15.6008 46.3 15.3008 41.8999 15.3008 40.2999V39.7H19.1008V56.7H14.5008ZM27.0008 56.7L26.8008 53.0999H25.5008L25.3008 56.7H21.2008L23.0008 39.7H29.5008L31.3008 56.7H27.0008ZM39.9008 43.0999H37.9008V56.7999H33.9008V43.0999H31.9008V39.7H40.0008V43.0999H39.9008ZM51.5008 52.2999C51.5008 55.9 49.8008 56.9 46.7008 56.9C43.6008 56.9 42.0008 55.5999 42.0008 52.2999V39.7H46.1008V52.9C46.1008 53.5 46.3008 53.7999 46.6008 53.7999C47.1008 53.7999 47.2008 53.5 47.2008 52.9V39.7H51.4008V52.2999H51.5008ZM63.4008 44.7C63.4008 46.6 62.8008 47.5999 61.8008 48.0999C63.0008 48.6999 63.4008 49.5999 63.4008 52.0999C63.4008 54.5999 63.4008 56.0999 63.4008 56.7999H59.5008C59.3008 56.5 59.3008 55.3 59.3008 51.4C59.3008 47.5 59.1008 49.5999 58.3008 49.5999H57.9008V56.7999H53.9008V39.7999H58.9008C62.2008 39.7999 63.3008 41.5 63.3008 44.2C63.3008 44.1 63.3008 44.7 63.3008 44.7H63.4008ZM71.0008 56.7L70.8008 53.0999H69.5008L69.3008 56.7H65.2008L67.0008 39.7H73.5008L75.3008 56.7H71.0008ZM84.7008 56.7H77.2008V39.7H81.3008V53.2999H85.1008L84.7008 56.7ZM70.0008 43.0999C70.0008 43.7999 69.7008 48.0999 69.6008 49.7999H70.6008C70.6008 48.4999 70.2008 43.9999 70.1008 43.0999H70.0008ZM58.2008 42.7H58.0008V46.5H58.3008C59.0008 46.5 59.2008 46.3 59.2008 45.2V43.7999C59.2008 42.9 59.0008 42.7 58.2008 42.7ZM26.0008 43.0999C26.0008 43.7999 25.7008 48.0999 25.6008 49.7999H26.6008C26.5008 48.4999 26.2008 43.9999 26.1008 43.0999H26.0008ZM26.1008 43.0999H26.0008C26.0008 43.7999 25.7008 48.0999 25.6008 49.7999H26.6008C26.5008 48.4999 26.2008 43.9999 26.1008 43.0999ZM58.2008 42.7H58.0008V46.5H58.3008C59.0008 46.5 59.2008 46.3 59.2008 45.2V43.7999C59.2008 42.9 59.0008 42.7 58.2008 42.7ZM70.1008 43.0999C70.1008 43.7999 69.8008 48.0999 69.7008 49.7999H70.7008C70.7008 48.4999 70.3008 43.9999 70.2008 43.0999H70.1008ZM70.1008 43.0999C70.1008 43.7999 69.8008 48.0999 69.7008 49.7999H70.7008C70.7008 48.4999 70.3008 43.9999 70.2008 43.0999H70.1008ZM58.2008 42.7H58.0008V46.5H58.3008C59.0008 46.5 59.2008 46.3 59.2008 45.2V43.7999C59.2008 42.9 59.0008 42.7 58.2008 42.7ZM26.1008 43.0999H26.0008C26.0008 43.7999 25.7008 48.0999 25.6008 49.7999H26.6008C26.5008 48.4999 26.2008 43.9999 26.1008 43.0999ZM26.1008 43.0999H26.0008C26.0008 43.7999 25.7008 48.0999 25.6008 49.7999H26.6008C26.5008 48.4999 26.2008 43.9999 26.1008 43.0999ZM58.2008 42.7H58.0008V46.5H58.3008C59.0008 46.5 59.2008 46.3 59.2008 45.2V43.7999C59.2008 42.9 59.0008 42.7 58.2008 42.7ZM70.1008 43.0999C70.1008 43.7999 69.8008 48.0999 69.7008 49.7999H70.7008C70.7008 48.4999 70.3008 43.9999 70.2008 43.0999H70.1008ZM70.1008 43.0999C70.1008 43.7999 69.8008 48.0999 69.7008 49.7999H70.7008C70.7008 48.4999 70.3008 43.9999 70.2008 43.0999H70.1008ZM58.2008 42.7H58.0008V46.5H58.3008C59.0008 46.5 59.2008 46.3 59.2008 45.2V43.7999C59.2008 42.9 59.0008 42.7 58.2008 42.7ZM26.1008 43.0999H26.0008C26.0008 43.7999 25.7008 48.0999 25.6008 49.7999H26.6008C26.5008 48.4999 26.2008 43.9999 26.1008 43.0999ZM26.1008 43.0999H26.0008C26.0008 43.7999 25.7008 48.0999 25.6008 49.7999H26.6008C26.5008 48.4999 26.2008 43.9999 26.1008 43.0999ZM58.2008 42.7H58.0008V46.5H58.3008C59.0008 46.5 59.2008 46.3 59.2008 45.2V43.7999C59.2008 42.9 59.0008 42.7 58.2008 42.7ZM70.1008 43.0999C70.1008 43.7999 69.8008 48.0999 69.7008 49.7999H70.7008C70.7008 48.4999 70.3008 43.9999 70.2008 43.0999H70.1008ZM70.1008 43.0999C70.1008 43.7999 69.8008 48.0999 69.7008 49.7999H70.7008C70.7008 48.4999 70.3008 43.9999 70.2008 43.0999H70.1008ZM58.2008 42.7H58.0008V46.5H58.3008C59.0008 46.5 59.2008 46.3 59.2008 45.2V43.7999C59.2008 42.9 59.0008 42.7 58.2008 42.7ZM26.1008 43.0999H26.0008C26.0008 43.7999 25.7008 48.0999 25.6008 49.7999H26.6008C26.5008 48.4999 26.2008 43.9999 26.1008 43.0999ZM26.1008 43.0999H26.0008C26.0008 43.7999 25.7008 48.0999 25.6008 49.7999H26.6008C26.5008 48.4999 26.2008 43.9999 26.1008 43.0999ZM58.2008 42.7H58.0008V46.5H58.3008C59.0008 46.5 59.2008 46.3 59.2008 45.2V43.7999C59.2008 42.9 59.0008 42.7 58.2008 42.7ZM70.1008 43.0999C70.1008 43.7999 69.8008 48.0999 69.7008 49.7999H70.7008C70.7008 48.4999 70.3008 43.9999 70.2008 43.0999H70.1008ZM70.1008 43.0999C70.1008 43.7999 69.8008 48.0999 69.7008 49.7999H70.7008C70.7008 48.4999 70.3008 43.9999 70.2008 43.0999H70.1008ZM58.2008 42.7H58.0008V46.5H58.3008C59.0008 46.5 59.2008 46.3 59.2008 45.2V43.7999C59.2008 42.9 59.0008 42.7 58.2008 42.7ZM26.1008 43.0999H26.0008C26.0008 43.7999 25.7008 48.0999 25.6008 49.7999H26.6008C26.5008 48.4999 26.2008 43.9999 26.1008 43.0999ZM26.1008 43.0999H26.0008C26.0008 43.7999 25.7008 48.0999 25.6008 49.7999H26.6008C26.5008 48.4999 26.2008 43.9999 26.1008 43.0999ZM58.2008 42.7H58.0008V46.5H58.3008C59.0008 46.5 59.2008 46.3 59.2008 45.2V43.7999C59.2008 42.9 59.0008 42.7 58.2008 42.7ZM70.1008 43.0999C70.1008 43.7999 69.8008 48.0999 69.7008 49.7999H70.7008C70.7008 48.4999 70.3008 43.9999 70.2008 43.0999H70.1008ZM70.1008 43.0999C70.1008 43.7999 69.8008 48.0999 69.7008 49.7999H70.7008C70.7008 48.4999 70.3008 43.9999 70.2008 43.0999H70.1008ZM58.2008 42.7H58.0008V46.5H58.3008C59.0008 46.5 59.2008 46.3 59.2008 45.2V43.7999C59.2008 42.9 59.0008 42.7 58.2008 42.7ZM26.1008 43.0999H26.0008C26.0008 43.7999 25.7008 48.0999 25.6008 49.7999H26.6008C26.5008 48.4999 26.2008 43.9999 26.1008 43.0999ZM26.1008 43.0999H26.0008C26.0008 43.7999 25.7008 48.0999 25.6008 49.7999H26.6008C26.5008 48.4999 26.2008 43.9999 26.1008 43.0999ZM58.2008 42.7H58.0008V46.5H58.3008C59.0008 46.5 59.2008 46.3 59.2008 45.2V43.7999C59.2008 42.9 59.0008 42.7 58.2008 42.7ZM70.1008 43.0999C70.1008 43.7999 69.8008 48.0999 69.7008 49.7999H70.7008C70.7008 48.4999 70.3008 43.9999 70.2008 43.0999H70.1008ZM70.1008 43.0999C70.1008 43.7999 69.8008 48.0999 69.7008 49.7999H70.7008C70.7008 48.4999 70.3008 43.9999 70.2008 43.0999H70.1008ZM58.2008 42.7H58.0008V46.5H58.3008C59.0008 46.5 59.2008 46.3 59.2008 45.2V43.7999C59.2008 42.9 59.0008 42.7 58.2008 42.7ZM26.1008 43.0999H26.0008C26.0008 43.7999 25.7008 48.0999 25.6008 49.7999H26.6008C26.5008 48.4999 26.2008 43.9999 26.1008 43.0999ZM26.1008 43.0999H26.0008C26.0008 43.7999 25.7008 48.0999 25.6008 49.7999H26.6008C26.5008 48.4999 26.2008 43.9999 26.1008 43.0999ZM58.2008 42.7H58.0008V46.5H58.3008C59.0008 46.5 59.2008 46.3 59.2008 45.2V43.7999C59.2008 42.9 59.0008 42.7 58.2008 42.7ZM70.1008 43.0999C70.1008 43.7999 69.8008 48.0999 69.7008 49.7999H70.7008C70.7008 48.4999 70.3008 43.9999 70.2008 43.0999H70.1008ZM70.1008 43.0999C70.1008 43.7999 69.8008 48.0999 69.7008 49.7999H70.7008C70.7008 48.4999 70.3008 43.9999 70.2008 43.0999H70.1008ZM58.2008 42.7H58.0008V46.5H58.3008C59.0008 46.5 59.2008 46.3 59.2008 45.2V43.7999C59.2008 42.9 59.0008 42.7 58.2008 42.7ZM26.1008 43.0999H26.0008C26.0008 43.7999 25.7008 48.0999 25.6008 49.7999H26.6008C26.5008 48.4999 26.2008 43.9999 26.1008 43.0999ZM26.1008 43.0999H26.0008C26.0008 43.7999 25.7008 48.0999 25.6008 49.7999H26.6008C26.5008 48.4999 26.2008 43.9999 26.1008 43.0999ZM58.2008 42.7H58.0008V46.5H58.3008C59.0008 46.5 59.2008 46.3 59.2008 45.2V43.7999C59.2008 42.9 59.0008 42.7 58.2008 42.7ZM70.1008 43.0999C70.1008 43.7999 69.8008 48.0999 69.7008 49.7999H70.7008C70.7008 48.4999 70.3008 43.9999 70.2008 43.0999H70.1008ZM70.1008 43.0999C70.1008 43.7999 69.8008 48.0999 69.7008 49.7999H70.7008C70.7008 48.4999 70.3008 43.9999 70.2008 43.0999H70.1008ZM58.2008 42.7H58.0008V46.5H58.3008C59.0008 46.5 59.2008 46.3 59.2008 45.2V43.7999C59.2008 42.9 59.0008 42.7 58.2008 42.7ZM26.1008 43.0999H26.0008C26.0008 43.7999 25.7008 48.0999 25.6008 49.7999H26.6008C26.5008 48.4999 26.2008 43.9999 26.1008 43.0999ZM26.1008 43.0999H26.0008C26.0008 43.7999 25.7008 48.0999 25.6008 49.7999H26.6008C26.5008 48.4999 26.2008 43.9999 26.1008 43.0999ZM58.2008 42.7H58.0008V46.5H58.3008C59.0008 46.5 59.2008 46.3 59.2008 45.2V43.7999C59.2008 42.9 59.0008 42.7 58.2008 42.7ZM70.1008 43.0999C70.1008 43.7999 69.8008 48.0999 69.7008 49.7999H70.7008C70.7008 48.4999 70.3008 43.9999 70.2008 43.0999H70.1008ZM70.1008 43.0999C70.1008 43.7999 69.8008 48.0999 69.7008 49.7999H70.7008C70.7008 48.4999 70.3008 43.9999 70.2008 43.0999H70.1008ZM58.2008 42.7H58.0008V46.5H58.3008C59.0008 46.5 59.2008 46.3 59.2008 45.2V43.7999C59.2008 42.9 59.0008 42.7 58.2008 42.7ZM26.1008 43.0999H26.0008C26.0008 43.7999 25.7008 48.0999 25.6008 49.7999H26.6008C26.5008 48.4999 26.2008 43.9999 26.1008 43.0999ZM26.1008 43.0999H26.0008C26.0008 43.7999 25.7008 48.0999 25.6008 49.7999H26.6008C26.5008 48.4999 26.2008 43.9999 26.1008 43.0999ZM58.2008 42.7H58.0008V46.5H58.3008C59.0008 46.5 59.2008 46.3 59.2008 45.2V43.7999C59.2008 42.9 59.0008 42.7 58.2008 42.7ZM70.1008 43.0999C70.1008 43.7999 69.8008 48.0999 69.7008 49.7999H70.7008C70.7008 48.4999 70.3008 43.9999 70.2008 43.0999H70.1008ZM70.1008 43.0999C70.1008 43.7999 69.8008 48.0999 69.7008 49.7999H70.7008C70.7008 48.4999 70.3008 43.9999 70.2008 43.0999H70.1008ZM58.2008 42.7H58.0008V46.5H58.3008C59.0008 46.5 59.2008 46.3 59.2008 45.2V43.7999C59.2008 42.9 59.0008 42.7 58.2008 42.7ZM26.1008 43.0999H26.0008C26.0008 43.7999 25.7008 48.0999 25.6008 49.7999H26.6008C26.5008 48.4999 26.2008 43.9999 26.1008 43.0999ZM58.2008 42.7H58.0008V46.5H58.3008C59.0008 46.5 59.2008 46.3 59.2008 45.2V43.7999C59.2008 42.9 59.0008 42.7 58.2008 42.7ZM70.1008 43.0999C70.1008 43.7999 69.8008 48.0999 69.7008 49.7999H70.7008C70.7008 48.4999 70.3008 43.9999 70.2008 43.0999H70.1008ZM70.1008 43.0999C70.1008 43.7999 69.8008 48.0999 69.7008 49.7999H70.7008C70.7008 48.4999 70.3008 43.9999 70.2008 43.0999H70.1008ZM58.2008 42.7H58.0008V46.5H58.3008C59.0008 46.5 59.2008 46.3 59.2008 45.2V43.7999C59.2008 42.9 59.0008 42.7 58.2008 42.7Z" fill="#111111"/>
</svg>
