<svg width="96" height="96" viewBox="0 0 96 96" fill="none" xmlns="http://www.w3.org/2000/svg">
<g clip-path="url(#clip0_17174_1380)">
<path d="M48 0C21.5 0 0 21.5 0 48C0 74.5 21.5 96 48 96C74.5 96 96 74.5 96 48C96 21.5 74.5 0 48 0ZM48 94.3C22.5 94.3 1.7 73.5 1.7 48C1.7 22.5 22.5 1.7 48 1.7C73.5 1.7 94.3 22.5 94.3 48C94.3 73.5 73.5 94.3 48 94.3Z" fill="#111111"/>
<path d="M13.0993 58.6L10.3993 59.6L11.1993 61.8L12.3993 61.3L12.0993 60.5L12.8993 60.2C12.9993 60.2 13.0993 60.4 13.1993 60.6C13.5993 61.6 13.1993 62.3 12.0993 62.7C11.0993 63.1 10.1993 62.7 9.9993 62C9.7993 61.5 9.8993 61.2 9.9993 60.9L8.7993 60.4C8.5993 60.9 8.3993 61.7 8.7993 62.5C9.3993 64 10.9993 64.9 12.8993 64.2C14.7993 63.5 15.2993 61.8 14.6993 60.3C14.3993 59.5 13.7993 58.9 13.2993 58.6H13.0993Z" fill="#111111"/>
<path d="M10.4004 58C12.4004 57.6 13.3004 56.3 13.0004 54.7C12.7004 53.1 11.3004 52.2 9.4004 52.5C7.5004 52.9 6.6004 54.2 6.9004 55.8C7.2004 57.4 8.5004 58.3 10.5004 58H10.4004ZM8.2004 55.6C8.1004 54.9 8.6004 54.3 9.7004 54.1C10.8004 53.9 11.5004 54.2 11.7004 54.9C11.8004 55.6 11.2004 56.2 10.2004 56.4C9.1004 56.6 8.4004 56.3 8.3004 55.6H8.2004Z" fill="#111111"/>
<path d="M9.29961 51.1C11.2996 51.1 12.3996 49.9 12.3996 48.2C12.3996 46.5 11.1996 45.4 9.19961 45.4C7.19961 45.4 6.09961 46.6 6.09961 48.3C6.09961 50 7.29961 51.1 9.29961 51.1ZM9.19961 47.1C10.2996 47.1 10.9996 47.5 10.9996 48.2C10.9996 48.9 10.2996 49.4 9.19961 49.4C8.09961 49.4 7.49961 49 7.39961 48.3C7.39961 47.6 7.99961 47.1 9.09961 47.1H9.19961Z" fill="#111111"/>
<path d="M12.7004 42.5001C13.0004 40.8001 12.3004 39.4001 10.2004 39.0001C8.10039 38.6001 7.00039 39.8 6.70039 41.6L6.40039 43.4001L12.4004 44.4001L12.7004 42.5001ZM11.4004 42.5001L8.00039 42.0001C8.20039 41.0001 8.60039 40.4001 10.0004 40.7001C11.4004 40.9001 11.6004 41.7001 11.5004 42.5001H11.4004Z" fill="#111111"/>
<path d="M14.2 31.7L15.8 32.4L16.4 31L10.9 28.6L10.2 30.1L12.1 31.9L12.9 32.6H11.9H9.2C9.2 32.5 8.5 34 8.5 34L14 36.4L14.6 35L13 34.3C12.4 34.1 11.5 33.8 10.9 33.6H12.4H14.6L14.8 33.1L13.3 31.5L12.2 30.5C12.7 30.8 13.5 31.3 14.1 31.5L14.2 31.7Z" fill="#111111"/>
<path d="M17.5996 29.2L16.6996 28.2L17.5996 26.8L18.7996 27.3L19.6996 25.9L13.6996 24.1L12.5996 25.7L16.5996 30.6L17.4996 29.2H17.5996ZM15.7996 27.3L15.4996 27C15.0996 26.6 14.5996 26 14.0996 25.6C14.6996 25.8 15.3996 26.1 15.8996 26.3H16.2996C16.2996 26.4 15.6996 27.4 15.6996 27.4L15.7996 27.3Z" fill="#111111"/>
<path d="M21.3004 24.3L20.0004 23.1C19.5004 22.6 18.7004 22.1001 18.2004 21.7001L19.6004 22.2001L22.5004 23.1L23.6004 21.9L19.2004 17.8L18.2004 18.9L19.5004 20.1C20.0004 20.6 20.8004 21.1 21.3004 21.5L19.9004 21L17.0004 20.1L15.9004 21.3L20.3004 25.4L21.3004 24.3Z" fill="#111111"/>
<path d="M26.7 19.5C28.1 18.5 28.1 17.2 26.9 15.6L25 13.1L23.8 14L25.8 16.7C26.5 17.6 26.4 18.1 25.9 18.4C25.4 18.8 24.9 18.6 24.3 17.8L22.3 15.1L21 16.1L22.9 18.6C24.1 20.2 25.4 20.5 26.7 19.5Z" fill="#111111"/>
<path d="M31.1996 16.5L30.1996 14.5L31.9996 13.6L31.3996 12.4L29.5996 13.3L29.0996 12.3L31.1996 11.2L30.5996 10L27.0996 11.8L29.8996 17.1L31.2996 16.4L31.1996 16.5Z" fill="#111111"/>
<path d="M34.7008 14.8L34.5008 13.5L36.1008 12.9L36.8008 14L38.4008 13.4L34.6008 8.30005L32.8008 9.00005L33.1008 15.3L34.6008 14.7L34.7008 14.8ZM34.2008 9.80005C34.5008 10.3 34.9008 11 35.3008 11.4L35.5008 11.8L34.5008 12.2V11.8C34.4008 11.2 34.3008 10.5 34.2008 9.80005Z" fill="#111111"/>
<path d="M41.6008 12.9C42.3008 12.8 43.0008 12.3 43.3008 11.6L42.3008 10.8C42.1008 11.1 41.8008 11.4 41.4008 11.5C40.6008 11.7 40.0008 11.1 39.8008 10C39.6008 8.90001 40.1008 8.20001 40.8008 8.00001C41.2008 8.00001 41.5008 8.00001 41.8008 8.20001L42.5008 7.10001C42.0008 6.80001 41.3008 6.50001 40.5008 6.70001C39.0008 7.00001 37.8008 8.40001 38.2008 10.4C38.6008 12.4 40.1008 13.2 41.7008 12.9H41.6008Z" fill="#111111"/>
<path d="M45.2992 7.59998L45.4992 12.3H47.0992L46.8992 7.49998H48.4992V6.09998L43.6992 6.29998V7.59998H45.3992H45.2992Z" fill="#111111"/>
<path d="M52.0997 12.6C53.7997 12.8 54.6997 11.9 54.8997 9.89995L55.2997 6.79995L53.7997 6.59995L53.3997 9.89995C53.2997 11 52.8997 11.3 52.2997 11.3C51.6997 11.3 51.3997 10.8 51.5997 9.69995L51.9997 6.39995L50.3997 6.19995L50.0997 9.29995C49.8997 11.3 50.5997 12.4 52.1997 12.6H52.0997Z" fill="#111111"/>
<path d="M58.0008 11.6L58.6008 11.8L59.0008 14L60.7008 14.5L60.1008 11.9C60.8008 11.8 61.3008 11.3 61.5008 10.5C61.9008 9.10005 61.0008 8.30005 59.7008 7.90005L57.5008 7.30005L55.8008 13.1L57.3008 13.5L57.9008 11.5L58.0008 11.6ZM58.7008 8.90005L59.3008 9.10005C59.9008 9.30005 60.2008 9.50005 60.0008 10C59.8008 10.5 59.5008 10.7 58.8008 10.5L58.3008 10.3L58.7008 8.90005Z" fill="#111111"/>
<path d="M63 15.5L65.4 10L63.9 9.40002L61.5 14.9L63 15.5Z" fill="#111111"/>
<path d="M65.6008 16.9L66.5008 15.4C66.9008 14.8 67.2008 13.9 67.5008 13.3L67.3008 14.8L67.1008 17.8L68.5008 18.6L71.6008 13.4L70.3008 12.6L69.4008 14.1C69.0008 14.7 68.7008 15.6 68.4008 16.2L68.6008 14.7L68.8008 11.7L67.4008 10.9L64.3008 16.1L65.6008 16.9Z" fill="#111111"/>
<path d="M71.6004 21.3C72.3004 21.9 73.1004 22.1 73.7004 22.1L75.6004 19.9L73.9004 18.4L73.0004 19.4L73.7004 20L73.2004 20.6C73.1004 20.6 72.9004 20.5 72.8004 20.4C72.0004 19.7 72.0004 18.9 72.8004 18C73.5004 17.2 74.4004 17.1 75.0004 17.6C75.4004 17.9 75.5004 18.2 75.5004 18.6L76.8004 18.4C76.8004 17.8 76.5004 17.1 75.9004 16.5C74.6004 15.4 72.8004 15.4 71.5004 16.9C70.1004 18.5 70.5004 20.1 71.8004 21.2L71.6004 21.3Z" fill="#111111"/>
<path d="M75.5008 25.1L76.4008 26.4L77.9008 25.3L78.3008 25.9C79.0008 26.9 80.2008 27.5 81.4008 26.6C82.6008 25.7 82.4008 24.5 81.6008 23.5L80.2008 21.6L75.3008 25.2L75.5008 25.1ZM80.7008 25.3C80.3008 25.6 79.8008 25.6 79.5008 25.1L79.1008 24.6L80.4008 23.7L80.8008 24.2C81.1008 24.7 81.2008 25.1 80.8008 25.4L80.7008 25.3Z" fill="#111111"/>
<path d="M79.6004 31.2L81.4004 30.3L81.7004 30.8L80.4004 32.7L81.2004 34.3L82.7004 32.1C83.2004 32.5 83.9004 32.6 84.7004 32.1C86.0004 31.4 85.9004 30.2 85.3004 29.1L84.3004 27.1L78.9004 29.8L79.6004 31.2ZM83.8004 29.1L84.1004 29.6C84.4004 30.2 84.4004 30.5 83.9004 30.8C83.4004 31 83.0004 30.8 82.7004 30.3L82.4004 29.8L83.7004 29.1H83.8004Z" fill="#111111"/>
<path d="M82.9992 35.8L83.4992 37.4001L82.3992 38.1L82.8992 39.7001L88.0992 36.1L87.4992 34.3H81.1992C81.1992 34.4 81.6992 36 81.6992 36H82.9992V35.8ZM84.5992 35.6C85.1992 35.6 85.8992 35.5001 86.5992 35.4001C86.0992 35.8001 85.3992 36.1001 84.8992 36.4001L84.4992 36.6L84.1992 35.5H84.5992V35.6Z" fill="#111111"/>
<path d="M85.7997 39.5C83.7997 39.8 82.9997 41.3 83.1997 42.9C83.2997 43.6 83.6997 44.3 84.3997 44.7L85.1997 43.7C84.8997 43.5 84.5997 43.2 84.4997 42.7C84.3997 41.9 84.8997 41.3 85.9997 41.1C87.0997 40.9 87.7997 41.4 87.8997 42.1C87.8997 42.5 87.8997 42.8 87.5997 43.1L88.6997 43.8C89.0997 43.3 89.2997 42.6 89.1997 41.8C88.8997 40.3 87.5997 39.1 85.5997 39.4L85.7997 39.5Z" fill="#111111"/>
<path d="M88.3992 46.6H83.6992V48.3H88.3992V49.8H89.6992V45H88.3992V46.6Z" fill="#111111"/>
<path d="M83.5 52.5L89.5 53.1L89.7 51.5L83.7 50.9L83.5 52.5Z" fill="#111111"/>
<path d="M86.2999 54.3C84.2999 53.8 82.9999 54.9 82.5999 56.5C82.3999 57.2 82.5999 58 82.9999 58.6L84.0999 58C83.8999 57.7 83.7999 57.3 83.8999 56.9C84.0999 56.1 84.7999 55.8 85.8999 56C86.9999 56.2 87.4999 57 87.2999 57.7C87.2999 58.1 86.9999 58.3 86.6999 58.5L87.4999 59.6C87.9999 59.3 88.4999 58.7 88.6999 58C88.9999 56.5 88.1999 54.9 86.1999 54.4L86.2999 54.3Z" fill="#111111"/>
<path d="M80.5 63L81.7 63.5L82.6 61.3L83.6 61.7001L82.9 63.5L84.2 64L84.9 62.2001L85.8 62.5L85 64.6L86.2 65.1L87.6 61.5L82 59.3L80.5 63Z" fill="#111111"/>
<path d="M28.7998 77.9C27.4998 77 25.6998 77.2 24.5998 78.9C23.3998 80.6 23.9998 82.2 25.2998 83.1C25.8998 83.5 26.6998 83.6 27.3998 83.4L27.1998 82.1C26.7998 82.1 26.3998 82.1 25.9998 81.9C25.2998 81.5 25.2998 80.6 25.8998 79.7C26.4998 78.8 27.3998 78.6 27.9998 79C28.2998 79.2 28.4998 79.5 28.5998 79.9L29.8998 79.6C29.7998 79 29.3998 78.3 28.7998 77.9Z" fill="#111111"/>
<path d="M29.2 85.2L32.8 86.8L33.3 85.6L31.1 84.6L31.5 83.6L33.3 84.4L33.9 83.2L32.1 82.4L32.5 81.5L34.6 82.4L35.1 81.2L31.5 79.6L29 85.1L29.2 85.2Z" fill="#111111"/>
<path d="M39.2996 82.5L37.0996 81.9L35.5996 87.8L37.1996 88.2L37.6996 86.2L38.2996 86.4L38.7996 88.6L40.4996 89L39.7996 86.4C40.3996 86.2 40.9996 85.8 41.1996 84.9C41.5996 83.4 40.5996 82.7 39.2996 82.4V82.5ZM39.5996 84.6C39.4996 85.1 39.0996 85.3 38.4996 85.1H37.8996C37.8996 85 38.2996 83.5 38.2996 83.5H38.8996C39.4996 83.8 39.7996 84 39.6996 84.5L39.5996 84.6Z" fill="#111111"/>
<path d="M42.5996 84.6H44.1996C44.1996 84.7 43.7996 89.4 43.7996 89.4H45.3996C45.3996 89.5 45.7996 84.8 45.7996 84.8H47.3996C47.3996 84.9 47.4996 83.6 47.4996 83.6L42.6996 83.2V84.5L42.5996 84.6Z" fill="#111111"/>
<path d="M50.5004 83.5H48.9004L49.2004 89.6H50.8004L50.5004 83.5Z" fill="#111111"/>
<path d="M56.3008 85.2L54.3008 85.5L54.1008 84.4L56.4008 84L56.2008 82.7L52.3008 83.4L53.3008 89.4L54.9008 89.1L54.5008 86.9L56.5008 86.6L56.3008 85.3V85.2Z" fill="#111111"/>
<path d="M57.5996 82.3L59.3996 88.1L60.8996 87.6L59.0996 81.8L57.5996 82.3Z" fill="#111111"/>
<path d="M64.3004 84.9L63.9004 83.9L65.7004 83.1L65.2004 81.9L63.4004 82.7L63.0004 81.8L65.1004 80.8L64.5004 79.6L60.9004 81.2L63.4004 86.7L67.0004 85.1L66.5004 83.9L64.3004 84.9Z" fill="#111111"/>
<path d="M67.5996 77.7L66.0996 78.7L69.4996 83.7L70.9996 82.6C72.3996 81.6 72.9996 80.1 71.7996 78.4C70.5996 76.6 69.0996 76.6 67.4996 77.7H67.5996ZM70.2996 81.7L68.2996 78.9C68.9996 78.4 69.7996 78.2 70.5996 79.4C71.3996 80.6 70.9996 81.3 70.2996 81.7Z" fill="#111111"/>
<path d="M20.4998 71.5L18.8998 71.3L18.1998 69.8C18.1998 69.7 17.9998 69.7 17.8998 69.8L17.1998 71.3L15.5998 71.5C15.4998 71.5 15.3998 71.7 15.5998 71.8L16.7998 73L16.4998 74.7C16.4998 74.8 16.5998 74.9 16.6998 74.9L18.0998 74.1L19.4998 74.9C19.5998 74.9 19.7998 74.9 19.6998 74.7L19.3998 73L20.5998 71.8C20.6998 71.8 20.5998 71.6 20.5998 71.5H20.4998Z" fill="#111111"/>
<path d="M80.4998 71.5L78.8998 71.3L78.1998 69.8C78.1998 69.7 77.9998 69.7 77.8998 69.8L77.1998 71.3L75.5998 71.5C75.4998 71.5 75.3998 71.7 75.5998 71.8L76.7998 73L76.4998 74.7C76.4998 74.8 76.5998 74.9 76.6998 74.9L78.0998 74.1L79.4998 74.9C79.5998 74.9 79.7998 74.9 79.6998 74.7L79.3998 73L80.5998 71.8C80.6998 71.8 80.5998 71.6 80.5998 71.5H80.4998Z" fill="#111111"/>
<path d="M79.5 48C79.5 30.6 65.4 16.5 48 16.5C30.6 16.5 16.5 30.6 16.5 48C16.5 65.4 30.6 79.5 48 79.5C65.4 79.5 79.5 65.4 79.5 48ZM38.6 55.2C37.7 56.1 36.6 56.8 35.4 57.4C34.2 58 32.8 58.3 31.2 58.3C29.6 58.3 28.7 58.1 27.5 57.6C26.4 57.1 25.4 56.4 24.6 55.5C23.8 54.6 23.1 53.5 22.7 52.3C22.2 51.1 22 49.7 22 48.2C22 46.7 22.2 45.4 22.7 44.2C23.2 43 23.8 41.9 24.6 41C25.4 40.1 26.4 39.4 27.5 38.8C28.6 38.3 29.8 38 31.1 38C32.4 38 33.9 38.2 35 38.7C36.1 39.2 37.1 39.9 38 40.8L35.2 44.7C34.6 44.1 34 43.7 33.3 43.3C32.7 43 31.9 42.8 31.1 42.8C30.3 42.8 29.9 42.9 29.4 43.2C28.9 43.5 28.4 43.9 28 44.3C27.6 44.8 27.3 45.3 27.1 46C26.9 46.7 26.8 47.3 26.8 48.1C26.8 49 26.9 49.7 27.1 50.3C27.3 51 27.6 51.5 28.1 52C28.5 52.5 29 52.9 29.5 53.1C30.1 53.4 30.7 53.5 31.4 53.5C32.1 53.5 32.5 53.5 32.9 53.3C33.3 53.2 33.7 53 34.1 52.7V50.3H30.8V46.3H38.6V55.1V55.2ZM57.9 57.9H53.2V46.7L48.9 54.3L44.6 46.7V57.9H40V38.4H44.9L48.9 46L52.9 38.4H57.9V57.9ZM66.8 52.3H64.5V57.9H59.8V38.4H67.1C68.2 38.4 69.1 38.6 70 38.9C70.9 39.2 71.6 39.7 72.2 40.2C72.8 40.8 73.3 41.5 73.6 42.3C73.9 43.1 74.1 44.1 74.1 45.2C74.1 46.4 73.9 47.4 73.6 48.3C73.2 49.2 72.7 49.9 72.1 50.5C71.5 51.1 70.7 51.5 69.8 51.8C68.9 52.1 67.9 52.2 66.9 52.2L66.8 52.3Z" fill="#111111"/>
<path d="M66.6004 42.9H64.4004V48.1H66.6004C67.4004 48.1 68.1004 47.9 68.6004 47.4C69.1004 46.9 69.3004 46.3 69.3004 45.5C69.3004 44.6 69.1004 44 68.6004 43.5C68.1004 43.1 67.5004 42.9 66.6004 42.9Z" fill="#111111"/>
</g>
<defs>
<clipPath id="clip0_17174_1380">
<rect width="96" height="96" fill="white"/>
</clipPath>
</defs>
</svg>
