<svg width="56" height="56" viewBox="0 0 56 56" fill="none" xmlns="http://www.w3.org/2000/svg">
<g clip-path="url(#clip0_15147_2093)">
<path d="M8.8667 20.0665C2.17475 31.5466 12.1334 54.4722 12.5551 55.4399C12.7038 55.78 13.0392 56 13.41 56H42.5901C42.9609 56 43.2963 55.78 43.445 55.4399C43.8714 54.4722 53.8254 31.5466 47.1334 20.0665C40.8802 9.35284 42.5508 1.21338 42.5674 1.13605C42.629 0.859619 42.5615 0.570374 42.3846 0.349487C42.2073 0.128601 41.9398 0 41.6566 0H14.3436C14.0607 0 13.7933 0.128174 13.6164 0.348206C13.4391 0.568237 13.3712 0.857056 13.4318 1.13306C13.4493 1.21338 15.1199 9.35284 8.8667 20.0665ZM14.0291 54.1334C12.9213 51.4528 8.29462 39.648 8.43476 29.8043C12.309 29.5624 18.7574 29.7043 21.9212 31.6017C22.8099 32.1319 23.6067 32.5865 24.3377 32.9877C24.348 33.0146 24.3463 33.0436 24.3591 33.071C25.493 35.6268 26.4039 38.2757 27.0828 40.9883C27.0759 41.0139 27.0704 41.0404 27.0665 41.0665V54.1334H14.0291ZM28.0001 37.4362C27.5604 36.0527 27.1413 34.9086 26.8046 34.0545C27.5912 34.2318 28.4077 34.2318 29.1946 34.0545C28.858 34.9069 28.4388 36.0536 28.0001 37.4362ZM41.971 54.1334H28.9336V41.0665C28.9298 41.0404 28.9242 41.0139 28.9174 40.9883C29.5958 38.2757 30.5067 35.6268 31.6402 33.071C31.653 33.0436 31.6513 33.0159 31.6616 32.9885C32.3597 32.6078 33.1655 32.1451 34.0789 31.6008C37.6114 29.4813 44.8122 29.6483 47.5628 29.8013C47.7038 39.6433 43.0789 51.452 41.971 54.1334ZM47.4684 27.9261C44.1551 27.7488 36.9863 27.6808 33.1215 29.9982C31.9961 30.6703 31.0318 31.2172 30.2277 31.6389L30.1606 31.6756L29.9432 31.7875C29.8547 31.8333 29.7706 31.8807 29.668 31.9264C28.6153 32.454 27.3754 32.454 26.3227 31.9264L26.1672 31.8491C26.0112 31.7717 25.8412 31.6876 25.6656 31.5931C24.8555 31.1573 23.9169 30.6216 22.8761 30.0012C18.9142 27.6266 11.4063 27.7731 8.5296 27.9321C8.65863 25.5049 9.32556 23.1375 10.4821 21C10.5637 20.8611 10.6317 20.7274 10.7103 20.5894C11.986 20.8065 13.2289 21.185 14.4089 21.7169C14.7747 21.8652 15.1378 22.0117 15.4971 22.148C16.1393 22.3924 16.7814 22.6522 17.4262 22.9124C18.8032 23.4725 20.2263 24.0454 21.6738 24.4731C23.7361 25.005 25.8621 25.2494 27.9915 25.1998H28.0086C30.1371 25.2507 32.2631 25.0071 34.3254 24.4765C35.7738 24.0493 37.197 23.4733 38.574 22.9162C39.2187 22.6556 39.8608 22.3962 40.503 22.1519C40.8623 22.0156 41.2255 21.8716 41.592 21.7203C42.7712 21.1888 44.0137 20.8099 45.289 20.5933C45.3676 20.7313 45.4355 20.8646 45.5167 21.0038C46.6711 23.1384 47.3381 25.5027 47.4684 27.9261ZM15.4245 1.86664H40.5756C40.3107 4.36517 40.2219 10.7333 44.3435 18.8394C43.1596 19.1163 42.0039 19.5016 40.8905 19.99C40.5367 20.1331 40.1855 20.2703 39.8395 20.4066C39.1862 20.6548 38.5325 20.9205 37.872 21.1859C36.5364 21.7263 35.156 22.2843 33.7944 22.6863C31.9012 23.164 29.9517 23.3819 28.0001 23.3332C26.0475 23.3819 24.0972 23.1644 22.2032 22.6863C20.8424 22.2843 19.462 21.7263 18.1264 21.1859C17.4731 20.9205 16.8139 20.6548 16.1589 20.4066C15.8124 20.275 15.4617 20.1331 15.1079 19.99C13.9945 19.5016 12.8384 19.1163 11.6545 18.8386C15.7783 10.7333 15.6894 4.36517 15.4245 1.86664Z" fill="#F47929"/>
<path d="M28.0004 17.7333C29.5466 17.7333 30.8005 16.4797 30.8005 14.9335C30.8005 14.4178 30.3827 14 29.867 14C29.3517 14 28.9339 14.4178 28.9339 14.9335C28.9339 15.4488 28.5156 15.8666 28.0004 15.8666C27.4851 15.8666 27.0668 15.4488 27.0668 14.9335C27.0668 14.4178 26.649 14 26.1337 14C25.618 14 25.2002 14.4178 25.2002 14.9335C25.2002 16.4797 26.4542 17.7333 28.0004 17.7333Z" fill="#F47929"/>
<path d="M0.933533 10.2668H4.66681V12.1334C4.66681 12.4953 4.87616 12.8247 5.20428 12.9781C5.53198 13.1319 5.91907 13.0819 6.1972 12.8504L11.7975 8.18355C12.0099 8.00624 12.1329 7.74348 12.1329 7.46663C12.1329 7.18977 12.0099 6.92744 11.7975 6.75014L6.1972 2.08333C5.91907 1.85176 5.53198 1.80177 5.20428 1.95515C4.87616 2.10853 4.66681 2.43794 4.66681 2.80025V4.66688H0.933533C0.417847 4.66688 0 5.08473 0 5.59999V9.33327C0 9.84895 0.417847 10.2668 0.933533 10.2668ZM1.86664 6.53352H5.59991C6.1156 6.53352 6.53345 6.11568 6.53345 5.59999V4.79292L9.74207 7.46663L6.53345 10.1408V9.33327C6.53345 8.81801 6.1156 8.40016 5.59991 8.40016H1.86664V6.53352Z" fill="#F47929"/>
<path d="M55.0665 4.6669H51.3332V2.80026C51.3336 2.43753 51.1238 2.10812 50.7957 1.95431C50.4676 1.80051 50.0801 1.85092 49.8019 2.08334L44.2016 6.75015C43.9893 6.92746 43.8662 7.18979 43.8662 7.46664C43.8662 7.7435 43.9893 8.00626 44.2016 8.18356L49.8019 12.8504C50.0801 13.0824 50.4676 13.1328 50.7957 12.9794C51.1238 12.8256 51.3336 12.4958 51.3332 12.1335V10.2668H55.0665C55.5822 10.2668 56 9.84897 56 9.33328V5.60001C56 5.08475 55.5822 4.6669 55.0665 4.6669ZM54.1334 8.40018H50.4001C49.8844 8.40018 49.4666 8.81802 49.4666 9.33328V10.1408L46.2588 7.46664L49.4666 4.79294V5.60001C49.4666 6.11569 49.8844 6.53354 50.4001 6.53354H54.1334V8.40018Z" fill="#F47929"/>
</g>
<defs>
<clipPath id="clip0_15147_2093">
<rect width="56" height="56" fill="white"/>
</clipPath>
</defs>
</svg>
