<svg width="96" height="96" viewBox="0 0 96 96" fill="none" xmlns="http://www.w3.org/2000/svg">
<path d="M48 0C21.4909 0 0 21.4909 0 48C0 74.5091 21.4909 96 48 96C74.5091 96 96 74.5091 96 48C96 21.4909 74.5091 0 48 0ZM44.3629 65.4545C44.3629 67.8611 42.4058 69.8182 39.9993 69.8182H32.7273C30.3207 69.8182 28.3636 67.8611 28.3636 65.4545V30.5455C28.3636 28.1389 30.3207 26.1818 32.7273 26.1818H39.9993C42.4058 26.1818 44.3629 28.1389 44.3629 30.5455V65.4545ZM67.6364 65.4545C67.6364 67.8611 65.6793 69.8182 63.2727 69.8182H56.0007C53.5942 69.8182 51.6371 67.8611 51.6371 65.4545V30.5455C51.6371 28.1389 53.5942 26.1818 56.0007 26.1818H63.2727C65.6793 26.1818 67.6364 28.1389 67.6364 30.5455V65.4545Z" fill="white"/>
</svg>
