<svg width="1376" height="700" viewBox="0 0 1376 700" fill="none" xmlns="http://www.w3.org/2000/svg">
<g clip-path="url(#clip0_15319_1569)">
<path d="M392.901 822.4C391.501 822.4 390.201 821.5 389.701 820.1C386.301 809.5 382.901 798.9 379.401 788.3C371.501 763.7 363.301 738.2 354.801 713.3C347.201 691 340.401 668.9 341.201 644.6C342.301 612 355.301 585 380.001 564.1C384.501 560.3 389.101 556.6 393.601 553C403.601 545 413.901 536.7 422.801 527.5C437.901 511.9 451.501 494.2 463.101 478.8C479.801 456.6 500.301 445.5 525.601 445C532.101 444.9 538.701 445.3 545.101 445.8C550.801 446.2 556.601 446.7 562.301 446.6C578.601 446.6 594.301 442.8 609.001 435.5C648.801 415.9 681.701 383.8 712.501 334.5C718.401 325 724.001 315 729.301 305.3C736.501 292.3 743.901 278.8 752.501 266.3C768.001 243.7 784.901 221.5 801.301 200.1C807.801 191.6 814.301 183 820.701 174.5C823.701 170.5 826.901 166.5 829.901 162.6C832.601 159.2 835.301 155.7 838.001 152.2C849.601 136.9 862.701 131.1 878.001 134.7C891.001 137.7 904.801 141.4 921.501 146.3C945.801 153.4 970.601 163.9 1002 180.4C1012.9 186.1 1029 188.1 1038.1 174.5C1043.5 166.6 1049.5 157.5 1053 148.2C1058 134.7 1062.3 120.7 1066.5 107.1C1068.2 101.6 1069.8 96.1004 1071.6 90.7004C1080 64.0004 1095.8 47.2004 1119.9 39.1004C1144.9 30.8004 1174.2 20.0004 1201.3 3.30037C1220 -8.19963 1236.6 -19.0996 1249.5 -34.6996C1259.6 -46.9996 1270.2 -59.1996 1280.5 -70.9996L1284.2 -75.2996C1297.9 -91.0996 1314.9 -103.2 1331.3 -114.9C1343.9 -123.9 1357 -133.2 1368.2 -144C1369.5 -145.3 1371.7 -145.2 1372.9 -144C1374.2 -142.7 1374.1 -140.5 1372.9 -139.3C1361.3 -128.1 1348 -118.7 1335.2 -109.6C1319.1 -98.1996 1302.5 -86.2996 1289.3 -71.0996L1285.6 -66.7996C1275.4 -54.9996 1264.8 -42.7996 1254.7 -30.5996C1241.1 -14.1996 1224.1 -2.99963 1204.8 8.80037C1177.1 25.9004 1147.4 36.8004 1122 45.3004C1099.8 52.7004 1085.8 67.7004 1078 92.5004C1076.3 97.9004 1074.6 103.4 1072.9 108.9C1068.7 122.6 1064.4 136.7 1059.3 150.4C1055.5 160.5 1049.2 169.9 1043.7 178.1C1034.3 192.1 1016.3 195.3 998.901 186.2C967.901 169.9 943.401 159.5 919.601 152.6C903.001 147.8 889.301 144.1 876.401 141.1C863.601 138.1 853.401 142.8 843.201 156.1C840.501 159.6 837.801 163.1 835.001 166.6C832.001 170.4 828.801 174.4 825.901 178.3C819.501 186.9 812.901 195.4 806.401 204C790.101 225.4 773.301 247.5 757.801 270C749.401 282.2 742.101 295.5 734.901 308.4C729.501 318.2 723.901 328.3 717.901 338C686.301 388.4 652.601 421.3 611.601 441.5C596.001 449.2 579.201 453.2 562.001 453.3C556.001 453.3 550.101 452.9 544.301 452.5C538.101 452 531.701 451.6 525.501 451.7C502.401 452.2 483.601 462.4 468.201 482.9C456.501 498.5 442.701 516.4 427.301 532.2C418.101 541.7 407.601 550.1 397.501 558.3C393.001 561.9 388.401 565.6 384.001 569.3C360.501 589.2 348.601 613.9 347.501 644.9C346.701 668.1 353.301 689.5 360.701 711.2C369.201 736.1 377.401 761.7 385.301 786.3C388.701 796.9 392.101 807.5 395.501 818.1C396.101 819.9 395.101 821.7 393.301 822.3C393.001 822.4 392.601 822.5 392.301 822.5L392.901 822.4Z" fill="white" fill-opacity="0.12"/>
<path d="M241.103 697.5C232.503 697.5 224.303 696.9 217.303 696.2C180.303 692.5 159.003 673.5 150.103 636.4C146.803 622.6 142.703 611.1 137.603 601.2C130.303 587 116.603 578.8 103.003 572C66.2032 553.7 37.8032 524.8 10.4032 496.8C5.20318 491.5 0.0031805 486.2 -5.29682 481C-5.99682 480.3 -5.99682 479.3 -5.29682 478.6C-4.59682 477.9 -3.59682 477.9 -2.89682 478.6C2.40318 483.8 7.60318 489.2 12.8032 494.5C40.1032 522.3 68.3032 551 104.503 569C118.703 576 132.903 584.6 140.603 599.7C145.803 609.8 150.003 621.6 153.403 635.6C162.003 671.6 181.903 689.3 217.703 692.8C230.103 694 246.303 695.1 261.503 692.6C280.803 689.4 292.603 676.2 298.703 650.9C300.303 644.5 301.703 638 303.203 631.5C305.403 621.7 307.803 611.6 310.403 601.7C316.503 578.5 330.603 560.7 353.303 547.4C372.303 536.3 388.203 525.3 402.203 513.8C424.703 495.2 435.703 468.8 445.103 443.4C455.803 414.5 466.603 392.1 479.303 372.9C491.403 354.6 484.503 338.4 475.203 323.6C468.503 312.9 460.703 301.9 452.203 291C434.603 268.4 426.203 241.6 418.103 215.6L416.503 210.4C406.703 179.2 393.003 143.3 365.803 113.6C344.103 89.9003 319.003 72.7003 289.203 61.0003C263.103 50.8003 237.103 53.8003 204.903 70.8003C185.703 81.0003 169.803 96.3003 157.603 116.5C139.103 146.9 112.903 172.8 75.0032 198C67.0032 203.3 59.2032 209.3 51.6032 215.2C43.2032 221.7 34.5032 228.3 25.5032 234.2C19.3032 238.2 12.0032 240.3 4.90318 242.4C1.80318 243.3 -1.49682 244.3 -4.49682 245.3C-5.39682 245.6 -6.29682 245.2 -6.59682 244.3C-6.89682 243.4 -6.49682 242.5 -5.59682 242.2C-2.49682 241.1 0.803181 240.1 4.00318 239.2C10.9032 237.2 17.9032 235.1 23.7032 231.4C32.6032 225.7 41.3032 219 49.6032 212.6C57.2032 206.7 65.0032 200.7 73.2032 195.3C110.703 170.4 136.603 144.9 154.803 114.9C167.203 94.5003 184.003 78.3003 203.403 68.0003C236.503 50.5003 263.403 47.4003 290.503 58.0003C320.803 69.9003 346.203 87.3003 368.303 111.4C395.903 141.5 409.803 177.9 419.703 209.4L421.303 214.6C429.303 240.3 437.703 266.9 454.803 289C463.403 300 471.203 311.1 478.003 321.9C487.403 336.9 495.303 354.8 482.103 374.8C469.603 393.8 458.803 416 448.203 444.6C439.103 469.3 427.403 497.3 404.303 516.4C390.203 528 374.103 539.1 355.003 550.3C333.003 563.1 319.503 580.2 313.603 602.6C311.003 612.4 308.703 622.5 306.503 632.3C305.003 638.8 303.503 645.3 302.003 651.7C295.503 678.4 282.803 692.5 262.103 695.9C255.203 697 248.003 697.5 241.203 697.5H241.103Z" fill="white" fill-opacity="0.12"/>
<path d="M132.802 534.6C113.302 534.6 93.5023 528.5 75.7023 516.1C61.8023 506.4 50.6023 494 39.8023 482C36.4023 478.2 32.8023 474.2 29.2023 470.5C21.3023 462.2 13.2023 453.8 5.30234 445.8C1.70234 442.2 -1.79766 438.5 -5.39766 434.9C-5.99766 434.2 -5.99766 433.2 -5.39766 432.5C-4.69766 431.9 -3.69766 431.9 -2.99766 432.5C0.602344 436.2 4.10234 439.8 7.70234 443.4C15.6023 451.5 23.8023 459.8 31.7023 468.2C35.3023 472 38.9023 476 42.3023 479.8C53.0023 491.7 64.0023 503.9 77.6023 513.4C115.902 540.1 163.902 536.7 197.102 504.8C210.002 492.4 221.102 482.6 231.902 473.9C249.602 459.8 271.802 461.2 289.902 477.6C297.602 484.6 305.902 491.8 314.802 497.6C339.402 513.5 370.702 502.1 386.802 481.8C397.902 467.8 404.102 451.7 405.502 432.5C406.702 416.8 407.302 402.6 407.402 389.3C407.502 371.9 402.802 355.3 393.302 340.1C392.702 339.2 392.202 338.2 391.602 337.3C389.202 333.4 386.702 329.3 383.802 325.9C370.202 310.3 372.802 292.2 376.002 280L377.302 275.1C381.402 259.7 385.302 245.1 384.502 229.4C383.102 201.2 373.202 176.7 354.902 156.3C334.002 133 305.202 116.6 267.002 106.2C238.502 98.4001 211.702 108.7 193.402 134.3C169.402 167.9 139.202 198.1 101.002 226.9C95.1023 231.4 89.3023 236.4 83.8023 241.3C78.7023 245.8 73.5023 250.4 68.1023 254.6C51.9023 267.2 32.4023 274.6 8.60234 277.2C6.00234 277.5 3.40234 278 0.802344 278.4C-0.397656 278.6 -1.59766 278.8 -2.89766 279C-3.79766 279.2 -4.69766 278.5 -4.79766 277.6C-4.99766 276.7 -4.29766 275.8 -3.39766 275.7C-2.19766 275.5 -0.997656 275.3 0.202344 275.1C2.80234 274.6 5.50234 274.1 8.20234 273.8C31.4023 271.2 50.4023 264 66.1023 251.8C71.4023 247.7 76.6023 243.1 81.7023 238.6C87.3023 233.7 93.0023 228.6 99.1023 224C137.002 195.5 167.002 165.4 190.802 132.1C209.702 105.7 238.602 94.7001 268.002 102.7C306.902 113.3 336.202 130 357.502 153.8C376.302 174.7 386.502 200 387.902 229C388.702 245.3 384.602 260.8 380.602 275.7L379.302 280.6C374.502 298.8 376.802 312.4 386.402 323.4C389.602 327 392.102 331.2 394.602 335.2C395.202 336.1 395.702 337.1 396.302 338C406.102 353.8 411.002 370.9 410.902 389C410.902 402.4 410.202 416.7 409.002 432.5C407.502 452.3 401.102 469.1 389.602 483.6C372.602 505 339.302 517.1 313.202 500.1C304.102 494.2 295.702 486.8 287.902 479.8C271.102 464.6 250.502 463.2 234.202 476.2C223.402 484.8 212.402 494.5 199.602 506.9C180.602 525.1 157.002 534.4 132.902 534.4L132.802 534.6Z" fill="white" fill-opacity="0.12"/>
<path d="M963.702 815.5C963.702 815.5 963.702 815.5 963.602 815.5C962.702 815.5 962.002 814.6 962.102 813.7C962.502 808.4 962.802 803.1 963.202 797.8C964.002 785.9 964.802 773.7 966.102 761.7C968.502 740.5 983.302 728.7 997.602 719.9C1005.4 715.1 1013.3 710.1 1020.9 705.3C1033.4 697.4 1046.4 689.1 1059.4 681.5C1084.9 666.6 1096.2 642 1104.6 617.6C1107.6 609 1108.9 599.6 1110.2 590.4L1110.4 589C1113.5 567.3 1106.8 547.5 1088.8 524.6C1082.7 516.9 1077 508 1071.3 497.4C1063.7 483.3 1063.7 466.8 1071.3 447C1083.6 415.1 1090.6 389.9 1094 365.3C1097.5 340.3 1108.3 318 1120.1 295.3C1125.9 284.2 1131 272.1 1129.6 258.7C1128.5 248.5 1125.4 241.6 1120.3 238.2C1115.5 235 1108.7 234.7 1100.1 237.4C1080.1 243.4 1063.6 256.7 1047.6 269.6C1025.6 287.3 1000.9 304.3 969.702 308.4C935.402 313 909.802 306.1 889.302 286.8C884.202 282 879.202 276.9 874.302 271.9C871.602 269.1 868.802 266.4 866.102 263.6C849.202 246.9 831.002 241.6 812.002 247.9C795.102 253.5 774.002 265.8 769.202 292.7C766.702 306.9 768.602 321.2 775.002 335.1C786.102 359.4 801.602 383.3 823.502 410.5C833.302 422.6 844.102 434.3 854.502 445.5C862.602 454.2 871.002 463.3 878.902 472.5C885.302 479.9 891.202 489.2 897.402 501.7C905.402 517.4 903.602 534.8 900.902 552.6C896.502 581.9 904.702 603.2 926.902 619.6C944.802 632.9 954.802 646.7 958.302 662.9C962.502 682.6 962.902 699.8 959.502 715.6C957.002 727.3 950.602 735.3 940.202 739.9C935.002 742.2 929.702 744.6 924.502 746.9C918.202 749.7 911.802 752.5 905.502 755.3C892.702 761 876.202 769.1 862.502 781.9C862.202 782.2 824.302 813.8 821.402 814.7C820.502 815 819.602 814.4 819.302 813.6C819.002 812.7 819.602 811.8 820.402 811.5C823.102 810.2 858.102 781.4 860.202 779.5C874.302 766.4 891.102 758.1 904.102 752.3C910.402 749.5 916.802 746.7 923.102 743.9C928.302 741.6 933.602 739.2 938.802 736.9C948.202 732.7 953.902 725.5 956.202 715C959.502 699.7 959.102 682.9 955.002 663.7C951.702 648.3 942.102 635.2 924.902 622.3C901.602 605 893.002 582.7 897.602 552.1C900.202 534.8 901.902 518 894.402 503.2C888.202 491 882.502 481.9 876.302 474.7C868.502 465.5 860.102 456.5 852.002 447.8C841.502 436.5 830.702 424.8 820.802 412.6C798.702 385.2 783.102 361 771.802 336.5C765.102 321.9 763.002 307 765.702 292.1C769.702 269.5 785.302 253.1 810.802 244.7C831.102 238 850.502 243.5 868.302 261.2C871.102 263.9 873.802 266.7 876.502 269.5C881.302 274.4 886.302 279.5 891.402 284.3C911.102 302.9 935.802 309.5 969.002 305.1C999.402 301 1023.6 284.4 1045.3 267C1061.5 254 1078.3 240.5 1098.9 234.2C1108.6 231.3 1116.3 231.7 1121.9 235.5C1127.9 239.5 1131.5 247.2 1132.7 258.5C1134.2 272.8 1128.8 285.4 1122.8 297C1111.2 319.4 1100.4 341.4 1097 365.9C1093.5 390.8 1086.5 416.2 1074.1 448.3C1066.7 467.4 1066.7 482.5 1073.9 495.9C1079.5 506.3 1085.1 515.1 1091.1 522.6C1109.7 546.2 1116.6 566.8 1113.4 589.5L1113.2 590.9C1111.9 600.2 1110.5 609.8 1107.4 618.7C1098.8 643.6 1087.1 668.9 1060.7 684.4C1047.7 692 1034.8 700.2 1022.3 708.1C1014.7 712.9 1006.8 717.9 999.002 722.7C985.502 731 971.302 742.2 969.102 762C967.802 773.9 967.002 786.2 966.202 798C965.902 803.3 965.502 808.7 965.102 814C965.102 814.9 964.302 815.5 963.402 815.5H963.702Z" fill="white" fill-opacity="0.12"/>
<path d="M597.203 820.7C597.203 820.7 597.003 820.7 596.903 820.7C596.003 820.6 595.403 819.7 595.503 818.8C596.103 815 596.503 810.9 596.903 807.1C597.803 798.4 598.803 789.3 601.803 781.1C610.003 758.6 620.403 737.2 628.603 721.1C641.003 696.7 656.003 664 662.103 628C667.103 598.8 672.603 570.6 678.503 544.1C684.103 519.1 690.403 494.9 706.603 474.9C717.203 461.8 730.203 454.2 745.303 452.3C765.803 449.8 784.703 456.4 801.503 471.9C809.503 479.3 819.903 489.2 829.503 500C851.403 524.5 861.003 549.5 858.903 576.3C858.703 579.4 858.403 582.5 858.203 585.7C857.503 595.7 856.903 606.1 854.803 616C850.803 635.1 853.403 654.2 856.003 672.7C856.603 676.7 857.103 680.8 857.603 684.8C861.703 718.7 853.803 745.9 833.303 768C821.903 780.2 809.803 792.1 798.103 803.6C792.803 808.8 787.503 814 782.303 819.2C781.603 819.9 780.603 819.9 779.903 819.2C779.203 818.5 779.203 817.5 779.903 816.8C785.103 811.6 790.403 806.4 795.703 801.2C807.403 789.7 819.503 777.9 830.803 765.7C850.603 744.4 858.203 718 854.203 685.2C853.703 681.2 853.203 677.2 852.603 673.2C850.003 654.4 847.303 635 851.403 615.3C853.403 605.6 854.103 595.4 854.803 585.5C855.003 582.4 855.203 579.2 855.503 576.1C857.603 550.2 848.203 526.1 827.003 502.3C817.403 491.6 807.103 481.8 799.203 474.5C783.203 459.6 765.203 453.3 745.703 455.7C731.503 457.5 719.203 464.6 709.203 477.1C693.503 496.6 687.303 520.3 681.803 544.9C675.903 571.3 670.403 599.5 665.403 628.6C659.103 665 644.003 698 631.503 722.6C623.403 738.6 613.003 759.9 604.903 782.2C602.003 790.1 601.103 798.9 600.203 807.4C599.803 811.3 599.403 815.4 598.803 819.3C598.703 820.1 598.003 820.7 597.103 820.7H597.203Z" fill="white" fill-opacity="0.12"/>
<path d="M655.003 822.4C653.803 822.4 652.603 821.7 652.003 820.6C643.003 802.8 635.403 785 640.103 764.4C641.003 760.3 641.803 756.1 642.503 752C643.703 745.2 645.003 738.2 647.103 731.5C650.203 721.5 653.803 711.4 657.203 701.7C662.303 687.2 667.603 672.3 671.503 657.3C676.403 638.9 680.203 619.8 684.003 601.4C686.603 588.8 689.203 575.8 692.203 563.1C698.203 537.2 707.303 518.1 720.803 502.9C737.103 484.6 763.703 479.8 782.803 491.7C823.903 517.3 840.903 553.4 834.803 601.9C831.803 625.9 831.903 651.2 835.103 679.2C836.803 693.7 835.703 708.1 831.803 722C826.603 740.7 816.303 755.7 800.303 767.9C777.203 785.5 756.303 800.6 736.503 814.1C732.003 817.2 726.503 818.7 721.303 820.1C719.003 820.7 716.803 821.3 714.703 822C712.903 822.6 711.103 821.7 710.503 819.9C709.903 818.2 710.803 816.2 712.603 815.7C714.903 814.9 717.303 814.3 719.703 813.6C724.603 812.3 729.203 811 732.803 808.6C752.503 795.1 773.303 780.1 796.403 762.6C811.203 751.4 820.703 737.5 825.503 720.2C829.103 707.1 830.103 693.6 828.603 680C825.303 651.5 825.203 625.7 828.303 601.1C834.003 555.4 818.003 521.5 779.403 497.4C763.103 487.2 740.103 491.5 725.903 507.4C713.103 521.7 704.503 539.9 698.803 564.7C695.903 577.4 693.203 590.3 690.703 602.9C686.903 621.4 683.003 640.6 678.103 659.2C674.103 674.4 668.803 689.5 663.603 704.1C660.203 713.8 656.603 723.8 653.503 733.7C651.503 740 650.303 746.8 649.103 753.4C648.303 757.6 647.603 761.9 646.603 766.2C642.303 784.7 649.203 800.6 657.903 817.9C658.703 819.6 658.103 821.6 656.403 822.4C655.903 822.6 655.403 822.8 654.903 822.8L655.003 822.4Z" fill="white" fill-opacity="0.12"/>
<path d="M979.601 59.2008C969.301 59.2008 959.301 56.6008 949.601 54.0008C945.201 52.8008 940.801 51.5008 936.601 50.1008C929.401 47.8008 921.901 45.5008 914.401 44.3008C899.601 41.9008 885.101 46.8008 871.601 52.3008C861.401 56.5008 850.601 57.3008 839.501 54.8008C823.501 51.2008 808.801 43.1008 795.901 30.8008C777.601 13.5008 760.101 -0.799225 742.201 -12.7992C727.001 -22.9992 718.501 -34.2992 715.401 -48.2992C714.601 -52.0992 713.901 -56.0992 713.301 -59.8992C712.901 -62.4992 712.501 -65.0992 712.001 -67.6992C709.101 -82.8992 707.001 -99.0992 715.401 -115.199C718.401 -120.899 720.801 -126.999 723.101 -132.899C724.201 -135.599 725.301 -138.399 726.401 -141.099C726.801 -141.999 727.701 -142.399 728.601 -141.999C729.501 -141.599 729.901 -140.699 729.501 -139.799C728.401 -137.099 727.301 -134.399 726.201 -131.699C723.801 -125.699 721.401 -119.499 718.301 -113.699C710.401 -98.5992 712.401 -82.9992 715.201 -68.3992C715.701 -65.7992 716.101 -63.0992 716.601 -60.4992C717.201 -56.7992 717.801 -52.8992 718.701 -49.0992C721.601 -35.9992 729.701 -25.3992 744.101 -15.6992C762.101 -3.59921 779.801 10.8008 798.201 28.2008C810.701 40.1008 824.901 47.8008 840.301 51.3008C850.701 53.7008 860.901 52.9008 870.401 49.0008C884.301 43.3008 899.401 38.3008 915.001 40.8008C922.701 42.0008 930.301 44.4008 937.701 46.8008C941.901 48.1008 946.301 49.5008 950.601 50.6008C964.501 54.2008 977.601 57.7008 991.901 54.2008C1000.2 52.2008 1007.7 47.7008 1015.3 40.0008C1017.2 38.1008 1019.1 36.3008 1021 34.4008C1031 24.7008 1041.4 14.7008 1045.9 1.10078C1050.8 -13.4992 1054.2 -27.5992 1055.8 -40.5992C1057.7 -55.5992 1057.7 -71.0992 1057.7 -86.0992V-87.4992C1057.7 -99.7992 1057.2 -112.299 1056.7 -124.399C1056.5 -129.799 1056.3 -135.099 1056.1 -140.499C1056.1 -141.399 1056.8 -142.199 1057.7 -142.199C1058.6 -142.199 1059.4 -141.499 1059.4 -140.599C1059.6 -135.199 1059.8 -129.899 1060 -124.499C1060.5 -112.399 1061 -99.8992 1061 -87.4992V-86.0992C1061 -70.9992 1061 -55.2992 1059.1 -40.1992C1057.4 -26.8992 1054 -12.6992 1049 2.20078C1044.2 16.5008 1033.5 26.8008 1023.2 36.8008C1021.3 38.6008 1019.4 40.5008 1017.5 42.3008C1009.4 50.4008 1001.4 55.2008 992.501 57.4008C988.101 58.5008 983.801 58.9008 979.501 58.9008L979.601 59.2008Z" fill="white" fill-opacity="0.12"/>
<path d="M967.403 33.1001C958.403 33.1001 949.803 30.8001 941.403 28.6001C937.603 27.6001 933.903 26.4001 930.203 25.3001C923.803 23.3001 917.803 21.4001 911.603 20.4001C900.103 18.6001 889.203 21.8001 876.203 27.1001C867.203 30.8001 857.603 31.6001 847.703 29.3001C833.703 26.1001 820.903 19.1001 809.703 8.40009C794.203 -6.19992 779.403 -18.2999 764.303 -28.4999C751.003 -37.4999 743.503 -47.3999 740.703 -59.8999C740.003 -63.1999 739.403 -66.5999 738.903 -69.7999C738.503 -71.9999 738.203 -74.1999 737.803 -76.3999C735.403 -89.0999 733.403 -103.8 740.903 -118C743.403 -122.7 745.403 -127.9 747.403 -132.9C748.303 -135.2 749.303 -137.6 750.203 -139.9C750.903 -141.6 752.903 -142.4 754.603 -141.7C756.303 -141 757.103 -139 756.403 -137.3C755.403 -135 754.503 -132.7 753.603 -130.4C751.603 -125.2 749.503 -119.9 746.803 -114.9C740.403 -102.6 742.103 -89.6999 744.403 -77.5999C744.803 -75.2999 745.203 -73.0999 745.603 -70.7999C746.103 -67.5999 746.603 -64.3999 747.303 -61.1999C749.703 -50.5999 756.303 -41.8999 768.103 -33.8999C783.503 -23.4999 798.703 -11.1999 814.403 3.70009C824.803 13.5001 836.503 20.0001 849.303 22.9001C857.803 24.8001 866.003 24.2001 873.803 21.0001C885.903 16.0001 899.003 11.7001 912.803 13.9001C919.503 15.0001 926.103 17.0001 932.403 19.0001C936.003 20.1001 939.603 21.3001 943.303 22.2001C954.903 25.2001 965.803 28.1001 977.503 25.3001C984.203 23.7001 990.303 20.0001 996.503 13.7001C998.103 12.1001 999.703 10.5001 1001.4 8.90009C1010.1 0.400085 1018.4 -7.59991 1022.1 -18.6999C1026.2 -30.9999 1029.1 -42.7999 1030.5 -53.7999C1032.1 -66.3999 1032.1 -79.5999 1032.1 -92.2999V-93.3999C1032.1 -103.8 1031.7 -114.4 1031.3 -124.7C1031.1 -129.3 1030.9 -133.8 1030.8 -138.4C1030.8 -140.2 1032.2 -141.8 1034 -141.8C1035.8 -141.8 1037.4 -140.4 1037.5 -138.6C1037.6 -134 1037.8 -129.5 1038 -124.9C1038.4 -114.6 1038.8 -103.9 1038.8 -93.2999V-92.1999C1038.8 -79.2999 1038.8 -65.8999 1037.2 -52.7999C1035.7 -41.3999 1032.8 -29.0999 1028.5 -16.3999C1024.3 -3.79991 1015 5.20007 1006.1 13.8001C1004.5 15.4001 1002.9 16.9001 1001.3 18.5001C994.103 25.7001 987.103 29.9001 979.103 31.9001C975.203 32.9001 971.303 33.2001 967.603 33.2001L967.403 33.1001Z" fill="white" fill-opacity="0.12"/>
<path d="M966.6 9.10078C958.7 9.10078 951.2 7.10077 943.8 5.20078C940.5 4.30078 937.1 3.30078 933.9 2.20078C928.4 0.500778 922.8 -1.29922 917.1 -2.19922C906 -3.99922 895 -0.299225 884.8 3.80078C877 7.00078 868.7 7.70078 860.2 5.70078C848 2.90077 836.8 -3.19923 826.9 -12.5992C813.1 -25.6992 799.7 -36.4992 786.2 -45.5992C774.6 -53.3992 768.1 -61.9992 765.7 -72.7992C765.1 -75.6992 764.6 -78.6992 764.1 -81.5992C763.8 -83.5992 763.5 -85.5992 763.1 -87.5992C760.9 -99.1992 759.3 -111.599 765.7 -123.899C767.9 -128.199 769.8 -132.799 771.5 -137.299C772.3 -139.399 773.1 -141.499 774 -143.499C774.4 -144.399 775.3 -144.799 776.2 -144.399C777.1 -143.999 777.5 -143.099 777.1 -142.199C776.2 -140.199 775.4 -138.099 774.6 -135.999C772.8 -131.399 770.9 -126.699 768.6 -122.299C762.7 -110.899 764.2 -99.1992 766.3 -88.1992C766.7 -86.1992 767 -84.1992 767.3 -82.1992C767.8 -79.3992 768.2 -76.3992 768.9 -73.5992C771.1 -63.7992 777.1 -55.7992 788 -48.4992C801.7 -39.2992 815.2 -28.3992 829.1 -15.0992C838.5 -6.19923 849.2 -0.299225 860.8 2.40077C868.6 4.20078 876.2 3.60078 883.4 0.600784C894 -3.79921 905.5 -7.59921 917.5 -5.69922C923.4 -4.79922 929.2 -2.89922 934.8 -1.19922C938 -0.199219 941.3 0.800781 944.6 1.70078C955.1 4.50078 965 7.10077 975.7 4.40077C982 2.90077 987.6 -0.499222 993.3 -6.29922C994.7 -7.69922 996.2 -9.09923 997.6 -10.4992C1005.2 -17.7992 1013 -25.3992 1016.4 -35.5992C1020.1 -46.6992 1022.7 -57.2992 1023.9 -67.1992C1025.4 -78.4992 1025.3 -90.2992 1025.3 -101.699V-102.799C1025.3 -112.099 1024.9 -121.599 1024.6 -130.799C1024.4 -134.899 1024.3 -138.899 1024.2 -142.999C1024.2 -143.899 1024.9 -144.699 1025.8 -144.699C1026.7 -144.699 1027.5 -143.999 1027.5 -143.099C1027.6 -138.999 1027.8 -134.999 1027.9 -130.899C1028.3 -121.699 1028.6 -112.199 1028.6 -102.799V-101.799C1028.6 -90.2992 1028.6 -78.3992 1027.2 -66.8992C1025.9 -56.7992 1023.3 -45.8992 1019.5 -34.6992C1015.8 -23.7992 1007.7 -15.8992 999.8 -8.29922C998.4 -6.89923 996.9 -5.49922 995.5 -4.09923C989.3 2.10077 983.2 5.80078 976.3 7.50078C972.9 8.30078 969.6 8.70078 966.3 8.70078L966.6 9.10078Z" fill="white" fill-opacity="0.12"/>
<path d="M1015.8 680.6C1007.3 680.6 999.6 678.2 993.8 673.6C985.9 667.3 982.1 657.6 978.5 648.4C977.5 645.9 976.5 643.2 975.4 640.7C969.6 627.4 960.5 615.4 949.3 606.2C946.9 604.2 944.2 602.2 941.7 600.3C933.3 594 924.6 587.5 920.2 577.7C915.2 566.5 917.2 554.2 919.1 542.4C920.1 536.1 921.2 529.6 921.2 523.3C921.2 492.9 896.4 468.5 874.6 447L873 445.5C838 411 812 378.1 793.4 344.8C785.6 330.8 778 314.3 780.4 297.2C782.2 284.9 790.3 273.4 802.2 266.4C814.1 259.4 828.1 257.8 839.7 262.1C847 264.8 852.9 270 858.5 275C861.9 278 865.3 281 869 283.5C938.3 330.1 961.5 322.8 970.2 320C971.2 319.7 972.1 319.4 972.9 319.2C979.6 317.8 986.6 314.1 993.5 310.5C997.4 308.5 1001 306.6 1004.6 305C1026.2 295.8 1048.5 287.6 1070.9 280.7C1074.6 279.5 1078.6 278.5 1082.3 279.9C1088.4 282.2 1091 289.3 1089.8 300.5C1085.2 343.1 1080.4 387.1 1063.5 427.6C1062.2 430.7 1060.8 433.8 1059.5 436.9C1052.6 452.5 1045.5 468.7 1047.6 485.2C1049.5 500.8 1058.9 513.3 1068.8 526.7C1073.9 533.6 1079.3 540.8 1083.4 548.4C1095.6 570.7 1097.7 598.2 1089.2 622.2C1080.7 646.1 1061.6 666.1 1038.1 675.8C1030.4 679 1022.8 680.5 1015.8 680.5V680.6ZM825.9 263C818.5 263 810.8 265.1 803.8 269.2C792.8 275.7 785.3 286.3 783.6 297.6C781.3 313.7 788.7 329.7 796.2 343.1C814.7 376.1 840.5 408.8 875.2 443L876.8 444.5C899.1 466.5 924.4 491.3 924.4 523.1C924.4 529.6 923.3 536.3 922.3 542.8C920.4 554.7 918.5 566 923.1 576.2C927.1 585.2 935.5 591.4 943.6 597.5C946.2 599.4 948.8 601.4 951.3 603.5C962.9 613.1 972.3 625.4 978.3 639.2C979.4 641.7 980.5 644.4 981.5 647C985 655.9 988.6 665.1 995.8 670.8C1005.4 678.5 1020.7 679.2 1036.7 672.6C1059.3 663.3 1077.7 644.1 1085.9 621C1094.1 598 1092 571.4 1080.3 550C1076.3 542.6 1071 535.5 1065.9 528.7C1056.2 515.6 1046.1 502.1 1044.1 485.6C1041.9 468.1 1049.2 451.5 1056.3 435.5C1057.7 432.4 1059 429.3 1060.3 426.2C1077 386.2 1081.7 342.4 1086.3 300.1C1087 293.5 1086.7 285.1 1081 283C1078.3 282 1075.1 282.8 1071.8 283.9C1049.5 290.8 1027.3 299 1005.8 308.1C1002.3 309.6 998.7 311.5 994.9 313.5C987.9 317.2 980.6 321 973.5 322.5C972.8 322.6 972 322.9 971.1 323.2C961.1 326.4 937.6 333.7 867 286.3C863.1 283.7 859.6 280.5 856.1 277.5C850.4 272.5 845.1 267.7 838.3 265.2C834.4 263.7 830.1 263 825.8 263H825.9Z" fill="white" fill-opacity="0.12"/>
<path d="M1007.5 639.6C1000 639.6 993.301 637.5 988.101 633.3C981.201 627.7 978.001 619.4 974.901 611.4C974.101 609.3 973.301 607.1 972.401 605.1C967.701 594.2 960.501 584.5 951.501 576.9C949.501 575.2 947.401 573.6 945.301 572C938.201 566.6 930.801 561 927.001 552.3C922.601 542.4 924.301 531.9 926.001 521.6C926.801 516.4 927.701 511 927.701 505.9C927.701 481.2 907.601 461.2 889.901 443.4L888.601 442.1C859.701 413.1 838.101 385.4 822.701 357.4C816.101 345.4 809.701 331.2 811.801 316.3C813.401 305.3 820.501 295.1 831.001 288.9C841.401 282.8 853.101 281.5 863.201 285.4C872.601 289 879.901 296 887.001 302.8L888.201 303.9C896.901 312.2 906.601 318.8 917.101 323.5C925.301 327.2 937.601 332.3 949.301 333.7C950.101 333.7 950.801 333.9 951.601 333.9C958.301 334.5 967.901 334.6 975.601 332C979.901 330.6 983.901 328.4 988.101 326.1C991.101 324.5 994.301 322.8 997.601 321.3C1015.4 313.6 1033.9 306.7 1052.4 300.9C1055.1 300.1 1059.1 298.8 1063.1 300.3C1067.2 301.9 1071.9 306.5 1070.5 319.6C1066.7 355.4 1062.8 392.4 1048.8 426.5C1047.7 429.1 1046.6 431.7 1045.5 434.3C1039.9 447.1 1034.2 460.4 1035.8 473.8C1037.8 490.3 1046.8 506.4 1055.5 522C1057.2 525.1 1058.9 528.2 1060.5 531.2C1069.9 548.7 1077.5 567.8 1070 589.3C1062.8 609.8 1046.7 627 1026.9 635.3C1020.3 638 1013.8 639.4 1007.8 639.4L1007.5 639.6ZM851.101 290C845.501 290 839.701 291.6 834.301 294.8C825.601 299.9 819.601 308.4 818.301 317.4C816.501 330.3 822.401 343.3 828.401 354.3C843.501 381.8 864.701 409 893.101 437.5L894.401 438.8C913.001 457.4 934.101 478.6 934.201 506C934.201 511.6 933.301 517.3 932.401 522.8C930.801 532.5 929.401 541.6 932.901 549.7C936.001 556.8 942.401 561.6 949.101 566.7C951.201 568.3 953.501 570 955.501 571.8C965.301 580 973.201 590.6 978.301 602.4C979.201 604.5 980.101 606.8 980.901 609C983.801 616.5 986.501 623.6 992.101 628.2C1002.9 637.1 1019.1 631.4 1023.7 629.4C1041.8 621.9 1056.5 606.1 1063.1 587.4C1069.4 569.4 1064 553.3 1054.1 534.6C1052.5 531.6 1050.8 528.6 1049.1 525.5C1040.1 509.3 1030.8 492.6 1028.6 474.8C1026.7 459.7 1032.9 445.5 1038.8 431.9C1039.9 429.3 1041 426.8 1042.1 424.2C1055.7 391 1059.6 354.5 1063.4 319.1C1063.7 315.9 1064.1 308.3 1060.3 306.8C1058.7 306.2 1056.4 306.8 1054 307.6C1035.7 313.4 1017.5 320.2 999.901 327.8C996.901 329.1 994.001 330.7 991.001 332.3C986.701 334.6 982.301 337 977.501 338.6C968.801 341.5 958.201 341.4 950.801 340.8C949.901 340.8 949.101 340.6 948.201 340.5C935.701 339 923.401 333.9 914.101 329.7C902.901 324.7 892.601 317.6 883.401 308.8L882.201 307.7C875.601 301.4 868.801 294.9 860.701 291.7C857.601 290.5 854.301 289.9 851.001 289.9L851.101 290Z" fill="white" fill-opacity="0.12"/>
<path d="M475.702 754.1C458.402 754.1 444.302 746.9 433.002 732.4C417.702 712.9 409.502 690.1 402.802 668.3C392.602 635.1 397.802 608.3 418.602 586.6L476.402 532.5C488.802 521.6 501.302 511.4 517.602 506.3C534.402 501 552.202 501 575.302 506.3C603.402 512.6 622.002 524.5 621.702 562C621.602 574.7 620.302 588 617.802 602.7C616.002 613.4 613.002 624 610.102 634.3C609.502 636.4 608.902 638.4 608.302 640.5C600.602 668.2 582.402 689.4 567.402 704.8C549.302 723.4 526.502 743.5 495.402 751.6C488.402 753.4 481.802 754.3 475.702 754.3V754.1ZM478.702 534.9L421.002 588.9C401.202 609.6 396.302 635.2 406.102 667.2C412.702 688.7 420.802 711.2 435.702 730.3C450.202 748.8 469.502 754.6 494.702 748.1C525.102 740.2 547.402 720.5 565.202 702.2C579.902 687.1 597.702 666.3 605.302 639.3C605.902 637.2 606.502 635.1 607.102 633.1C610.002 622.9 613.002 612.4 614.802 601.9C617.302 587.4 618.602 574.2 618.702 561.7C619.002 526.4 602.202 515.5 574.902 509.3C552.402 504.2 535.102 504.2 518.902 509.3C503.202 514.2 491.102 524.2 478.902 534.8L478.702 534.9Z" fill="white" fill-opacity="0.12"/>
<path d="M515 214.6C505.9 214.6 496.3 210.4 486.1 202C470.4 189.1 462.4 171.3 454.7 154.1L452.7 149.6C438.1 117.4 426.1 89.0003 416 62.7003C405.4 35.0003 408.7 10.2003 425.9 -10.8997C425.9 -10.8997 426 -11.0997 426.1 -11.0997C427.2 -12.1997 453 -37.6997 486.2 -35.1997C506.8 -33.6997 525.5 -21.7997 541.7 0.100323C554.6 17.4003 564.8 36.9003 574.7 55.6003C576.3 58.7003 578 61.9003 579.6 65.0003C591.4 87.1003 603.7 116.6 594.2 148.3C583.9 182.8 558.8 205.5 521.6 213.9C519.4 214.4 517.2 214.6 515 214.6ZM431 -6.49968C415.5 12.6003 412.6 35.1003 422.2 60.3003C432.2 86.5003 444.1 114.8 458.7 146.8L460.7 151.3C468.1 167.8 475.8 184.8 490.3 196.8C501.4 205.9 511.1 209.3 520.1 207.3C555.3 199.4 578.1 178.8 587.8 146.3C596.5 117.1 585.6 90.4003 573.7 68.1003C572 65.0003 570.4 61.8003 568.7 58.7003C558.9 40.1003 548.8 21.0003 536.3 4.00032C521.3 -16.2997 504.2 -27.1997 485.7 -28.5997C456.5 -30.6997 432.7 -8.29968 430.9 -6.49968H431Z" fill="white" fill-opacity="0.12"/>
<path d="M512.401 183.801C505.601 183.801 498.601 180.701 491.001 174.401C479.201 164.701 473.201 151.301 467.301 138.301L465.801 134.901C454.701 110.401 445.601 88.8006 437.901 68.9006C430.001 48.1006 432.501 29.6006 445.301 13.8006C446.201 12.9006 465.601 -6.19945 490.401 -4.39945C505.801 -3.29945 519.801 5.60055 532.001 22.1006C541.701 35.2006 549.501 50.0005 557.001 64.2005C558.301 66.6005 559.501 69.0005 560.801 71.3006C569.701 88.0005 578.901 110.201 571.801 134.001C564.101 159.901 545.201 177.001 517.201 183.301C515.601 183.701 514.001 183.801 512.301 183.801H512.401ZM487.201 -1.19945C465.301 -1.19945 448.001 15.8006 447.801 16.0006C435.901 30.7006 433.601 48.1005 441.001 67.6005C448.601 87.5005 457.701 109.001 468.801 133.401L470.301 136.801C476.001 149.401 481.801 162.501 493.001 171.701C501.601 178.801 509.301 181.501 516.401 179.801C543.501 173.701 561.001 157.901 568.501 132.801C575.201 110.301 566.801 89.8005 557.701 72.7005C556.401 70.3005 555.201 67.9006 553.901 65.5005C546.501 51.4006 538.801 36.8006 529.201 23.8006C517.601 8.20055 504.501 -0.299447 490.101 -1.29945C489.101 -1.29945 488.101 -1.39945 487.001 -1.39945L487.201 -1.19945Z" fill="white" fill-opacity="0.12"/>
<path d="M126.203 523.4C103.803 523.4 83.3034 514.4 65.0034 496.4C53.0034 484.6 41.7034 471.8 30.8034 459.4C24.5034 452.3 18.1034 444.9 11.6034 437.9C8.20343 434.2 4.30342 430.9 0.203425 427.4C-1.69657 425.8 -3.59657 424.2 -5.39657 422.6C-6.79657 421.4 -6.89657 419.3 -5.69657 417.9C-4.49657 416.5 -2.39657 416.4 -0.996574 417.6C0.803426 419.2 2.60343 420.7 4.50343 422.3C8.60343 425.7 12.8034 429.3 16.5034 433.3C23.1034 440.4 29.6034 447.8 35.8034 455C46.6034 467.3 57.8034 480.1 69.7034 491.7C92.9034 514.5 120.003 521.8 150.103 513.3C167.903 508.3 181.903 496.6 195.903 484.1C199.903 480.5 203.803 476.7 207.603 473C213.803 466.9 220.103 460.7 227.103 455.3C252.403 435.8 271.703 434.7 293.503 451.4C298.903 455.5 303.603 460.4 308.203 465.1C312.203 469.2 316.403 473.5 320.903 477.1C337.803 490.8 358.403 489.5 373.203 473.8C388.403 457.7 390.603 437.6 390.703 418.2C390.903 391.8 377.203 376.1 362.703 359.6C352.803 348.3 342.503 336.6 336.303 320.9C328.603 301.7 339.703 282.3 350.403 263.5C360.403 245.9 370.803 227.7 367.003 209C362.603 187.6 350.403 170 330.603 156.9C313.003 145.2 293.303 137.6 276.303 131.5C247.303 121 222.503 128.1 202.803 152.5C189.903 168.3 176.203 183 162.003 196.2C137.403 219 111.503 241.1 86.5034 262.5L84.9034 263.8C75.3034 272 62.2034 281.8 45.8034 284.8C34.6034 286.9 23.2034 288.6 12.2034 290.3C7.30342 291.1 2.50343 291.8 -2.39657 292.6C-4.19657 292.9 -5.89657 291.7 -6.19657 289.8C-6.49657 288 -5.29657 286.3 -3.39657 286C1.50343 285.2 6.40342 284.5 11.2034 283.7C22.2034 282 33.6034 280.2 44.7034 278.2C59.4034 275.5 71.1034 266.8 80.6034 258.7L82.2034 257.4C107.203 236 133.003 213.9 157.503 191.3C171.503 178.4 185.003 163.9 197.603 148.3C219.103 121.8 247.103 113.9 278.603 125.3C296.003 131.6 316.103 139.3 334.403 151.5C355.403 165.5 369.003 185 373.703 207.9C378.003 229 367.003 248.4 356.303 267.1C345.903 285.3 336.103 302.5 342.603 318.7C348.403 333.3 358.303 344.6 367.903 355.5C382.603 372.3 397.703 389.6 397.603 418.6C397.503 439.3 395.003 461 378.303 478.7C361.203 496.8 336.503 498.4 317.003 482.7C312.203 478.8 307.903 474.4 303.703 470.1C299.103 465.3 294.703 460.9 289.803 457.1C270.403 442.2 254.603 443.3 231.503 461C224.803 466.1 218.603 472.3 212.603 478.2C208.803 482 204.803 485.9 200.703 489.5C186.103 502.6 171.403 514.8 152.203 520.2C143.403 522.7 134.803 523.9 126.503 523.9L126.203 523.4Z" fill="white" fill-opacity="0.12"/>
<path d="M304.2 729.8C303.5 729.8 302.8 729.8 302 729.8C290.9 729.1 279.6 727.801 268.8 726.401C265 725.901 261.3 725.5 257.5 725.1C253 724.6 248.4 724.1 243.9 723.6C232.2 722.4 220.1 721.1 208.2 719.1C161.2 711.2 145.9 689.5 138.5 673.901C133.1 662.601 129.8 650.5 126.6 638.701C120.3 615.601 108.1 597.9 90.2002 585.8C61.4002 566.4 34.2002 542.901 6.80024 513.901C3.70024 510.601 0.700241 507.401 -2.39976 504.101L-6.69976 499.501C-7.99976 498.101 -7.89976 496.001 -6.49976 494.801C-5.09976 493.501 -2.99976 493.601 -1.79976 495.001L2.50024 499.601C5.50024 502.901 8.60024 506.101 11.7002 509.401C38.7002 538.101 65.6003 561.3 93.9002 580.3C113.2 593.3 126.3 612.3 133 637C136.1 648.5 139.4 660.3 144.5 671.1C155.4 694 175.4 706.8 209.3 712.6C220.9 714.6 232.9 715.8 244.5 717C249.1 717.5 253.6 717.901 258.2 718.5C262 718.901 265.7 719.4 269.5 719.8C280.3 721.1 291.4 722.4 302.4 723.1C312.6 723.8 317.8 719.201 318.9 708.901C319.3 705.101 318.9 701.1 318.6 697C318.3 693.8 318.1 690.4 318.2 687.1V683.6C318.6 671.1 318.9 658.1 320.2 645.5C324.7 601.8 341.5 571.8 373.4 551.1C392.3 538.8 419.5 519.001 437.2 489.901L440.8 484.001C448.1 472.001 455.7 459.601 463.3 447.401C471.4 434.601 483.2 419.801 503.4 418.201C516.7 417.201 530 417.901 541.8 420.201C559.3 423.701 575.9 421.101 592.6 412.401C616 400.201 635.8 381.501 656.8 351.701C661.9 344.501 666.5 336.701 671 329.101C673.9 324.201 676.9 319.201 680 314.301C682.5 310.501 685.3 306.801 688 303.301C689.2 301.701 690.4 300.201 691.6 298.601C691.6 298.601 691.6 298.501 691.7 298.401L716.8 269.501C716.8 269.501 716.9 269.4 717 269.3C735.1 251.9 758 228.3 774.9 200.4C784.3 184.9 791 167.4 795.8 153.9C800.8 139.8 792 128.401 786.3 122.901C778.7 115.601 770.8 108.501 763 101.601C757.4 96.6005 751.6 91.4005 746 86.2005C742.9 83.3005 740 80.3005 737.2 77.3005C733.1 73.0005 729.2 68.9005 724.8 65.3005C707.1 51.0005 694.7 62.2005 690.2 67.7005C685.8 73.0005 681.1 79.7005 679.8 89.0005C678.9 94.9005 676.5 100.3 674.2 105.601C672.4 109.601 670.8 113.401 669.7 117.401C665.3 134.401 661.1 152.401 656.1 176.001C651 200.501 639.2 220.501 621.1 235.601L613.3 242.201C598.6 254.501 583.4 267.201 567.9 279.001C550.7 292 534.8 298.201 517.9 298.301C498.9 298.501 484.7 289.5 469.5 276.001C449 257.9 437.9 234.1 429 211.201L426.4 204.601C413.7 171.701 400.6 137.701 378.5 108.801C356.4 80.0005 332.8 59.2005 306.2 45.2005C286.4 34.8005 264.9 33.6005 236.3 41.5005C194.8 53.0005 162.4 78.7005 137.2 120.201C126.3 138.101 111 153.8 89.0002 169.4C78.1002 177.201 67.1002 185.201 56.5002 193.001C45.1002 201.4 33.2002 210.001 21.4002 218.4C17.4002 221.201 13.0002 223.4 8.80024 225.4C6.20024 226.701 3.50024 228.001 1.00024 229.4C0.600242 229.701 -0.0997581 230.6 -0.599758 231.4C-0.999758 232.001 -1.49976 232.701 -1.89976 233.301C-3.09976 234.701 -5.19976 235.001 -6.59976 233.801C-7.99976 232.601 -8.29976 230.501 -7.09976 229.101C-6.79976 228.701 -6.39976 228.201 -6.09976 227.701C-5.09976 226.201 -3.99976 224.601 -2.19976 223.601C0.500241 222.101 3.30024 220.701 5.90024 219.4C10.1002 217.4 14.0002 215.4 17.6002 212.9C29.3002 204.6 41.2002 195.901 52.6002 187.601C63.2002 179.801 74.2002 171.801 85.2002 164.001C106.4 148.901 121.1 133.901 131.5 116.801C157.6 73.8005 191.3 47.1005 234.5 35.1005C264.8 26.7005 287.9 28.0005 309.3 39.3005C336.7 53.8005 361.1 75.2005 383.7 104.701C406.4 134.3 419.7 168.801 432.6 202.101L435.2 208.701C443.8 230.9 454.4 253.8 473.8 270.9C487.8 283.3 500.6 291.501 517.3 291.501C534 291.501 517.6 291.501 517.8 291.501C533.2 291.401 547.9 285.701 563.9 273.501C579.3 261.801 594.4 249.201 609 236.9L616.8 230.301C633.9 216.001 644.6 197.701 649.5 174.4C654.5 150.701 658.7 132.601 663.1 115.501C664.3 111.101 666.1 106.8 667.9 102.701C670.1 97.6005 672.2 92.7005 673 87.8005C674.6 76.8005 679.9 69.2005 684.9 63.2005C696.8 48.8005 713.6 47.6005 728.9 59.9005C733.6 63.7005 737.8 68.2005 741.9 72.5005C744.6 75.4005 747.5 78.4005 750.4 81.1005C756 86.3005 761.8 91.4005 767.4 96.4005C775.2 103.301 783.2 110.501 790.8 117.901C802.7 129.301 806.7 142.8 802 155.9C797.1 169.701 790.2 187.601 780.5 203.601C763.2 232.101 740 256 721.6 273.8L696.7 302.501C695.5 304.101 694.3 305.701 693.1 307.201C690.5 310.601 687.7 314.101 685.5 317.601C682.4 322.401 679.5 327.401 676.6 332.201C672 339.901 667.3 347.801 662.1 355.201C640.4 385.901 619.8 405.201 595.5 417.901C577.4 427.301 559.3 430.1 540.3 426.301C529.1 424.1 516.4 423.401 503.7 424.401C486.5 425.701 476.4 438.301 468.7 450.501C461.1 462.601 453.5 475.001 446.3 487.001L442.7 492.901C424.3 523.201 396.3 543.5 376.8 556.201C346.8 575.8 330.9 604.201 326.6 645.701C325.3 658.101 325 670.9 324.7 683.3V686.8C324.5 689.8 324.7 692.8 325 696C325.3 700.3 325.7 704.701 325.2 709.201C323.9 722.3 316.3 729.5 303.8 729.5L304.2 729.8Z" fill="white" fill-opacity="0.12"/>
<path d="M471.403 769.1C459.903 769.1 448.703 766.201 438.203 757.801C430.103 751.301 423.503 744.001 419.203 736.701C404.103 711.001 393.803 685.901 387.603 659.801C380.403 629.601 388.103 603.1 410.903 578.8C410.903 578.8 411.003 578.7 411.103 578.6L461.103 533.201C464.003 530.501 466.803 527.8 469.603 525.1C475.903 519 482.403 512.801 489.303 507.201C504.903 494.701 523.303 488.801 542.603 490.201C559.603 491.401 577.303 493.601 595.003 496.901C633.703 504.101 636.803 528.7 636.603 551.1C636.303 586.7 630.503 621.101 619.403 653.201C608.803 683.701 586.803 707.001 568.703 724.001C546.803 744.501 524.603 757.701 500.803 764.301C491.103 767.001 481.203 769.1 471.503 769.1H471.403ZM415.603 583.501C394.503 606.101 387.403 630.501 394.003 658.301C400.003 683.701 410.103 708.201 424.903 733.301C428.803 740.001 434.803 746.6 442.303 752.6C458.403 765.5 476.603 764.001 498.903 757.901C521.603 751.601 542.903 739.001 564.003 719.201C581.503 702.801 602.903 680.201 613.003 651.1C623.903 619.701 629.603 586 629.803 551.1C630.003 525.2 624.103 509.201 593.603 503.501C576.103 500.301 558.703 498.001 542.003 496.901C524.403 495.701 507.603 501.101 493.403 512.501C486.703 517.901 480.303 524.001 474.103 530.001C471.303 532.801 468.403 535.501 465.503 538.201L415.603 583.501Z" fill="white" fill-opacity="0.12"/>
<path d="M1382.4 716.6C1382 716.6 1381.6 716.4 1381.2 716.1C1376.5 711.6 1371.8 707.1 1367.2 702.5C1355.8 691.4 1343.9 679.9 1332 669C1326.8 664.2 1320.6 660.2 1314.6 656.3C1312.8 655.1 1311 653.9 1309.2 652.7C1295.4 643.4 1279.1 642.1 1263.3 640.9L1259 640.6C1246.2 639.6 1232.7 637.9 1221.7 630.3C1198.3 614 1184.8 588.9 1182.6 558C1180.9 533.7 1195.6 514.9 1206.8 502.8C1223.4 484.9 1244.4 480.2 1269.3 489C1278.3 492.2 1287.1 496.3 1295.6 500.3C1298.5 501.6 1301.3 503 1304.2 504.3C1333.5 517.7 1358.8 525.6 1383.7 529.2C1384.6 529.3 1385.2 530.2 1385.1 531.1C1385 532 1384.1 532.7 1383.2 532.5C1357.9 528.9 1332.3 520.9 1302.7 507.3C1299.8 506 1297 504.6 1294.1 503.3C1285.7 499.3 1277 495.2 1268.1 492.1C1244.6 483.8 1224.8 488.1 1209.2 505C1191.9 523.7 1184.7 540 1185.9 557.7C1188 588.1 1200.7 611.6 1223.6 627.5C1233.9 634.7 1246.8 636.2 1259.2 637.2L1263.5 637.5C1279.7 638.7 1296.5 640 1311.1 649.9C1312.9 651.1 1314.7 652.3 1316.5 653.5C1322.6 657.5 1328.9 661.6 1334.3 666.6C1346.3 677.5 1358.1 689 1369.6 700.1C1374.3 704.6 1378.9 709.2 1383.6 713.7C1384.3 714.3 1384.3 715.4 1383.6 716.1C1383.3 716.4 1382.8 716.6 1382.4 716.6Z" fill="white" fill-opacity="0.12"/>
<path d="M125.803 506.5C95.6031 506.5 65.7031 489.7 48.8031 462.2C41.8031 450.9 32.8031 439 21.9031 426.8L21.0031 425.8C13.5031 417.4 3.30311 405.9 -8.09689 404.4C-8.99689 404.3 -9.69689 403.4 -9.49689 402.5C-9.39689 401.6 -8.49689 400.9 -7.59689 401.1C5.00311 402.8 15.7031 414.8 23.5031 423.6L24.4031 424.6C35.4031 437 44.6031 449.1 51.7031 460.5C70.2031 490.5 104.503 507.3 137.203 502.4C170.703 497.4 197.203 471.5 216.503 449.5C228.303 436 239.803 421.7 250.903 407.9C256.403 401 262.003 394.1 267.603 387.3C280.203 371.9 282.203 356.3 281.203 334.4C280.803 325.7 279.003 316.8 277.203 308.2C276.703 305.8 276.203 303.3 275.703 300.9C272.603 285.3 264.403 272.4 251.303 262.4C239.503 253.4 227.803 244.3 216.603 235.4C202.303 224.1 186.303 222.9 166.203 231.7C145.903 240.7 129.503 256.2 116.103 279.3C101.503 304.5 81.1031 316.1 53.7031 314.9C40.2031 314.3 26.5031 314.5 13.2031 314.6C7.10311 314.6 1.10311 314.7 -4.99689 314.7C-11.0969 314.7 -6.69689 314 -6.69689 313C-6.69689 312 -5.99689 311.3 -4.99689 311.3C1.00311 311.3 7.10311 311.3 13.1031 311.2C26.4031 311.1 40.3031 310.9 53.8031 311.5C80.2031 312.7 99.0031 301.9 113.203 277.6C127.003 253.9 143.903 237.8 164.903 228.6C186.203 219.2 203.303 220.5 218.703 232.7C229.903 241.6 241.603 250.7 253.403 259.7C267.203 270.2 275.803 283.9 279.003 300.2C279.503 302.6 280.003 305 280.503 307.4C282.303 316.1 284.203 325.1 284.603 334.2C285.603 356.8 283.503 373.1 270.203 389.3C264.603 396.1 259.103 403 253.603 409.9C242.503 423.7 231.003 438 219.103 451.6C199.403 474 172.303 500.4 137.803 505.6C133.903 506.2 129.903 506.5 126.003 506.5H125.803Z" fill="white" fill-opacity="0.12"/>
<path d="M1382.4 706.701C1381.6 706.701 1380.8 706.401 1380.1 705.801C1377 702.901 1373.9 700.001 1370.7 697.201C1363.8 691.001 1356.7 684.501 1350.2 677.601C1329.9 656.301 1304 634.501 1265.8 633.901C1253.9 633.701 1240.7 630.101 1229.7 623.901C1201.1 607.901 1188.8 566.001 1203.3 534.401C1215.8 507.301 1239.2 494.001 1264.5 499.901C1273.2 501.901 1282.3 506.301 1291.2 510.501C1298.7 514.101 1305.9 517.501 1312.6 519.501C1324.2 522.901 1335.4 526.601 1346.3 530.201C1358.5 534.201 1371.2 538.401 1384.3 542.201C1386.1 542.701 1387.1 544.601 1386.6 546.301C1386.1 548.101 1384.2 549.101 1382.5 548.601C1369.3 544.801 1356.5 540.601 1344.2 536.601C1333.4 533.001 1322.2 529.401 1310.7 526.001C1303.5 523.901 1295.7 520.201 1288.3 516.601C1279.8 512.501 1271 508.301 1263 506.501C1240.6 501.401 1220.6 512.901 1209.4 537.301C1196.2 566.001 1207.2 603.801 1232.9 618.201C1242.8 623.801 1255.1 627.201 1265.8 627.301C1306.5 627.901 1333.7 650.801 1355 673.101C1361.4 679.801 1368.4 686.201 1375.2 692.301C1378.4 695.201 1381.5 698.101 1384.7 701.001C1386.1 702.301 1386.1 704.401 1384.9 705.701C1384.2 706.401 1383.3 706.801 1382.5 706.801L1382.4 706.701Z" fill="white" fill-opacity="0.12"/>
<path d="M617.101 38.8003C613.601 38.8003 609.301 36.8003 606.601 33.4003C585.301 7.20035 569.301 -23.9997 558.801 -59.2997C555.601 -69.9997 549.101 -79.1997 539.401 -86.5997C527.101 -96.0997 513.201 -100.8 501.201 -104.2C469.501 -113.2 444.601 -110.9 422.601 -96.9997C415.601 -92.5997 409.201 -89.0997 403.101 -86.2997C393.601 -81.9997 385.901 -81.1997 379.701 -83.9997C374.101 -86.3997 370.001 -91.7997 367.301 -99.7997C364.101 -109.4 361.801 -119.5 359.601 -129.2C358.601 -133.6 357.601 -137.9 356.501 -142.3C356.301 -143.2 356.801 -144.1 357.701 -144.3C358.601 -144.5 359.501 -144 359.701 -143.1C360.801 -138.7 361.801 -134.3 362.801 -129.9C365.001 -120.3 367.301 -110.3 370.401 -100.8C372.801 -93.6997 376.301 -88.9997 381.001 -86.9997C386.201 -84.6997 393.101 -85.4997 401.601 -89.2997C407.501 -91.9997 413.801 -95.3997 420.701 -99.7997C443.501 -114.3 469.401 -116.7 502.001 -107.4C513.601 -104.1 528.501 -99.0997 541.301 -89.1997C551.501 -81.2997 558.501 -71.4997 561.801 -60.1997C572.201 -25.2997 588.001 5.50035 609.001 31.4003C612.101 35.2003 617.201 36.3003 618.901 35.0003C619.901 34.2003 619.401 32.0003 617.501 29.3003C598.301 1.80034 582.101 -23.6997 577.601 -56.6997C575.801 -69.6997 576.301 -79.9997 579.001 -89.1997C582.901 -102.5 594.101 -110.2 605.001 -117.7C617.001 -126 628.401 -133.8 629.901 -148.4C629.901 -149.3 630.801 -150 631.701 -149.9C632.601 -149.9 633.301 -149 633.201 -148.1C631.601 -132 619.001 -123.3 606.901 -115C596.501 -107.8 585.701 -100.4 582.201 -88.2997C579.601 -79.5997 579.201 -69.6997 580.901 -57.1997C585.301 -24.9997 601.301 0.100342 620.201 27.3003C624.701 33.7003 622.201 36.6003 620.901 37.6003C619.801 38.4003 618.401 38.8003 616.901 38.8003H617.101Z" fill="white" fill-opacity="0.12"/>
<path d="M1383.3 684.8C1382.9 684.8 1382.6 684.701 1382.3 684.401C1381.4 683.701 1380.5 683.001 1379.5 682.401C1377.4 680.901 1375.3 679.4 1373.5 677.501C1361.9 666.001 1350.2 654.301 1338.8 642.901L1333.9 638.001C1325.6 629.701 1315.5 624 1303.8 621.3C1295.5 619.3 1286.8 618 1278.4 616.8C1275.3 616.3 1272.3 615.901 1269.2 615.401C1238 610.401 1222.8 593.901 1224 566.401C1224.9 544.801 1244.3 525.501 1265.6 525.001C1281.4 524.701 1295.6 528.501 1311.4 533.201C1328.5 538.301 1345.7 543.9 1362.3 549.3C1369.4 551.6 1376.6 553.901 1383.7 556.201C1384.6 556.501 1385.1 557.4 1384.8 558.3C1384.5 559.201 1383.6 559.701 1382.7 559.401C1375.6 557.101 1368.4 554.801 1361.3 552.501C1344.7 547.101 1327.5 541.501 1310.4 536.401C1294.9 531.801 1280.9 528.001 1265.7 528.401C1246.2 528.801 1228.3 546.6 1227.4 566.6C1226.3 592.1 1240.6 607.5 1269.8 612.1C1272.8 612.6 1275.9 613.001 1278.9 613.501C1287.4 614.801 1296.1 616.1 1304.6 618.1C1316.9 621 1327.5 626.901 1336.3 635.701L1341.2 640.6C1352.5 652 1364.2 663.701 1375.8 675.201C1377.5 676.901 1379.4 678.301 1381.4 679.701C1382.4 680.401 1383.3 681.1 1384.2 681.8C1384.9 682.4 1385.1 683.4 1384.5 684.1C1384.2 684.5 1383.7 684.701 1383.2 684.701L1383.3 684.8Z" fill="white" fill-opacity="0.12"/>
<path d="M481.7 726.9C468.2 726.9 456.3 720.7 446.5 708.3C434.8 693.8 427 675.5 422.5 652.5C418.1 629.9 422.2 612.2 435.1 598.1C435.5 597.7 467.8 567.9 484.3 553.7C503.8 532.8 527.3 523.8 552.1 527.8C577.2 531.8 587.8 541.6 592.7 565.3C594.3 573 593.1 581.3 591.9 589.3C591.6 591.1 591.4 592.9 591.1 594.7C584.9 642.7 561.1 681.8 518.2 714.3C508.1 722 496.1 726.3 483.6 726.9C483 726.9 482.4 726.9 481.7 726.9ZM540.8 530.3C521.1 530.3 502.5 539.1 486.6 556.1C486.6 556.1 486.6 556.1 486.5 556.2C470.1 570.3 437.7 600.2 437.4 600.5C425.4 613.6 421.5 630.4 425.7 651.9C430.1 674.3 437.7 692.1 449 706.2C458.6 718.2 470.2 724 483.3 723.5C495.1 723 506.5 718.9 516.1 711.6C558.2 679.7 581.6 641.3 587.7 594.2C587.9 592.4 588.2 590.6 588.5 588.8C589.6 581.1 590.8 573.1 589.4 566C584.9 543.7 575.3 534.9 551.6 531.1C548 530.5 544.4 530.2 540.8 530.2V530.3Z" fill="white" fill-opacity="0.12"/>
<path d="M1389.7 483C1389.6 483 1389.4 483 1389.3 483C1348.4 473.4 1312.4 443.1 1295.3 403.9V403.6C1292.4 397.2 1290 391.6 1284.7 387.2C1266.2 371.3 1253.8 341.1 1267.1 316.2C1282.4 287.7 1292.8 261.4 1298.8 235.7L1299.8 231.5C1303.8 214.6 1307.6 198.7 1303.8 181.4C1301.7 171.8 1301.7 161.7 1301.8 151.9V148.4C1301.8 144.9 1304.1 139.6 1307.5 137.7C1310.4 136 1316.1 138.3 1318.7 140.5C1322.8 144.1 1326.2 148.4 1329.4 152.6L1330.6 154.1C1340.3 166.4 1340.4 180.9 1339.6 194.7C1339.2 202.6 1341.5 208.2 1346.6 211.4C1357.7 218.3 1370.1 222.2 1383.3 222.8C1384.2 222.8 1384.9 223.6 1384.9 224.6C1384.9 225.5 1384 226.2 1383.1 226.2C1369.3 225.5 1356.4 221.5 1344.8 214.3C1338.6 210.5 1335.7 203.8 1336.2 194.6C1336.9 181.4 1336.9 167.6 1327.9 156.2L1326.7 154.7C1323.5 150.6 1320.2 146.4 1316.4 143.1C1314.3 141.3 1310.1 140 1309.1 140.6C1307.1 141.7 1305.1 145.6 1305.1 148.4V151.9C1305.1 161.5 1305.1 171.5 1307 180.7C1310.9 198.7 1306.9 215.8 1302.9 232.3L1301.9 236.5C1295.8 262.5 1285.3 289.1 1269.8 317.8C1257.3 341.1 1269.1 369.6 1286.6 384.6C1292.4 389.6 1295 395.4 1297.9 402.2V402.5C1314.7 440.7 1349.9 470.3 1389.8 479.7C1390.7 479.9 1391.3 480.8 1391 481.7C1390.8 482.5 1390.1 483 1389.4 483H1389.7Z" fill="white" fill-opacity="0.12"/>
<path d="M1382.4 676.2C1381.9 676.2 1381.5 676 1381.1 675.6C1378 672.1 1375 668.7 1371.9 665.2C1365.2 657.5 1358.2 649.6 1351.2 642C1340.6 630.6 1325.8 617.1 1305 613.5L1299.2 612.5C1287.7 610.6 1275.9 608.6 1264.5 605.7C1251.3 602.3 1241.5 594.8 1236.9 584.6C1232.6 574.9 1233.5 563.5 1239.4 552.4C1246.7 538.6 1269.1 530.7 1288.3 535.2C1316.8 541.9 1346.9 552.6 1383.1 568.9C1383.9 569.3 1384.3 570.3 1383.9 571.1C1383.5 571.9 1382.5 572.3 1381.7 571.9C1345.7 555.6 1315.8 545 1287.5 538.4C1270 534.3 1248.8 541.5 1242.3 553.9C1236.9 564.1 1236.1 574.5 1239.9 583.2C1244 592.4 1253 599.3 1265.2 602.4C1276.5 605.3 1288.3 607.3 1299.7 609.2L1305.5 610.2C1327.3 613.9 1342.7 627.9 1353.6 639.7C1360.7 647.3 1367.7 655.3 1374.4 663C1377.4 666.5 1380.5 670 1383.5 673.4C1384.1 674.1 1384 675.1 1383.4 675.8C1383.1 676.1 1382.7 676.2 1382.3 676.2H1382.4Z" fill="white" fill-opacity="0.12"/>
<path d="M484.601 718.2C474.201 718.2 464.201 715 457.201 708.6C453.101 704.8 449.301 700.5 445.901 695.7C422.101 661.9 427.301 614.5 458.101 585.3C469.101 574.9 484.901 560.2 497.801 549.7C497.801 549.7 497.801 549.7 497.901 549.7C514.901 538.4 529.201 533.9 544.301 535.1C566.901 536.9 582.501 550.7 583.201 569.4C583.601 580.9 583.701 593.2 581.201 604.5C570.701 650.6 547.201 686.3 511.301 710.4C503.501 715.6 494.001 718.2 484.701 718.2H484.601ZM499.801 552.4C487.001 562.8 471.301 577.4 460.301 587.8C430.801 615.8 425.701 661.4 448.601 693.8C451.801 698.4 455.501 702.5 459.401 706.1C471.601 717.2 494.001 717.9 509.301 707.6C544.501 684 567.601 649 577.801 603.7C580.301 592.8 580.201 580.8 579.801 569.5C579.101 552.6 564.701 540.1 543.901 538.4C529.701 537.3 516.001 541.6 499.701 552.4H499.801Z" fill="white" fill-opacity="0.12"/>
<path d="M247.4 819.8C247.1 819.8 246.8 819.8 246.6 819.6C245.4 818.9 244.2 818.2 242.9 817.5C240.2 816 237.5 814.5 234.9 812.7C201.8 789.3 164.6 773.3 135.9 762C100.8 748.1 81.5003 724.3 77.0003 689.3C72.1003 651.2 55.4003 622.1 25.9003 600.5C17.8003 594.6 10.8003 587 4.1003 579.7C1.1003 576.4 -2.0997 573 -5.2997 569.8C-8.4997 566.6 -5.9997 568.1 -5.2997 567.4C-4.5997 566.7 -3.5997 566.7 -2.8997 567.4C0.300303 570.6 3.5003 574.1 6.6003 577.4C13.3003 584.6 20.1003 592 28.0003 597.8C58.2003 620 75.4003 649.8 80.4003 688.9C84.8003 722.7 103.3 745.6 137.2 759C166.1 770.4 203.5 786.5 236.9 810.1C239.3 811.8 242 813.3 244.6 814.7C245.9 815.4 247.1 816.1 248.3 816.8C249.1 817.3 249.4 818.3 248.9 819.1C248.6 819.6 248 819.9 247.5 819.9L247.4 819.8Z" fill="white" fill-opacity="0.12"/>
<path d="M214.601 821.4C214.001 821.4 213.401 821.2 212.801 820.9C211.501 820.1 210.201 819.4 208.901 818.7C205.801 817 202.601 815.2 199.901 812.8C180.601 795.5 156.801 782.2 122.701 769.7C86.7005 756.6 67.9005 732.3 63.6005 693.2C61.6005 674.8 57.7005 653.8 44.1005 637.4C36.5005 628.3 27.3005 620 18.4005 612C14.7005 608.7 10.8005 605.2 7.10052 601.8C5.90052 600.7 4.60052 599.6 3.10052 598.5C-1.19948 595.2 -5.99949 591.5 -7.39949 584.6C-7.79949 582.8 -6.59949 581 -4.79949 580.7C-2.99949 580.3 -1.19949 581.5 -0.899485 583.3C0.000514984 587.8 3.30052 590.3 7.10052 593.3C8.60052 594.4 10.1005 595.6 11.5005 597C15.1005 600.4 19.0005 603.8 22.6005 607.1C31.7005 615.2 41.1005 623.6 49.0005 633.2C63.8005 651 68.0005 674.3 70.1005 692.6C74.1005 728.8 91.5005 751.4 124.801 763.5C159.801 776.3 184.301 790 204.201 807.9C206.401 809.8 209.101 811.3 212.001 812.9C213.401 813.7 214.801 814.5 216.201 815.3C217.801 816.3 218.301 818.3 217.301 819.9C216.701 820.9 215.601 821.5 214.401 821.5L214.601 821.4Z" fill="white" fill-opacity="0.12"/>
<path d="M-5.09771 150.7C-6.19771 150.7 -7.29771 150.1 -7.89771 149.1C-8.89771 147.5 -8.39771 145.5 -6.89771 144.5C31.5023 120.3 72.1023 75.3 75.1023 72.1C77.1023 69.1 79.1023 66 81.1023 63C85.5023 56.4 90.1023 49.6 93.9023 42.6C105.602 20.9 122.902 6.5 147.002 -1.39999C149.902 -2.29999 152.802 -3.3 155.702 -4.2C171.902 -9.5 188.702 -14.9 204.502 -21.7C231.702 -33.3 257.302 -52.2 282.502 -79.4C295.302 -93.1 300.602 -108.7 299.002 -127C298.702 -130.7 298.802 -134.4 298.802 -137.9C298.802 -139.5 298.802 -141.1 298.802 -142.7C298.802 -144.3 300.302 -146 302.102 -146C303.902 -146 305.402 -144.5 305.402 -142.7C305.402 -140.9 305.402 -139.4 305.402 -137.8C305.402 -134.3 305.202 -130.9 305.502 -127.6C307.402 -107.3 301.402 -90.1 287.302 -74.8C261.402 -46.9 235.102 -27.5 207.002 -15.5C190.902 -8.60001 174.002 -3.2 157.602 2.2C154.702 3.09999 151.802 4.10001 148.902 5C126.502 12.3 110.402 25.7 99.6023 45.8C95.7023 53.1 91.0023 60.1 86.4023 66.8C84.3023 69.8 82.3023 72.9 80.3023 76C80.3023 76.1 80.1023 76.3 80.0023 76.4C79.6023 76.9 36.9023 124.8 -3.59771 150.2C-4.19771 150.5 -4.79771 150.7 -5.39771 150.7H-5.09771Z" fill="white" fill-opacity="0.12"/>
<path d="M123.2 481.4C122.8 481.4 122.4 481.4 122 481.4C108.5 481.2 95.9001 475.9 84.3001 465.7C61.5001 445.6 50.7001 418.7 42.5001 392.6L41.4001 388.7C41.1001 387.2 40.7001 385.8 40.3001 384.4C39.5001 381.3 38.6001 378 38.5001 374.7C38.0001 356.8 53.5001 355.9 66.0001 355.1C69.1001 354.9 71.9001 354.7 74.6001 354.4C153.5 342.8 163.7 315 167.1 305.8C170.4 296.7 175.9 290.9 182.8 288.9C191.1 286.5 201.1 289.7 211.7 298C213.8 299.3 242.4 317.5 230.7 356C230.3 358.8 222.9 402.7 182.1 449.9C163.7 471.2 144.9 481.2 123.1 481.2L123.2 481.4ZM188.5 291.6C186.9 291.6 185.3 291.8 183.8 292.2C177.8 293.9 173.3 298.9 170.3 307C156 345.8 95.2001 354.8 75.1001 357.7C72.3001 358.1 69.4001 358.3 66.3001 358.5C53.6001 359.3 41.6001 360 42.0001 374.7C42.0001 377.6 42.8001 380.5 43.7001 383.6C44.1001 385 44.5001 386.5 44.8001 387.9L45.9001 391.6C54.0001 417.1 64.5001 443.5 86.7001 463.1C97.6001 472.8 109.6 477.8 122.2 478C143.8 478.4 161.5 469.1 179.7 447.9C221 400 227.5 356 227.5 355.6C227.5 355.6 227.5 355.4 227.5 355.3C238.9 318.1 211.1 301.6 210 301C210 301 209.9 301 209.8 300.9C202.1 294.8 194.8 291.7 188.5 291.7V291.6Z" fill="white" fill-opacity="0.12"/>
<path d="M1383.3 459.101C1382.7 459.101 1382 458.901 1381.5 458.601C1378.7 456.801 1375.6 455 1372.6 453.3C1365.7 449.4 1358.5 445.3 1353.3 439.4C1335.9 419.9 1319.8 398.501 1305.7 379.701C1290.6 359.701 1288.5 336.801 1299.5 313.701C1301.3 309.901 1303.5 306.301 1305.7 302.901C1306.9 301 1308.1 299.101 1309.2 297.101C1322.2 274.401 1336.1 261.201 1354.4 254.301C1360.8 251.901 1367.4 250.201 1373.9 248.601C1376.8 247.901 1379.7 247.101 1382.6 246.301C1384.4 245.801 1386.2 246.901 1386.7 248.601C1387.2 250.401 1386.1 252.201 1384.4 252.701C1381.5 253.501 1378.5 254.301 1375.6 255.001C1369.3 256.601 1362.9 258.201 1356.8 260.501C1340.1 266.801 1327.3 279 1315.1 300.3C1313.9 302.3 1312.7 304.3 1311.5 306.3C1309.4 309.8 1307.3 313.001 1305.7 316.501C1295.7 337.501 1297.5 357.401 1311.2 375.601C1325.3 394.301 1341.3 415.6 1358.5 434.9C1363.1 440.001 1369.4 443.6 1376.2 447.4C1379.3 449.1 1382.5 451.001 1385.5 452.9C1387 453.9 1387.5 456.001 1386.5 457.501C1385.9 458.501 1384.8 459.001 1383.7 459.001L1383.3 459.101Z" fill="white" fill-opacity="0.12"/>
<path d="M164.501 819.8C164.101 819.8 163.601 819.6 163.301 819.3C153.001 808.9 140.901 800.9 127.201 795.7C111.301 789.6 95.0008 783.9 79.2008 778.4L76.2008 777.4C59.8008 771.7 42.3008 763.3 36.2008 744.3C32.9008 734.2 32.3008 723.2 31.6008 712.6C31.4008 709.3 31.2008 705.9 30.9008 702.6C29.6008 687.7 27.0008 672.3 16.6008 660.3C12.1008 655.1 6.80078 650.2 1.70078 645.6C-0.699219 643.5 -2.99922 641.3 -5.29922 639.1C-5.99922 638.5 -5.99922 637.4 -5.29922 636.7C-4.69922 636 -3.59922 636 -2.89922 636.7C-0.599218 638.9 1.70078 641 4.00078 643.1C9.20078 647.8 14.5008 652.7 19.2008 658.1C30.2008 670.8 32.9008 686.9 34.3008 702.3C34.6008 705.6 34.8008 709 35.0008 712.3C35.7008 722.7 36.3008 733.5 39.5008 743.2C45.2008 760.7 61.1008 768.4 77.5008 774.1L80.5008 775.1C96.3008 780.6 112.701 786.3 128.601 792.4C142.701 797.8 155.201 806 165.801 816.8C166.501 817.5 166.401 818.5 165.801 819.2C165.501 819.5 165.001 819.7 164.601 819.7L164.501 819.8Z" fill="white" fill-opacity="0.12"/>
<path d="M152.901 821.4C152.101 821.4 151.301 821.1 150.701 820.5C139.601 810.4 125.501 802.8 107.601 797.2C94.7012 793.2 81.5012 789.3 68.7012 785.5C54.9012 781.4 40.6012 777.2 26.7012 772.9C14.5012 769.1 10.0012 762.5 9.90125 748.6C9.90125 743.1 9.90125 737.7 9.90125 732.2C9.90125 724 9.90125 715.5 9.90125 707.2C9.60125 692.1 4.40125 682.3 -6.59875 676.4C-8.19875 675.5 -8.79875 673.5 -7.99875 671.9C-7.09875 670.3 -5.09875 669.7 -3.49875 670.5C9.60125 677.6 16.2012 689.6 16.5012 707.1C16.7012 715.5 16.6012 724 16.5012 732.3C16.5012 737.7 16.5012 743.2 16.5012 748.6C16.5012 759.6 19.3012 763.6 28.6012 766.5C42.5012 770.9 56.7012 775.1 70.5012 779.1C83.3012 782.9 96.5012 786.8 109.501 790.8C128.301 796.6 143.201 804.7 155.101 815.5C156.501 816.7 156.601 818.9 155.301 820.2C154.601 820.9 153.701 821.3 152.801 821.3L152.901 821.4Z" fill="white" fill-opacity="0.12"/>
<path d="M1387.1 468.4C1387 468.4 1386.8 468.4 1386.7 468.4C1361.7 461.5 1341.8 444.6 1327.2 430.7C1318.3 422.2 1311.8 412 1305.6 402.2C1300.8 394.6 1295.8 386.7 1289.7 379.7C1271.7 359 1267.8 338.9 1277.9 318.3C1288.3 296.9 1297.6 279.4 1306.9 263.3C1318 244.2 1332.6 234.8 1351.5 234.3C1358.8 234.1 1366.2 233.6 1373.3 233.1C1376.6 232.9 1379.9 232.6 1383.2 232.4C1384 232.4 1384.9 233 1385 234C1385 234.9 1384.4 235.7 1383.4 235.8C1380.1 236 1376.8 236.2 1373.5 236.5C1366.3 237 1358.9 237.5 1351.5 237.7C1333.9 238.1 1320.2 247 1309.7 265C1300.4 281 1291.2 298.4 1280.8 319.8C1271.4 339.1 1275.1 358 1292.1 377.5C1298.4 384.7 1303.4 392.7 1308.3 400.4C1314.4 410.1 1320.8 420.1 1329.4 428.3C1343.7 441.9 1363.2 458.4 1387.5 465.2C1388.4 465.4 1388.9 466.4 1388.7 467.3C1388.5 468 1387.8 468.5 1387.1 468.5V468.4Z" fill="white" fill-opacity="0.12"/>
<path d="M1134.4 0.300232C1119.9 0.300232 1108.1 -12.0998 1103 -33.0998C1099.5 -47.2998 1097.3 -62.5998 1096.1 -79.8998C1095.2 -93.8998 1095.1 -108.1 1095 -121.9C1095 -127.9 1095 -133.9 1094.8 -139.8C1094.8 -141.6 1096.2 -143.2 1098.1 -143.2C1099.9 -143.2 1101.4 -141.7 1101.4 -139.9C1101.4 -133.9 1101.5 -127.9 1101.6 -121.9C1101.6 -108.2 1101.7 -94.0998 1102.6 -80.3998C1103.7 -63.4998 1105.9 -48.5998 1109.3 -34.7998C1114 -15.3998 1124.4 -4.89977 1137 -6.69977C1140.2 -7.19977 1143.4 -7.39978 1146.4 -7.59978C1151.7 -7.99977 1156.7 -8.29977 1161.7 -9.79977C1196.9 -20.0998 1223.5 -36.4998 1242.9 -60.0998C1245.4 -63.0998 1247.8 -66.1998 1250.3 -69.1998C1262.2 -83.9998 1274.6 -99.3998 1290.8 -110.8C1302.4 -118.9 1314.5 -126.8 1326.2 -134.4C1331.4 -137.8 1336.7 -141.2 1341.9 -144.7C1343.4 -145.7 1345.5 -145.3 1346.5 -143.8C1347.5 -142.3 1347.1 -140.2 1345.6 -139.2C1340.4 -135.7 1335.1 -132.3 1329.9 -128.9C1318.3 -121.3 1306.2 -113.5 1294.7 -105.4C1279.2 -94.5998 1267.2 -79.5998 1255.5 -65.0998C1253 -61.9998 1250.6 -58.9998 1248.1 -55.8998C1227.8 -31.1998 1200.2 -14.0998 1163.6 -3.39977C1157.9 -1.69977 1152.3 -1.29977 1146.9 -0.999771C1143.8 -0.799774 1140.9 -0.599777 1138 -0.0997772C1136.7 0.10022 1135.5 0.200226 1134.2 0.200226L1134.4 0.300232Z" fill="white" fill-opacity="0.12"/>
<path d="M1396.9 102.8C1396.5 102.8 1396 102.6 1395.7 102.3C1393.1 99.6005 1390.3 97.0005 1387.6 94.4005C1381.5 88.7005 1375.3 82.8005 1370.8 75.8005C1352.8 47.7005 1331.6 30.1004 1304 20.5005C1291.8 16.2004 1278.5 8.70045 1284.6 -11.8995C1293 -40.3995 1314.4 -71.5995 1343.3 -77.0995C1351.8 -78.6995 1360.4 -80.1995 1368.8 -81.6995C1379.2 -83.4995 1389.9 -85.3995 1400.4 -87.4995C1401.3 -87.6995 1402.2 -87.0995 1402.4 -86.1995C1402.6 -85.2995 1402 -84.3995 1401.1 -84.1995C1390.6 -82.0995 1379.8 -80.1995 1369.4 -78.3995C1361 -76.8995 1352.4 -75.3996 1343.9 -73.7996C1316.4 -68.4995 1295.9 -38.3995 1287.8 -10.8995C1283.6 3.20045 1288.8 11.7005 1305.1 17.4005C1333.4 27.3005 1355.2 45.3005 1373.6 74.0005C1377.9 80.7005 1384 86.4005 1389.9 92.0005C1392.6 94.6005 1395.5 97.2005 1398.1 100C1398.7 100.7 1398.7 101.7 1398.1 102.4C1397.8 102.7 1397.4 102.9 1396.9 102.9V102.8Z" fill="white" fill-opacity="0.12"/>
<path d="M1382.8 437.2C1382 437.2 1381.2 436.6 1381.1 435.7C1381.1 435.2 1381.1 434.7 1381.1 434.1C1381.1 433.7 1381.1 433.2 1381.1 432.9C1361.2 418.9 1344.6 399.8 1328.9 372.7C1320.7 358.5 1318.7 344.6 1322.9 329.9C1330.9 301.7 1348.9 282.4 1377.9 270.9C1378.7 270.6 1379.5 269.5 1380.2 268.5C1380.7 267.9 1381.1 267.2 1381.6 266.7C1382.2 266 1383.3 266 1384 266.6C1384.7 267.2 1384.7 268.3 1384.1 269C1383.7 269.5 1383.3 270 1382.9 270.6C1381.9 272 1380.8 273.5 1379.1 274.2C1351.2 285.3 1333.8 303.9 1326.1 331C1322.2 344.7 1324.1 357.8 1331.8 371.2C1347.4 398 1363.7 416.8 1383.3 430.5C1384.5 431.3 1384.5 432.9 1384.5 434.3C1384.5 434.7 1384.5 435.1 1384.5 435.5C1384.6 436.4 1384 437.3 1383 437.4C1383 437.4 1382.9 437.4 1382.8 437.4V437.2Z" fill="white" fill-opacity="0.12"/>
<path d="M1395.9 95.8006C1394.9 95.8006 1393.9 95.4006 1393.2 94.5006C1390.5 91.0006 1387.9 87.6006 1385.2 84.2006C1379.2 76.6006 1373.1 68.6006 1367.2 60.7006L1364.3 56.8006C1354.9 44.0006 1346 31.9006 1332.5 24.1006C1329.1 22.1006 1325.5 20.3006 1322 18.5006C1317.2 16.0006 1312.2 13.4006 1307.4 10.5006C1301.6 6.90059 1295.1 -0.499413 1293.8 -8.99941C1292.9 -14.3994 1294.3 -19.3994 1297.7 -23.4994C1302.6 -29.3994 1311.5 -33.4994 1319.3 -36.9994C1322 -38.1994 1324.6 -39.3994 1326.7 -40.4994C1337.4 -46.0994 1348.6 -50.7994 1360.2 -54.1994C1362.7 -54.9994 1366.4 -55.5994 1370.7 -56.2994C1379.8 -57.7994 1395.1 -60.3994 1397.6 -65.4994C1398.4 -67.1994 1400.4 -67.7994 1402.1 -66.9994C1403.8 -66.1994 1404.4 -64.1994 1403.6 -62.4994C1399.5 -54.2994 1384.1 -51.7994 1371.8 -49.6994C1367.7 -48.9994 1364.2 -48.3994 1362.1 -47.7994C1351 -44.4994 1340.1 -39.9994 1329.8 -34.5994C1327.5 -33.3994 1324.8 -32.1994 1322 -30.8994C1314.8 -27.5994 1306.7 -23.8994 1302.8 -19.1994C1300.6 -16.5994 1299.8 -13.4994 1300.4 -9.99941C1301.3 -4.59941 1305.6 1.50059 1311 4.80059C1315.5 7.60059 1320.4 10.1006 1325.1 12.6006C1328.6 14.4006 1332.3 16.3006 1335.9 18.4006C1350.7 26.9006 1360.4 40.1006 1369.8 52.9006L1372.7 56.8006C1378.5 64.7006 1384.7 72.5006 1390.6 80.2006C1393.3 83.6006 1396 87.1006 1398.6 90.6006C1399.7 92.1006 1399.5 94.2006 1398 95.3006C1397.4 95.8006 1396.7 96.0006 1396 96.0006L1395.9 95.8006Z" fill="white" fill-opacity="0.12"/>
<path d="M1028.7 826.1C1028.6 826.1 1028.4 826.1 1028.3 826.1C1026.5 825.9 1025.2 824.2 1025.4 822.4C1033.8 756.9 1126.7 736.1 1130.6 735.3C1168 728.6 1217.7 685.9 1218.2 685.5C1218.6 685.2 1219 684.9 1219.5 684.8C1220.1 684.6 1220.8 684.4 1221.4 684.2C1223 683.6 1224.9 683 1226.9 682.9C1229 682.7 1231.1 682.8 1233.1 682.9C1235.3 682.9 1237.3 683 1239.3 682.9C1266.4 680.2 1288.7 681.5 1309.2 696.9C1325.4 709.1 1339.8 724.6 1353 744.2C1361.8 757.2 1369.9 770.9 1377.7 784.1C1380.1 788.2 1382.5 792.3 1385 796.4C1386.1 798.2 1386.1 800.3 1386 802C1386 802.5 1386 803.1 1386 803.6C1386.2 805.4 1384.8 807.1 1382.9 807.2C1381.1 807.3 1379.4 806 1379.3 804.1C1379.3 803.4 1379.3 802.6 1379.3 801.8C1379.3 801.1 1379.3 800.1 1379.3 799.7C1376.9 795.7 1374.4 791.5 1372 787.4C1364.2 774.3 1356.2 760.7 1347.5 747.9C1334.6 728.9 1320.8 713.9 1305.2 702.2C1286.4 688.1 1265.5 686.9 1240 689.5C1237.6 689.7 1235.2 689.7 1232.9 689.6C1231 689.6 1229.1 689.6 1227.4 689.6C1226.3 689.6 1225 690.1 1223.6 690.6C1223.1 690.8 1222.6 690.9 1222.1 691.1C1216.2 696.1 1169.3 735.2 1131.9 741.9C1131.1 742.1 1039.8 762.5 1032 823.3C1031.8 825 1030.3 826.2 1028.7 826.2V826.1Z" fill="white" fill-opacity="0.12"/>
<path d="M1382.8 504.401C1382.4 504.401 1382 504.401 1381.6 504.201C1379.9 503.501 1379 501.601 1379.7 499.901C1379.4 499.901 1379.2 499.901 1379 499.901C1378.2 499.901 1377.5 499.901 1376.8 499.901C1351.3 494.801 1329.3 482.401 1311.5 462.901L1307.5 458.501C1294.4 444.201 1280.9 429.401 1264 419.201C1259.6 416.601 1255.2 413.901 1250.8 411.301C1239.9 404.801 1228.6 398.101 1217.7 391.001C1209.7 385.801 1203.7 380.301 1199.6 374.701C1193.5 366.301 1186.2 353.201 1192 337.001C1193.4 333.301 1194 329.301 1194.8 325.101C1195.1 323.101 1195.5 321.201 1195.9 319.201C1195.9 318.901 1196.1 318.501 1196.3 318.201C1196.8 317.301 1246.6 229.001 1240.2 142.001C1239.3 137.301 1228.4 76.9005 1257.4 56.7005C1275 44.5005 1303 50.0005 1340.7 73.1005C1341 73.3005 1341.3 73.6005 1341.6 73.9005L1343.7 76.5005C1355.8 91.6005 1368.2 107.201 1384.2 118.701C1386.1 120.001 1386.1 122.301 1386.1 123.801C1386.1 124.101 1386.1 124.501 1386.1 124.801C1386.3 126.601 1385 128.301 1383.2 128.501C1381.4 128.701 1379.7 127.401 1379.5 125.601C1379.5 125.101 1379.5 124.501 1379.5 123.801C1379.5 123.701 1379.5 123.601 1379.5 123.501C1363.2 111.601 1350.7 95.9005 1338.5 80.7005L1336.8 78.6005C1301.8 57.2005 1276.5 51.7005 1261.3 62.3005C1235.3 80.3005 1246.8 140.401 1246.9 141.001C1246.9 141.101 1246.9 141.301 1246.9 141.401C1253.3 227.201 1206.4 313.901 1202.4 321.101C1202.1 322.801 1201.8 324.501 1201.5 326.201C1200.8 330.501 1200 335.001 1198.4 339.301C1194.7 349.501 1196.8 359.201 1205.1 370.801C1208.7 375.801 1214.1 380.701 1221.4 385.401C1232.1 392.401 1243.4 399.101 1254.3 405.601C1258.7 408.201 1263.1 410.801 1267.5 413.501C1285.3 424.201 1299.1 439.401 1312.5 454.101L1316.5 458.401C1333.4 476.801 1354.1 488.501 1378.2 493.301C1378.2 493.301 1378.4 493.301 1378.7 493.301C1380.5 493.301 1383.8 493.001 1385.7 495.601C1387 497.301 1387.1 499.601 1386 502.401C1385.5 503.701 1384.2 504.601 1382.9 504.601L1382.8 504.401Z" fill="white" fill-opacity="0.12"/>
<path d="M1387.1 522.6C1376.5 522.6 1340.5 509.901 1339 509.401C1259.6 472.901 1216.5 457.501 1216.1 457.401C1178.5 449.201 1153.9 432.6 1143.2 408.301C1133.8 387.001 1137.2 363.601 1141.6 347.701C1146.4 330.601 1153.3 318.701 1153.6 318.201C1178.5 272.201 1156.8 185.401 1149.5 159.801C1148.1 154.701 1147.9 149.401 1149.2 144.401C1149.3 143.801 1149.5 143.301 1149.6 142.701C1154.4 125.001 1169.7 118.801 1182.9 120.501C1196.1 122.201 1209.3 132.201 1209.4 150.601C1209.8 285.001 1183.1 309.601 1182 310.501C1170.8 323.001 1164.4 339.101 1162.5 359.601C1160.8 377.801 1168.5 392.401 1186.7 405.501C1198.6 414.101 1211.8 419.201 1227.8 424.301C1246.2 430.1 1265 438.801 1286.9 451.501C1287 451.501 1287.1 451.601 1287.2 451.701L1301.7 465.201C1322.4 487.101 1349.2 500.501 1383.7 506.201C1384.6 506.401 1385.2 507.201 1385.1 508.101C1384.9 509.001 1384.1 509.601 1383.2 509.501C1348 503.601 1320.6 489.901 1299.4 467.601L1285.2 454.301C1263.6 441.801 1245.1 433.201 1226.9 427.501C1210.6 422.301 1197.1 417.101 1184.8 408.201C1165.6 394.401 1157.5 378.8 1159.2 359.3C1161.1 338 1167.9 321.301 1179.7 308.101C1180.1 307.701 1206.5 282.701 1206.1 150.601C1206.1 134.201 1194.2 125.401 1182.5 123.801C1170.8 122.301 1157.1 127.801 1152.9 143.601C1152.8 144.101 1152.6 144.701 1152.5 145.201C1151.4 149.601 1151.5 154.301 1152.8 158.801C1160.1 184.601 1182.1 272.601 1156.6 319.701C1156.3 320.201 1129.1 367.701 1146.3 406.901C1156.5 430.201 1180.3 446.101 1217 454.101C1217.6 454.301 1260.8 469.701 1340.3 506.201C1340.5 506.201 1377.2 519.201 1387.2 519.201C1397.2 519.201 1388.9 519.901 1388.9 520.901C1388.9 521.901 1388.2 522.6 1387.2 522.6H1387.1Z" fill="white" fill-opacity="0.12"/>
<path d="M516.801 236.9C509.101 236.9 501.201 235 493.201 230.3C477.401 221.1 465.901 205.3 456.701 191.2C445.901 174.5 437.501 156.3 429.301 138.7C422.901 124.9 416.401 110.7 408.701 97.4C400.301 82.7 390.401 70.1 380.001 56.8C378.501 54.9 377.001 52.9 375.401 51C365.201 37.8 356.501 22.7 348.201 8.10001C346.201 4.70001 344.301 1.3 342.301 -2.09999C331.401 -20.8 311.601 -17.8 291.801 -11.8C278.101 -7.59999 263.801 -4.39999 250.001 -1.2C227.401 4 204.101 9.40001 182.901 18.6C165.001 26.4 150.201 35.9 137.501 47.4C128.401 55.8 122.501 66 116.401 76.8C112.201 84.2 107.801 91.8 102.301 98.8C76.0014 132.1 35.2014 167.9 -4.2986 192.2C-5.0986 192.7 -6.0986 192.4 -6.5986 191.7C-7.0986 190.9 -6.7986 189.9 -6.0986 189.4C33.0014 165.3 73.5014 129.8 99.6014 96.8C104.901 90 109.201 82.5 113.401 75.2C119.401 64.6 125.701 53.7 135.201 45C148.101 33.2 163.301 23.5 181.501 15.6C203.101 6.10001 226.601 0.699997 249.301 -4.5C263.101 -7.7 277.301 -10.9 290.901 -15.1C311.001 -21.2 333.201 -24.6 345.301 -3.89999C347.301 -0.5 349.201 2.90001 351.201 6.3C359.501 20.8 368.001 35.8 378.101 48.8C379.601 50.8 381.101 52.7 382.601 54.6C393.101 68 403.001 80.7 411.501 95.6C419.201 109.1 425.801 123.4 432.201 137.2C440.301 154.7 448.601 172.8 459.401 189.3C468.401 203.1 479.601 218.5 494.801 227.4C516.301 240 537.101 230.8 556.501 220.3C570.301 212.8 586.101 203.8 598.501 191.2C618.901 170.4 620.601 144.6 619.701 122.1V121.4C618.301 89.5 617.101 61.9 596.701 35.7C580.301 14.7 567.001 -8.5 556.101 -35.2C554.901 -38.1 553.901 -41.1 552.801 -44C550.501 -50.5 548.101 -57.2 544.401 -62.7C525.001 -91.1 477.901 -104.6 445.601 -91C438.301 -87.9 431.501 -83.2 424.901 -78.7C423.501 -77.8 422.201 -76.8 420.801 -75.9C403.401 -64.1 387.401 -54 368.201 -49.6C364.501 -48.8 360.701 -48.2 358.001 -50.2C355.901 -51.7 354.801 -54.5 354.401 -58.8C352.501 -81.7 350.001 -104.9 347.601 -127.3L346.801 -134.9C346.701 -135.9 346.201 -137 345.601 -138.1C345.001 -137 344.501 -136 344.601 -135.1C344.801 -126.4 345.201 -117.5 345.601 -108.9C345.901 -102.9 346.101 -96.8 346.401 -90.8C348.001 -45.9 297.401 -24.7 275.601 -17.7C258.601 -12.2 241.501 -8.79999 224.901 -5.39999C195.801 0.5 168.401 6 141.401 21.5C125.301 30.7 118.301 41.4 109.501 54.8C107.301 58.1 105.001 61.6 102.501 65.2C96.5014 73.7 89.1014 81.6 81.8014 89.2C78.9014 92.2 76.1014 95.2 73.4014 98.2C69.4014 102.6 65.4014 107.2 61.3014 111.8C42.2014 133.5 20.7014 158.2 -4.3986 171.8C-5.1986 172.2 -6.1986 171.9 -6.6986 171.1C-7.0986 170.3 -6.7986 169.3 -5.9986 168.8C18.5014 155.5 39.9014 131.1 58.8014 109.5C62.9014 104.8 66.9014 100.2 70.9014 95.8C73.6014 92.8 76.5014 89.8 79.3014 86.8C86.4014 79.3 93.8014 71.4 99.7014 63.2C102.201 59.6 104.501 56.2 106.601 52.9C115.301 39.6 122.801 28.2 139.601 18.5C167.001 2.7 196.001 -3.09999 224.101 -8.79999C240.601 -12.1 257.601 -15.6 274.401 -21C295.501 -27.8 344.401 -48.2 342.801 -90.8C342.601 -96.8 342.301 -102.8 342.001 -108.8C341.601 -117.4 341.201 -126.3 341.001 -135.1C341.001 -137.1 341.901 -138.8 342.901 -140.6C343.301 -141.3 343.601 -141.9 343.901 -142.6C344.401 -143.8 346.401 -143.8 347.001 -142.6C347.301 -141.9 347.601 -141.3 348.001 -140.6C348.901 -139 349.701 -137.3 349.901 -135.4L350.701 -127.8C353.101 -105.3 355.601 -82.1 357.501 -59.2C357.801 -55.9 358.501 -53.9 359.801 -53C361.101 -52.1 363.301 -52 367.201 -53C385.801 -57.3 401.601 -67.2 418.701 -78.8C420.101 -79.7 421.401 -80.7 422.801 -81.6C429.501 -86.2 436.501 -91 444.101 -94.2C478.401 -108.7 526.401 -94.9 547.001 -64.7C551.001 -58.8 553.401 -51.9 555.801 -45.2C556.801 -42.3 557.901 -39.4 559.001 -36.6C569.801 -10.2 582.901 12.7 599.101 33.5C620.201 60.6 621.401 88.6 622.801 121.1V121.8C623.801 145 622.001 171.6 600.701 193.3C588.001 206.3 571.901 215.5 557.901 223C544.701 230.1 530.901 236.6 516.601 236.6L516.801 236.9Z" fill="white" fill-opacity="0.12"/>
<path d="M1382.4 406.3C1381.9 406.3 1381.5 406.1 1381.2 405.8C1378.2 402.5 1374.9 399.2 1371.7 396C1364.5 388.8 1357 381.3 1351.6 372.5C1340.2 353.8 1340.4 334.3 1352 316C1359.9 303.6 1369.6 294.9 1381.7 289.4C1382.5 289 1383.5 289.4 1383.9 290.2C1384.3 291 1383.9 292 1383.1 292.4C1371.6 297.6 1362.4 305.9 1354.8 317.7C1343.9 334.8 1343.7 353.1 1354.4 370.6C1359.5 379 1366.9 386.3 1374 393.5C1377.2 396.7 1380.5 400 1383.6 403.4C1384.2 404.1 1384.2 405.1 1383.5 405.8C1383.2 406.1 1382.8 406.2 1382.4 406.2V406.3Z" fill="white" fill-opacity="0.12"/>
<path d="M490.002 696.8C488.202 696.8 487.202 696.7 486.902 696.6C474.002 695.2 463.602 689.7 456.302 680.4C441.302 661.4 444.002 632.9 444.402 629.5C443.702 610.4 464.702 592.4 480.102 579.2C483.202 576.5 486.202 574 488.602 571.8L493.302 567.4C505.302 556.1 521.902 549.7 536.602 550.7C553.802 551.8 566.602 563.9 567.602 580C569.302 607.4 561.302 633.9 543.002 661.1C521.602 693.8 498.202 696.9 489.902 696.9L490.002 696.8ZM533.802 557.1C521.502 557.1 508.002 562.7 497.902 572.1L493.202 576.5C490.702 578.8 487.702 581.4 484.502 584.1C470.102 596.5 450.302 613.4 451.102 629.3C451.102 629.5 451.102 629.7 451.102 629.9C451.102 630.2 447.702 658.6 461.602 676.2C467.802 684 476.602 688.6 487.802 689.9C489.002 690.1 514.002 693.1 537.502 657.2C555.002 631.3 562.602 606.1 561.002 580.3C560.202 567.6 550.002 558.1 536.202 557.2C535.402 557.2 534.602 557.2 533.802 557.2V557.1Z" fill="white" fill-opacity="0.12"/>
<path d="M297.501 820.7C296.901 820.7 296.301 820.4 296.001 819.9C281.001 793.4 261.401 777.8 228.201 766.1C220.601 763.4 212.801 761 205.201 758.6C186.001 752.6 166.202 746.4 148.602 736C117.102 717.3 103.301 689.2 88.7015 659.5C83.4015 648.7 77.9015 637.6 71.5015 626.9L70.9015 625.9C54.3015 598.1 23.3015 546.3 -13.6985 551.9C-14.5985 552 -15.4985 551.4 -15.5985 550.5C-15.6985 549.6 -15.0985 548.7 -14.1985 548.6C25.1015 542.7 56.8015 595.7 73.8015 624.2L74.4015 625.2C80.9015 636 86.4015 647.2 91.7015 658.1C106.101 687.4 119.701 715.1 150.301 733.2C167.602 743.4 187.201 749.6 206.201 755.5C213.801 757.9 221.701 760.3 229.301 763C263.302 775 283.501 791 298.901 818.3C299.401 819.1 299.101 820.1 298.301 820.6C298.001 820.7 297.801 820.8 297.501 820.8V820.7Z" fill="white" fill-opacity="0.12"/>
<path d="M119.602 494.3C100.802 494.3 81.9017 485 64.1017 466.9C49.0017 451.6 39.8017 435.2 38.4017 432.6C36.8017 430.7 35.2017 428.8 33.5017 426.9C29.7017 422.5 25.9017 418 22.2017 413.5C13.1017 402.3 4.10166 395.3 -6.29834 391.4C-7.99834 390.8 -8.89834 388.8 -8.29834 387.1C-7.69834 385.4 -5.69834 384.5 -3.99834 385.1C7.50166 389.4 17.5017 397 27.3017 409.2C30.9017 413.7 34.8017 418.2 38.5017 422.5C40.2017 424.5 41.9017 426.5 43.6017 428.5C43.8017 428.7 43.9017 428.9 44.0017 429.1C44.4017 429.8 80.9017 497.4 130.502 486.4C130.702 486.4 130.902 486.4 131.102 486.4C131.602 486.4 179.802 483 221.402 413.7C221.402 413.5 221.602 413.4 221.702 413.3C228.702 405.1 236.202 397.2 243.502 389.6L245.902 387.1C261.302 370.9 266.702 350.6 263.402 321.3C260.002 291.9 239.302 275.1 216.502 259.1C214.902 258 213.402 256.8 211.902 255.7C209.002 253.5 206.302 251.4 203.302 249.8C185.402 240 168.802 241.9 151.102 256C139.902 265 133.702 277.1 127.302 289.9C125.402 293.7 123.402 297.6 121.302 301.4C112.902 316.4 99.3017 325 78.4017 328.2C63.0017 330.6 47.8017 329.1 33.0017 327.6C20.6017 326.3 7.80166 325 -4.69834 326.2C-6.49834 326.4 -8.19834 325 -8.29834 323.2C-8.49834 321.4 -7.09834 319.7 -5.29834 319.6C7.90166 318.4 21.0017 319.7 33.7017 321C48.0017 322.5 62.9017 324 77.4017 321.7C96.4017 318.7 108.102 311.5 115.502 298.2C117.602 294.5 119.502 290.6 121.402 286.9C127.902 274 134.702 260.7 147.002 250.8C166.802 235 186.302 232.8 206.602 243.9C210.002 245.8 213.102 248.1 216.102 250.4C217.602 251.5 219.002 252.6 220.502 253.7C244.602 270.6 266.502 288.5 270.202 320.6C273.802 352 267.902 374 250.902 391.7L248.502 394.2C241.302 401.7 234.002 409.5 227.202 417.4C184.902 487.7 136.602 492.7 131.902 493.1C127.902 494 123.802 494.4 119.802 494.4L119.602 494.3Z" fill="white" fill-opacity="0.12"/>
<path d="M491.601 659.3C490.001 659.3 488.401 659 486.801 658.5C478.901 655.9 474.701 649.5 474.001 638.9C473.001 624.4 481.901 607.9 504.301 603.4C504.601 603.4 504.901 603.4 505.101 603.4C505.401 603.4 505.701 603.4 506.001 603.4C516.801 606.2 521.201 612.6 519.701 623.5C518.201 634.5 513.801 643.8 506.701 651.3C501.701 656.5 496.601 659.2 491.601 659.2V659.3ZM505.101 606.7C505.101 606.7 505.001 606.7 504.901 606.7C484.501 610.8 476.401 625.7 477.301 638.7C478.001 647.9 481.301 653.2 487.801 655.3C493.201 657.1 498.601 655 504.201 649.1C510.901 642.1 514.901 633.4 516.301 623.1C517.601 613.8 514.301 609 505.101 606.6V606.7Z" fill="white" fill-opacity="0.12"/>
<path d="M520.701 155.301C514.101 155.301 506.701 151.501 500.601 144.601L500.101 144.001C498.901 142.601 497.601 141.201 496.601 139.501C485.501 120.201 478.301 98.3005 474.401 72.4005C472.801 61.5005 475.901 53.8005 483.701 49.5005C484.101 49.3005 484.601 49.2005 485.001 49.4005C485.401 49.3005 485.801 49.4005 486.201 49.4005C487.401 50.0005 488.801 50.5005 490.201 51.0005C493.401 52.2005 496.801 53.4005 499.001 55.8005C506.601 64.1005 514.401 73.1005 520.401 83.0005C527.901 95.4005 534.401 108.401 539.801 121.701C544.501 133.501 539.101 147.801 527.701 153.601C525.601 154.701 523.201 155.201 520.801 155.201L520.701 155.301ZM484.901 52.6005C478.601 56.2005 476.201 62.5005 477.601 71.9005C481.401 97.4005 488.501 118.901 499.301 137.801C500.101 139.201 501.201 140.401 502.401 141.801L502.901 142.401C510.201 150.701 519.501 154.001 525.901 150.701C535.801 145.601 540.501 133.201 536.401 123.001C531.101 109.801 524.601 96.9005 517.301 84.7005C511.501 75.1005 503.801 66.2005 496.301 58.0005C494.601 56.2005 491.801 55.2005 488.801 54.1005C487.501 53.6005 486.101 53.1005 484.801 52.5005L484.901 52.6005Z" fill="white" fill-opacity="0.12"/>
<path d="M562.901 390.5C554.301 390.5 546.101 388 539.201 383C529.401 375.9 524.201 368 524.001 360.3C523.801 354 527.101 347.9 533.501 342.8C557.301 323.6 580.101 310.2 603.301 301.9C603.601 301.8 604.001 301.8 604.301 301.9C604.501 301.9 604.601 301.9 604.801 301.9C614.101 301.9 620.701 304.3 624.401 309.2C628.201 314 628.901 321 626.701 330C621.201 351.8 609.601 368.9 592.201 380.9C582.901 387.3 572.701 390.5 562.901 390.5ZM604.401 305.1C581.601 313.2 559.101 326.4 535.701 345.4C530.101 350 527.301 355 527.401 360.2C527.601 366.8 532.401 373.7 541.301 380.2C554.901 390.1 574.101 389.2 590.401 378C607.101 366.4 618.301 350 623.601 329C625.601 321.1 625.001 315 621.901 311C618.801 307 613.101 305 604.901 305C596.701 305 604.601 305 604.401 305V305.1Z" fill="white" fill-opacity="0.12"/>
<path d="M557.1 411.2C544.5 411.2 532.4 407.5 522.3 400.2C507.9 389.7 500.1 378.1 499.9 366.7C499.7 357.3 504.6 348.3 514.1 340.6C548.6 312.7 581.7 293.3 615.4 281.3C616 281.1 616.6 281.1 617.2 281.2C617.4 281.2 617.7 281.2 617.9 281.2C631.6 281.2 641.4 284.9 647 292.1C652.6 299.3 653.8 309.7 650.4 323C642.4 354.7 625.5 379.7 600.1 397.2C586.5 406.6 571.5 411.3 557.2 411.3L557.1 411.2ZM617.1 287.7C584.3 299.5 552 318.5 518.2 345.8C510.3 352.2 506.3 359.2 506.5 366.5C506.7 375.8 513.5 385.6 526.2 394.8C545.5 408.9 573 407.6 596.1 391.6C620.1 375 636.2 351.4 643.8 321.3C646.6 310.1 645.9 301.6 641.6 296.1C637.3 290.6 629.3 287.8 617.8 287.8C606.3 287.8 617.4 287.8 617.2 287.8L617.1 287.7Z" fill="white" fill-opacity="0.12"/>
<path d="M709.4 774.5C703.2 774.5 697.3 772.8 692.3 769.4C684.6 764.2 679.8 755.9 678.7 746C677.7 736.7 678.3 726.2 680.6 715.7L682.4 707.2C691.5 664.4 700.9 620.1 711.6 576.9C716.9 555.7 725.8 532.8 751.8 523.6C752.1 523.5 752.5 523.5 752.8 523.6C752.9 523.6 753 523.6 753.2 523.6C773.5 522 788.5 531.1 800.1 552.4C810.5 571.3 810.2 591.7 809.1 609.2C808.2 623.9 807.9 638.8 807.7 653.3C807.5 663.5 807.3 674 806.9 684.3C806.2 702.5 801.3 717 792.1 728.6C775.3 749.8 752.1 764 719 773.3C715.8 774.2 712.5 774.7 709.4 774.7V774.5ZM752.8 526.7C728.3 535.4 719.8 557.3 714.8 577.6C704.1 620.7 694.7 665 685.6 707.8L683.8 716.3C681.6 726.5 681 736.6 682 745.6C683 754.5 687.3 762 694.1 766.6C700.9 771.2 709.4 772.4 718 769.9C750.4 760.8 773.1 747 789.4 726.4C798.2 715.3 802.8 701.5 803.5 684.1C803.9 673.8 804.1 663.3 804.3 653.2C804.6 638.7 804.8 623.7 805.7 608.9C806.7 591.8 807 572 797.1 553.9C786.1 533.9 772.2 525.3 753.4 526.8C753.2 526.8 753 526.8 752.8 526.8V526.7Z" fill="white" fill-opacity="0.12"/>
<path d="M722.1 730.601C717.7 730.601 713.6 729.401 710 727.001C704.6 723.301 701.201 717.501 700.401 710.501C699.701 704.401 700.1 697.501 701.6 690.601L702.8 685.201C708.5 658.101 714.5 630.101 721.3 602.801C724.8 588.801 730.7 573.701 748.2 567.501C748.7 567.301 749.2 567.301 749.6 567.301C763.3 566.201 773.7 572.601 781.5 586.701C788.4 599.201 788.2 612.501 787.5 623.901C786.9 633.101 786.8 642.601 786.6 651.701C786.5 658.101 786.4 664.801 786.1 671.401C785.6 683.401 782.4 693.001 776.3 700.701C765.5 714.301 750.001 723.801 728.901 729.701C726.601 730.301 724.4 730.601 722.2 730.601H722.1ZM749.8 574.001C735.7 579.201 730.9 591.701 727.7 604.401C720.9 631.601 715 659.601 709.3 686.601L708.1 692.001C706.8 698.201 706.4 704.401 707 709.801C707.5 714.801 709.9 718.901 713.7 721.401C717.4 723.901 722.101 724.601 726.901 723.201C746.901 717.601 760.901 709.101 770.901 696.401C776.101 689.801 778.9 681.501 779.3 671.001C779.6 664.501 779.7 657.901 779.8 651.501C780 642.301 780.1 632.801 780.7 623.401C781.5 610.401 780.9 599.701 775.5 589.801C769 577.901 761.1 573.001 750 573.901C750 573.901 749.8 573.901 749.7 573.901L749.8 574.001Z" fill="white" fill-opacity="0.12"/>
<path d="M733.101 689.3C730.901 689.3 728.901 688.7 727.101 687.5C724.401 685.7 722.701 682.8 722.401 679.4C722.101 676.4 722.301 673 723.001 669.6L723.601 666.9C726.401 653.5 729.401 639.7 732.701 626.2C734.401 619.3 737.401 611.8 746.001 608.7C746.201 608.7 746.501 608.6 746.701 608.7C753.401 608.2 758.601 611.3 762.501 618.3C765.901 624.5 765.801 631 765.501 636.7C765.201 641.3 765.101 645.9 765.001 650.4C765.001 653.6 764.901 656.9 764.801 660.1C764.601 666 763.001 670.8 759.901 674.6C754.501 681.4 747.001 686 736.401 689C735.301 689.3 734.201 689.5 733.101 689.5V689.3ZM746.801 611.9C739.901 614.5 737.501 620.6 735.901 626.9C732.601 640.3 729.601 654.2 726.801 667.5L726.201 670.2C725.501 673.3 725.401 676.3 725.701 679C726.001 681.5 727.101 683.5 729.001 684.7C730.801 685.9 733.201 686.3 735.501 685.6C745.401 682.8 752.301 678.6 757.201 672.4C759.801 669.1 761.101 665 761.301 659.8C761.401 656.6 761.501 653.4 761.501 650.2C761.501 645.7 761.701 641 762.001 636.3C762.401 629.9 762.101 624.6 759.401 619.7C756.201 613.8 752.301 611.4 746.801 611.8H746.701L746.801 611.9Z" fill="white" fill-opacity="0.12"/>
<path d="M974.903 472.6C969.103 472.6 963.103 471.2 957.003 468.3C933.903 457.4 915.903 440.7 896.103 419.1C887.403 409.6 881.703 399.2 879.103 388.3C876.403 376.7 876.503 372.4 887.303 365.5C890.203 363.6 894.803 361.2 899.603 360.4C923.503 356.5 946.903 353.001 972.803 349.201C979.403 348.201 986.103 347.4 992.603 346.6C995.603 346.2 998.603 345.9 1001.6 345.5C1001.9 345.5 1002.2 345.5 1002.5 345.5C1002.8 345.5 1003.1 345.5 1003.5 345.5C1005.3 345.8 1007.1 346.001 1008.9 346.201C1013.1 346.701 1017.5 347.101 1021.7 348.701C1035.3 353.701 1045 376.1 1041.4 393.9C1035.4 423 1021 446.701 998.503 464.201C991.103 470.001 983.303 472.8 975.103 472.8L974.903 472.6ZM1002.5 351.701C999.503 352.101 996.503 352.5 993.503 352.8C987.103 353.6 980.403 354.4 973.903 355.4C948.003 359.2 924.603 362.7 900.803 366.6C897.803 367.1 894.403 368.5 890.903 370.701C883.203 375.601 883.203 376.701 885.603 386.701C887.903 396.601 893.103 406 901.003 414.6C920.303 435.7 937.803 451.9 959.903 462.4C972.503 468.3 983.803 467.2 994.503 458.8C1015.8 442.2 1029.5 419.8 1035.1 392.3C1038.1 377.8 1030 358.4 1019.5 354.5C1016.1 353.2 1012.3 352.8 1008.3 352.4C1006.4 352.2 1004.5 352.001 1002.6 351.701H1002.5Z" fill="white" fill-opacity="0.12"/>
<path d="M970.801 456.4C966.801 456.4 962.601 455.4 958.301 453.4C941.901 445.6 929.201 433.8 915.101 418.5C909.001 411.8 904.901 404.5 903.201 396.8C901.301 388.4 901.601 385.801 908.701 381.201C910.701 379.901 913.901 378.201 917.201 377.701C934.201 374.901 950.901 372.401 969.401 369.701C974.101 369.001 978.901 368.4 983.501 367.8C985.601 367.5 987.801 367.3 989.901 367C990.101 367 990.301 367 990.401 367C990.601 367 990.801 367 991.001 367C992.301 367.2 993.601 367.3 994.901 367.5C997.901 367.8 1001 368.201 1003.8 369.201C1013 372.601 1019.9 388.5 1017.4 400.701C1013.2 421.3 1003 438 987.001 450.4C981.801 454.4 976.401 456.4 970.701 456.4H970.801ZM990.401 370.201C990.401 370.201 990.401 370.201 990.301 370.201C988.201 370.501 986.001 370.7 983.901 371C979.301 371.6 974.501 372.2 969.901 372.9C951.501 375.6 934.801 378.1 917.801 380.9C915.601 381.3 913.101 382.3 910.501 383.9C904.701 387.6 904.701 388.7 906.401 395.9C908.001 403 911.801 409.8 917.501 416.1C931.301 431.2 943.801 442.8 959.701 450.3C968.701 454.6 977.301 453.701 985.001 447.701C1000.3 435.8 1010.1 419.7 1014.2 399.9C1016.4 389.3 1010.4 375.101 1002.7 372.201C1000.2 371.301 997.501 371.001 994.601 370.701C993.201 370.601 991.901 370.401 990.601 370.201H990.401Z" fill="white" fill-opacity="0.12"/>
<path d="M709.1 227.901C706.2 227.901 703.4 227.401 700.8 226.301C693.4 223.201 688.3 216.001 685.9 205.601C682.5 190.501 683.6 175.401 689.4 159.401C693.4 148.201 700.2 141.701 709.6 139.901C709.9 139.901 710.1 139.901 710.4 139.901C710.5 139.901 710.7 139.901 710.8 139.901C724.7 139.601 736.7 145.801 747.6 159.001C753.6 166.201 755.5 175.101 753.3 185.401C750 200.901 740.8 213.501 725.9 222.601C720.1 226.101 714.4 228.001 709 228.001L709.1 227.901ZM710.4 143.201C710.4 143.201 710.3 143.201 710.2 143.201C702 144.701 696.1 150.601 692.5 160.501C687 175.901 685.9 190.401 689.1 204.801C691.2 214.101 695.7 220.501 702 223.101C708.3 225.801 716.2 224.501 724.1 219.601C738.2 211.001 746.8 199.201 750 184.601C752 175.301 750.3 167.601 745 161.101C734.8 148.801 723.7 142.901 710.9 143.201C710.7 143.201 710.5 143.201 710.4 143.201Z" fill="white" fill-opacity="0.12"/>
<path d="M703.601 252.9C699.001 252.9 694.501 252 690.401 250.3C678.701 245.4 670.601 234.1 666.901 217.7C661.601 194.2 663.401 170.7 672.301 145.8C678.601 128.2 689.301 117.9 704.201 115.1C704.701 115.1 705.101 115.1 705.601 115.1C705.801 115.1 706.001 115.1 706.301 115.1C728.101 114.6 746.801 124.4 763.901 145C773.301 156.4 776.301 170.3 772.901 186.5C767.701 210.8 753.401 230.3 730.101 244.6C721.001 250.2 712.001 253 703.501 253L703.601 252.9ZM705.601 121.6C705.601 121.6 705.601 121.6 705.501 121.6C693.101 123.9 684.101 132.8 678.701 148C670.201 171.7 668.501 194 673.501 216.2C676.701 230.4 683.501 240 693.001 244.1C702.501 248.1 714.501 246.2 726.601 238.7C748.201 225.4 761.501 207.3 766.301 184.9C769.301 170.7 766.801 158.9 758.701 149.1C743.101 130.2 725.901 121.2 706.401 121.7C706.101 121.7 705.801 121.7 705.601 121.7V121.6Z" fill="white" fill-opacity="0.12"/>
<path d="M125.303 455.5C107.403 455.5 92.6032 444.2 85.9032 425.4C81.4032 412.6 85.9032 400.2 97.2032 393.7C101.203 391.4 105.603 390 110.003 388.6C111.903 388 113.803 387.4 115.703 386.7C116.103 386.6 116.403 386.6 116.803 386.7C117.003 386.7 117.103 386.7 117.303 386.7C119.703 386.7 122.103 386.7 124.503 386.6C129.803 386.5 135.203 386.4 140.603 386.8C158.603 388.3 168.503 399.3 167.203 416.4C165.803 434.9 147.203 453.9 129.003 455.4C127.803 455.5 126.503 455.6 125.303 455.6V455.5ZM116.803 389.9C114.903 390.6 113.003 391.2 111.003 391.8C106.703 393.2 102.603 394.5 98.9032 396.6C88.9032 402.3 85.1032 412.9 89.1032 424.3C95.6032 442.9 110.803 453.5 128.703 452C145.103 450.6 162.503 432.8 163.803 416.1C165.003 400.9 156.403 391.4 140.303 390.1C135.103 389.7 129.703 389.8 124.603 389.9C122.203 389.9 119.803 390 117.403 390C115.003 390 117.103 390 116.903 390L116.803 389.9Z" fill="white" fill-opacity="0.12"/>
<path d="M975.803 419C973.503 419 971.203 418.8 969.003 418.4C962.303 417.3 957.503 411.4 957.003 403.8C956.503 395.5 963.103 391.5 967.503 388.9C969.803 387.5 972.503 387 975.203 386.4C976.303 386.2 977.403 386 978.503 385.7C978.803 385.7 979.103 385.7 979.403 385.7C979.603 385.7 979.803 385.7 980.003 385.7C987.703 386.3 996.003 388.2 998.703 397.5C1001.1 405.6 997.503 413.4 990.003 416.4C985.903 418.1 980.903 419 975.903 419H975.803ZM979.303 388.9C978.203 389.2 977.003 389.4 975.803 389.7C973.303 390.2 971.003 390.7 969.203 391.8C964.103 394.8 959.903 397.8 960.303 403.6C960.703 409.6 964.403 414.3 969.503 415.2C976.003 416.3 983.103 415.6 988.603 413.4C994.403 411 997.203 404.9 995.403 398.5C993.403 391.6 987.603 389.7 979.703 389.1C979.603 389.1 979.503 389.1 979.403 389.1L979.303 388.9Z" fill="white" fill-opacity="0.12"/>
<path d="M-5.09907 113.4C-5.59907 113.4 -6.09907 113.2 -6.49907 112.7C-6.99907 112 -6.89907 110.9 -6.09907 110.4C-5.49907 110 55.2009 65.9002 93.8009 16.3002C94.0009 16.0002 116.001 -13.2998 156.301 -22.7998C156.901 -22.7998 201.501 -28.9998 259.701 -78.1998C261.201 -80.3998 262.801 -82.4998 264.301 -84.5998C267.701 -89.1998 271.301 -93.9998 273.701 -99.0998C280.101 -112.5 278.801 -127.3 277.701 -141.7V-142.5C277.601 -143.4 278.201 -144.2 279.201 -144.3C280.101 -144.3 280.901 -143.7 281.001 -142.8V-142C282.301 -127.2 283.501 -111.9 276.801 -97.6998C274.201 -92.2998 270.601 -87.3998 267.101 -82.5998C265.501 -80.4998 263.901 -78.2998 262.501 -76.1998C262.501 -76.0998 262.301 -75.9998 262.201 -75.8998C231.401 -49.7998 204.501 -35.8998 187.401 -28.7998C168.801 -21.0998 157.601 -19.6998 157.101 -19.5998C118.201 -10.2998 96.9009 18.0002 96.7009 18.3002C57.5009 68.2002 -3.49907 112.6 -4.09907 113.1C-4.39907 113.3 -4.69907 113.4 -5.09907 113.4Z" fill="white" fill-opacity="0.12"/>
<path d="M775.202 439.5C769.002 439.5 762.902 437.8 757.002 436.2C751.402 434.7 745.602 433.1 739.902 433.1C734.802 433.1 729.902 434.2 724.802 435.3C721.202 436.1 717.502 436.9 713.702 437.4C704.802 438.4 695.702 436.9 687.502 433.2C684.802 432 681.002 430 678.702 426.5C674.702 420.3 676.602 411.7 684.102 401.9C694.302 388.5 709.702 368.3 726.402 360.7C738.302 355.3 761.702 356.8 769.802 370C771.702 373.1 772.602 376.5 773.502 379.8C773.902 381.3 774.302 382.9 774.802 384.4C776.502 389.4 779.202 393.9 782.202 398.6C783.702 401 785.302 403.5 786.602 406.1C790.202 412.8 793.702 422.7 789.802 431.5C789.002 433.4 787.902 434.9 786.702 436.1C784.302 438.3 780.902 439.5 776.402 439.6C776.002 439.6 775.602 439.6 775.302 439.6L775.202 439.5ZM739.702 429.8C739.802 429.8 739.902 429.8 740.002 429.8C746.202 429.8 752.202 431.5 757.902 433.1C764.202 434.8 770.102 436.4 776.202 436.2C779.802 436.1 782.602 435.2 784.302 433.6C785.202 432.8 786.002 431.6 786.602 430.1C789.902 422.5 786.802 413.7 783.502 407.6C782.202 405.1 780.602 402.6 779.202 400.3C776.302 395.6 773.302 390.8 771.502 385.4C771.002 383.8 770.502 382.2 770.102 380.6C769.302 377.4 768.402 374.3 766.802 371.7C760.302 361 739.502 358.4 727.702 363.7C711.702 370.9 696.702 390.8 686.702 403.9C682.102 409.9 677.502 418.4 681.502 424.7C683.302 427.5 686.502 429.2 688.802 430.2C696.402 433.6 704.902 435 713.202 434.1C716.802 433.7 720.402 432.9 723.902 432.1C728.902 431 734.202 429.8 739.502 429.8H739.702Z" fill="white" fill-opacity="0.12"/>
<path d="M756.102 421.3C752.702 421.3 749.402 420.4 746.202 419.5C743.102 418.7 740.202 417.9 737.202 417.8C734.702 417.8 732.002 418.4 729.302 419C727.302 419.4 725.302 419.9 723.302 420.1C718.402 420.6 713.402 419.8 708.902 417.8C707.402 417.1 705.202 416 703.902 413.9C701.602 410.3 702.602 405.4 706.802 399.8C712.302 392.6 720.602 381.6 729.802 377.5C737.202 374.1 749.702 375.7 754.002 382.8C755.102 384.5 755.602 386.4 756.002 388.3C756.202 389.1 756.402 389.9 756.702 390.7C757.602 393.3 759.002 395.6 760.602 398.1C761.402 399.4 762.302 400.8 763.002 402.2C765.002 405.9 766.902 411.5 764.702 416.5C764.202 417.6 763.602 418.5 762.802 419.2C761.402 420.5 759.402 421.2 756.802 421.3C756.602 421.3 756.402 421.3 756.202 421.3H756.102ZM737.102 414.5H737.302C740.702 414.5 744.002 415.4 747.102 416.3C750.402 417.2 753.502 418.1 756.702 417.9C758.502 417.9 759.802 417.4 760.602 416.7C761.002 416.3 761.402 415.8 761.702 415.1C763.402 411.3 761.702 406.8 760.102 403.7C759.402 402.4 758.602 401.1 757.802 399.8C756.202 397.3 754.602 394.6 753.602 391.7C753.302 390.8 753.102 390 752.902 389.1C752.502 387.4 752.002 385.8 751.202 384.5C747.902 379.1 737.302 377.8 731.202 380.5C722.802 384.3 714.802 394.8 709.502 401.8C707.202 404.8 704.802 409.1 706.702 412.1C707.302 413.1 708.502 413.9 710.302 414.8C714.302 416.6 718.702 417.3 723.002 416.8C724.902 416.6 726.702 416.2 728.702 415.8C731.402 415.2 734.302 414.6 737.202 414.6L737.102 414.5Z" fill="white" fill-opacity="0.12"/>
<path d="M1010.5 166.801C1000.7 166.801 989.901 163.701 978.701 157.701C972.601 154.401 966.801 150.601 961.201 146.801C955.401 143.001 949.5 139.001 943.3 135.801C931.201 129.401 917.6 125.301 904.8 121.901L903.6 121.601C894.8 119.301 885.601 116.801 877.801 111.401C871.801 107.201 868.901 101.601 870.201 96.5006C871.701 90.4006 878.001 87.1006 887.801 87.1006C897.601 87.1006 888 87.1006 888.1 87.1006C911.2 87.3006 934.401 90.0006 957.001 95.3006L961.401 96.3006C980.401 100.701 1001.9 105.701 1018 115.801C1029.1 122.701 1036.2 132.801 1037.5 143.501C1038 147.601 1037.5 151.201 1036.2 154.301C1033.8 159.701 1028.4 163.601 1021 165.601C1017.6 166.501 1014.1 166.901 1010.4 166.901L1010.5 166.801ZM887.901 93.7006C885.301 93.7006 877.701 94.1006 876.701 98.1006C876.001 100.901 878.9 104.001 881.6 105.901C888.4 110.701 897.001 112.901 905.201 115.101L906.401 115.401C919.601 118.901 933.601 123.101 946.401 129.801C952.801 133.201 959.001 137.301 964.901 141.201C970.401 144.801 976.101 148.601 981.901 151.801C991.501 157.001 1005.9 162.501 1019.5 159.001C1022.6 158.201 1028.2 156.101 1030.3 151.501C1031.2 149.601 1031.4 147.101 1031 144.201C1029.9 135.501 1023.9 127.201 1014.5 121.301C999.301 111.801 978.401 106.901 959.901 102.701L955.501 101.701C933.401 96.5006 910.701 93.8006 888.001 93.7006C888.001 93.7006 887.901 93.7006 887.801 93.7006H887.901Z" fill="white" fill-opacity="0.12"/>
<path d="M1015.7 254.1C1015.7 254.1 1015.5 254.1 1015.4 254.1C1006 254.1 997.601 250.1 993.101 243.5C987.801 235.9 988.801 224.8 995.301 219.4C1000 215.4 1006.4 214.7 1012 214H1012.8C1033 211.5 1048.1 205.9 1059 196.6C1066 190.6 1072.1 182.5 1077.6 171.6C1087.6 152 1090.3 133.1 1091.5 109C1092.3 92.5003 1109.7 78.7003 1122.4 68.6003C1123.6 67.7003 1124.7 66.8003 1125.8 65.9003C1133.2 60.0003 1142.1 53.7003 1152.4 52.7003C1160.3 51.9003 1169.9 55.3003 1172.1 63.4003C1173 66.7003 1172.6 70.5003 1170.9 75.0003C1167 85.2003 1159.4 93.3003 1152 101C1146.3 107 1140.4 113.2 1136.4 120.3C1133.2 126 1131 132.4 1129 138.6C1128.5 140 1128.1 141.3 1127.6 142.7C1110.9 191.6 1078.6 229.9 1039.2 248C1032.9 250.9 1024.6 254.2 1015.6 254.2L1015.7 254.1ZM1154.8 55.8003C1154.1 55.8003 1153.4 55.8003 1152.8 55.9003C1143.4 56.9003 1134.9 62.8003 1128 68.4003C1126.9 69.3003 1125.8 70.2003 1124.6 71.1003C1112.4 80.8003 1095.7 94.1003 1094.9 109.1C1093.7 133.7 1090.9 153 1080.6 173.1C1074.9 184.4 1068.5 192.9 1061.1 199.1C1049.7 208.8 1034 214.7 1013.1 217.2H1012.3C1006.9 217.9 1001.3 218.6 997.401 221.9C992.201 226.3 991.501 235.3 995.801 241.6C999.701 247.2 1007.2 250.7 1015.4 250.8H1015.6C1023.9 250.8 1031.8 247.7 1037.8 244.9C1076.4 227.2 1108 189.5 1124.4 141.5C1124.9 140.2 1125.3 138.8 1125.8 137.5C1127.9 131.2 1130.1 124.6 1133.5 118.6C1137.7 111.1 1143.8 104.8 1149.6 98.6003C1157.1 90.7003 1164.1 83.3003 1167.8 73.7003C1169.3 69.9003 1169.6 66.8003 1168.9 64.2003C1167.3 58.5003 1160.8 55.8003 1154.8 55.8003Z" fill="white" fill-opacity="0.12"/>
</g>
<defs>
<clipPath id="clip0_15319_1569">
<rect width="1376" height="700" fill="white"/>
</clipPath>
</defs>
</svg>
