<svg width="29" height="29" viewBox="0 0 29 29" fill="none" xmlns="http://www.w3.org/2000/svg">
<g clip-path="url(#clip0_15322_1623)">
<path d="M14.2227 0.481445C6.49077 0.481445 0.222656 6.74945 0.222656 14.4814C0.222656 22.2134 6.49077 28.4814 14.2227 28.4814C21.9545 28.4814 28.2227 22.2134 28.2227 14.4814C28.2227 6.74945 21.9545 0.481445 14.2227 0.481445ZM19.0614 15.2236L12.0614 19.5986C11.9198 19.687 11.7587 19.7314 11.5977 19.7314C11.4518 19.7314 11.3056 19.6951 11.1734 19.6216C10.8953 19.4674 10.7227 19.1747 10.7227 18.8564V10.1064C10.7227 9.78817 10.8953 9.49548 11.1734 9.34126C11.4515 9.18616 11.7916 9.19557 12.0614 9.36434L19.0614 13.7393C19.3171 13.8996 19.4727 14.1798 19.4727 14.4814C19.4727 14.783 19.3171 15.0634 19.0614 15.2236Z" fill="white"/>
</g>
<defs>
<clipPath id="clip0_15322_1623">
<rect width="28" height="28" fill="white" transform="translate(0.222656 0.481445)"/>
</clipPath>
</defs>
</svg>
