<svg width="96" height="96" viewBox="0 0 96 96" fill="none" xmlns="http://www.w3.org/2000/svg">
<g clip-path="url(#clip0_15319_1687)">
<path d="M48 0C21.4907 0 0 21.4903 0 48C0 74.5097 21.4907 96 48 96C74.5093 96 96 74.5097 96 48C96 21.4903 74.5093 0 48 0ZM64.59 50.5444L40.59 65.5444C40.1044 65.8476 39.5522 66 39 66C38.4997 66 37.9988 65.8755 37.5454 65.6235C36.5918 65.0947 36 64.0912 36 63V33C36 31.9088 36.5918 30.9052 37.5454 30.3765C38.499 29.8447 39.6651 29.877 40.59 30.4556L64.59 45.4556C65.4668 46.005 66 46.9659 66 48C66 49.0341 65.4668 49.9952 64.59 50.5444Z" fill="white"/>
</g>
<defs>
<clipPath id="clip0_15319_1687">
<rect width="96" height="96" fill="white"/>
</clipPath>
</defs>
</svg>
