<svg width="21" height="20" viewBox="0 0 21 20" fill="none" xmlns="http://www.w3.org/2000/svg">
<path d="M10.498 0.333496C15.8367 0.333496 20.1648 4.66094 20.165 9.99951C20.165 15.3383 15.8368 19.6665 10.498 19.6665C5.15947 19.6663 0.832031 15.3381 0.832031 9.99951C0.832243 4.66107 5.1596 0.333708 10.498 0.333496ZM13.292 5.68213C13.1551 5.71124 13.0341 5.7926 12.9561 5.90869L9.17188 11.6616L7.82324 10.3423C7.72244 10.2446 7.58664 10.1899 7.44629 10.1899C7.30611 10.1901 7.171 10.2447 7.07031 10.3423L6.31934 11.0757C6.27031 11.1233 6.23071 11.1807 6.2041 11.2437C6.17755 11.3066 6.16406 11.3746 6.16406 11.4429C6.1641 11.5109 6.17768 11.5784 6.2041 11.6411C6.23071 11.7041 6.27031 11.7614 6.31934 11.8091L8.58594 14.0229C8.7015 14.1347 8.84018 14.2205 8.99219 14.2729C9.14412 14.3253 9.30601 14.3435 9.46582 14.3267C9.62566 14.3098 9.78024 14.2581 9.91797 14.1753C10.0555 14.0925 10.173 13.9803 10.2627 13.8472L14.7441 7.03271C14.7818 6.97542 14.8079 6.91072 14.8203 6.84326C14.8327 6.77579 14.8313 6.70612 14.8164 6.63916C14.8015 6.57237 14.7731 6.50936 14.7334 6.45361C14.6936 6.39775 14.6424 6.3499 14.584 6.31396L13.6895 5.75244C13.571 5.67831 13.4287 5.65316 13.292 5.68213Z" fill="#2E7474"/>
</svg>
