<svg width="20" height="20" viewBox="0 0 20 20" fill="none" xmlns="http://www.w3.org/2000/svg">
<path d="M9.99805 0.333496C15.3367 0.333496 19.6648 4.66094 19.665 9.99951C19.665 15.3383 15.3368 19.6665 9.99805 19.6665C4.65947 19.6663 0.332031 15.3381 0.332031 9.99951C0.332243 4.66107 4.6596 0.333708 9.99805 0.333496ZM12.792 5.68213C12.6551 5.71124 12.5341 5.7926 12.4561 5.90869L8.67188 11.6616L7.32324 10.3423C7.22244 10.2446 7.08664 10.1899 6.94629 10.1899C6.80611 10.1901 6.671 10.2447 6.57031 10.3423L5.81934 11.0757C5.77031 11.1233 5.73071 11.1807 5.7041 11.2437C5.67755 11.3066 5.66406 11.3746 5.66406 11.4429C5.6641 11.5109 5.67768 11.5784 5.7041 11.6411C5.73071 11.7041 5.77031 11.7614 5.81934 11.8091L8.08594 14.0229C8.2015 14.1347 8.34018 14.2205 8.49219 14.2729C8.64412 14.3253 8.80601 14.3435 8.96582 14.3267C9.12566 14.3098 9.28024 14.2581 9.41797 14.1753C9.55551 14.0925 9.67299 13.9803 9.7627 13.8472L14.2441 7.03271C14.2818 6.97542 14.3079 6.91072 14.3203 6.84326C14.3327 6.77579 14.3313 6.70612 14.3164 6.63916C14.3015 6.57237 14.2731 6.50936 14.2334 6.45361C14.1936 6.39775 14.1424 6.3499 14.084 6.31396L13.1895 5.75244C13.071 5.67831 12.9287 5.65316 12.792 5.68213Z" fill="#2E7474"/>
</svg>
