<svg width="147" height="18" viewBox="0 0 147 18" fill="none" xmlns="http://www.w3.org/2000/svg">
<path d="M143.744 10.8349C135.107 8.65062 126.228 7.58882 117.349 6.83039C108.742 6.1023 99.8032 5.61691 91.0452 5.01017C73.1668 3.82702 55.1978 3.03826 37.2892 4.06972C36.1114 4.13039 34.9034 4.2214 33.7256 4.28208C33.4538 4.28208 33.182 4.31242 32.9102 4.34275C32.8196 4.34275 31.7626 4.43376 32.276 4.40343C31.6418 4.4641 31.0076 4.49444 30.3734 4.55511C27.897 4.76747 25.4508 5.01017 23.0046 5.2832C17.9914 5.85961 13.0387 6.73938 8.02544 7.49781C7.78384 6.46635 7.54224 5.43489 7.30063 4.40343C8.75023 4.31242 9.80724 4.28208 11.4682 4.22141C12.8272 4.16073 14.156 4.10006 15.515 4.06972C18.2632 3.97871 20.9812 3.8877 23.7294 3.85736C29.2258 3.76635 34.692 3.85736 40.1884 4.16073C51.3322 4.73714 62.4156 5.92028 73.499 7.34612C79.6598 8.13489 85.8206 8.92365 91.921 9.98545C92.6156 10.1068 93.8236 10.5619 93.6122 11.472C93.4008 12.3517 92.072 12.7158 91.2868 12.6551C85.7904 12.2304 79.8108 12.2304 74.103 12.2001C68.3348 12.2001 62.5364 12.2607 56.7682 12.4731C53.8992 12.5641 51.0302 12.7158 48.1914 12.8675C46.772 12.9585 45.3224 13.0495 43.903 13.1405C43.2084 13.2012 42.5138 13.2315 41.8192 13.2922C41.4568 13.2922 41.0944 13.3529 40.7018 13.3832C40.5508 13.3832 40.43 13.3832 40.279 13.4135C39.4032 13.4742 40.6716 13.3832 40.1582 13.4135C34.39 13.8686 28.652 14.445 22.914 15.1731C19.743 15.5675 16.572 15.9922 13.4312 16.4472C11.8306 16.6899 10.1998 16.9326 8.59924 17.1147C7.75365 17.2057 6.90805 17.327 6.06244 17.3877C5.66985 17.418 5.30743 17.4484 4.91484 17.4787C4.73364 17.4787 4.52223 17.509 4.34103 17.5394C4.15984 17.5394 3.04245 17.6911 3.49544 17.6001C2.58945 17.7517 0.958633 17.6001 0.50563 16.6293C0.0526428 15.5978 1.47203 15.0517 2.19684 14.9001C1.95523 14.9304 2.37804 14.8394 2.37804 14.8394C2.52904 14.7787 2.71024 14.7484 2.89145 14.718C3.19344 14.627 3.49544 14.5663 3.76724 14.4753C3.94844 14.445 4.09944 14.3843 4.28064 14.354C4.49203 14.2933 5.42824 14.081 5.00545 14.172C4.58264 14.263 5.73024 13.9899 5.60944 14.0203C5.88124 13.9596 6.15303 13.8989 6.42484 13.8383C7.81404 13.5349 9.20323 13.2922 10.6226 13.0798C13.4916 12.6248 16.3606 12.2001 19.2598 11.836C24.9374 11.1079 30.6452 10.5315 36.3832 10.0765C48.131 9.13601 59.9392 8.74163 71.7172 9.01466C78.2404 9.16635 84.7334 9.68208 91.2566 9.98545C91.0452 10.8652 90.8338 11.745 90.6224 12.6551C79.8108 11.1383 69.0898 9.31803 58.2178 8.2259C47.527 7.13376 36.7758 6.49669 25.934 6.52702C19.7732 6.52702 13.9446 6.86073 7.99524 7.58882C6.93825 7.71017 5.12624 7.64949 4.61284 6.49669C4.06924 5.31354 5.73024 4.73714 6.54564 4.55511C11.0152 3.55399 15.6056 3.00792 20.1356 2.49219C24.7562 1.94612 29.3768 1.55174 33.9974 1.24837C42.9668 0.702304 51.9664 0.580956 60.966 0.732641C79.1766 1.03601 97.3872 2.40118 115.507 4.22141C125.594 5.22253 135.651 6.55736 145.435 9.25736C146.009 9.40905 146.583 10.0461 146.039 10.5922C145.466 11.1686 144.439 11.1079 143.714 10.9259L143.744 10.8349Z" fill="white"/>
</svg>
