<svg width="218" height="26" viewBox="0 0 218 26" fill="none" xmlns="http://www.w3.org/2000/svg">
<path d="M3.83132 15.4282C16.7013 12.2732 29.9313 10.7395 43.1613 9.64396C55.9863 8.59227 69.3063 7.89115 82.3563 7.01474C108.996 5.30575 135.771 4.16643 162.456 5.65632C164.211 5.74396 166.011 5.87542 167.766 5.96306C168.171 5.96306 168.576 6.00688 168.981 6.0507C169.116 6.0507 170.691 6.18216 169.926 6.13834C170.871 6.22598 171.816 6.2698 172.761 6.35744C176.451 6.66418 180.096 7.01474 183.741 7.40913C191.211 8.24171 198.591 9.5125 206.061 10.608C206.421 9.11811 206.781 7.62823 207.141 6.13834C204.981 6.00688 203.406 5.96306 200.931 5.87542C198.906 5.78778 196.926 5.70014 194.901 5.65632C190.806 5.52486 186.756 5.39339 182.661 5.34957C174.471 5.21811 166.326 5.34957 158.136 5.78778C141.531 6.62036 125.016 8.32935 108.501 10.3889C99.3213 11.5282 90.1413 12.6676 81.0513 14.2013C80.0163 14.3765 78.2163 15.0338 78.5313 16.3485C78.8463 17.6192 80.8263 18.1451 81.9963 18.0574C90.1863 17.444 99.0963 17.444 107.601 17.4001C116.196 17.4001 124.836 17.4878 133.431 17.7945C137.706 17.926 141.981 18.1451 146.211 18.3642C148.326 18.4956 150.486 18.6271 152.601 18.7586C153.636 18.8462 154.671 18.89 155.706 18.9777C156.246 18.9777 156.786 19.0653 157.371 19.1091C157.596 19.1091 157.776 19.1091 158.001 19.1529C159.306 19.2406 157.416 19.1091 158.181 19.1529C166.776 19.8102 175.326 20.6428 183.876 21.6945C188.601 22.2642 193.326 22.8777 198.006 23.535C200.391 23.8855 202.821 24.2361 205.206 24.499C206.466 24.6305 207.726 24.8058 208.986 24.8934C209.571 24.9372 210.111 24.981 210.696 25.0249C210.966 25.0249 211.281 25.0687 211.551 25.1125C211.821 25.1125 213.486 25.3316 212.811 25.2001C214.161 25.4192 216.591 25.2001 217.266 23.7979C217.941 22.308 215.826 21.5192 214.746 21.3001C215.106 21.344 214.476 21.2125 214.476 21.2125C214.251 21.1249 213.981 21.081 213.711 21.0372C213.261 20.9058 212.811 20.8181 212.406 20.6867C212.136 20.6428 211.911 20.5552 211.641 20.5114C211.326 20.4237 209.931 20.117 210.561 20.2485C211.191 20.3799 209.481 19.9855 209.661 20.0294C209.256 19.9417 208.851 19.8541 208.446 19.7664C206.376 19.3282 204.306 18.9777 202.191 18.6709C197.916 18.0136 193.641 17.4001 189.321 16.8743C180.861 15.8226 172.356 14.99 163.806 14.3327C146.301 12.9743 128.706 12.4046 111.156 12.799C101.436 13.0181 91.7613 13.7631 82.0413 14.2013C82.3563 15.472 82.6713 16.7428 82.9863 18.0574C99.0963 15.8664 115.071 13.2372 131.271 11.6597C147.201 10.0822 163.221 9.16193 179.376 9.20576C188.556 9.20576 197.241 9.68778 206.106 10.7395C207.681 10.9147 210.381 10.8271 211.146 9.16193C211.956 7.45294 209.481 6.62036 208.266 6.35744C201.606 4.91137 194.766 4.12261 188.016 3.37766C181.131 2.5889 174.246 2.01924 167.361 1.58104C153.996 0.792271 140.586 0.616991 127.176 0.836092C100.041 1.27429 72.9063 3.2462 45.9063 5.87542C30.8763 7.32149 15.8913 9.24958 1.31132 13.1496C0.456321 13.3687 -0.398679 14.2889 0.411321 15.0777C1.26632 15.9102 2.79632 15.8226 3.87632 15.5597L3.83132 15.4282Z" fill="white"/>
</svg>
