<svg width="14" height="15" viewBox="0 0 14 15" fill="none" xmlns="http://www.w3.org/2000/svg">
<path d="M11.5189 7.81702C9.98181 8.83101 8.34516 9.69927 6.63141 10.3743C4.88992 11.0711 3.09182 11.5436 1.26343 11.9204C1.81027 12.521 2.34985 13.1123 2.89668 13.7129C3.0746 11.6168 3.10199 9.51967 2.90359 7.42076C2.80666 6.42178 2.66748 5.42616 2.47879 4.42464C2.26052 3.25225 1.97768 1.92156 1.20466 0.976127C1.0378 0.763826 0.398476 0.235958 0.182884 0.704063C-0.0287205 1.13917 0.06726 1.66104 0.152718 2.13145C0.24543 2.61109 0.33615 3.10723 0.428862 3.58687C0.612294 4.56266 0.762718 5.53452 0.852391 6.52426C1.04298 8.47998 1.08176 10.3758 0.890059 12.3782C0.814861 13.1391 1.67748 14.3128 2.52331 14.1706C6.25264 13.5092 9.88703 11.8323 12.9864 9.66508C13.4078 9.3637 13.0222 8.60657 12.79 8.31119C12.5289 7.97889 11.9753 7.50307 11.5209 7.80052L11.5189 7.81702Z" fill="white"/>
</svg>
