<svg width="22" height="24" viewBox="0 0 22 24" fill="none" xmlns="http://www.w3.org/2000/svg">
<path d="M19.5795 15.9245C16.7371 17.0618 13.7813 17.9285 10.7645 18.4546C7.69533 19.007 4.60895 19.1751 1.50523 19.1773C2.19494 20.3383 2.87593 21.4818 3.56564 22.6427C4.5564 19.2887 5.3024 15.8824 5.68127 12.3978C5.85752 10.7385 5.96384 9.07045 5.99149 7.3763C6.02813 5.39396 6.01254 3.13222 5.06982 1.33397C4.86907 0.932412 4.00443 -0.141084 3.49676 0.549161C3.00662 1.187 2.9884 2.06901 2.97024 2.86369C2.96082 3.67583 2.94263 4.51418 2.93321 5.32633C2.90559 6.97682 2.82553 8.60988 2.64055 10.2518C2.29686 13.5005 1.72597 16.601 0.744081 19.7979C0.367117 21.012 1.37945 23.2119 2.80449 23.2633C9.09921 23.4334 15.579 21.918 21.3513 19.425C22.1385 19.0752 21.7637 17.7131 21.4844 17.1544C21.1702 16.5259 20.4278 15.5659 19.5882 15.8983L19.5795 15.9245Z" fill="white"/>
</svg>
