<svg width="22" height="45" viewBox="0 0 22 45" fill="none" xmlns="http://www.w3.org/2000/svg">
<path d="M0.883971 1.60123C2.51222 2.18805 4.06577 2.90825 5.55713 3.79679C6.29093 4.23546 7.01348 4.69791 7.7228 5.20062C8.06196 5.44177 8.38461 5.68095 8.71451 5.92936C8.71451 5.92936 8.9969 6.15539 8.83657 6.02755C8.88935 6.07567 8.95138 6.11651 9.00416 6.16462C9.20275 6.32212 9.40861 6.48884 9.60521 6.66284C10.2498 7.21643 10.8831 7.7938 11.4795 8.40024C11.6213 8.54262 11.7631 8.685 11.903 8.84388C11.961 8.91772 12.0283 8.9843 12.0956 9.05087C12.3555 9.32444 11.8957 8.83465 12.1391 9.10626C12.4261 9.43325 12.7202 9.76947 12.9979 10.1037C13.5388 10.7538 14.0354 11.4237 14.5207 12.1174C14.586 12.2004 14.8149 12.4536 14.528 12.1266C14.5933 12.2097 14.6473 12.3165 14.7126 12.3996C14.8122 12.5453 14.9098 12.7075 15.0094 12.8533C15.2408 13.2239 15.4723 13.5945 15.6779 13.9704C15.8784 14.3206 16.0623 14.6688 16.2442 15.0335C16.3378 15.2287 16.4407 15.4167 16.5323 15.6284C16.5791 15.726 16.6424 15.8256 16.6727 15.9212C16.5462 15.5129 16.6331 15.8329 16.6727 15.9212C17.0068 16.689 17.3059 17.4693 17.5628 18.253C17.6859 18.6191 17.7926 18.9832 17.89 19.3546C17.9058 19.4318 17.9288 19.5183 17.9539 19.5882C17.7944 19.1759 17.9203 19.4503 17.9394 19.5697C17.9907 19.7683 18.0328 19.9741 18.0749 20.18C18.2367 20.9189 18.3543 21.6776 18.4389 22.4325C18.4795 22.7887 18.5129 23.1358 18.5443 23.4994C18.5502 23.6591 18.5632 23.828 18.569 23.9877C18.5736 24.0886 18.5781 24.1896 18.5847 24.2741C18.5859 24.3328 18.5852 24.408 18.5865 24.4667C18.5814 24.2318 18.5761 24.2061 18.582 24.3658C18.5825 24.4997 18.5923 24.6264 18.5929 24.7604C18.593 24.5512 18.5825 24.4997 18.5851 24.6172C18.5916 24.7017 18.5909 24.7769 18.5882 24.8686C18.59 25.0613 18.5918 25.254 18.5844 25.454C18.5788 25.8466 18.566 26.23 18.5439 26.6207C18.4542 28.1247 18.2326 29.613 17.8809 31.0691C17.8312 31.2724 17.7723 31.483 17.7226 31.6863C17.6729 31.8896 17.812 31.3622 17.7318 31.679C17.6921 31.7998 17.6597 31.9299 17.62 32.0507C17.5041 32.4553 17.3718 32.858 17.2229 33.2587C16.9344 34.0529 16.6057 34.8339 16.246 35.5945C15.5172 37.123 14.6149 38.5639 13.5668 39.8954C13.6355 39.8115 13.7135 39.7204 13.775 39.6273C13.5093 39.9555 13.2272 40.2818 12.9615 40.6101C12.6384 40.9985 12.368 41.435 12.0594 41.8418C11.8677 42.1119 11.9867 42.7202 12.0888 42.9834C12.241 43.3864 12.4745 43.7405 12.7614 44.0675C13.1902 44.5369 14.0631 45.2097 14.7065 44.7338C15.0282 44.4959 15.3736 44.2692 15.6518 43.9759C15.9875 43.6224 16.2849 43.2394 16.5915 42.849C17.1063 42.1905 17.5809 41.5189 18.0191 40.8011C18.8732 39.4131 19.5795 37.9321 20.1267 36.3821C21.2985 33.0569 21.7891 29.5503 21.6044 26.0221C21.4098 22.3671 20.3609 18.7864 18.7381 15.5223C17.0144 12.0539 14.5417 8.96501 11.6064 6.44879C8.74772 3.99187 5.47066 2.08775 1.9383 0.772548C1.51391 0.613324 1.08028 0.46137 0.644657 0.325916C0.339065 0.222651 0.102591 0.37865 0.154486 0.71118C0.204389 1.06021 0.499849 1.45516 0.836454 1.57884L0.883971 1.60123Z" fill="white"/>
</svg>
