<svg width="95" height="12" viewBox="0 0 95 12" fill="none" xmlns="http://www.w3.org/2000/svg">
<path d="M92.6236 7.34052C87.0752 5.96524 81.3716 5.2967 75.668 4.81917C70.139 4.36075 64.3966 4.05513 58.7706 3.67311C47.2858 2.92816 35.7428 2.43153 24.2386 3.08097C23.482 3.11917 22.706 3.17648 21.9494 3.21468C21.7748 3.21468 21.6002 3.23378 21.4256 3.25288C21.3674 3.25288 20.6884 3.31018 21.0182 3.29108C20.6108 3.32929 20.2034 3.34839 19.796 3.38659C18.2052 3.5203 16.6338 3.67311 15.0624 3.84502C11.842 4.20794 8.66041 4.76187 5.44001 5.2394C5.28481 4.58996 5.1296 3.94052 4.9744 3.29108C5.9056 3.23378 6.5846 3.21468 7.6516 3.17648C8.5246 3.13827 9.3782 3.10007 10.2512 3.08097C12.0166 3.02367 13.7626 2.96636 15.528 2.94726C19.0588 2.88996 22.5702 2.94726 26.101 3.13827C33.2596 3.5012 40.3794 4.24614 47.4992 5.14389C51.4568 5.64052 55.4144 6.13715 59.3332 6.80569C59.7794 6.88209 60.5554 7.16861 60.4196 7.74164C60.2838 8.29558 59.4302 8.52479 58.9258 8.48659C55.395 8.21917 51.5538 8.21917 47.8872 8.20007C44.1818 8.20007 40.457 8.23827 36.7516 8.37198C34.9086 8.42928 33.0656 8.52479 31.242 8.6203C30.3302 8.6776 29.399 8.7349 28.4872 8.79221C28.041 8.83041 27.5948 8.84951 27.1486 8.88771C26.9158 8.88771 26.683 8.92591 26.4308 8.94501C26.3338 8.94501 26.2562 8.94502 26.1592 8.96412C25.5966 9.00232 26.4114 8.94502 26.0816 8.96412C22.3762 9.25063 18.6902 9.61355 15.0042 10.072C12.9672 10.3203 10.9302 10.5877 8.91261 10.8742C7.88441 11.027 6.83681 11.1798 5.8086 11.2945C5.2654 11.3518 4.72221 11.4282 4.17901 11.4664C3.9268 11.4855 3.694 11.5046 3.4418 11.5237C3.3254 11.5237 3.18961 11.5428 3.0732 11.5619C2.9568 11.5619 2.23901 11.6574 2.53001 11.6001C1.94801 11.6956 0.900398 11.6001 0.609398 10.9888C0.318405 10.3394 1.2302 9.99558 1.6958 9.90007C1.5406 9.91917 1.8122 9.86187 1.8122 9.86187C1.9092 9.82367 2.0256 9.80457 2.14201 9.78546C2.33601 9.72816 2.53001 9.68996 2.70461 9.63266C2.82101 9.61355 2.918 9.57535 3.0344 9.55625C3.1702 9.51805 3.77161 9.38434 3.50001 9.44164C3.22841 9.49895 3.96561 9.32704 3.88801 9.34614C4.06261 9.30794 4.23721 9.26973 4.4118 9.23153C5.3042 9.04052 6.1966 8.88771 7.1084 8.754C8.9514 8.46749 10.7944 8.20007 12.6568 7.97086C16.304 7.51243 19.9706 7.14951 23.6566 6.86299C31.2032 6.27086 38.7886 6.02254 46.3546 6.19445C50.545 6.28996 54.716 6.61468 58.9064 6.80569C58.7706 7.35962 58.6348 7.91355 58.499 8.48659C51.5538 7.53153 44.6668 6.38546 37.6828 5.69782C30.8152 5.01018 23.9088 4.60906 16.9442 4.62816C12.9866 4.62816 9.24241 4.83827 5.42061 5.2967C4.74161 5.37311 3.57761 5.3349 3.2478 4.60906C2.89861 3.86412 3.9656 3.5012 4.4894 3.38659C7.3606 2.75625 10.3094 2.41243 13.2194 2.08771C16.1876 1.74389 19.1558 1.49558 22.124 1.30457C27.8858 0.960746 33.667 0.884342 39.4482 0.979847C51.1464 1.17086 62.8446 2.03041 74.4846 3.17648C80.9642 3.80681 87.4244 4.64726 93.71 6.34726C94.0786 6.44277 94.4472 6.84389 94.098 7.18771C93.7294 7.55063 93.0698 7.51243 92.6042 7.39782L92.6236 7.34052Z" fill="white"/>
</svg>
