<svg width="107" height="13" viewBox="0 0 107 13" fill="none" xmlns="http://www.w3.org/2000/svg">
<path d="M2.7949 7.43949C9.0297 5.90241 15.4389 5.15522 21.8481 4.62152C28.0611 4.10916 34.5139 3.76758 40.8359 3.34062C53.7415 2.50803 66.7125 1.95298 79.6399 2.67882C80.4901 2.72152 81.3621 2.78556 82.2123 2.82826C82.4085 2.82826 82.6047 2.8496 82.8009 2.87095C82.8663 2.87095 83.6293 2.935 83.2587 2.91365C83.7165 2.95635 84.1743 2.97769 84.6321 3.02039C86.4197 3.16983 88.1855 3.34062 89.9513 3.53275C93.5701 3.93837 97.1453 4.55747 100.764 5.09118C100.938 4.36534 101.113 3.63949 101.287 2.91365C100.241 2.84961 99.4779 2.82826 98.2789 2.78556C97.2979 2.74286 96.3387 2.70017 95.3577 2.67882C93.3739 2.61477 91.4119 2.55073 89.4281 2.52938C85.4605 2.46534 81.5147 2.52938 77.5471 2.74286C69.5029 3.14848 61.5023 3.98107 53.5017 4.98444C49.0545 5.53949 44.6073 6.09455 40.2037 6.84174C39.7023 6.92713 38.8303 7.24736 38.9829 7.88781C39.1355 8.50691 40.0947 8.76309 40.6615 8.72039C44.6291 8.42152 48.9455 8.42152 53.0657 8.40017C57.2295 8.40017 61.4151 8.44286 65.5789 8.5923C67.6499 8.65635 69.7209 8.76309 71.7701 8.86983C72.7947 8.93387 73.8411 8.99792 74.8657 9.06196C75.3671 9.10466 75.8685 9.12601 76.3699 9.16871C76.6315 9.16871 76.8931 9.2114 77.1765 9.23275C77.2855 9.23275 77.3727 9.23275 77.4817 9.2541C78.1139 9.2968 77.1983 9.23275 77.5689 9.2541C81.7327 9.57432 85.8747 9.97994 90.0167 10.4923C92.3057 10.7698 94.5947 11.0687 96.8619 11.3889C98.0173 11.5597 99.1945 11.7305 100.35 11.8586C100.96 11.9226 101.571 12.008 102.181 12.0507C102.464 12.0721 102.726 12.0934 103.009 12.1148C103.14 12.1148 103.293 12.1361 103.424 12.1575C103.554 12.1575 104.361 12.2642 104.034 12.2002C104.688 12.3069 105.865 12.2002 106.192 11.517C106.519 10.7912 105.495 10.4069 104.971 10.3002C105.146 10.3215 104.841 10.2575 104.841 10.2575C104.732 10.2148 104.601 10.1934 104.47 10.1721C104.252 10.108 104.034 10.0653 103.838 10.0013C103.707 9.97994 103.598 9.93725 103.467 9.9159C103.315 9.8732 102.639 9.72376 102.944 9.78781C103.249 9.85185 102.421 9.65972 102.508 9.68107C102.312 9.63837 102.116 9.59567 101.919 9.55298C100.917 9.33949 99.9139 9.16871 98.8893 9.01927C96.8183 8.69904 94.7473 8.40017 92.6545 8.14399C88.5561 7.63163 84.4359 7.22601 80.2939 6.90579C71.8137 6.24399 63.2899 5.96646 54.7879 6.15859C50.0791 6.26534 45.3921 6.62826 40.6833 6.84174C40.8359 7.46084 40.9885 8.07994 41.1411 8.72039C48.9455 7.65298 56.6845 6.37208 64.5325 5.60354C72.2497 4.835 80.0105 4.38668 87.8367 4.40803C92.2839 4.40803 96.4913 4.64286 100.786 5.15522C101.549 5.24062 102.857 5.19792 103.227 4.38668C103.62 3.5541 102.421 3.14848 101.832 3.02039C98.6059 2.3159 95.2923 1.93163 92.0223 1.56871C88.6869 1.18444 85.3515 0.906908 82.0161 0.693425C75.5415 0.309155 69.0451 0.223762 62.5487 0.330504C49.4033 0.543987 36.2579 1.50466 23.1779 2.78556C15.8967 3.49005 8.6373 4.42938 1.5741 6.32938C1.1599 6.43612 0.745699 6.88444 1.1381 7.26871C1.5523 7.67432 2.2935 7.63163 2.8167 7.50354L2.7949 7.43949Z" fill="white"/>
</svg>
