<svg width="28" height="78" viewBox="0 0 28 78" fill="none" xmlns="http://www.w3.org/2000/svg">
<path d="M1.458 2.82152C3.91348 4.32177 6.20269 6.01426 8.33432 7.9601C9.38266 8.91994 10.4047 9.91473 11.3918 10.9707C11.8635 11.4768 12.309 11.9743 12.7632 12.4892C12.7632 12.4892 13.1475 12.9517 12.9291 12.6899C12.999 12.7859 13.0863 12.8732 13.1562 12.9692C13.4269 13.2921 13.7064 13.6325 13.9684 13.9816C14.833 15.0987 15.6714 16.2508 16.4398 17.4379C16.6231 17.7172 16.8065 17.9966 16.9811 18.3021C17.0509 18.4417 17.1382 18.5727 17.2255 18.7036C17.5573 19.236 16.9724 18.2846 17.2779 18.8084C17.6358 19.4368 18.0025 20.0828 18.3429 20.72C19.0064 21.9596 19.5911 23.2167 20.1495 24.5087C20.2281 24.6658 20.5162 25.1547 20.1583 24.5262C20.2368 24.6833 20.2891 24.8754 20.3677 25.0325C20.4811 25.3031 20.5858 25.6 20.6992 25.8706C20.9522 26.5516 21.2051 27.2325 21.4144 27.9135C21.6237 28.5509 21.8068 29.1795 21.9811 29.8343C22.0682 30.1835 22.1728 30.524 22.2512 30.8995C22.2948 31.0741 22.3646 31.2575 22.3819 31.4234C22.3126 30.7161 22.3471 31.2662 22.3819 31.4234C22.6693 32.7854 22.8954 34.1563 23.0517 35.5185C23.1298 36.1559 23.1817 36.7846 23.2162 37.4221C23.2161 37.5531 23.2247 37.7015 23.2421 37.8238C23.1203 37.0991 23.2335 37.588 23.2246 37.7889C23.2418 38.1294 23.2415 38.4787 23.2412 38.828C23.2577 40.0855 23.1954 41.3605 23.0807 42.6181C23.0277 43.212 22.966 43.7884 22.8956 44.391C22.8517 44.653 22.8165 44.9325 22.7725 45.1945C22.7461 45.3604 22.7198 45.5263 22.7022 45.6661C22.6846 45.7622 22.6583 45.8844 22.6407 45.9805C22.711 45.5962 22.711 45.5526 22.6671 45.8146C22.6232 46.0329 22.5968 46.2425 22.5529 46.4609C22.6231 46.1202 22.6232 46.0329 22.5881 46.2251C22.5705 46.3648 22.5441 46.4871 22.509 46.6355C22.4476 46.95 22.3861 47.2644 22.3071 47.5876C22.1667 48.2251 22.0176 48.8453 21.8509 49.4741C21.2019 51.8935 20.3431 54.2432 19.2834 56.497C19.1345 56.8115 18.9681 57.1347 18.8192 57.4492C18.6703 57.7637 19.0732 56.9513 18.8367 57.4405C18.7316 57.6239 18.6353 57.8249 18.5302 58.0083C18.2062 58.6286 17.856 59.2401 17.4795 59.8429C16.7441 61.0398 15.9475 62.2019 15.1073 63.3202C13.4093 65.5658 11.4579 67.6106 9.30564 69.4285C9.44562 69.3149 9.6031 69.1925 9.73435 69.0615C9.19191 69.5072 8.62327 69.9443 8.08083 70.39C7.42468 70.9144 6.83838 71.5349 6.19969 72.0942C5.7972 72.47 5.78759 73.5005 5.86588 73.9633C5.97895 74.6705 6.24069 75.3253 6.59862 75.9538C7.13992 76.8616 8.33652 78.2492 9.54351 77.6895C10.147 77.4096 10.7854 77.1559 11.3366 76.7712C12.0014 76.3079 12.6139 75.7835 13.2438 75.2504C14.3024 74.3502 15.2999 73.415 16.2537 72.3926C18.1089 70.4177 19.7544 68.2421 21.1639 65.9007C24.1844 60.8773 26.1562 55.3306 27.0354 49.5228C27.941 43.5053 27.4303 37.323 25.879 31.4645C24.2318 25.2393 21.238 19.3819 17.2992 14.3023C13.4652 9.3449 8.76508 5.14788 3.45221 1.82457C2.81431 1.42332 2.15893 1.03083 1.49478 0.664532C1.03163 0.394154 0.594342 0.569122 0.567644 1.12803C0.532181 1.71314 0.881273 2.45517 1.3881 2.76918L1.458 2.82152Z" fill="white"/>
</svg>
