<svg width="38" height="106" viewBox="0 0 38 106" fill="none" xmlns="http://www.w3.org/2000/svg">
<path d="M2.1539 3.84065C5.46813 5.86556 8.55792 8.14995 11.435 10.7763C12.85 12.0718 14.2295 13.4145 15.5618 14.8397C16.1984 15.5229 16.7997 16.1943 17.4127 16.8893C17.4127 16.8893 17.9314 17.5136 17.6367 17.1602C17.731 17.2898 17.8489 17.4076 17.9432 17.5371C18.3086 17.973 18.6859 18.4324 19.0395 18.9036C20.2065 20.4115 21.338 21.9665 22.3751 23.5687C22.6226 23.9457 22.8701 24.3227 23.1057 24.7351C23.2 24.9236 23.3178 25.1003 23.4357 25.277C23.8835 25.9957 23.094 24.7115 23.5064 25.4184C23.9895 26.2667 24.4844 27.1386 24.9439 27.9987C25.8393 29.6717 26.6285 31.3684 27.3823 33.1123C27.4883 33.3244 27.8772 33.9842 27.3941 33.1359C27.5001 33.3479 27.5707 33.6072 27.6767 33.8193C27.8298 34.1846 27.9711 34.5852 28.1242 34.9505C28.4656 35.8696 28.807 36.7887 29.0895 37.7079C29.372 38.5681 29.6191 39.4165 29.8543 40.3004C29.9719 40.7718 30.1132 41.2313 30.2189 41.7381C30.2777 41.9738 30.3719 42.2212 30.3954 42.4452C30.3017 41.4905 30.3483 42.233 30.3954 42.4452C30.7832 44.2836 31.0885 46.1339 31.2993 47.9724C31.4048 48.8328 31.4749 49.6814 31.5214 50.5418C31.5212 50.7186 31.5329 50.9189 31.5563 51.0839C31.392 50.1058 31.5448 50.7657 31.5328 51.0368C31.556 51.4965 31.5556 51.9679 31.5552 52.4394C31.5774 54.1367 31.4933 55.8576 31.3385 57.555C31.267 58.3565 31.1838 59.1345 31.0887 59.9478C31.0294 60.3015 30.9819 60.6787 30.9226 61.0323C30.887 61.2563 30.8514 61.4803 30.8276 61.6689C30.8039 61.7985 30.7684 61.9636 30.7447 62.0932C30.8395 61.5746 30.8396 61.5156 30.7803 61.8693C30.721 62.164 30.6854 62.4469 30.6261 62.7416C30.7209 62.2818 30.721 62.164 30.6736 62.4233C30.6498 62.6119 30.6143 62.777 30.5669 62.9774C30.484 63.4017 30.401 63.8261 30.2944 64.2623C30.1049 65.1229 29.9036 65.9599 29.6787 66.8087C28.8027 70.0742 27.6436 73.2456 26.2132 76.2876C26.0122 76.7121 25.7877 77.1484 25.5867 77.5728C25.3857 77.9973 25.9295 76.9007 25.6103 77.561C25.4685 77.8086 25.3384 78.0798 25.1966 78.3274C24.7593 79.1646 24.2866 79.99 23.7785 80.8037C22.7859 82.4191 21.7108 83.9875 20.5766 85.4971C18.2848 88.5279 15.651 91.2878 12.746 93.7416C12.935 93.5882 13.1475 93.423 13.3247 93.2461C12.5925 93.8477 11.825 94.4376 11.0929 95.0393C10.2073 95.7471 9.41593 96.5845 8.55386 97.3395C8.01062 97.8467 7.99765 99.2376 8.10333 99.8622C8.25593 100.817 8.60921 101.701 9.09231 102.549C9.82291 103.774 11.438 105.647 13.0671 104.891C13.8816 104.514 14.7434 104.171 15.4872 103.652C16.3846 103.027 17.2112 102.319 18.0614 101.599C19.4903 100.384 20.8366 99.1222 22.124 97.7423C24.628 95.0767 26.8489 92.1402 28.7514 88.98C32.8283 82.1998 35.4897 74.7133 36.6763 66.8743C37.8985 58.7525 37.2093 50.408 35.1155 42.5007C32.8922 34.0984 28.8513 26.1925 23.5351 19.3365C18.3603 12.6454 12.0164 6.98058 4.84553 2.49503C3.98455 1.95346 3.09997 1.4237 2.20355 0.929308C1.57843 0.564372 0.98821 0.80053 0.952176 1.5549C0.904311 2.34464 1.37549 3.34617 2.05956 3.76999L2.1539 3.84065Z" fill="white"/>
</svg>
