<svg width="20" height="40" viewBox="0 0 20 40" fill="none" xmlns="http://www.w3.org/2000/svg">
<path d="M1.35037 1.89142C2.75044 2.396 4.08627 3.01527 5.36863 3.77929C5.99959 4.15649 6.62089 4.55413 7.23081 4.98639C7.52243 5.19375 7.79987 5.39941 8.08354 5.61301C8.08354 5.61301 8.32636 5.80737 8.1885 5.69744C8.23388 5.73881 8.28721 5.77393 8.33259 5.8153C8.50336 5.95073 8.68036 6.09409 8.84942 6.2437C9.40367 6.71971 9.94825 7.21617 10.461 7.73762C10.583 7.86005 10.7049 7.98248 10.8252 8.11909C10.8751 8.18259 10.9329 8.23983 10.9908 8.29708C11.2143 8.5323 10.8189 8.11115 11.0282 8.3447C11.2749 8.62586 11.5279 8.91496 11.7667 9.20238C12.2317 9.76134 12.6587 10.3374 13.0761 10.9338C13.1322 11.0053 13.3291 11.2229 13.0823 10.9418C13.1385 11.0132 13.185 11.1051 13.2411 11.1765C13.3267 11.3018 13.4106 11.4413 13.4962 11.5666C13.6953 11.8853 13.8943 12.2039 14.0711 12.5272C14.2435 12.8283 14.4016 13.1277 14.558 13.4413C14.6385 13.6092 14.727 13.7708 14.8057 13.9528C14.846 14.0368 14.9004 14.1224 14.9264 14.2046C14.8177 13.8535 14.8924 14.1286 14.9264 14.2046C15.2137 14.8648 15.4709 15.5358 15.6918 16.2096C15.7977 16.5244 15.8894 16.8375 15.9732 17.1569C15.9868 17.2233 16.0066 17.2976 16.0281 17.3577C15.891 17.0032 15.9992 17.2391 16.0156 17.3418C16.0598 17.5126 16.096 17.6896 16.1322 17.8665C16.2713 18.5019 16.3724 19.1543 16.4451 19.8034C16.4801 20.1097 16.5088 20.4082 16.5358 20.7208C16.5408 20.8581 16.5521 21.0033 16.5571 21.1406C16.561 21.2275 16.5649 21.3143 16.5705 21.3869C16.5716 21.4374 16.571 21.5021 16.5721 21.5526C16.5677 21.3506 16.5632 21.3285 16.5682 21.4658C16.5686 21.5809 16.5771 21.6899 16.5775 21.8051C16.5777 21.6252 16.5686 21.581 16.5708 21.6819C16.5765 21.7546 16.5758 21.8193 16.5735 21.8981C16.5751 22.0638 16.5766 22.2295 16.5703 22.4014C16.5655 22.7391 16.5544 23.0687 16.5354 23.4047C16.4583 24.6979 16.2677 25.9776 15.9653 27.2297C15.9226 27.4045 15.8719 27.5856 15.8292 27.7604C15.7865 27.9352 15.9061 27.4817 15.8372 27.7541C15.803 27.858 15.7751 27.9698 15.741 28.0737C15.6414 28.4216 15.5276 28.7679 15.3996 29.1125C15.1515 29.7953 14.8689 30.4669 14.5595 31.1209C13.9329 32.4352 13.1571 33.6742 12.2558 34.8191C12.3149 34.7469 12.382 34.6686 12.4348 34.5885C12.2064 34.8708 11.9638 35.1513 11.7354 35.4336C11.4575 35.7675 11.225 36.1429 10.9596 36.4927C10.7948 36.7249 10.8972 37.248 10.985 37.4743C11.1158 37.8208 11.3166 38.1253 11.5633 38.4065C11.932 38.8101 12.6826 39.3886 13.2358 38.9794C13.5124 38.7748 13.8095 38.5799 14.0487 38.3277C14.3373 38.0238 14.593 37.6944 14.8567 37.3588C15.2993 36.7926 15.7074 36.2151 16.0842 35.5979C16.8186 34.4043 17.4259 33.1309 17.8964 31.7981C18.904 28.9389 19.3259 25.9237 19.167 22.8899C18.9997 19.7472 18.0978 16.6682 16.7024 13.8616C15.2203 10.8792 13.0941 8.22324 10.5702 6.05964C8.11209 3.94704 5.29428 2.30976 2.25694 1.17887C1.89203 1.04196 1.51917 0.911299 1.14459 0.794827C0.881823 0.706034 0.678488 0.840171 0.723111 1.1261C0.76602 1.42622 1.02007 1.76582 1.30951 1.87217L1.35037 1.89142Z" fill="white"/>
</svg>
