<svg width="12" height="13" viewBox="0 0 12 13" fill="none" xmlns="http://www.w3.org/2000/svg">
<path d="M9.9539 6.61185C8.63223 7.48374 7.22494 8.23032 5.75135 8.81073C4.25391 9.40988 2.7078 9.81617 1.13564 10.1402C1.60584 10.6566 2.06981 11.1651 2.54001 11.6815C2.69299 9.87917 2.71654 8.07588 2.54595 6.27112C2.4626 5.41214 2.34293 4.55604 2.18068 3.69488C1.993 2.68678 1.74979 1.54257 1.08511 0.729632C0.941625 0.547082 0.391899 0.0931897 0.20652 0.495695C0.0245693 0.869826 0.107099 1.31856 0.180581 1.72305C0.260301 2.13547 0.338307 2.56209 0.418027 2.97451C0.575753 3.81355 0.705096 4.64921 0.782202 5.50025C0.946079 7.1819 0.979432 8.81205 0.814591 10.5338C0.749932 11.1881 1.49167 12.1973 2.21896 12.075C5.42566 11.5063 8.55073 10.0644 11.2157 8.20092C11.5781 7.94177 11.2465 7.29075 11.0469 7.03676C10.8223 6.75104 10.3464 6.34189 9.95562 6.59766L9.9539 6.61185Z" fill="white"/>
</svg>
