<svg width="30" height="32" viewBox="0 0 30 32" fill="none" xmlns="http://www.w3.org/2000/svg">
<path d="M26.0126 21.8093C22.1761 23.3443 18.1866 24.514 14.1149 25.2242C9.97229 25.9697 5.80654 26.1967 1.61739 26.1997C2.5483 27.7666 3.46744 29.31 4.39836 30.877C5.73561 26.3499 6.74251 21.7524 7.25388 17.0492C7.49176 14.8095 7.63526 12.5582 7.67258 10.2716C7.72203 7.59595 7.70099 4.54323 6.42858 2.1161C6.15763 1.57411 4.9906 0.125185 4.30539 1.05682C3.64384 1.91773 3.61924 3.10819 3.59474 4.18079C3.58202 5.27696 3.55747 6.4085 3.54475 7.50467C3.50748 9.73237 3.39942 11.9366 3.14975 14.1526C2.68586 18.5376 1.91531 22.7224 0.590042 27.0373C0.0812467 28.676 1.44761 31.6452 3.37102 31.7146C11.8671 31.9442 20.613 29.8988 28.4041 26.534C29.4665 26.0618 28.9607 24.2234 28.5837 23.4693C28.1596 22.621 27.1576 21.3252 26.0244 21.7739L26.0126 21.8093Z" fill="white"/>
</svg>
