<svg width="46" height="33" viewBox="0 0 46 33" fill="none" xmlns="http://www.w3.org/2000/svg">
<rect x="0.5" y="1" width="45" height="31" fill="white"/>
<rect x="0.5" y="1" width="45" height="31" stroke="#F5F5F5"/>
<path d="M25 31.5L44 25.75V28.5C44 30.1569 42.6569 31.5 41 31.5H25Z" fill="#FD6020"/>
<path fill-rule="evenodd" clip-rule="evenodd" d="M39.1916 12.6478C40.5853 12.6478 41.3518 13.2925 41.3518 14.5103C41.4215 15.4416 40.7943 16.2296 39.9581 16.3729L41.8396 19.0234H40.3762L38.7734 16.4445H38.6341V19.0234H37.4494V12.6478H39.1916ZM38.6341 15.5849H38.9825C39.749 15.5849 40.0975 15.2267 40.0975 14.582C40.0975 14.0089 39.749 13.6507 38.9825 13.6507H38.6341V15.5849ZM33.3379 19.0234H36.6829V17.9488H34.5226V16.2296H36.6132V15.155H34.5226V13.7223H36.6829V12.6478H33.3379V19.0234ZM29.8536 16.9459L28.2508 12.6478H26.9965L29.5749 19.1667H30.202L32.7804 12.6478H31.5261L29.8536 16.9459ZM15.7073 15.8714C15.7073 17.6623 17.101 19.1667 18.8432 19.1667C19.4007 19.1667 19.8885 19.0234 20.3763 18.8085V17.3758C20.0279 17.8056 19.5401 18.0921 18.9826 18.0921C17.8676 18.0921 16.9617 17.2325 16.9617 16.0863V15.9431C16.892 14.7969 17.7979 13.794 18.9129 13.7223C19.4704 13.7223 20.0279 14.0089 20.3763 14.4387V13.006C19.9582 12.7194 19.4007 12.6478 18.9129 12.6478C17.101 12.5045 15.7073 14.0089 15.7073 15.8714ZM13.547 15.0834C12.8502 14.7969 12.6411 14.6536 12.6411 14.2954C12.7108 13.8656 13.0592 13.5074 13.4773 13.5791C13.8258 13.5791 14.1742 13.794 14.4529 14.0805L15.0801 13.2209C14.5923 12.7911 13.9651 12.5045 13.338 12.5045C12.3624 12.4329 11.5261 13.2209 11.4564 14.2238V14.2954C11.4564 15.1551 11.8049 15.6565 12.9198 16.0147C13.1986 16.0863 13.4773 16.2296 13.7561 16.3729C13.9651 16.5161 14.1045 16.731 14.1045 17.0176C14.1045 17.519 13.6864 17.9489 13.2683 17.9489H13.1986C12.6411 17.9489 12.1533 17.5907 11.9442 17.0892L11.1777 17.8772C11.5958 18.6652 12.432 19.095 13.2683 19.095C14.3833 19.1667 15.2892 18.307 15.3589 17.1609V16.946C15.2892 16.0863 14.9407 15.6565 13.547 15.0834ZM9.50522 19.0234H10.6899V12.6478H9.50522V19.0234ZM4 12.6478H5.74216H6.09059C7.76306 12.7194 9.0871 14.1522 9.01741 15.8714C9.01741 16.8027 8.59929 17.6623 7.90243 18.307C7.27526 18.8085 6.50871 19.095 5.74216 19.0234H4V12.6478ZM5.5331 17.9488C6.09059 18.0205 6.71776 17.8056 7.13588 17.4474C7.554 17.0176 7.76306 16.4445 7.76306 15.7998C7.76306 15.2267 7.554 14.6536 7.13588 14.2238C6.71776 13.8656 6.09059 13.6507 5.5331 13.7223H5.18466V17.9488H5.5331Z" fill="black"/>
<path fill-rule="evenodd" clip-rule="evenodd" d="M23.9302 12.5C22.188 12.5 20.7246 13.9327 20.7246 15.7953C20.7246 17.5862 22.1183 19.0905 23.9302 19.1621C25.742 19.2338 27.1357 17.7294 27.2054 15.8669C27.1357 14.0044 25.742 12.5 23.9302 12.5Z" fill="#FD6020"/>
</svg>
