<svg width="96" height="96" viewBox="0 0 96 96" fill="none" xmlns="http://www.w3.org/2000/svg">
<g clip-path="url(#clip0_17174_1573)">
<path d="M93.4004 33.8C87.2004 13.8 69.0004 0.300049 48.0004 0.300049C27.0004 0.300049 8.70039 13.8 2.50039 33.8C1.10039 38.3 0.400391 43.1001 0.400391 47.9001C0.400391 52.7001 1.10039 57.5 2.50039 62C8.70039 82 27.0004 95.5 48.0004 95.5C69.0004 95.5 87.2004 82 93.4004 62C94.8004 57.5 95.5004 52.7001 95.5004 47.9001C95.5004 43.1001 94.9004 38.4 93.4004 33.8ZM48.0004 93.8C27.8004 93.8 10.3004 80.9001 4.20039 61.7001C4.20039 61.7001 4.20039 61.5 4.20039 61.4001C2.80039 57 2.20039 52.5 2.20039 47.8C2.20039 43.1 2.90039 38.6001 4.20039 34.2001C4.20039 34.2001 4.20039 34 4.20039 33.9001C10.2004 14.9001 27.8004 2.00005 48.0004 2.00005C68.2004 2.00005 85.7004 14.9 91.8004 34.1C91.8004 34.1 91.8004 34.3001 91.8004 34.4001C93.2004 38.8001 93.9004 43.4001 93.9004 48C93.9004 52.6 93.2004 57.2 91.8004 61.6V61.8C85.7004 80.9 68.1004 93.8 48.0004 93.8Z" fill="#111111"/>
<path d="M28.2004 11.4L26.8004 12.3L27.4004 14.9L27.7004 15.9L26.9004 15.3L24.8004 13.7L23.4004 14.6L26.6004 19.7L27.8004 18.9L26.9004 17.4C26.6004 16.9 26.0004 16.2 25.6004 15.7L26.8004 16.6L28.6004 17.9L29.1004 17.6L28.7004 15.5L28.4004 14C28.7004 14.5 29.0004 15.4 29.4004 15.9L30.3004 17.4L31.5004 16.6L28.2004 11.4Z" fill="#111111"/>
<path d="M33.2004 9.19995L31.4004 9.89995L32.0004 16.1L33.5004 15.5L33.3004 14.2L34.9004 13.6L35.7004 14.7L37.3004 14.1C37.1004 14.1 33.2004 9.19995 33.2004 9.19995ZM33.1004 13V12.6C32.9004 12 32.8004 11.3 32.7004 10.7C33.1004 11.2 33.5004 11.8 33.8004 12.3L34.1004 12.6L33.1004 13Z" fill="#111111"/>
<path d="M41.8004 9.89999C41.3004 7.79999 39.9004 7.29999 38.1004 7.69999L36.4004 8.09999L37.8004 13.9L39.6004 13.5C41.2004 13.1 42.2004 11.9 41.8004 9.89999ZM39.1004 12.3L38.2004 8.99999C39.0004 8.79999 39.8004 8.89999 40.1004 10.3C40.4004 11.6 39.8004 12.1 39.0004 12.3H39.1004Z" fill="#111111"/>
<path d="M47.4008 11.1L45.0008 11.3V10.2H46.9008C46.9008 10.1 46.9008 8.8 46.9008 8.8H44.9008C44.9008 8.9 44.9008 8 44.9008 8L47.2008 7.8V6.5L43.3008 6.8L43.7008 12.8L47.7008 12.5V11.1H47.4008Z" fill="#111111"/>
<path d="M57.1012 7.4L56.3012 10C56.1012 10.6 56.0012 11.2 55.8012 11.8V7.2L54.3012 7L53.3012 9.5C53.1012 10.1 52.9012 10.7 52.7012 11.3C52.7012 10.7 52.7012 10 52.7012 9.4V6.8L51.2012 6.5V12.6L53.1012 12.9L53.9012 10.6C54.1012 10.2 54.2012 9.7 54.4012 9.3V13.1L56.5012 13.4L58.5012 7.6L57.0012 7.4H57.1012Z" fill="#111111"/>
<path d="M60.2008 8.30005L58.3008 14L59.8008 14.5L61.7008 8.80005L60.2008 8.30005Z" fill="#111111"/>
<path d="M63.2996 9.40002L62.6996 10.6L64.0996 11.3L62.0996 15.5L63.4996 16.2L65.4996 12L66.8996 12.7L67.4996 11.5L63.2996 9.40002Z" fill="#111111"/>
<path d="M72.1004 14.2L70.8004 16L69.3004 15L70.6004 13.2L69.3004 12.3L65.9004 17.2L67.2004 18.1L68.5004 16.1L70.0004 17.1L68.7004 19.1L70.0004 20L73.4004 15.1L72.1004 14.2Z" fill="#111111"/>
<path d="M21.2008 71L16.8008 75L17.9008 76.2L22.4008 72.2L21.2008 71Z" fill="#111111"/>
<path d="M26.1008 75.7001L25.0008 77.0001C24.5008 77.6001 24.1008 78.4001 23.7008 78.9001L24.1008 77.5001L24.8008 74.6001L23.6008 73.6001L19.8008 78.2001L21.0008 79.2001L22.1008 77.9001C22.6008 77.3001 23.0008 76.6001 23.4008 76.0001L23.0008 77.4001L22.3008 80.3001L23.5008 81.3001L27.3008 76.7001L26.1008 75.7001Z" fill="#111111"/>
<path d="M29.4007 82.3001L30.2007 82.7001L29.8007 83.4001C29.7007 83.4001 29.5007 83.4001 29.3007 83.4001C28.4007 82.9001 28.2007 82.1001 28.8007 81.1001C29.3007 80.1001 30.2007 79.9001 30.9007 80.3001C31.3007 80.5001 31.5007 80.8001 31.6007 81.2001L32.8007 80.8001C32.6007 80.2001 32.2007 79.6001 31.5007 79.2001C30.1007 78.4001 28.3007 78.7001 27.3007 80.5001C26.3007 82.3001 27.0007 83.8001 28.4007 84.6001C29.1007 85.0001 30.0007 85.1001 30.6007 84.9001L32.0007 82.4001L30.0007 81.3001L29.4007 82.4001V82.3001Z" fill="#111111"/>
<path d="M37.1 81.5L34.9 80.8L33 86.5L34.5 87L35.1 85.1L35.7 85.3L36.1 87.5L37.8 88L37.3 85.4C38 85.4 38.5 84.9 38.8 84C39.2 82.7 38.3 81.9 37.1 81.5ZM37.3 83.6C37.1 84.1 36.7 84.3 36.1 84.1L35.6 83.9L36.1 82.5L36.6 82.7C37.2 82.9 37.5 83.1 37.3 83.6Z" fill="#111111"/>
<path d="M44.8004 84.5001L45.0004 83.2001L41.2004 82.7001L40.4004 88.6001L44.3004 89.2001L44.5004 87.9001L42.0004 87.4001L42.2004 86.3001L44.1004 86.6001L44.3004 85.3001L42.4004 85.0001V84.1001L44.8004 84.5001Z" fill="#111111"/>
<path d="M48.6008 83.2001H46.8008L47.0008 89.3001H48.9008C50.6008 89.1001 51.9008 88.2001 51.8008 86.1001C51.7008 84.0001 50.5008 83.2001 48.6008 83.2001ZM48.7008 87.9001L48.5008 84.5001C49.4008 84.5001 50.1008 84.7001 50.1008 86.1001C50.1008 87.5001 49.5008 87.9001 48.6008 87.9001H48.7008Z" fill="#111111"/>
<path d="M54.8012 82.6001L53.2012 82.9001L54.2012 88.8001L55.8012 88.5001L54.8012 82.6001Z" fill="#111111"/>
<path d="M61.8016 85.5L59.5016 86.2L59.2016 85.2L61.1016 84.6L60.7016 83.3L58.8016 83.9L58.5016 83L60.7016 82.3L60.3016 81L56.6016 82.1L58.4016 87.8L62.2016 86.6L61.8016 85.5Z" fill="#111111"/>
<path d="M65.4012 82.4001L67.8012 84.2001L69.2012 83.5001L66.4012 78.2001L65.1012 78.9001L65.9012 80.4001C66.2012 81.1001 66.8012 81.8001 67.1012 82.3001L66.0012 81.4001L63.6012 79.6001L62.2012 80.3001L65.0012 85.6001L66.3012 84.9001L65.5012 83.4001C65.2012 82.7001 64.6012 82.0001 64.3012 81.5001C64.2012 81.5001 65.4012 82.4001 65.4012 82.4001Z" fill="#111111"/>
<path d="M71.1008 76.4L72.4008 75.4L71.6008 74.4L67.8008 77.3L68.6008 78.3L69.8008 77.3L72.7008 81L73.9008 80C74.0008 80 71.1008 76.4 71.1008 76.4Z" fill="#111111"/>
<path d="M78.4008 73.2C77.8008 72.6 77.1008 72.6 76.4008 72.9L75.7008 73.2C75.2008 73.5 74.9008 73.6 74.7008 73.4C74.5008 73.2 74.7008 72.9 74.7008 72.7C75.0008 72.4 75.4008 72.2 75.8008 72.1L75.6008 70.8C74.8008 70.8 74.1008 71.2 73.6008 71.7C72.7008 72.7 72.7008 73.9 73.4008 74.6C74.1008 75.3 74.8008 75.1 75.4008 74.9L76.1008 74.6C76.6008 74.4 76.9008 74.2 77.1008 74.4C77.3008 74.6 77.3008 74.8 76.9008 75.2C76.6008 75.5 76.1008 75.8 75.5008 75.8L75.7008 77.2C76.6008 77.2 77.4008 76.7 77.9008 76.1C79.1008 75.1 79.0008 73.9 78.3008 73.2H78.4008Z" fill="#111111"/>
<path d="M43.7008 37.5L41.1008 34.0999L40.8008 33.7999C40.4008 33.7999 40.0008 33.7999 39.6008 34V34.2L43.1008 38.7C43.5008 38.3 43.6008 37.9 43.7008 37.5C43.7008 37.3666 43.7008 37.3666 43.7008 37.5ZM43.6008 34.5999C43.3008 34.3999 43.0008 34.1999 42.7008 34.0999C42.4008 34.0999 42.1008 33.9 41.7008 33.7999L41.9008 34.0999L43.8008 36.7C44.0008 35.9 43.9008 35.1999 43.6008 34.5999ZM46.3008 34.0999L44.1008 31.2C44.1008 31.5 43.9008 31.7999 43.9008 32.0999L45.4008 34.0999L46.1008 35H47.0008L46.3008 34.0999ZM48.8008 34.5999L48.4008 34.0999L46.0008 30.7C46.0008 30.6333 45.9341 30.6 45.8008 30.6C45.8008 30.6 45.6008 30.6 45.5008 30.7C45.3008 30.8 45.3008 31 45.5008 31.2L47.7008 34.0999L48.3008 34.9C48.5008 34.8 48.7008 34.6999 48.9008 34.5999H48.8008ZM46.3008 28.4C46.3008 28.5 46.1008 28.5 46.0008 28.6C45.9008 28.7 45.8008 28.6999 45.7008 28.7999L49.7008 34.0999C49.7674 34.0333 49.8341 34 49.9008 34C49.9008 34 50.1008 34 50.2008 33.7999L46.1008 28.4H46.3008ZM47.9008 27.6C47.7008 27.7 47.4008 27.6999 47.2008 27.7999V27.9L50.9008 32.7999C51.1008 32.5999 51.2008 32.4 51.3008 32.2L47.7008 27.5L47.9008 27.6ZM50.0008 27.6H49.8008C49.6008 27.6 49.3008 27.5 49.1008 27.6L52.0008 31.4C52.0008 31.0999 52.2008 30.8 52.2008 30.5L50.0008 27.6ZM52.2008 25.9C52.2008 26.5999 52.2008 27.2999 52.4008 27.9C53.0008 28.2999 53.6008 28.6 54.3008 28.7L52.2008 25.9ZM52.9008 24C52.7008 24.4 52.5008 24.7 52.4008 25.1L55.2008 28.9C55.6008 28.9 56.0008 28.8 56.4008 28.7L52.9008 24ZM52.9008 24C52.7008 24.4 52.5008 24.7 52.4008 25.1L55.2008 28.9C55.6008 28.9 56.0008 28.8 56.4008 28.7L52.9008 24ZM52.2008 25.9C52.2008 26.5999 52.2008 27.2999 52.4008 27.9C53.0008 28.2999 53.6008 28.6 54.3008 28.7L52.2008 25.9ZM50.0008 27.6H49.8008C49.6008 27.6 49.3008 27.5 49.1008 27.6L52.0008 31.4C52.0008 31.0999 52.2008 30.8 52.2008 30.5L50.0008 27.6ZM47.9008 27.6C47.7008 27.7 47.4008 27.6999 47.2008 27.7999V27.9L50.9008 32.7999C51.1008 32.5999 51.2008 32.4 51.3008 32.2L47.7008 27.5L47.9008 27.6ZM46.3008 28.4C46.3008 28.5 46.1008 28.5 46.0008 28.6C45.9008 28.7 45.8008 28.6999 45.7008 28.7999L49.7008 34.0999C49.7674 34.0333 49.8341 34 49.9008 34C49.9008 34 50.1008 34 50.2008 33.7999L46.1008 28.4H46.3008ZM48.8008 34.5999L48.4008 34.0999L46.0008 30.7C46.0008 30.6333 45.9341 30.6 45.8008 30.6C45.8008 30.6 45.6008 30.6 45.5008 30.7C45.3008 30.8 45.3008 31 45.5008 31.2L47.7008 34.0999L48.3008 34.9C48.5008 34.8 48.7008 34.6999 48.9008 34.5999H48.8008ZM46.3008 34.0999L44.1008 31.2C44.1008 31.5 43.9008 31.7999 43.9008 32.0999L45.4008 34.0999L46.1008 35H47.0008L46.3008 34.0999ZM43.6008 34.5999C43.3008 34.3999 43.0008 34.1999 42.7008 34.0999C42.4008 34.0999 42.1008 33.9 41.7008 33.7999L41.9008 34.0999L43.8008 36.7C44.0008 35.9 43.9008 35.1999 43.6008 34.5999ZM43.7008 37.5L41.1008 34.0999L40.8008 33.7999C40.4008 33.7999 40.0008 33.7999 39.6008 34V34.2L43.1008 38.7C43.5008 38.3 43.6008 37.9 43.7008 37.5C43.7008 37.3666 43.7008 37.3666 43.7008 37.5ZM23.5008 42.5C23.1008 42.5 22.9008 42.7999 22.9008 43.5V52.5999C22.9008 53.1999 23.1008 53.5999 23.5008 53.5999C23.9008 53.5999 24.1008 53.2999 24.1008 52.5999V43.4C24.1008 42.7 23.9008 42.5 23.5008 42.5ZM43.7008 37.5L41.1008 34.0999L40.8008 33.7999C40.4008 33.7999 40.0008 33.7999 39.6008 34V34.2L43.1008 38.7C43.5008 38.3 43.6008 37.9 43.7008 37.5C43.7008 37.3666 43.7008 37.3666 43.7008 37.5ZM43.6008 34.5999C43.3008 34.3999 43.0008 34.1999 42.7008 34.0999C42.4008 34.0999 42.1008 33.9 41.7008 33.7999L41.9008 34.0999L43.8008 36.7C44.0008 35.9 43.9008 35.1999 43.6008 34.5999ZM46.3008 34.0999L44.1008 31.2C44.1008 31.5 43.9008 31.7999 43.9008 32.0999L45.4008 34.0999L46.1008 35H47.0008L46.3008 34.0999ZM48.8008 34.5999L48.4008 34.0999L46.0008 30.7C46.0008 30.6333 45.9341 30.6 45.8008 30.6C45.8008 30.6 45.6008 30.6 45.5008 30.7C45.3008 30.8 45.3008 31 45.5008 31.2L47.7008 34.0999L48.3008 34.9C48.5008 34.8 48.7008 34.6999 48.9008 34.5999H48.8008ZM46.3008 28.4C46.3008 28.5 46.1008 28.5 46.0008 28.6C45.9008 28.7 45.8008 28.6999 45.7008 28.7999L49.7008 34.0999C49.7674 34.0333 49.8341 34 49.9008 34C49.9008 34 50.1008 34 50.2008 33.7999L46.1008 28.4H46.3008ZM47.9008 27.6C47.7008 27.7 47.4008 27.6999 47.2008 27.7999V27.9L50.9008 32.7999C51.1008 32.5999 51.2008 32.4 51.3008 32.2L47.7008 27.5L47.9008 27.6ZM50.0008 27.6H49.8008C49.6008 27.6 49.3008 27.5 49.1008 27.6L52.0008 31.4C52.0008 31.0999 52.2008 30.8 52.2008 30.5L50.0008 27.6ZM52.2008 25.9C52.2008 26.5999 52.2008 27.2999 52.4008 27.9C53.0008 28.2999 53.6008 28.6 54.3008 28.7L52.2008 25.9ZM52.9008 24C52.7008 24.4 52.5008 24.7 52.4008 25.1L55.2008 28.9C55.6008 28.9 56.0008 28.8 56.4008 28.7L52.9008 24ZM23.5008 42.5C23.1008 42.5 22.9008 42.7999 22.9008 43.5V52.5999C22.9008 53.1999 23.1008 53.5999 23.5008 53.5999C23.9008 53.5999 24.1008 53.2999 24.1008 52.5999V43.4C24.1008 42.7 23.9008 42.5 23.5008 42.5ZM52.9008 24C52.7008 24.4 52.5008 24.7 52.4008 25.1L55.2008 28.9C55.6008 28.9 56.0008 28.8 56.4008 28.7L52.9008 24ZM52.2008 25.9C52.2008 26.5999 52.2008 27.2999 52.4008 27.9C53.0008 28.2999 53.6008 28.6 54.3008 28.7L52.2008 25.9ZM50.0008 27.6H49.8008C49.6008 27.6 49.3008 27.5 49.1008 27.6L52.0008 31.4C52.0008 31.0999 52.2008 30.8 52.2008 30.5L50.0008 27.6ZM47.9008 27.6C47.7008 27.7 47.4008 27.6999 47.2008 27.7999V27.9L50.9008 32.7999C51.1008 32.5999 51.2008 32.4 51.3008 32.2L47.7008 27.5L47.9008 27.6ZM46.3008 28.4C46.3008 28.5 46.1008 28.5 46.0008 28.6C45.9008 28.7 45.8008 28.6999 45.7008 28.7999L49.7008 34.0999C49.7674 34.0333 49.8341 34 49.9008 34C49.9008 34 50.1008 34 50.2008 33.7999L46.1008 28.4H46.3008ZM48.8008 34.5999L48.4008 34.0999L46.0008 30.7C46.0008 30.6333 45.9341 30.6 45.8008 30.6C45.8008 30.6 45.6008 30.6 45.5008 30.7C45.3008 30.8 45.3008 31 45.5008 31.2L47.7008 34.0999L48.3008 34.9C48.5008 34.8 48.7008 34.6999 48.9008 34.5999H48.8008ZM46.3008 34.0999L44.1008 31.2C44.1008 31.5 43.9008 31.7999 43.9008 32.0999L45.4008 34.0999L46.1008 35H47.0008L46.3008 34.0999ZM43.6008 34.5999C43.3008 34.3999 43.0008 34.1999 42.7008 34.0999C42.4008 34.0999 42.1008 33.9 41.7008 33.7999L41.9008 34.0999L43.8008 36.7C44.0008 35.9 43.9008 35.1999 43.6008 34.5999ZM43.7008 37.5L41.1008 34.0999L40.8008 33.7999C40.4008 33.7999 40.0008 33.7999 39.6008 34V34.2L43.1008 38.7C43.5008 38.3 43.6008 37.9 43.7008 37.5C43.7008 37.3666 43.7008 37.3666 43.7008 37.5ZM23.5008 42.5C23.1008 42.5 22.9008 42.7999 22.9008 43.5V52.5999C22.9008 53.1999 23.1008 53.5999 23.5008 53.5999C23.9008 53.5999 24.1008 53.2999 24.1008 52.5999V43.4C24.1008 42.7 23.9008 42.5 23.5008 42.5ZM43.7008 37.5L41.1008 34.0999L40.8008 33.7999C40.4008 33.7999 40.0008 33.7999 39.6008 34V34.2L43.1008 38.7C43.5008 38.3 43.6008 37.9 43.7008 37.5C43.7008 37.3666 43.7008 37.3666 43.7008 37.5ZM43.6008 34.5999C43.3008 34.3999 43.0008 34.1999 42.7008 34.0999C42.4008 34.0999 42.1008 33.9 41.7008 33.7999L41.9008 34.0999L43.8008 36.7C44.0008 35.9 43.9008 35.1999 43.6008 34.5999ZM46.3008 34.0999L44.1008 31.2C44.1008 31.5 43.9008 31.7999 43.9008 32.0999L45.4008 34.0999L46.1008 35H47.0008L46.3008 34.0999ZM48.8008 34.5999L48.4008 34.0999L46.0008 30.7C46.0008 30.6333 45.9341 30.6 45.8008 30.6C45.8008 30.6 45.6008 30.6 45.5008 30.7C45.3008 30.8 45.3008 31 45.5008 31.2L47.7008 34.0999L48.3008 34.9C48.5008 34.8 48.7008 34.6999 48.9008 34.5999H48.8008ZM46.3008 28.4C46.3008 28.5 46.1008 28.5 46.0008 28.6C45.9008 28.7 45.8008 28.6999 45.7008 28.7999L49.7008 34.0999C49.7674 34.0333 49.8341 34 49.9008 34C49.9008 34 50.1008 34 50.2008 33.7999L46.1008 28.4H46.3008ZM47.9008 27.6C47.7008 27.7 47.4008 27.6999 47.2008 27.7999V27.9L50.9008 32.7999C51.1008 32.5999 51.2008 32.4 51.3008 32.2L47.7008 27.5L47.9008 27.6ZM50.0008 27.6H49.8008C49.6008 27.6 49.3008 27.5 49.1008 27.6L52.0008 31.4C52.0008 31.0999 52.2008 30.8 52.2008 30.5L50.0008 27.6ZM52.2008 25.9C52.2008 26.5999 52.2008 27.2999 52.4008 27.9C53.0008 28.2999 53.6008 28.6 54.3008 28.7L52.2008 25.9ZM52.9008 24C52.7008 24.4 52.5008 24.7 52.4008 25.1L55.2008 28.9C55.6008 28.9 56.0008 28.8 56.4008 28.7L52.9008 24ZM23.5008 42.5C23.1008 42.5 22.9008 42.7999 22.9008 43.5V52.5999C22.9008 53.1999 23.1008 53.5999 23.5008 53.5999C23.9008 53.5999 24.1008 53.2999 24.1008 52.5999V43.4C24.1008 42.7 23.9008 42.5 23.5008 42.5ZM52.9008 24C52.7008 24.4 52.5008 24.7 52.4008 25.1L55.2008 28.9C55.6008 28.9 56.0008 28.8 56.4008 28.7L52.9008 24ZM52.2008 25.9C52.2008 26.5999 52.2008 27.2999 52.4008 27.9C53.0008 28.2999 53.6008 28.6 54.3008 28.7L52.2008 25.9ZM50.0008 27.6H49.8008C49.6008 27.6 49.3008 27.5 49.1008 27.6L52.0008 31.4C52.0008 31.0999 52.2008 30.8 52.2008 30.5L50.0008 27.6ZM47.9008 27.6C47.7008 27.7 47.4008 27.6999 47.2008 27.7999V27.9L50.9008 32.7999C51.1008 32.5999 51.2008 32.4 51.3008 32.2L47.7008 27.5L47.9008 27.6ZM46.3008 28.4C46.3008 28.5 46.1008 28.5 46.0008 28.6C45.9008 28.7 45.8008 28.6999 45.7008 28.7999L49.7008 34.0999C49.7674 34.0333 49.8341 34 49.9008 34C49.9008 34 50.1008 34 50.2008 33.7999L46.1008 28.4H46.3008ZM48.8008 34.5999L48.4008 34.0999L46.0008 30.7C46.0008 30.6333 45.9341 30.6 45.8008 30.6C45.8008 30.6 45.6008 30.6 45.5008 30.7C45.3008 30.8 45.3008 31 45.5008 31.2L47.7008 34.0999L48.3008 34.9C48.5008 34.8 48.7008 34.6999 48.9008 34.5999H48.8008ZM46.3008 34.0999L44.1008 31.2C44.1008 31.5 43.9008 31.7999 43.9008 32.0999L45.4008 34.0999L46.1008 35H47.0008L46.3008 34.0999ZM43.6008 34.5999C43.3008 34.3999 43.0008 34.1999 42.7008 34.0999C42.4008 34.0999 42.1008 33.9 41.7008 33.7999L41.9008 34.0999L43.8008 36.7C44.0008 35.9 43.9008 35.1999 43.6008 34.5999ZM43.7008 37.5L41.1008 34.0999L40.8008 33.7999C40.4008 33.7999 40.0008 33.7999 39.6008 34V34.2L43.1008 38.7C43.5008 38.3 43.6008 37.9 43.7008 37.5C43.7008 37.3666 43.7008 37.3666 43.7008 37.5ZM23.5008 42.5C23.1008 42.5 22.9008 42.7999 22.9008 43.5V52.5999C22.9008 53.1999 23.1008 53.5999 23.5008 53.5999C23.9008 53.5999 24.1008 53.2999 24.1008 52.5999V43.4C24.1008 42.7 23.9008 42.5 23.5008 42.5ZM43.7008 37.5L41.1008 34.0999L40.8008 33.7999C40.4008 33.7999 40.0008 33.7999 39.6008 34V34.2L43.1008 38.7C43.5008 38.3 43.6008 37.9 43.7008 37.5C43.7008 37.3666 43.7008 37.3666 43.7008 37.5ZM43.6008 34.5999C43.3008 34.3999 43.0008 34.1999 42.7008 34.0999C42.4008 34.0999 42.1008 33.9 41.7008 33.7999L41.9008 34.0999L43.8008 36.7C44.0008 35.9 43.9008 35.1999 43.6008 34.5999ZM46.3008 34.0999L44.1008 31.2C44.1008 31.5 43.9008 31.7999 43.9008 32.0999L45.4008 34.0999L46.1008 35H47.0008L46.3008 34.0999ZM48.8008 34.5999L48.4008 34.0999L46.0008 30.7C46.0008 30.6333 45.9341 30.6 45.8008 30.6C45.8008 30.6 45.6008 30.6 45.5008 30.7C45.3008 30.8 45.3008 31 45.5008 31.2L47.7008 34.0999L48.3008 34.9C48.5008 34.8 48.7008 34.6999 48.9008 34.5999H48.8008ZM46.3008 28.4C46.3008 28.5 46.1008 28.5 46.0008 28.6C45.9008 28.7 45.8008 28.6999 45.7008 28.7999L49.7008 34.0999C49.7674 34.0333 49.8341 34 49.9008 34C49.9008 34 50.1008 34 50.2008 33.7999L46.1008 28.4H46.3008ZM47.9008 27.6C47.7008 27.7 47.4008 27.6999 47.2008 27.7999V27.9L50.9008 32.7999C51.1008 32.5999 51.2008 32.4 51.3008 32.2L47.7008 27.5L47.9008 27.6ZM50.0008 27.6H49.8008C49.6008 27.6 49.3008 27.5 49.1008 27.6L52.0008 31.4C52.0008 31.0999 52.2008 30.8 52.2008 30.5L50.0008 27.6ZM52.2008 25.9C52.2008 26.5999 52.2008 27.2999 52.4008 27.9C53.0008 28.2999 53.6008 28.6 54.3008 28.7L52.2008 25.9ZM52.9008 24C52.7008 24.4 52.5008 24.7 52.4008 25.1L55.2008 28.9C55.6008 28.9 56.0008 28.8 56.4008 28.7L52.9008 24ZM23.5008 42.5C23.1008 42.5 22.9008 42.7999 22.9008 43.5V52.5999C22.9008 53.1999 23.1008 53.5999 23.5008 53.5999C23.9008 53.5999 24.1008 53.2999 24.1008 52.5999V43.4C24.1008 42.7 23.9008 42.5 23.5008 42.5ZM52.9008 24C52.7008 24.4 52.5008 24.7 52.4008 25.1L55.2008 28.9C55.6008 28.9 56.0008 28.8 56.4008 28.7L52.9008 24ZM52.2008 25.9C52.2008 26.5999 52.2008 27.2999 52.4008 27.9C53.0008 28.2999 53.6008 28.6 54.3008 28.7L52.2008 25.9ZM50.0008 27.6H49.8008C49.6008 27.6 49.3008 27.5 49.1008 27.6L52.0008 31.4C52.0008 31.0999 52.2008 30.8 52.2008 30.5L50.0008 27.6ZM47.9008 27.6C47.7008 27.7 47.4008 27.6999 47.2008 27.7999V27.9L50.9008 32.7999C51.1008 32.5999 51.2008 32.4 51.3008 32.2L47.7008 27.5L47.9008 27.6ZM46.3008 28.4C46.3008 28.5 46.1008 28.5 46.0008 28.6C45.9008 28.7 45.8008 28.6999 45.7008 28.7999L49.7008 34.0999C49.7674 34.0333 49.8341 34 49.9008 34C49.9008 34 50.1008 34 50.2008 33.7999L46.1008 28.4H46.3008ZM48.8008 34.5999L48.4008 34.0999L46.0008 30.7C46.0008 30.6333 45.9341 30.6 45.8008 30.6C45.8008 30.6 45.6008 30.6 45.5008 30.7C45.3008 30.8 45.3008 31 45.5008 31.2L47.7008 34.0999L48.3008 34.9C48.5008 34.8 48.7008 34.6999 48.9008 34.5999H48.8008ZM46.3008 34.0999L44.1008 31.2C44.1008 31.5 43.9008 31.7999 43.9008 32.0999L45.4008 34.0999L46.1008 35H47.0008L46.3008 34.0999ZM43.6008 34.5999C43.3008 34.3999 43.0008 34.1999 42.7008 34.0999C42.4008 34.0999 42.1008 33.9 41.7008 33.7999L41.9008 34.0999L43.8008 36.7C44.0008 35.9 43.9008 35.1999 43.6008 34.5999ZM43.7008 37.5L41.1008 34.0999L40.8008 33.7999C40.4008 33.7999 40.0008 33.7999 39.6008 34V34.2L43.1008 38.7C43.5008 38.3 43.6008 37.9 43.7008 37.5C43.7008 37.3666 43.7008 37.3666 43.7008 37.5ZM23.5008 42.5C23.1008 42.5 22.9008 42.7999 22.9008 43.5V52.5999C22.9008 53.1999 23.1008 53.5999 23.5008 53.5999C23.9008 53.5999 24.1008 53.2999 24.1008 52.5999V43.4C24.1008 42.7 23.9008 42.5 23.5008 42.5ZM43.7008 37.5L41.1008 34.0999L40.8008 33.7999C40.4008 33.7999 40.0008 33.7999 39.6008 34V34.2L43.1008 38.7C43.5008 38.3 43.6008 37.9 43.7008 37.5C43.7008 37.3666 43.7008 37.3666 43.7008 37.5ZM43.6008 34.5999C43.3008 34.3999 43.0008 34.1999 42.7008 34.0999C42.4008 34.0999 42.1008 33.9 41.7008 33.7999L41.9008 34.0999L43.8008 36.7C44.0008 35.9 43.9008 35.1999 43.6008 34.5999ZM46.3008 34.0999L44.1008 31.2C44.1008 31.5 43.9008 31.7999 43.9008 32.0999L45.4008 34.0999L46.1008 35H47.0008L46.3008 34.0999ZM48.8008 34.5999L48.4008 34.0999L46.0008 30.7C46.0008 30.6333 45.9341 30.6 45.8008 30.6C45.8008 30.6 45.6008 30.6 45.5008 30.7C45.3008 30.8 45.3008 31 45.5008 31.2L47.7008 34.0999L48.3008 34.9C48.5008 34.8 48.7008 34.6999 48.9008 34.5999H48.8008ZM46.3008 28.4C46.3008 28.5 46.1008 28.5 46.0008 28.6C45.9008 28.7 45.8008 28.6999 45.7008 28.7999L49.7008 34.0999C49.7674 34.0333 49.8341 34 49.9008 34C49.9008 34 50.1008 34 50.2008 33.7999L46.1008 28.4H46.3008ZM47.9008 27.6C47.7008 27.7 47.4008 27.6999 47.2008 27.7999V27.9L50.9008 32.7999C51.1008 32.5999 51.2008 32.4 51.3008 32.2L47.7008 27.5L47.9008 27.6ZM50.0008 27.6H49.8008C49.6008 27.6 49.3008 27.5 49.1008 27.6L52.0008 31.4C52.0008 31.0999 52.2008 30.8 52.2008 30.5L50.0008 27.6ZM52.2008 25.9C52.2008 26.5999 52.2008 27.2999 52.4008 27.9C53.0008 28.2999 53.6008 28.6 54.3008 28.7L52.2008 25.9ZM52.9008 24C52.7008 24.4 52.5008 24.7 52.4008 25.1L55.2008 28.9C55.6008 28.9 56.0008 28.8 56.4008 28.7L52.9008 24ZM23.5008 42.5C23.1008 42.5 22.9008 42.7999 22.9008 43.5V52.5999C22.9008 53.1999 23.1008 53.5999 23.5008 53.5999C23.9008 53.5999 24.1008 53.2999 24.1008 52.5999V43.4C24.1008 42.7 23.9008 42.5 23.5008 42.5ZM52.9008 24C52.7008 24.4 52.5008 24.7 52.4008 25.1L55.2008 28.9C55.6008 28.9 56.0008 28.8 56.4008 28.7L52.9008 24ZM52.2008 25.9C52.2008 26.5999 52.2008 27.2999 52.4008 27.9C53.0008 28.2999 53.6008 28.6 54.3008 28.7L52.2008 25.9ZM50.0008 27.6H49.8008C49.6008 27.6 49.3008 27.5 49.1008 27.6L52.0008 31.4C52.0008 31.0999 52.2008 30.8 52.2008 30.5L50.0008 27.6ZM47.9008 27.6C47.7008 27.7 47.4008 27.6999 47.2008 27.7999V27.9L50.9008 32.7999C51.1008 32.5999 51.2008 32.4 51.3008 32.2L47.7008 27.5L47.9008 27.6ZM46.3008 28.4C46.3008 28.5 46.1008 28.5 46.0008 28.6C45.9008 28.7 45.8008 28.6999 45.7008 28.7999L49.7008 34.0999C49.7674 34.0333 49.8341 34 49.9008 34C49.9008 34 50.1008 34 50.2008 33.7999L46.1008 28.4H46.3008ZM48.8008 34.5999L48.4008 34.0999L46.0008 30.7C46.0008 30.6333 45.9341 30.6 45.8008 30.6C45.8008 30.6 45.6008 30.6 45.5008 30.7C45.3008 30.8 45.3008 31 45.5008 31.2L47.7008 34.0999L48.3008 34.9C48.5008 34.8 48.7008 34.6999 48.9008 34.5999H48.8008ZM46.3008 34.0999L44.1008 31.2C44.1008 31.5 43.9008 31.7999 43.9008 32.0999L45.4008 34.0999L46.1008 35H47.0008L46.3008 34.0999ZM43.6008 34.5999C43.3008 34.3999 43.0008 34.1999 42.7008 34.0999C42.4008 34.0999 42.1008 33.9 41.7008 33.7999L41.9008 34.0999L43.8008 36.7C44.0008 35.9 43.9008 35.1999 43.6008 34.5999ZM43.7008 37.5L41.1008 34.0999L40.8008 33.7999C40.4008 33.7999 40.0008 33.7999 39.6008 34V34.2L43.1008 38.7C43.5008 38.3 43.6008 37.9 43.7008 37.5C43.7008 37.3666 43.7008 37.3666 43.7008 37.5ZM23.5008 42.5C23.1008 42.5 22.9008 42.7999 22.9008 43.5V52.5999C22.9008 53.1999 23.1008 53.5999 23.5008 53.5999C23.9008 53.5999 24.1008 53.2999 24.1008 52.5999V43.4C24.1008 42.7 23.9008 42.5 23.5008 42.5ZM43.7008 37.5L41.1008 34.0999L40.8008 33.7999C40.4008 33.7999 40.0008 33.7999 39.6008 34V34.2L43.1008 38.7C43.5008 38.3 43.6008 37.9 43.7008 37.5C43.7008 37.3666 43.7008 37.3666 43.7008 37.5ZM43.6008 34.5999C43.3008 34.3999 43.0008 34.1999 42.7008 34.0999C42.4008 34.0999 42.1008 33.9 41.7008 33.7999L41.9008 34.0999L43.8008 36.7C44.0008 35.9 43.9008 35.1999 43.6008 34.5999ZM46.3008 34.0999L44.1008 31.2C44.1008 31.5 43.9008 31.7999 43.9008 32.0999L45.4008 34.0999L46.1008 35H47.0008L46.3008 34.0999ZM48.8008 34.5999L48.4008 34.0999L46.0008 30.7C46.0008 30.6333 45.9341 30.6 45.8008 30.6C45.8008 30.6 45.6008 30.6 45.5008 30.7C45.3008 30.8 45.3008 31 45.5008 31.2L47.7008 34.0999L48.3008 34.9C48.5008 34.8 48.7008 34.6999 48.9008 34.5999H48.8008ZM46.3008 28.4C46.3008 28.5 46.1008 28.5 46.0008 28.6C45.9008 28.7 45.8008 28.6999 45.7008 28.7999L49.7008 34.0999C49.7674 34.0333 49.8341 34 49.9008 34C49.9008 34 50.1008 34 50.2008 33.7999L46.1008 28.4H46.3008ZM47.9008 27.6C47.7008 27.7 47.4008 27.6999 47.2008 27.7999V27.9L50.9008 32.7999C51.1008 32.5999 51.2008 32.4 51.3008 32.2L47.7008 27.5L47.9008 27.6ZM50.0008 27.6H49.8008C49.6008 27.6 49.3008 27.5 49.1008 27.6L52.0008 31.4C52.0008 31.0999 52.2008 30.8 52.2008 30.5L50.0008 27.6ZM52.2008 25.9C52.2008 26.5999 52.2008 27.2999 52.4008 27.9C53.0008 28.2999 53.6008 28.6 54.3008 28.7L52.2008 25.9ZM52.9008 24C52.7008 24.4 52.5008 24.7 52.4008 25.1L55.2008 28.9C55.6008 28.9 56.0008 28.8 56.4008 28.7L52.9008 24ZM23.5008 42.5C23.1008 42.5 22.9008 42.7999 22.9008 43.5V52.5999C22.9008 53.1999 23.1008 53.5999 23.5008 53.5999C23.9008 53.5999 24.1008 53.2999 24.1008 52.5999V43.4C24.1008 42.7 23.9008 42.5 23.5008 42.5ZM52.9008 24C52.7008 24.4 52.5008 24.7 52.4008 25.1L55.2008 28.9C55.6008 28.9 56.0008 28.8 56.4008 28.7L52.9008 24ZM52.5008 27.9C53.1008 28.4 53.7008 28.5999 54.4008 28.7999L52.3008 26C52.2008 26.6 52.2008 27.2999 52.5008 27.9ZM49.8008 27.5C49.6008 27.5 49.3008 27.4 49.1008 27.5L52.0008 31.2999C52.0008 30.9999 52.2008 30.7 52.2008 30.4L50.0008 27.6C50.0008 27.6 50.0008 27.5 49.8008 27.5ZM47.2008 27.9L51.0008 32.9C51.2008 32.7 51.3008 32.4999 51.4008 32.2999L47.8008 27.6C47.6008 27.6 47.4008 27.5999 47.1008 27.7999L47.2008 27.9ZM46.0008 28.6C46.0008 28.7 45.8008 28.6999 45.7008 28.7999L49.7008 34.0999C49.7674 34.0333 49.8341 34 49.9008 34C49.9008 34 50.1008 34 50.2008 33.7999L46.1008 28.4C46.1008 28.4 45.9008 28.5 45.8008 28.6H46.0008ZM48.5008 34.0999L46.0008 30.7C46.0008 30.6333 45.9341 30.6 45.8008 30.6C45.8008 30.6 45.6008 30.6 45.5008 30.7C45.3008 30.8 45.3008 31 45.5008 31.2L47.7008 34.0999L48.3008 34.9C48.5008 34.9 48.8008 34.9 49.0008 34.7L48.7008 34.2L48.5008 34.0999ZM44.1008 31.2C44.1008 31.5 43.9008 31.7999 43.9008 32.0999L45.4008 34.0999L46.1008 35C46.4008 35 46.7008 35 47.0008 35L46.3008 34.0999L44.1008 31.2ZM43.6008 34.5999C43.3008 34.3999 43.0008 34.1999 42.7008 34.0999C42.4008 34.0999 42.1008 33.9 41.7008 33.7999L41.9008 34.0999L43.8008 36.7C44.0008 35.9 43.9008 35.1999 43.6008 34.5999ZM41.1008 34.0999L40.8008 33.7999C40.4008 33.7999 40.0008 33.7999 39.6008 34V34.2L43.1008 38.7C43.3008 38.3 43.5008 37.9999 43.6008 37.5999C43.6008 37.2999 43.6008 37.3999 43.6008 37.5999L41.1008 34.0999ZM77.1008 43.7999C77.1008 42.2999 77.5008 41.2 78.3008 40.5C77.8008 38.2999 77.0008 36.0999 76.0008 34.0999C70.9008 23.7999 60.3008 16.7 48.0008 16.7C35.7008 16.7 25.1008 23.7999 20.0008 34.0999C17.9008 38.2999 16.8008 43 16.8008 47.9C16.8008 52.8 18.0008 57.6 20.0008 61.7C25.1008 72 35.7008 79.0999 48.0008 79.0999C60.3008 79.0999 70.9008 72 76.0008 61.7C77.0008 59.7999 77.7008 57.6999 78.3008 55.5999C77.6008 54.7999 77.2008 53.6999 77.2008 52.0999C77.2008 52.1999 77.2008 43.7999 77.2008 43.7999H77.1008ZM54.3008 70.3H41.6008V69.1999H54.3008V70.3ZM59.0008 67.5H37.0008V66.4H59.0008V67.5ZM61.0008 64.6999H35.0008V63.5999H61.0008V64.6999ZM70.5008 44C70.2008 48.2 69.6008 55.3999 69.5008 56.5999H66.5008C66.5008 54.1999 65.8008 47.2 65.5008 43.9H65.3008C65.3008 45.9 65.3008 49.2999 65.3008 52.2999V56.5999H61.6008V39.5H67.1008C67.3008 41.1 67.7008 45 67.8008 47H68.0008C68.2008 44.6 68.3008 43 68.7008 39.5H74.5008V56.5999H70.5008V52.4C70.5008 50.1 70.5008 46.2 70.5008 44ZM54.7008 42.5C54.2008 42.5 54.1008 42.9 54.1008 43.7999V52.5999C54.1008 53.5 54.5008 53.5999 54.7008 53.5999C55.1008 53.5999 55.3008 53.3 55.3008 52.4V50H54.6008V46.5999H59.4008V56.5999H56.5008C56.5008 56.2999 56.5008 55.5999 56.3008 55.2999C55.7008 56.7 54.4008 56.9 53.4008 56.9C50.5008 56.9 49.9008 54.7 49.9008 52.2V43.9C49.9008 41.6 51.0008 39.4 54.6008 39.4C58.2008 39.4 59.4008 42.3999 59.4008 44.0999V45.2H55.3008V43.9C55.3008 42.9 55.3008 42.5 54.7008 42.5ZM39.9008 21.2L41.1008 20.6C41.1008 20.6 41.1008 20.5 41.3008 20.6C41.3008 20.6 41.5008 20.6999 41.6008 20.7999C41.6008 20.9999 41.6008 21.1999 41.4008 21.2999L41.1008 21.5L41.5008 22.4V22.6H41.9008C41.9008 22.6 42.1008 22.6 42.2008 22.7C42.2008 22.7 42.4008 22.8 42.5008 23L42.7008 23.5L42.3008 23.7V24L42.8008 23.7999L43.0008 24.2999L42.3008 24.6V24.9L43.1008 24.6L43.4008 25.2L43.0008 25.4V25.7L43.5008 25.5L43.7008 26L43.0008 26.2999V26.6L43.8008 26.2999V26.6C43.8008 26.7 43.8008 26.7999 43.6008 26.9C43.6008 26.9666 43.5341 27.0333 43.4008 27.1L43.6008 27.4C43.6008 27.5 43.6008 27.6999 43.6008 27.7999L44.6008 30V31L43.4008 27.9C43.4008 27.9 43.2008 27.8 43.1008 27.7L42.9008 27.2999H42.6008C42.6008 27.2999 42.4008 27.3 42.3008 27.2C42.2008 27.1 42.1008 27.0999 42.0008 26.9L40.7008 23.6C40.7008 23.5 40.7008 23.3 40.7008 23.2C40.7008 23.1 40.7008 22.9999 40.9008 22.9C40.9008 22.8 41.1008 22.8 41.2008 22.7V22.5L40.7008 21.6H40.4008C40.2008 21.8 40.0008 21.7 39.9008 21.5C39.7008 21.5 39.9008 21.3 39.9008 21.2ZM38.4008 33.7C40.0008 32.9 41.8008 32.9 43.3008 33.7C43.1008 32.7 43.3008 31.6 43.6008 30.6C43.6008 30.5 43.6008 30.4 43.9008 30.4L44.2008 31.1C44.2008 31.3 44.4008 31.4 44.6008 31.4C44.8008 31.4 44.9008 31.2 44.9008 31V30V29.9V29.7L44.6008 29.2V29.1C44.9008 28.7 45.3008 28.4 45.6008 28.1C46.6008 27.3 47.9008 26.9 49.1008 26.9C50.3008 26.9 49.7008 26.9 50.0008 27C50.6008 27.1 51.1008 27.3 51.6008 27.5C51.3008 25.9 51.8008 24.1999 53.0008 22.7999C53.0008 22.6999 53.2008 22.7 53.3008 22.7C53.4008 22.7 53.5008 22.7999 53.5008 22.7999C53.5008 22.8999 53.5008 23.1 53.5008 23.2C53.5008 23.3 53.5008 23.4 53.3008 23.4C53.3008 23.4666 53.3008 23.4666 53.3008 23.4L57.0008 28.2999C57.0008 28.4 57.2008 28.2999 57.3008 28.2999C57.3008 28.1999 57.6008 28.2999 57.7008 28.4C57.7008 28.7 57.7008 28.9 57.5008 29C55.9008 29.8 54.0008 29.8 52.6008 29C52.9008 30.8 52.3008 32.6999 50.8008 34.0999C50.6008 34.2999 50.5008 34.4 50.3008 34.5C48.5008 35.9 46.1008 36.1 44.3008 35.2C44.6008 36.8 44.1008 38.6 42.9008 39.9C42.7008 40.1 42.5008 40.1 42.4008 39.9C42.4008 39.9 42.4008 39.6 42.4008 39.5C42.4008 39.5 42.6008 39.3 42.6008 39.2L39.0008 34.2C39.0008 34.2 38.8008 34.2 38.7008 34.2C38.5008 34.2 38.3008 34.2 38.3008 34.2C38.3008 34 38.3008 33.7999 38.4008 33.7999V33.7ZM47.6008 46.4V49.5H42.5008V46.4H47.6008ZM34.3008 56.2V56.5999H30.7008V39.5H35.0008C35.4008 41.4 36.7008 48.0999 36.8008 48.7999H37.0008C36.7008 46.0999 36.4008 41.6999 36.4008 40.0999V39.5H40.2008V56.5999H35.6008C35.4008 55.0999 34.2008 47.3 34.1008 46.7H33.9008C33.9008 48.6 34.3008 54.2999 34.3008 56.2ZM18.8008 52.2V43.7999C18.8008 40.5999 20.8008 39.2999 23.5008 39.2999C26.2008 39.2999 28.3008 40.7 28.3008 44V52.2C28.3008 55.7 26.4008 56.9 23.4008 56.9C20.4008 56.9 18.8008 55.5 18.8008 52.2ZM55.3008 28.9C55.7008 28.9 56.1008 28.8 56.5008 28.7L52.9008 24C52.7008 24.4 52.5008 24.7 52.4008 25.1L55.3008 28.9C55.3008 28.8333 55.3008 28.8333 55.3008 28.9ZM52.5008 28C53.1008 28.4 53.7008 28.6999 54.4008 28.7999L52.3008 26C52.2008 26.6 52.2008 27.3 52.5008 28ZM52.1008 30.4L50.0008 27.6H49.8008C49.6008 27.6 49.3008 27.5 49.1008 27.6L52.0008 31.4C52.0008 31 52.0008 30.7 52.0008 30.4H52.1008ZM51.0008 32.9C51.2008 32.9 51.4008 32.6 51.5008 32.4L47.9008 27.7C47.7008 27.8 47.4008 27.7999 47.2008 27.9V28L50.9008 32.9H51.0008ZM49.8008 34.2C49.8674 34.0666 49.9341 34 50.0008 34C50.0008 34 50.2008 34 50.3008 33.7999L46.2008 28.4C46.2008 28.5 46.0008 28.5 45.9008 28.6C45.8008 28.7 45.7008 28.6999 45.6008 28.7999L49.7008 34.2H49.8008ZM47.6008 34.0999L48.2008 34.9C48.4008 34.9 48.7008 34.9 48.9008 34.7L48.5008 34.2L46.1008 30.7999C46.1008 30.7333 46.0341 30.7 45.9008 30.7C45.9008 30.7 45.7008 30.6999 45.6008 30.7999C45.4008 30.9 45.4008 31.0999 45.6008 31.2999C45.6008 31.1999 47.8008 34.2 47.8008 34.2L47.6008 34.0999ZM46.1008 35H47.0008L46.3008 34.0999L44.1008 31.2C44.1008 31.5 43.9008 31.7999 43.9008 32.0999L45.4008 34.0999L46.1008 35ZM43.9008 36.5999C43.9008 35.8999 43.9008 35.2 43.6008 34.5C43.3008 34.2999 43.0008 34.1 42.7008 34C42.4008 34 42.1008 33.8 41.7008 33.7L41.9008 34L43.9008 36.5999ZM43.3008 38.5999C43.5008 38.1999 43.7008 37.9 43.8008 37.5C43.8008 37.2 43.8008 37.2999 43.8008 37.5L41.2008 34.0999L40.9008 33.7999C40.5008 33.7999 40.1008 33.7999 39.7008 34V34.2L43.3008 38.5999ZM23.5008 53.7C23.9008 53.7 24.1008 53.4 24.1008 52.7V43.5C24.1008 42.7 23.9008 42.5 23.5008 42.5C23.1008 42.5 22.9008 42.7999 22.9008 43.5V52.5999C22.9008 53.2999 23.1008 53.7 23.5008 53.7ZM43.7008 37.5L41.1008 34.0999L40.8008 33.7999C40.4008 33.7999 40.0008 33.7999 39.6008 34V34.2L43.1008 38.7C43.5008 38.3 43.6008 37.9 43.7008 37.5C43.7008 37.3666 43.7008 37.3666 43.7008 37.5ZM43.6008 34.5999C43.3008 34.3999 43.0008 34.1999 42.7008 34.0999C42.4008 34.0999 42.1008 33.9 41.7008 33.7999L41.9008 34.0999L43.8008 36.7C44.0008 35.9 43.9008 35.1999 43.6008 34.5999ZM46.3008 34.0999L44.1008 31.2C44.1008 31.5 43.9008 31.7999 43.9008 32.0999L45.4008 34.0999L46.1008 35H47.0008L46.3008 34.0999ZM48.8008 34.5999L48.4008 34.0999L46.0008 30.7C46.0008 30.6333 45.9341 30.6 45.8008 30.6C45.8008 30.6 45.6008 30.6 45.5008 30.7C45.3008 30.8 45.3008 31 45.5008 31.2L47.7008 34.0999L48.3008 34.9C48.5008 34.8 48.7008 34.6999 48.9008 34.5999H48.8008ZM46.3008 28.4C46.3008 28.5 46.1008 28.5 46.0008 28.6C45.9008 28.7 45.8008 28.6999 45.7008 28.7999L49.7008 34.0999C49.7674 34.0333 49.8341 34 49.9008 34C49.9008 34 50.1008 34 50.2008 33.7999L46.1008 28.4H46.3008ZM47.9008 27.6C47.7008 27.7 47.4008 27.6999 47.2008 27.7999V27.9L50.9008 32.7999C51.1008 32.5999 51.2008 32.4 51.3008 32.2L47.7008 27.5L47.9008 27.6ZM50.0008 27.6H49.8008C49.6008 27.6 49.3008 27.5 49.1008 27.6L52.0008 31.4C52.0008 31.0999 52.2008 30.8 52.2008 30.5L50.0008 27.6ZM52.2008 25.9C52.2008 26.5999 52.2008 27.2999 52.4008 27.9C53.0008 28.2999 53.6008 28.6 54.3008 28.7L52.2008 25.9ZM52.9008 24C52.7008 24.4 52.5008 24.7 52.4008 25.1L55.2008 28.9C55.6008 28.9 56.0008 28.8 56.4008 28.7L52.9008 24ZM23.5008 42.5C23.1008 42.5 22.9008 42.7999 22.9008 43.5V52.5999C22.9008 53.1999 23.1008 53.5999 23.5008 53.5999C23.9008 53.5999 24.1008 53.2999 24.1008 52.5999V43.4C24.1008 42.7 23.9008 42.5 23.5008 42.5ZM52.9008 24C52.7008 24.4 52.5008 24.7 52.4008 25.1L55.2008 28.9C55.6008 28.9 56.0008 28.8 56.4008 28.7L52.9008 24ZM52.2008 25.9C52.2008 26.5999 52.2008 27.2999 52.4008 27.9C53.0008 28.2999 53.6008 28.6 54.3008 28.7L52.2008 25.9ZM50.0008 27.6H49.8008C49.6008 27.6 49.3008 27.5 49.1008 27.6L52.0008 31.4C52.0008 31.0999 52.2008 30.8 52.2008 30.5L50.0008 27.6ZM47.9008 27.6C47.7008 27.7 47.4008 27.6999 47.2008 27.7999V27.9L50.9008 32.7999C51.1008 32.5999 51.2008 32.4 51.3008 32.2L47.7008 27.5L47.9008 27.6ZM46.3008 28.4C46.3008 28.5 46.1008 28.5 46.0008 28.6C45.9008 28.7 45.8008 28.6999 45.7008 28.7999L49.7008 34.0999C49.7674 34.0333 49.8341 34 49.9008 34C49.9008 34 50.1008 34 50.2008 33.7999L46.1008 28.4H46.3008ZM48.8008 34.5999L48.4008 34.0999L46.0008 30.7C46.0008 30.6333 45.9341 30.6 45.8008 30.6C45.8008 30.6 45.6008 30.6 45.5008 30.7C45.3008 30.8 45.3008 31 45.5008 31.2L47.7008 34.0999L48.3008 34.9C48.5008 34.8 48.7008 34.6999 48.9008 34.5999H48.8008ZM46.3008 34.0999L44.1008 31.2C44.1008 31.5 43.9008 31.7999 43.9008 32.0999L45.4008 34.0999L46.1008 35H47.0008L46.3008 34.0999ZM43.6008 34.5999C43.3008 34.3999 43.0008 34.1999 42.7008 34.0999C42.4008 34.0999 42.1008 33.9 41.7008 33.7999L41.9008 34.0999L43.8008 36.7C44.0008 35.9 43.9008 35.1999 43.6008 34.5999ZM43.7008 37.5L41.1008 34.0999L40.8008 33.7999C40.4008 33.7999 40.0008 33.7999 39.6008 34V34.2L43.1008 38.7C43.5008 38.3 43.6008 37.9 43.7008 37.5C43.7008 37.3666 43.7008 37.3666 43.7008 37.5ZM23.5008 42.5C23.1008 42.5 22.9008 42.7999 22.9008 43.5V52.5999C22.9008 53.1999 23.1008 53.5999 23.5008 53.5999C23.9008 53.5999 24.1008 53.2999 24.1008 52.5999V43.4C24.1008 42.7 23.9008 42.5 23.5008 42.5ZM43.7008 37.5L41.1008 34.0999L40.8008 33.7999C40.4008 33.7999 40.0008 33.7999 39.6008 34V34.2L43.1008 38.7C43.5008 38.3 43.6008 37.9 43.7008 37.5C43.7008 37.3666 43.7008 37.3666 43.7008 37.5ZM43.6008 34.5999C43.3008 34.3999 43.0008 34.1999 42.7008 34.0999C42.4008 34.0999 42.1008 33.9 41.7008 33.7999L41.9008 34.0999L43.8008 36.7C44.0008 35.9 43.9008 35.1999 43.6008 34.5999ZM46.3008 34.0999L44.1008 31.2C44.1008 31.5 43.9008 31.7999 43.9008 32.0999L45.4008 34.0999L46.1008 35H47.0008L46.3008 34.0999ZM48.8008 34.5999L48.4008 34.0999L46.0008 30.7C46.0008 30.6333 45.9341 30.6 45.8008 30.6C45.8008 30.6 45.6008 30.6 45.5008 30.7C45.3008 30.8 45.3008 31 45.5008 31.2L47.7008 34.0999L48.3008 34.9C48.5008 34.8 48.7008 34.6999 48.9008 34.5999H48.8008ZM46.3008 28.4C46.3008 28.5 46.1008 28.5 46.0008 28.6C45.9008 28.7 45.8008 28.6999 45.7008 28.7999L49.7008 34.0999C49.7674 34.0333 49.8341 34 49.9008 34C49.9008 34 50.1008 34 50.2008 33.7999L46.1008 28.4H46.3008ZM47.9008 27.6C47.7008 27.7 47.4008 27.6999 47.2008 27.7999V27.9L50.9008 32.7999C51.1008 32.5999 51.2008 32.4 51.3008 32.2L47.7008 27.5L47.9008 27.6ZM50.0008 27.6H49.8008C49.6008 27.6 49.3008 27.5 49.1008 27.6L52.0008 31.4C52.0008 31.0999 52.2008 30.8 52.2008 30.5L50.0008 27.6ZM52.2008 25.9C52.2008 26.5999 52.2008 27.2999 52.4008 27.9C53.0008 28.2999 53.6008 28.6 54.3008 28.7L52.2008 25.9ZM52.9008 24C52.7008 24.4 52.5008 24.7 52.4008 25.1L55.2008 28.9C55.6008 28.9 56.0008 28.8 56.4008 28.7L52.9008 24ZM23.5008 42.5C23.1008 42.5 22.9008 42.7999 22.9008 43.5V52.5999C22.9008 53.1999 23.1008 53.5999 23.5008 53.5999C23.9008 53.5999 24.1008 53.2999 24.1008 52.5999V43.4C24.1008 42.7 23.9008 42.5 23.5008 42.5ZM52.9008 24C52.7008 24.4 52.5008 24.7 52.4008 25.1L55.2008 28.9C55.6008 28.9 56.0008 28.8 56.4008 28.7L52.9008 24ZM52.2008 25.9C52.2008 26.5999 52.2008 27.2999 52.4008 27.9C53.0008 28.2999 53.6008 28.6 54.3008 28.7L52.2008 25.9ZM50.0008 27.6H49.8008C49.6008 27.6 49.3008 27.5 49.1008 27.6L52.0008 31.4C52.0008 31.0999 52.2008 30.8 52.2008 30.5L50.0008 27.6ZM47.9008 27.6C47.7008 27.7 47.4008 27.6999 47.2008 27.7999V27.9L50.9008 32.7999C51.1008 32.5999 51.2008 32.4 51.3008 32.2L47.7008 27.5L47.9008 27.6ZM46.3008 28.4C46.3008 28.5 46.1008 28.5 46.0008 28.6C45.9008 28.7 45.8008 28.6999 45.7008 28.7999L49.7008 34.0999C49.7674 34.0333 49.8341 34 49.9008 34C49.9008 34 50.1008 34 50.2008 33.7999L46.1008 28.4H46.3008ZM48.8008 34.5999L48.4008 34.0999L46.0008 30.7C46.0008 30.6333 45.9341 30.6 45.8008 30.6C45.8008 30.6 45.6008 30.6 45.5008 30.7C45.3008 30.8 45.3008 31 45.5008 31.2L47.7008 34.0999L48.3008 34.9C48.5008 34.8 48.7008 34.6999 48.9008 34.5999H48.8008ZM46.3008 34.0999L44.1008 31.2C44.1008 31.5 43.9008 31.7999 43.9008 32.0999L45.4008 34.0999L46.1008 35H47.0008L46.3008 34.0999ZM43.6008 34.5999C43.3008 34.3999 43.0008 34.1999 42.7008 34.0999C42.4008 34.0999 42.1008 33.9 41.7008 33.7999L41.9008 34.0999L43.8008 36.7C44.0008 35.9 43.9008 35.1999 43.6008 34.5999ZM43.7008 37.5L41.1008 34.0999L40.8008 33.7999C40.4008 33.7999 40.0008 33.7999 39.6008 34V34.2L43.1008 38.7C43.5008 38.3 43.6008 37.9 43.7008 37.5C43.7008 37.3666 43.7008 37.3666 43.7008 37.5ZM23.5008 42.5C23.1008 42.5 22.9008 42.7999 22.9008 43.5V52.5999C22.9008 53.1999 23.1008 53.5999 23.5008 53.5999C23.9008 53.5999 24.1008 53.2999 24.1008 52.5999V43.4C24.1008 42.7 23.9008 42.5 23.5008 42.5ZM43.7008 37.5L41.1008 34.0999L40.8008 33.7999C40.4008 33.7999 40.0008 33.7999 39.6008 34V34.2L43.1008 38.7C43.5008 38.3 43.6008 37.9 43.7008 37.5C43.7008 37.3666 43.7008 37.3666 43.7008 37.5ZM43.6008 34.5999C43.3008 34.3999 43.0008 34.1999 42.7008 34.0999C42.4008 34.0999 42.1008 33.9 41.7008 33.7999L41.9008 34.0999L43.8008 36.7C44.0008 35.9 43.9008 35.1999 43.6008 34.5999ZM46.3008 34.0999L44.1008 31.2C44.1008 31.5 43.9008 31.7999 43.9008 32.0999L45.4008 34.0999L46.1008 35H47.0008L46.3008 34.0999ZM48.8008 34.5999L48.4008 34.0999L46.0008 30.7C46.0008 30.6333 45.9341 30.6 45.8008 30.6C45.8008 30.6 45.6008 30.6 45.5008 30.7C45.3008 30.8 45.3008 31 45.5008 31.2L47.7008 34.0999L48.3008 34.9C48.5008 34.8 48.7008 34.6999 48.9008 34.5999H48.8008ZM46.3008 28.4C46.3008 28.5 46.1008 28.5 46.0008 28.6C45.9008 28.7 45.8008 28.6999 45.7008 28.7999L49.7008 34.0999C49.7674 34.0333 49.8341 34 49.9008 34C49.9008 34 50.1008 34 50.2008 33.7999L46.1008 28.4H46.3008ZM47.9008 27.6C47.7008 27.7 47.4008 27.6999 47.2008 27.7999V27.9L50.9008 32.7999C51.1008 32.5999 51.2008 32.4 51.3008 32.2L47.7008 27.5L47.9008 27.6ZM50.0008 27.6H49.8008C49.6008 27.6 49.3008 27.5 49.1008 27.6L52.0008 31.4C52.0008 31.0999 52.2008 30.8 52.2008 30.5L50.0008 27.6ZM52.2008 25.9C52.2008 26.5999 52.2008 27.2999 52.4008 27.9C53.0008 28.2999 53.6008 28.6 54.3008 28.7L52.2008 25.9ZM52.9008 24C52.7008 24.4 52.5008 24.7 52.4008 25.1L55.2008 28.9C55.6008 28.9 56.0008 28.8 56.4008 28.7L52.9008 24ZM23.5008 42.5C23.1008 42.5 22.9008 42.7999 22.9008 43.5V52.5999C22.9008 53.1999 23.1008 53.5999 23.5008 53.5999C23.9008 53.5999 24.1008 53.2999 24.1008 52.5999V43.4C24.1008 42.7 23.9008 42.5 23.5008 42.5ZM52.9008 24C52.7008 24.4 52.5008 24.7 52.4008 25.1L55.2008 28.9C55.6008 28.9 56.0008 28.8 56.4008 28.7L52.9008 24ZM52.2008 25.9C52.2008 26.5999 52.2008 27.2999 52.4008 27.9C53.0008 28.2999 53.6008 28.6 54.3008 28.7L52.2008 25.9ZM50.0008 27.6H49.8008C49.6008 27.6 49.3008 27.5 49.1008 27.6L52.0008 31.4C52.0008 31.0999 52.2008 30.8 52.2008 30.5L50.0008 27.6ZM47.9008 27.6C47.7008 27.7 47.4008 27.6999 47.2008 27.7999V27.9L50.9008 32.7999C51.1008 32.5999 51.2008 32.4 51.3008 32.2L47.7008 27.5L47.9008 27.6ZM46.3008 28.4C46.3008 28.5 46.1008 28.5 46.0008 28.6C45.9008 28.7 45.8008 28.6999 45.7008 28.7999L49.7008 34.0999C49.7674 34.0333 49.8341 34 49.9008 34C49.9008 34 50.1008 34 50.2008 33.7999L46.1008 28.4H46.3008ZM48.8008 34.5999L48.4008 34.0999L46.0008 30.7C46.0008 30.6333 45.9341 30.6 45.8008 30.6C45.8008 30.6 45.6008 30.6 45.5008 30.7C45.3008 30.8 45.3008 31 45.5008 31.2L47.7008 34.0999L48.3008 34.9C48.5008 34.8 48.7008 34.6999 48.9008 34.5999H48.8008ZM46.3008 34.0999L44.1008 31.2C44.1008 31.5 43.9008 31.7999 43.9008 32.0999L45.4008 34.0999L46.1008 35H47.0008L46.3008 34.0999ZM43.6008 34.5999C43.3008 34.3999 43.0008 34.1999 42.7008 34.0999C42.4008 34.0999 42.1008 33.9 41.7008 33.7999L41.9008 34.0999L43.8008 36.7C44.0008 35.9 43.9008 35.1999 43.6008 34.5999ZM43.7008 37.5L41.1008 34.0999L40.8008 33.7999C40.4008 33.7999 40.0008 33.7999 39.6008 34V34.2L43.1008 38.7C43.5008 38.3 43.6008 37.9 43.7008 37.5C43.7008 37.3666 43.7008 37.3666 43.7008 37.5ZM23.5008 42.5C23.1008 42.5 22.9008 42.7999 22.9008 43.5V52.5999C22.9008 53.1999 23.1008 53.5999 23.5008 53.5999C23.9008 53.5999 24.1008 53.2999 24.1008 52.5999V43.4C24.1008 42.7 23.9008 42.5 23.5008 42.5ZM43.7008 37.5L41.1008 34.0999L40.8008 33.7999C40.4008 33.7999 40.0008 33.7999 39.6008 34V34.2L43.1008 38.7C43.5008 38.3 43.6008 37.9 43.7008 37.5C43.7008 37.3666 43.7008 37.3666 43.7008 37.5ZM43.6008 34.5999C43.3008 34.3999 43.0008 34.1999 42.7008 34.0999C42.4008 34.0999 42.1008 33.9 41.7008 33.7999L41.9008 34.0999L43.8008 36.7C44.0008 35.9 43.9008 35.1999 43.6008 34.5999ZM46.3008 34.0999L44.1008 31.2C44.1008 31.5 43.9008 31.7999 43.9008 32.0999L45.4008 34.0999L46.1008 35H47.0008L46.3008 34.0999ZM48.8008 34.5999L48.4008 34.0999L46.0008 30.7C46.0008 30.6333 45.9341 30.6 45.8008 30.6C45.8008 30.6 45.6008 30.6 45.5008 30.7C45.3008 30.8 45.3008 31 45.5008 31.2L47.7008 34.0999L48.3008 34.9C48.5008 34.8 48.7008 34.6999 48.9008 34.5999H48.8008ZM46.3008 28.4C46.3008 28.5 46.1008 28.5 46.0008 28.6C45.9008 28.7 45.8008 28.6999 45.7008 28.7999L49.7008 34.0999C49.7674 34.0333 49.8341 34 49.9008 34C49.9008 34 50.1008 34 50.2008 33.7999L46.1008 28.4H46.3008ZM47.9008 27.6C47.7008 27.7 47.4008 27.6999 47.2008 27.7999V27.9L50.9008 32.7999C51.1008 32.5999 51.2008 32.4 51.3008 32.2L47.7008 27.5L47.9008 27.6ZM50.0008 27.6H49.8008C49.6008 27.6 49.3008 27.5 49.1008 27.6L52.0008 31.4C52.0008 31.0999 52.2008 30.8 52.2008 30.5L50.0008 27.6ZM52.2008 25.9C52.2008 26.5999 52.2008 27.2999 52.4008 27.9C53.0008 28.2999 53.6008 28.6 54.3008 28.7L52.2008 25.9ZM52.9008 24C52.7008 24.4 52.5008 24.7 52.4008 25.1L55.2008 28.9C55.6008 28.9 56.0008 28.8 56.4008 28.7L52.9008 24ZM23.5008 42.5C23.1008 42.5 22.9008 42.7999 22.9008 43.5V52.5999C22.9008 53.1999 23.1008 53.5999 23.5008 53.5999C23.9008 53.5999 24.1008 53.2999 24.1008 52.5999V43.4C24.1008 42.7 23.9008 42.5 23.5008 42.5ZM52.9008 24C52.7008 24.4 52.5008 24.7 52.4008 25.1L55.2008 28.9C55.6008 28.9 56.0008 28.8 56.4008 28.7L52.9008 24ZM52.2008 25.9C52.2008 26.5999 52.2008 27.2999 52.4008 27.9C53.0008 28.2999 53.6008 28.6 54.3008 28.7L52.2008 25.9ZM50.0008 27.6H49.8008C49.6008 27.6 49.3008 27.5 49.1008 27.6L52.0008 31.4C52.0008 31.0999 52.2008 30.8 52.2008 30.5L50.0008 27.6ZM47.9008 27.6C47.7008 27.7 47.4008 27.6999 47.2008 27.7999V27.9L50.9008 32.7999C51.1008 32.5999 51.2008 32.4 51.3008 32.2L47.7008 27.5L47.9008 27.6ZM46.3008 28.4C46.3008 28.5 46.1008 28.5 46.0008 28.6C45.9008 28.7 45.8008 28.6999 45.7008 28.7999L49.7008 34.0999C49.7674 34.0333 49.8341 34 49.9008 34C49.9008 34 50.1008 34 50.2008 33.7999L46.1008 28.4H46.3008ZM48.8008 34.5999L48.4008 34.0999L46.0008 30.7C46.0008 30.6333 45.9341 30.6 45.8008 30.6C45.8008 30.6 45.6008 30.6 45.5008 30.7C45.3008 30.8 45.3008 31 45.5008 31.2L47.7008 34.0999L48.3008 34.9C48.5008 34.8 48.7008 34.6999 48.9008 34.5999H48.8008ZM46.3008 34.0999L44.1008 31.2C44.1008 31.5 43.9008 31.7999 43.9008 32.0999L45.4008 34.0999L46.1008 35H47.0008L46.3008 34.0999ZM43.6008 34.5999C43.3008 34.3999 43.0008 34.1999 42.7008 34.0999C42.4008 34.0999 42.1008 33.9 41.7008 33.7999L41.9008 34.0999L43.8008 36.7C44.0008 35.9 43.9008 35.1999 43.6008 34.5999ZM43.7008 37.5L41.1008 34.0999L40.8008 33.7999C40.4008 33.7999 40.0008 33.7999 39.6008 34V34.2L43.1008 38.7C43.5008 38.3 43.6008 37.9 43.7008 37.5C43.7008 37.3666 43.7008 37.3666 43.7008 37.5ZM23.5008 42.5C23.1008 42.5 22.9008 42.7999 22.9008 43.5V52.5999C22.9008 53.1999 23.1008 53.5999 23.5008 53.5999C23.9008 53.5999 24.1008 53.2999 24.1008 52.5999V43.4C24.1008 42.7 23.9008 42.5 23.5008 42.5ZM43.7008 37.5L41.1008 34.0999L40.8008 33.7999C40.4008 33.7999 40.0008 33.7999 39.6008 34V34.2L43.1008 38.7C43.5008 38.3 43.6008 37.9 43.7008 37.5C43.7008 37.3666 43.7008 37.3666 43.7008 37.5ZM43.6008 34.5999C43.3008 34.3999 43.0008 34.1999 42.7008 34.0999C42.4008 34.0999 42.1008 33.9 41.7008 33.7999L41.9008 34.0999L43.8008 36.7C44.0008 35.9 43.9008 35.1999 43.6008 34.5999ZM46.3008 34.0999L44.1008 31.2C44.1008 31.5 43.9008 31.7999 43.9008 32.0999L45.4008 34.0999L46.1008 35H47.0008L46.3008 34.0999ZM48.8008 34.5999L48.4008 34.0999L46.0008 30.7C46.0008 30.6333 45.9341 30.6 45.8008 30.6C45.8008 30.6 45.6008 30.6 45.5008 30.7C45.3008 30.8 45.3008 31 45.5008 31.2L47.7008 34.0999L48.3008 34.9C48.5008 34.8 48.7008 34.6999 48.9008 34.5999H48.8008ZM46.3008 28.4C46.3008 28.5 46.1008 28.5 46.0008 28.6C45.9008 28.7 45.8008 28.6999 45.7008 28.7999L49.7008 34.0999C49.7674 34.0333 49.8341 34 49.9008 34C49.9008 34 50.1008 34 50.2008 33.7999L46.1008 28.4H46.3008ZM47.9008 27.6C47.7008 27.7 47.4008 27.6999 47.2008 27.7999V27.9L50.9008 32.7999C51.1008 32.5999 51.2008 32.4 51.3008 32.2L47.7008 27.5L47.9008 27.6ZM50.0008 27.6H49.8008C49.6008 27.6 49.3008 27.5 49.1008 27.6L52.0008 31.4C52.0008 31.0999 52.2008 30.8 52.2008 30.5L50.0008 27.6ZM52.2008 25.9C52.2008 26.5999 52.2008 27.2999 52.4008 27.9C53.0008 28.2999 53.6008 28.6 54.3008 28.7L52.2008 25.9ZM52.9008 24C52.7008 24.4 52.5008 24.7 52.4008 25.1L55.2008 28.9C55.6008 28.9 56.0008 28.8 56.4008 28.7L52.9008 24ZM52.9008 24C52.7008 24.4 52.5008 24.7 52.4008 25.1L55.2008 28.9C55.6008 28.9 56.0008 28.8 56.4008 28.7L52.9008 24ZM52.2008 25.9C52.2008 26.5999 52.2008 27.2999 52.4008 27.9C53.0008 28.2999 53.6008 28.6 54.3008 28.7L52.2008 25.9ZM50.0008 27.6H49.8008C49.6008 27.6 49.3008 27.5 49.1008 27.6L52.0008 31.4C52.0008 31.0999 52.2008 30.8 52.2008 30.5L50.0008 27.6ZM47.9008 27.6C47.7008 27.7 47.4008 27.6999 47.2008 27.7999V27.9L50.9008 32.7999C51.1008 32.5999 51.2008 32.4 51.3008 32.2L47.7008 27.5L47.9008 27.6ZM46.3008 28.4C46.3008 28.5 46.1008 28.5 46.0008 28.6C45.9008 28.7 45.8008 28.6999 45.7008 28.7999L49.7008 34.0999C49.7674 34.0333 49.8341 34 49.9008 34C49.9008 34 50.1008 34 50.2008 33.7999L46.1008 28.4H46.3008ZM48.8008 34.5999L48.4008 34.0999L46.0008 30.7C46.0008 30.6333 45.9341 30.6 45.8008 30.6C45.8008 30.6 45.6008 30.6 45.5008 30.7C45.3008 30.8 45.3008 31 45.5008 31.2L47.7008 34.0999L48.3008 34.9C48.5008 34.8 48.7008 34.6999 48.9008 34.5999H48.8008ZM46.3008 34.0999L44.1008 31.2C44.1008 31.5 43.9008 31.7999 43.9008 32.0999L45.4008 34.0999L46.1008 35H47.0008L46.3008 34.0999ZM43.6008 34.5999C43.3008 34.3999 43.0008 34.1999 42.7008 34.0999C42.4008 34.0999 42.1008 33.9 41.7008 33.7999L41.9008 34.0999L43.8008 36.7C44.0008 35.9 43.9008 35.1999 43.6008 34.5999ZM43.7008 37.5L41.1008 34.0999L40.8008 33.7999C40.4008 33.7999 40.0008 33.7999 39.6008 34V34.2L43.1008 38.7C43.5008 38.3 43.6008 37.9 43.7008 37.5C43.7008 37.3666 43.7008 37.3666 43.7008 37.5ZM40.9008 33.7C40.5008 33.7 40.1008 33.7 39.7008 33.9V34.0999H41.1008L40.9008 33.7ZM41.8008 33.7999L42.0008 34.0999H42.8008C42.4008 33.8999 42.1008 33.9 41.8008 33.7999ZM44.1008 31.2C44.1008 31.5 43.9008 31.7999 43.9008 32.0999L45.4008 34.0999H46.3008L44.1008 31.2ZM46.0008 30.7C46.0008 30.6333 45.9341 30.6 45.8008 30.6C45.8008 30.6 45.6008 30.6 45.5008 30.7C45.3008 30.8 45.3008 31 45.5008 31.2L47.7008 34.0999H48.6008L46.1008 30.7H46.0008ZM46.3008 28.4C46.3008 28.5 46.1008 28.5 46.0008 28.6C45.9008 28.7 45.8008 28.6999 45.7008 28.7999L49.7008 34.0999H49.9008C49.9008 34.0333 49.9674 34 50.1008 34C50.1008 34 50.3008 34 50.4008 33.7999L46.3008 28.4ZM47.9008 27.6C47.7008 27.7 47.4008 27.6999 47.2008 27.7999V27.9L50.9008 32.7999C51.1008 32.5999 51.2008 32.4 51.3008 32.2L47.7008 27.5L47.9008 27.6ZM50.0008 27.6H49.8008C49.6008 27.6 49.3008 27.5 49.1008 27.6L52.0008 31.4C52.0008 31.0999 52.2008 30.8 52.2008 30.5L50.0008 27.6ZM52.2008 25.9C52.2008 26.5999 52.2008 27.2999 52.4008 27.9C53.0008 28.2999 53.6008 28.6 54.3008 28.7L52.2008 25.9ZM52.9008 24C52.7008 24.4 52.5008 24.7 52.4008 25.1L55.2008 28.9C55.6008 28.9 56.0008 28.8 56.4008 28.7L52.9008 24ZM52.9008 24C52.7008 24.4 52.5008 24.7 52.4008 25.1L55.2008 28.9C55.6008 28.9 56.0008 28.8 56.4008 28.7L52.9008 24ZM52.2008 25.9C52.2008 26.5999 52.2008 27.2999 52.4008 27.9C53.0008 28.2999 53.6008 28.6 54.3008 28.7L52.2008 25.9ZM50.0008 27.6H49.8008C49.6008 27.6 49.3008 27.5 49.1008 27.6L52.0008 31.4C52.0008 31.0999 52.2008 30.8 52.2008 30.5L50.0008 27.6ZM47.9008 27.6C47.7008 27.7 47.4008 27.6999 47.2008 27.7999V27.9L50.9008 32.7999C51.1008 32.5999 51.2008 32.4 51.3008 32.2L47.7008 27.5L47.9008 27.6Z" fill="#111111"/>
<path d="M43.2984 38.6L39.8984 34.1H41.1984L43.7984 37.5C43.5984 37.9 43.4984 38.3 43.2984 38.6Z" fill="#111111"/>
<path d="M43.9 36.6L42 34.1H42.8C43.1 34.1 43.4 34.4 43.7 34.6C43.9 35.2 44 35.9 43.9 36.6Z" fill="#111111"/>
<path d="M46.0984 35L45.3984 34.1H46.2984L46.9984 35H46.0984Z" fill="#111111"/>
<path d="M48.1996 34.9L47.5996 34.1H48.4996L48.8996 34.6C48.4996 34.6 48.2996 34.6 48.0996 34.8L48.1996 34.9Z" fill="#111111"/>
<path d="M23.4992 42.5C23.0992 42.5 22.8992 42.8 22.8992 43.5V52.6C22.8992 53.2 23.0992 53.6 23.4992 53.6C23.8992 53.6 24.0992 53.3 24.0992 52.6V43.4C24.0992 42.7 23.8992 42.5 23.4992 42.5ZM23.4992 42.5C23.0992 42.5 22.8992 42.8 22.8992 43.5V52.6C22.8992 53.2 23.0992 53.6 23.4992 53.6C23.8992 53.6 24.0992 53.3 24.0992 52.6V43.4C24.0992 42.7 23.8992 42.5 23.4992 42.5ZM23.4992 42.5C23.0992 42.5 22.8992 42.8 22.8992 43.5V52.6C22.8992 53.2 23.0992 53.6 23.4992 53.6C23.8992 53.6 24.0992 53.3 24.0992 52.6V43.4C24.0992 42.7 23.8992 42.5 23.4992 42.5ZM23.4992 42.5C23.0992 42.5 22.8992 42.8 22.8992 43.5V52.6C22.8992 53.2 23.0992 53.6 23.4992 53.6C23.8992 53.6 24.0992 53.3 24.0992 52.6V43.4C24.0992 42.7 23.8992 42.5 23.4992 42.5ZM23.4992 42.5C23.0992 42.5 22.8992 42.8 22.8992 43.5V52.6C22.8992 53.2 23.0992 53.6 23.4992 53.6C23.8992 53.6 24.0992 53.3 24.0992 52.6V43.4C24.0992 42.7 23.8992 42.5 23.4992 42.5ZM23.4992 42.5C23.0992 42.5 22.8992 42.8 22.8992 43.5V52.6C22.8992 53.2 23.0992 53.6 23.4992 53.6C23.8992 53.6 24.0992 53.3 24.0992 52.6V43.4C24.0992 42.7 23.8992 42.5 23.4992 42.5ZM23.4992 42.5C23.0992 42.5 22.8992 42.8 22.8992 43.5V52.6C22.8992 53.2 23.0992 53.6 23.4992 53.6C23.8992 53.6 24.0992 53.3 24.0992 52.6V43.4C24.0992 42.7 23.8992 42.5 23.4992 42.5ZM81.7992 42.5C81.3992 42.5 81.1992 42.8 81.1992 43.5V52.6C81.1992 53.2 81.3992 53.6 81.7992 53.6C82.1992 53.6 82.3992 53.3 82.3992 52.6V43.4C82.3992 42.7 82.3992 42.5 81.7992 42.5ZM81.7992 42.5C81.3992 42.5 81.1992 42.8 81.1992 43.5V52.6C81.1992 53.2 81.3992 53.6 81.7992 53.6C82.1992 53.6 82.3992 53.3 82.3992 52.6V43.4C82.3992 42.7 82.3992 42.5 81.7992 42.5ZM23.4992 42.5C23.0992 42.5 22.8992 42.8 22.8992 43.5V52.6C22.8992 53.2 23.0992 53.6 23.4992 53.6C23.8992 53.6 24.0992 53.3 24.0992 52.6V43.4C24.0992 42.7 23.8992 42.5 23.4992 42.5ZM23.4992 42.5C23.0992 42.5 22.8992 42.8 22.8992 43.5V52.6C22.8992 53.2 23.0992 53.6 23.4992 53.6C23.8992 53.6 24.0992 53.3 24.0992 52.6V43.4C24.0992 42.7 23.8992 42.5 23.4992 42.5ZM81.7992 42.5C81.3992 42.5 81.1992 42.8 81.1992 43.5V52.6C81.1992 53.2 81.3992 53.6 81.7992 53.6C82.1992 53.6 82.3992 53.3 82.3992 52.6V43.4C82.3992 42.7 82.3992 42.5 81.7992 42.5ZM81.7992 42.5C81.3992 42.5 81.1992 42.8 81.1992 43.5V52.6C81.1992 53.2 81.3992 53.6 81.7992 53.6C82.1992 53.6 82.3992 53.3 82.3992 52.6V43.4C82.3992 42.7 82.3992 42.5 81.7992 42.5ZM23.4992 42.5C23.0992 42.5 22.8992 42.8 22.8992 43.5V52.6C22.8992 53.2 23.0992 53.6 23.4992 53.6C23.8992 53.6 24.0992 53.3 24.0992 52.6V43.4C24.0992 42.7 23.8992 42.5 23.4992 42.5ZM92.5992 34.1H50.9992C50.7992 34.3 50.6992 34.4 50.4992 34.5C48.6992 35.9 46.2992 36.1 44.4992 35.2C44.7992 36.8 44.2992 38.6 43.0992 39.9C42.8992 40.1 42.6992 40.1 42.5992 39.9C42.5992 39.9 42.5992 39.6 42.5992 39.5C42.5992 39.5 42.7992 39.3 42.7992 39.2L39.1992 34.2C39.1992 34.2 38.9992 34.2 38.8992 34.2C38.6992 34.2 38.4992 34.2 38.4992 34.2H3.29922C1.89922 38.6 1.19922 43.2 1.19922 48C1.19922 52.8 1.99922 57.4 3.29922 61.8H92.5992C93.9992 57.4 94.6992 52.8 94.6992 48C94.6992 43.2 93.9992 38.5 92.5992 34.1ZM16.3992 56.6H11.7992C11.5992 55.1 10.3992 47.3 10.2992 46.7H10.0992C10.1992 48.6 10.5992 54.2 10.5992 56.2V56.6H6.89922V39.5H11.1992C11.5992 41.4 12.8992 48.1 12.9992 48.8H13.1992C12.8992 46.1 12.5992 41.7 12.5992 40.1V39.5H16.3992V56.6ZM28.1992 52.2C28.1992 55.7 26.2992 56.9 23.2992 56.9C20.2992 56.9 18.6992 55.5 18.6992 52.2V43.8C18.6992 40.6 20.6992 39.3 23.3992 39.3C26.0992 39.3 28.1992 40.7 28.1992 44V52.2ZM40.0992 56.6H35.4992C35.2992 55.1 34.0992 47.3 33.9992 46.7H33.7992C33.7992 48.6 34.2992 54.2 34.2992 56.2V56.6H30.6992V39.5H34.9992C35.3992 41.4 36.6992 48.1 36.7992 48.8H36.9992C36.6992 46.1 36.3992 41.7 36.3992 40.1V39.5H40.1992V56.6H40.0992ZM47.5992 49.6H42.4992V46.5H47.5992V49.6ZM59.3992 45.1H55.2992V43.8C55.2992 43 55.2992 42.5 54.6992 42.5C54.0992 42.5 54.0992 42.9 54.0992 43.8V52.6C54.0992 53.5 54.4992 53.6 54.6992 53.6C55.0992 53.6 55.2992 53.3 55.2992 52.4V50H54.5992V46.6H59.3992V56.6H56.4992C56.4992 56.3 56.4992 55.6 56.2992 55.3C55.6992 56.7 54.3992 56.9 53.3992 56.9C50.4992 56.9 49.8992 54.7 49.8992 52.2V43.9C49.8992 41.6 50.9992 39.4 54.5992 39.4C58.1992 39.4 59.3992 42.4 59.3992 44.1V45.1ZM74.6992 56.6H70.6992V52.4C70.6992 50.1 70.6992 46.2 70.6992 44H70.4992C70.1992 48.2 69.5992 55.4 69.4992 56.6H66.4992C66.4992 54.2 65.7992 47.2 65.4992 43.9H65.2992C65.2992 45.9 65.2992 49.3 65.2992 52.3V56.6H61.5992V39.5H67.0992C67.2992 41.1 67.6992 45 67.7992 47H67.9992C68.1992 44.6 68.2992 43 68.6992 39.5H74.4992V56.6H74.6992ZM86.5992 52.2C86.5992 55.7 84.6992 56.9 81.6992 56.9C78.6992 56.9 78.9992 56.5 78.1992 55.7C77.4992 54.9 77.0992 53.8 77.0992 52.2V43.8C77.0992 42.3 77.4992 41.2 78.2992 40.5C79.0992 39.7 80.3992 39.3 81.7992 39.3C84.4992 39.3 86.5992 40.7 86.5992 44V52.2ZM81.7992 42.5C81.3992 42.5 81.1992 42.8 81.1992 43.5V52.6C81.1992 53.2 81.3992 53.6 81.7992 53.6C82.1992 53.6 82.3992 53.3 82.3992 52.6V43.4C82.3992 42.7 82.3992 42.5 81.7992 42.5ZM23.4992 42.5C23.0992 42.5 22.8992 42.8 22.8992 43.5V52.6C22.8992 53.2 23.0992 53.6 23.4992 53.6C23.8992 53.6 24.0992 53.3 24.0992 52.6V43.4C24.0992 42.7 23.8992 42.5 23.4992 42.5ZM23.4992 42.5C23.0992 42.5 22.8992 42.8 22.8992 43.5V52.6C22.8992 53.2 23.0992 53.6 23.4992 53.6C23.8992 53.6 24.0992 53.3 24.0992 52.6V43.4C24.0992 42.7 23.8992 42.5 23.4992 42.5ZM81.7992 42.5C81.3992 42.5 81.1992 42.8 81.1992 43.5V52.6C81.1992 53.2 81.3992 53.6 81.7992 53.6C82.1992 53.6 82.3992 53.3 82.3992 52.6V43.4C82.3992 42.7 82.3992 42.5 81.7992 42.5ZM81.7992 42.5C81.3992 42.5 81.1992 42.8 81.1992 43.5V52.6C81.1992 53.2 81.3992 53.6 81.7992 53.6C82.1992 53.6 82.3992 53.3 82.3992 52.6V43.4C82.3992 42.7 82.3992 42.5 81.7992 42.5ZM23.4992 42.5C23.0992 42.5 22.8992 42.8 22.8992 43.5V52.6C22.8992 53.2 23.0992 53.6 23.4992 53.6C23.8992 53.6 24.0992 53.3 24.0992 52.6V43.4C24.0992 42.7 23.8992 42.5 23.4992 42.5ZM23.4992 42.5C23.0992 42.5 22.8992 42.8 22.8992 43.5V52.6C22.8992 53.2 23.0992 53.6 23.4992 53.6C23.8992 53.6 24.0992 53.3 24.0992 52.6V43.4C24.0992 42.7 23.8992 42.5 23.4992 42.5ZM81.7992 42.5C81.3992 42.5 81.1992 42.8 81.1992 43.5V52.6C81.1992 53.2 81.3992 53.6 81.7992 53.6C82.1992 53.6 82.3992 53.3 82.3992 52.6V43.4C82.3992 42.7 82.3992 42.5 81.7992 42.5ZM81.7992 42.5C81.3992 42.5 81.1992 42.8 81.1992 43.5V52.6C81.1992 53.2 81.3992 53.6 81.7992 53.6C82.1992 53.6 82.3992 53.3 82.3992 52.6V43.4C82.3992 42.7 82.3992 42.5 81.7992 42.5ZM23.4992 42.5C23.0992 42.5 22.8992 42.8 22.8992 43.5V52.6C22.8992 53.2 23.0992 53.6 23.4992 53.6C23.8992 53.6 24.0992 53.3 24.0992 52.6V43.4C24.0992 42.7 23.8992 42.5 23.4992 42.5ZM23.4992 42.5C23.0992 42.5 22.8992 42.8 22.8992 43.5V52.6C22.8992 53.2 23.0992 53.6 23.4992 53.6C23.8992 53.6 24.0992 53.3 24.0992 52.6V43.4C24.0992 42.7 23.8992 42.5 23.4992 42.5ZM23.4992 42.5C23.0992 42.5 22.8992 42.8 22.8992 43.5V52.6C22.8992 53.2 23.0992 53.6 23.4992 53.6C23.8992 53.6 24.0992 53.3 24.0992 52.6V43.4C24.0992 42.7 23.8992 42.5 23.4992 42.5ZM23.4992 42.5C23.0992 42.5 22.8992 42.8 22.8992 43.5V52.6C22.8992 53.2 23.0992 53.6 23.4992 53.6C23.8992 53.6 24.0992 53.3 24.0992 52.6V43.4C24.0992 42.7 23.8992 42.5 23.4992 42.5ZM23.4992 42.5C23.0992 42.5 22.8992 42.8 22.8992 43.5V52.6C22.8992 53.2 23.0992 53.6 23.4992 53.6C23.8992 53.6 24.0992 53.3 24.0992 52.6V43.4C24.0992 42.7 23.8992 42.5 23.4992 42.5Z" fill="#111111"/>
</g>
<defs>
<clipPath id="clip0_17174_1573">
<rect width="96" height="96" fill="white"/>
</clipPath>
</defs>
</svg>
