<svg width="96" height="96" viewBox="0 0 96 96" fill="none" xmlns="http://www.w3.org/2000/svg">
<path d="M48.1996 0.900024C22.1996 0.900024 1.09961 22 1.09961 48C1.09961 74 22.1996 95 48.1996 95C74.1996 95 95.2996 73.9 95.2996 48C95.2996 22.1 74.1996 0.900024 48.1996 0.900024ZM48.1996 93.4C23.0996 93.4 2.79961 73 2.79961 48C2.79961 23 23.0996 2.50002 48.1996 2.50002C73.2996 2.50002 93.5996 22.9 93.5996 48C93.5996 73.1 73.2996 93.4 48.1996 93.4Z" fill="#111111"/>
<path d="M13.2992 51.0001H11.3992V50.4001C11.2992 49.2001 10.5992 48.1001 9.19921 48.2001C7.69921 48.2001 7.29921 49.4001 7.39921 50.7001V53.0001L13.3992 52.6001V51.0001H13.2992ZM8.59921 51.3001V50.6001C8.59921 50.0001 8.69921 49.7001 9.29921 49.6001C9.79921 49.6001 10.1992 49.8001 10.1992 50.5001V51.2001H8.59921V51.3001Z" fill="#111111"/>
<path d="M13.4988 43.1L13.6988 41.4L11.2988 42.4C11.0988 41.8 10.4988 41.3 9.69883 41.3C8.19883 41.1 7.69883 42.2 7.49883 43.4L7.29883 45.6L13.1988 46.3L13.3988 44.7L11.3988 44.5V43.9L13.4988 43.1ZM10.0988 44.4L8.59883 44.2V43.6C8.79883 43 8.99883 42.7 9.49883 42.7C9.99883 42.7 10.1988 43.1 10.1988 43.7C10.0988 43.7 10.0988 44.4 10.0988 44.4Z" fill="#111111"/>
<path d="M12.698 34C10.798 33.4 9.49805 34.2 8.99805 35.7C8.49805 37.3 9.19805 38.7 11.098 39.2C12.998 39.8 14.398 39.2 14.898 37.5C15.298 36 14.498 34.6 12.698 34ZM13.498 37.2C13.298 37.9 12.498 38.1 11.498 37.8C10.498 37.5 9.99805 36.9 10.198 36.2C10.398 35.5 11.098 35.3 12.198 35.6C13.198 35.9 13.698 36.5 13.498 37.2Z" fill="#111111"/>
<path d="M15.998 27.7L13.298 26.2L12.598 27.5L15.498 29.1C16.398 29.6 16.598 30 16.298 30.6C15.998 31.1 15.498 31.2 14.598 30.7L11.698 29.1L10.998 30.6L13.698 32.0999C15.498 33.0999 16.698 32.8 17.498 31.4C18.298 29.8 17.798 28.7 15.998 27.7Z" fill="#111111"/>
<path d="M20.298 21.9C18.698 20.6 17.198 21 16.098 22.4L14.998 23.8L19.598 27.6L20.798 26.2C21.898 24.8 21.998 23.3 20.298 21.9ZM19.698 25.5L16.998 23.4H17.098C17.598 22.6 18.298 22.3 19.398 23.2C20.398 24 20.198 24.8 19.698 25.5Z" fill="#111111"/>
<path d="M25.898 19.1L24.198 20.6L21.198 17.1L19.998 18.1L23.898 22.6L26.798 20.1L25.898 19.1Z" fill="#111111"/>
<path d="M28.5992 16.4L27.9992 12.2L26.5992 13.1L26.8992 14.4C26.9992 14.9 27.0992 15.3 27.1992 15.8C26.7992 15.5 26.4992 15.2 26.0992 14.9L25.0992 14.1L23.6992 15L27.2992 17.3L28.3992 19L29.6992 18.1L28.5992 16.4Z" fill="#111111"/>
<path d="M38.3996 8L36.7996 8.5V11.1V12.1L36.1996 11.3L34.5996 9.2L33.0996 9.7L34.8996 15.4L36.2996 15L35.7996 13.3C35.5996 12.7 35.1996 11.9 34.9996 11.3L35.8996 12.5L37.2996 14.2L37.8996 14L38.0996 11.8V10.3C38.0996 10.9 38.3996 11.8 38.5996 12.4L39.0996 14.1L40.4996 13.7C40.2996 13.7 38.4996 8 38.4996 8H38.3996Z" fill="#111111"/>
<path d="M44.3984 7.09998L42.4984 7.29998L41.3984 13.4L42.9984 13.2V11.9L44.6984 11.7L45.0984 12.9L46.6984 12.7L44.3984 7.09998ZM43.2984 10.7V10.3C43.2984 9.69998 43.2984 8.99998 43.4984 8.39998C43.6984 8.99998 43.8984 9.69998 44.0984 10.2V10.6H43.2984V10.7Z" fill="#111111"/>
<path d="M51.7992 7.1V8.8C51.7992 9.5 51.7992 10.4 51.7992 11.1L51.2992 9.7L50.1992 7H48.5992L48.1992 12.8H49.6992C49.6992 12.9 49.6992 11.2 49.6992 11.2C49.6992 10.5 49.6992 9.6 49.6992 8.9L50.1992 10.3L51.2992 13H52.8992C52.8992 13.1 53.2992 7.2 53.2992 7.2C53.3992 7.2 51.8992 7.1 51.8992 7.1H51.7992Z" fill="#111111"/>
<path d="M59.5981 8.60005L58.7981 11.7C58.4981 12.7 58.1981 13 57.5981 12.9C56.9981 12.7 56.7981 12.3 57.0981 11.3L57.8981 8.20005L56.3981 7.80005L55.5981 10.8C55.0981 12.8 55.5981 13.9 57.1981 14.3C58.7981 14.7 59.7981 14 60.2981 12L61.0981 9.00005L59.5981 8.60005Z" fill="#111111"/>
<path d="M66.7984 12.8L67.3984 11.6L63.8984 10L61.3984 15.4L62.7984 16.1L63.6984 14.1L65.4984 14.9L66.0984 13.7L64.2984 12.9L64.7984 11.9L66.7984 12.8Z" fill="#111111"/>
<path d="M70.1984 13.3L65.3984 17.2L66.6984 18.1L67.5984 17.2L68.9984 18.1L68.4984 19.3L69.8984 20.2L71.6984 14.3L70.1984 13.3ZM69.5984 16.6V17L68.5984 16.4L68.8984 16.1C69.2984 15.7 69.8984 15.2 70.2984 14.8C70.0984 15.4 69.7984 16.1 69.5984 16.6Z" fill="#111111"/>
<path d="M76.8991 18.5C75.7991 17.4 73.9991 17.3 72.5991 18.8C71.1991 20.3 71.4991 21.9 72.5991 23C73.0991 23.5 73.7991 23.8 74.5991 23.7V22.4C74.1991 22.4 73.7991 22.3 73.4991 22C72.8991 21.5 72.9991 20.7 73.7991 19.9C74.4991 19.1 75.3991 19.1 75.8991 19.6C76.1991 19.9 76.2991 20.1 76.2991 20.5H77.5991C77.5991 19.8 77.4991 19 76.8991 18.5Z" fill="#111111"/>
<path d="M79.4992 21.4L78.4992 22.2L79.3992 23.5L75.6992 26.3L76.5992 27.6L80.2992 24.8L81.2992 26.1L82.2992 25.3L79.4992 21.4Z" fill="#111111"/>
<path d="M85.1981 30.3L82.2981 31.8C81.3981 32.3 80.8981 32.2 80.5981 31.6C80.2981 31.1 80.5981 30.6001 81.4981 30.2001L84.3981 28.7001L83.6981 27.3L80.9981 28.7001C79.1981 29.6001 78.6981 30.8001 79.4981 32.2001C80.1981 33.7001 81.3981 33.9 83.2981 33L85.9981 31.6L85.1981 30.3Z" fill="#111111"/>
<path d="M87.5988 36.6L86.9988 34.5L81.2988 36.1L81.6988 37.6L83.5988 37.1L83.7988 37.7L82.1988 39.2L82.6988 40.9L84.5988 39C85.0988 39.5 85.6988 39.7 86.4988 39.4C87.7988 39 87.9988 37.9 87.5988 36.6ZM85.9988 38C85.4988 38 85.1988 38 84.9988 37.3L84.7988 36.8L86.1988 36.4L86.3988 36.9C86.5988 37.5 86.3988 37.8 85.9988 38Z" fill="#111111"/>
<path d="M88.7984 41.7L82.8984 42.2999L83.2984 46.2H84.5984L84.3984 43.7999H85.4984L85.6984 45.5999H86.9984L86.7984 43.5999H87.6984L87.8984 45.7H89.1984L88.7984 41.7Z" fill="#111111"/>
<path d="M83.2992 48.1V49.9C83.0992 51.6 83.8992 52.9 85.9992 53C88.0992 53 88.9992 52 89.0992 50.2V48.5C89.2992 48.5 83.2992 48.1 83.2992 48.1ZM87.8992 50C87.8992 50.9 87.4992 51.5 86.0992 51.4C84.6992 51.3 84.3992 50.6 84.4992 49.8L87.8992 50Z" fill="#111111"/>
<path d="M25.7 74.7001L22 79.3001L23.2 80.3001L26.9 75.7001L25.7 74.7001Z" fill="#111111"/>
<path d="M31.2008 78.5L30.3008 80C29.9008 80.6 29.6008 81.5 29.3008 82L29.5008 80.6L29.7008 77.7L28.3008 76.9L25.3008 82L26.6008 82.8L27.5008 81.3C27.9008 80.7 28.2008 79.9 28.5008 79.3L28.3008 80.7L28.1008 83.7L29.5008 84.5L32.5008 79.4L31.2008 78.5Z" fill="#111111"/>
<path d="M35.9 80.8L35.5 82L37 82.5L35.7 86.9L37.2 87.4L38.5 83L40 83.4L40.4 82.1L35.9 80.8Z" fill="#111111"/>
<path d="M45.2992 82.8L44.9992 85L43.1992 84.8L43.3992 82.6L41.7992 82.4L41.1992 88.3L42.7992 88.5L42.9992 86.2L44.7992 86.4L44.4992 88.7L46.0992 88.9L46.6992 83L45.2992 82.8Z" fill="#111111"/>
<path d="M53.0008 87.3001L50.7008 87.5001V86.4001H52.5008V85.1001H50.5008V84.2001L52.7008 84.0001V82.7001L48.8008 83.0001L49.2008 88.9001L53.1008 88.6001V87.3001H53.0008Z" fill="#111111"/>
<path d="M62.1996 83.4001L61.2996 80.5001L59.8996 81.0001L60.8996 84.1001C61.1996 85.1001 61.0996 85.6001 60.4996 85.8001C59.8996 86.0001 59.4996 85.8001 59.1996 84.7001L58.1996 81.6001L56.5996 82.0001L57.4996 84.9001C58.0996 86.8001 59.1996 87.5001 60.7996 87.0001C62.3996 86.5001 62.7996 85.3001 62.1996 83.4001Z" fill="#111111"/>
<path d="M68.6005 81.4001C68.2005 80.7001 67.6005 80.4001 66.8005 80.5001H66.0005C65.4005 80.7001 65.1005 80.7001 65.0005 80.5001C64.9005 80.3001 65.0005 80.0001 65.4005 79.9001C65.8005 79.7001 66.2005 79.7001 66.6005 79.7001L66.8005 78.5001C66.1005 78.3001 65.3005 78.5001 64.7005 78.7001C63.6005 79.3001 63.1005 80.5001 63.6005 81.4001C64.0005 82.2001 64.7005 82.4001 65.4005 82.3001H66.2005C66.7005 82.1001 67.0005 82.1001 67.2005 82.3001C67.2005 82.5001 67.2005 82.8001 66.8005 83.0001C66.4005 83.2001 65.8005 83.2001 65.3005 83.0001L65.0005 84.4001C65.8005 84.6001 66.7005 84.4001 67.4005 84.1001C68.7005 83.3001 69.1005 82.2001 68.6005 81.3001V81.4001Z" fill="#111111"/>
<path d="M70.3008 75.0001L68.8008 76.2001L71.0008 82.0001L72.3008 81.0001L71.8008 79.8001L73.1008 78.8001L74.1008 79.6001L75.4008 78.6001L70.3008 75.0001ZM71.2008 78.7001L71.0008 78.3001C70.8008 77.8001 70.4008 77.1001 70.2008 76.6001C70.7008 77.0001 71.2008 77.5001 71.7008 77.8001L72.0008 78.1001C72.0008 78.0001 71.2008 78.7001 71.2008 78.7001Z" fill="#111111"/>
<path d="M14.0996 63.7001L13.3996 62.2001C13.3996 62.2001 13.1996 62.2001 13.0996 62.2001L12.3996 63.7001L10.7996 64.0001C10.6996 64.0001 10.5996 64.2001 10.6996 64.3001L11.7996 65.5001L11.5996 67.0001C11.5996 67.0001 11.6996 67.2001 11.7996 67.2001L13.1996 66.4001L14.5996 67.2001C14.6996 67.2001 14.8996 67.2001 14.7996 67.0001L14.4996 65.3001L15.5996 64.1001C15.6996 64.1001 15.5996 63.9001 15.4996 63.8001H14.0996V63.7001Z" fill="#111111"/>
<path d="M83.5002 63.6L82.8002 62.1C82.8002 62.1 82.6002 62.1 82.5002 62.1L81.8002 63.6L80.2002 63.8C80.2002 63.8 80.0002 64 80.2002 64.1L81.3002 65.3L81.1002 67C81.1002 67 81.1002 67.2 81.3002 67.2L82.7002 66.4L84.1002 67.2C84.1002 67.2 84.4002 67.2 84.3002 67L84.1002 65.3L85.2002 64.1C85.2002 64.1 85.2002 63.9 85.2002 63.8L83.7002 63.6H83.5002Z" fill="#111111"/>
<mask id="mask0_17174_1480" style="mask-type:luminance" maskUnits="userSpaceOnUse" x="17" y="16" width="63" height="63">
<path d="M48.3 78.9001C65.5865 78.9001 79.6 64.8866 79.6 47.6C79.6 30.3135 65.5865 16.3 48.3 16.3C31.0135 16.3 17 30.3135 17 47.6C17 64.8866 31.0135 78.9001 48.3 78.9001Z" fill="white"/>
</mask>
<g mask="url(#mask0_17174_1480)">
<path d="M46 50.0001H118.3V45.0001H46V40.2001H118.3V35.2001H46V30.4001H118.3V25.4001H46V20.6001H118.3V15.6001H-2V49.9001H46.1L46 50.0001ZM37.7 22.0001L38.1 20.8001H38.2L38.6 22.0001H40.1L38.9 22.9001L39.3 24.3001L38.1 23.4001L36.9 24.3001L37.4 22.9001L36.2 22.0001H37.7ZM33.6 18.5001L34 17.1001L34.5 18.5001H36L34.8 19.4001L35.3 20.8001L34.1 19.9001L32.9 20.8001L33.3 19.4001L32.1 18.5001H33.6ZM33.6 25.4001L34 24.0001L34.5 25.4001H36C35.9 25.5001 35 26.1001 34.8 26.3001L35.3 27.7001L34.1 26.8001L32.9 27.7001L33.3 26.3001C33.1 26.2001 32.3 25.5001 32.1 25.4001H33.6ZM33.6 32.2001L34 30.8001L34.5 32.2001H36L34.8 33.1001L35.3 34.5001L34.1 33.6001L32.9 34.5001L33.3 33.1001L32.1 32.2001H33.6ZM11.2 34.5001L10 33.6001L8.8 34.5001L9.3 33.1001L8.1 32.2001H9.6L10 30.8001L10.5 32.2001H12L10.8 33.1001L11.3 34.5001H11.2ZM3.2 48.2001L2 47.3001L0.8 48.2001L1.3 46.8001L0.0999999 45.9001H1.6L1.9 45.0001L2.1 44.5001C2.1 44.8001 2.4 45.6001 2.5 45.9001H4L2.8 46.8001L3.2 48.2001ZM2.8 40.0001C2.8 40.2001 3.2 41.2001 3.2 41.4001L2 40.5001L0.8 41.4001C0.8 41.2001 1.2 40.2001 1.3 40.0001L0.0999999 39.1001H1.6L2.1 37.7001L2.5 39.1001H4L2.8 40.0001ZM2.8 33.1001L3.2 34.5001L2 33.6001L0.8 34.5001L1.3 33.1001L0.0999999 32.2001H1.6L2.1 30.8001L2.5 32.2001H4L2.8 33.1001ZM2.8 26.2001L3.2 27.6001L2 26.7001L0.8 27.6001L1.3 26.2001L0.3 25.5001L0.0999999 25.3001H1.6L2.1 23.9001L2.5 25.3001H4C3.8 25.4001 3 26.0001 2.8 26.2001ZM2.8 19.4001L3.2 20.8001L2 19.9001L0.8 20.8001L1.3 19.4001L0.0999999 18.5001H1.6L2.1 17.1001L2.5 18.5001H4L2.8 19.4001ZM7.2 44.9001L6 44.0001L4.8 44.9001L5.3 43.5001L4.1 42.6001H5.6L6.1 41.2001L6.5 42.6001H8L6.8 43.5001L7.3 44.9001H7.2ZM6.7 36.6001L7.2 38.0001L6 37.1001L4.8 38.0001L5.3 36.6001L4.1 35.7001H5.6L5.8 35.2001L6.1 34.2001C6.2 34.5001 6.5 35.3001 6.5 35.6001H8L6.8 36.5001L6.7 36.6001ZM6.7 29.7001C6.8 30.0001 7 30.8001 7.2 31.1001C7 30.9001 6.3 30.4001 6 30.2001C5.8 30.4001 5.1 30.9001 4.8 31.1001C4.9 30.8001 5.1 30.1001 5.3 29.7001L4.1 28.8001H5.6L6.1 27.4001L6.5 28.8001H8L6.8 29.7001H6.7ZM6.7 22.9001L7.2 24.3001L6 23.4001L4.8 24.3001L5.3 22.9001L4.1 22.0001H5.6L6 20.8001V20.6001C6 20.6001 6.5 21.9001 6.5 22.0001H8L6.8 22.9001H6.7ZM11.2 48.2001L10 47.3001L8.8 48.2001L9.3 46.8001L8.1 45.9001H9.6C9.7 45.6001 9.9 44.8001 10 44.5001C10.1 44.8001 10.4 45.6001 10.5 45.9001H12L10.8 46.8001L11.3 48.2001H11.2ZM10.7 40.0001C10.7 40.2001 11.1 41.2001 11.2 41.4001L10 40.5001L8.8 41.4001C8.8 41.2001 9.2 40.2001 9.3 40.0001L8.1 39.1001H9.6L10 37.7001L10.5 39.1001H12L10.8 40.0001H10.7ZM10.7 26.2001L11.2 27.6001L10 26.7001L8.8 27.6001L9.3 26.2001L8.3 25.5001L8.1 25.3001H9.6L10 23.9001L10.5 25.3001H12C11.9 25.4001 11 26.0001 10.8 26.2001H10.7ZM10.7 19.4001L11.2 20.8001L10 19.9001L8.8 20.8001L9.3 19.4001L8.1 18.5001H9.6L10 17.1001L10.5 18.5001H12L10.8 19.4001H10.7ZM15.2 44.9001L14 44.0001L12.8 44.9001L13.3 43.5001L12.1 42.6001H13.6L14.1 41.2001L14.5 42.6001H16L14.8 43.5001L15.2 44.9001ZM14.8 36.6001L15.2 38.0001L14 37.1001L12.8 38.0001L13.3 36.6001L12.1 35.7001H13.6L13.8 35.2001L14.1 34.2001C14.2 34.5001 14.5 35.3001 14.5 35.6001H16L14.8 36.5001V36.6001ZM14.8 29.7001C14.9 30.0001 15.1 30.8001 15.2 31.1001C15 30.9001 14.3 30.4001 14 30.2001C13.8 30.4001 13.1 30.9001 12.8 31.1001C12.9 30.8001 13.1 30.1001 13.3 29.7001L12.1 28.8001H13.6L14.1 27.4001L14.5 28.8001H16L14.8 29.7001ZM14.8 22.9001L15.2 24.3001L14 23.4001L12.8 24.3001L13.3 22.9001L12.1 22.0001H13.6C13.6 21.9001 14 20.7001 14.1 20.6001V20.8001L14.5 22.0001H16L14.8 22.9001ZM19.3 48.2001L18.1 47.3001L16.9 48.2001L17.3 46.8001L16.1 45.9001H17.6C17.7 45.6001 17.9 44.8001 18 44.5001L18.2 45.0001L18.5 45.9001H20L18.8 46.8001L19.3 48.2001ZM18.8 40.0001C18.8 40.2001 19.2 41.2001 19.3 41.4001L18.1 40.5001L16.9 41.4001C16.9 41.2001 17.3 40.2001 17.3 40.0001L16.1 39.1001H17.6L18 37.7001L18.5 39.1001H20L18.8 40.0001ZM18.8 33.1001L19.3 34.5001L18.1 33.6001L16.9 34.5001L17.3 33.1001L16.1 32.2001H17.6L18 30.8001L18.5 32.2001H20L18.8 33.1001ZM18.8 26.2001L19.3 27.6001L18.1 26.7001L16.9 27.6001L17.3 26.2001L16.4 25.5001L16.2 25.3001H17.7L18.1 23.9001L18.6 25.3001H20.1C20 25.4001 19.1 26.0001 18.9 26.2001H18.8ZM18.8 19.4001L19.3 20.8001L18.1 19.9001L16.9 20.8001L17.3 19.4001L16.1 18.5001H17.6L18 17.1001L18.5 18.5001H20L18.8 19.4001ZM23.3 44.9001L22.1 44.0001L20.9 44.9001L21.3 43.5001L20.1 42.6001H21.6L22 41.2001L22.5 42.6001H24L22.8 43.5001L23.2 44.9001H23.3ZM22.8 36.6001L23.2 38.0001L22 37.1001L20.8 38.0001L21.2 36.6001L20 35.7001H21.5V35.2001C21.6 35.2001 21.9 34.2001 21.9 34.2001C21.9 34.5001 22.3 35.3001 22.4 35.6001H23.9L22.7 36.5001L22.8 36.6001ZM22.8 29.7001C22.9 30.0001 23.1 30.8001 23.2 31.1001C23 30.9001 22.3 30.4001 22 30.2001C21.8 30.4001 21.1 30.9001 20.8 31.1001C20.9 30.8001 21.1 30.1001 21.2 29.7001L20 28.8001H21.5L21.9 27.4001L22.4 28.8001H23.9L22.7 29.7001H22.8ZM22.8 22.9001L23.2 24.3001L22 23.4001L20.8 24.3001L21.2 22.9001L20 22.0001H21.5C21.5 21.9001 21.9 20.7001 21.9 20.6001V20.8001L22.4 22.0001H23.9L22.7 22.9001H22.8ZM27.3 48.2001L26.1 47.3001L24.9 48.2001L25.3 46.8001L24.1 45.9001H25.6L25.9 45.0001H26.2L26.5 45.9001H28L26.8 46.8001L27.3 48.2001ZM26.8 40.0001C26.8 40.2001 27.2 41.2001 27.3 41.4001L26.1 40.5001L24.9 41.4001C24.9 41.2001 25.3 40.2001 25.3 40.0001L24.1 39.1001H25.6L26 37.7001L26.5 39.1001H28L26.8 40.0001ZM26.8 33.1001L27.3 34.5001L26.1 33.6001L24.9 34.5001L25.3 33.1001L24.1 32.2001H25.6L26 30.8001L26.5 32.2001H28L26.8 33.1001ZM26.8 26.2001L27.3 27.6001L26.1 26.7001L24.9 27.6001L25.3 26.2001L24.4 25.5001L24.2 25.3001H25.7L26.1 23.9001L26.6 25.3001H28.1C28 25.4001 27.1 26.0001 26.9 26.2001H26.8ZM26.8 19.4001L27.3 20.8001L26.1 19.9001L24.9 20.8001L25.3 19.4001L24.1 18.5001H25.6L26 17.1001L26.5 18.5001H28L26.8 19.4001ZM31.3 44.9001L30.1 44.0001L28.9 44.9001L29.3 43.5001L28.1 42.6001H29.6L30 41.2001L30.5 42.6001H32L30.8 43.5001L31.3 44.9001ZM30.8 36.6001L31.3 38.0001L30.1 37.1001L28.9 38.0001L29.3 36.6001L28.1 35.7001H29.6C29.6 35.4001 29.9 34.6001 30 34.3001L30.3 35.3001L30.5 35.8001H32L30.8 36.7001V36.6001ZM30.8 29.7001L31 30.5001L31.2 31.1001C31 30.9001 30.3 30.4001 30 30.2001C29.8 30.4001 29.1 30.9001 28.8 31.1001C28.9 30.8001 29.1 30.1001 29.2 29.7001L28 28.8001H29.5L29.9 27.4001L30.4 28.8001H31.9L30.7 29.7001H30.8ZM30.8 22.9001L31.3 24.3001L30.1 23.4001L28.9 24.3001L29.4 22.9001L28.2 22.0001H29.7L30.1 20.8001H30.2L30.6 22.0001H32.1L30.9 22.9001H30.8ZM33.6 39.1001L34 37.7001L34.5 39.1001H36L34.8 40.0001C34.8 40.2001 35.2 41.2001 35.3 41.4001L34.1 40.5001L32.9 41.4001C32.9 41.2001 33.3 40.2001 33.3 40.0001L32.1 39.1001H33.6ZM35.3 48.2001L34.1 47.3001L32.9 48.2001L33.3 46.8001L32.1 45.9001H33.6C33.7 45.6001 33.9 44.8001 34 44.5001L34.2 45.0001L34.5 45.9001H36L34.8 46.8001L35.3 48.2001ZM39.3 44.9001L38.1 44.0001L36.9 44.9001L37.4 43.5001L36.2 42.6001H37.7L38.1 41.2001L38.6 42.6001H40.1L38.9 43.5001L39.4 44.9001H39.3ZM38.9 36.6001L39.4 38.0001L38.2 37.1001L37 38.0001L37.5 36.6001L36.3 35.7001H37.8C37.8 35.4001 38.1 34.6001 38.2 34.3001L38.5 35.3001L38.7 35.8001H40.2L39 36.7001L38.9 36.6001ZM38.9 29.7001L39.1 30.5001L39.3 31.1001C39.1 30.9001 38.4 30.4001 38.1 30.2001C37.9 30.4001 37.2 30.9001 36.9 31.1001C37 30.8001 37.2 30.1001 37.4 29.7001L36.2 28.8001H37.7L38.1 27.4001L38.6 28.8001H40.1L38.9 29.7001ZM43.4 48.2001L42.2 47.3001L41 48.2001L41.5 46.8001L40.3 45.9001H41.8C41.9 45.6001 42.1 44.8001 42.3 44.5001L42.5 45.0001L42.8 45.9001H44.3L43.1 46.8001L43.5 48.2001H43.4ZM43 40.0001V40.3001L43.4 41.4001L42.2 40.5001L41 41.4001C41 41.2001 41.4 40.2001 41.5 40.0001L40.3 39.1001H41.8L42.3 37.7001L42.7 39.1001H44.2L43 40.0001ZM43 33.1001L43.4 34.5001L42.2 33.6001L41 34.5001L41.5 33.1001L40.3 32.2001H41.8L42.3 30.8001L42.7 32.2001H44.2L43 33.1001ZM43 26.2001L43.4 27.6001L42.2 26.7001L41 27.6001L41.4 26.2001C41.2 26.1001 40.4 25.4001 40.2 25.3001H41.7L42.1 23.9001L42.6 25.3001H44.1C43.9 25.4001 43.1 26.0001 42.9 26.2001H43ZM43 19.4001L43.4 20.8001L42.2 19.9001L41 20.8001L41.4 19.4001L40.2 18.5001H41.7L42.1 17.1001L42.6 18.5001H44.1L42.9 19.4001H43Z" fill="#111111"/>
<path d="M-2 79.1V79.3H118.3V79.1V74.3H-2V79.1Z" fill="#111111"/>
<path d="M118.4 64.6001H-2V69.6001H118.4V64.6001Z" fill="#111111"/>
<path d="M118.4 54.8H-2V59.8H118.4V54.8Z" fill="#111111"/>
</g>
</svg>
