<svg width="47" height="32" viewBox="0 0 47 32" fill="none" xmlns="http://www.w3.org/2000/svg">
<rect x="1" y="0.5" width="45" height="31" rx="3.5" fill="#1F72CD"/>
<rect x="1" y="0.5" width="45" height="31" rx="3.5" stroke="#F5F5F5"/>
<path fill-rule="evenodd" clip-rule="evenodd" d="M8.62722 11.3335L4.38574 20.9958H9.46339L10.0929 19.4552H11.5317L12.1612 20.9958H17.7503V19.82L18.2483 20.9958H21.1394L21.6374 19.7952V20.9958H33.2611L34.6745 19.4953L35.998 20.9958L41.9682 21.0082L37.7133 16.1916L41.9682 11.3335H36.0906L34.7147 12.8063L33.4329 11.3335H20.7878L19.702 13.8274L18.5907 11.3335H13.5237V12.4693L12.96 11.3335H8.62722ZM9.60972 12.7056H12.0848L14.8982 19.2576V12.7056H17.6095L19.7825 17.4034L21.7852 12.7056H24.483V19.6389H22.8415L22.8281 14.206L20.4348 19.6389H18.9664L16.5598 14.206V19.6389H13.1827L12.5425 18.0845H9.08358L8.44468 19.6376H6.6353L9.60972 12.7056ZM32.6598 12.7056H25.9849V19.6348H32.5564L34.6745 17.3384L36.7161 19.6348H38.8502L35.7483 16.1903L38.8502 12.7056H36.8087L34.7013 14.9757L32.6598 12.7056ZM10.8138 13.8786L9.67419 16.6476H11.952L10.8138 13.8786ZM27.6332 15.4068V14.1411V14.1399H31.7982L33.6155 16.164L31.7176 18.1993H27.6332V16.8175H31.2747V15.4068H27.6332Z" fill="white"/>
</svg>
