<svg width="20" height="20" viewBox="0 0 20 20" fill="none" xmlns="http://www.w3.org/2000/svg">
<g clip-path="url(#clip0_15236_3953)">
<path fill-rule="evenodd" clip-rule="evenodd" d="M19.6663 10.0002C19.6663 15.3389 15.3384 19.6668 9.99968 19.6668C4.66092 19.6668 0.333008 15.3389 0.333008 10.0002C0.333008 4.66141 4.66092 0.333496 9.99968 0.333496C15.3384 0.333496 19.6663 4.66141 19.6663 10.0002ZM5.82033 11.8095L8.087 14.0235C8.20257 14.1353 8.34124 14.2204 8.49325 14.2728C8.64526 14.3252 8.80692 14.3437 8.96683 14.3269C9.12674 14.3101 9.28102 14.2584 9.41881 14.1755C9.5566 14.0926 9.67454 13.9805 9.76433 13.8472L14.2453 7.03249C14.283 6.97518 14.3088 6.91088 14.3212 6.84341C14.3336 6.77594 14.3323 6.70667 14.3174 6.63971C14.3025 6.57274 14.2743 6.50945 14.2345 6.45359C14.1947 6.39772 14.1441 6.35042 14.0857 6.31449L13.191 5.75249C13.0724 5.67823 12.9296 5.65299 12.7928 5.6821C12.6559 5.71121 12.5358 5.7924 12.4577 5.90849L8.67333 11.6618L7.324 10.3428C7.2232 10.2452 7.08835 10.1905 6.948 10.1905C6.80765 10.1905 6.6728 10.2452 6.572 10.3428L5.82033 11.0762C5.77131 11.1238 5.73233 11.1808 5.70572 11.2438C5.67911 11.3068 5.6654 11.3745 5.6654 11.4428C5.6654 11.5112 5.67911 11.5789 5.70572 11.6419C5.73233 11.7048 5.77131 11.7618 5.82033 11.8095Z" fill="#FAA634"/>
</g>
<defs>
<clipPath id="clip0_15236_3953">
<rect width="20" height="20" fill="white"/>
</clipPath>
</defs>
</svg>
