<svg width="56" height="56" viewBox="0 0 56 56" fill="none" xmlns="http://www.w3.org/2000/svg">
<path d="M23.625 21.875C23.625 28.1488 28.7262 33.25 35 33.25C41.2738 33.25 46.375 28.1488 46.375 21.875C46.375 18.5938 44.9488 15.4612 42.4725 13.3C42.105 12.985 41.5538 13.02 41.2388 13.3875C40.9238 13.755 40.9587 14.3062 41.3263 14.6212C43.4263 16.4587 44.6337 19.1012 44.6337 21.8837C44.6337 27.195 40.32 31.5087 35.0087 31.5087C29.6975 31.5087 25.3838 27.195 25.3838 21.8837C25.3838 16.5725 29.6975 12.2588 35.0087 12.2588C36.2162 12.2588 37.3888 12.4775 38.4913 12.915C38.9375 13.09 39.445 12.8712 39.6287 12.4162C39.8038 11.97 39.585 11.4625 39.13 11.2788C37.8175 10.7625 36.4262 10.5 35.0087 10.5C28.735 10.5 23.6338 15.6012 23.6338 21.875H23.625Z" fill="#F47929"/>
<path d="M38.4121 18.2527L33.9234 23.6427L31.5346 21.254C31.1934 20.9127 30.6421 20.9127 30.3009 21.254C29.9596 21.5952 29.9596 22.1465 30.3009 22.4877L33.3634 25.5502C33.5296 25.7165 33.7484 25.804 33.9846 25.804H34.0196C34.2646 25.7952 34.4921 25.6815 34.6496 25.489L39.7509 19.364C40.0571 18.9965 40.0134 18.4365 39.6371 18.1302C39.2609 17.824 38.7184 17.8677 38.4034 18.244L38.4121 18.2527Z" fill="#F47929"/>
<path d="M34.8771 8.75C34.8771 8.75 34.9296 8.75 34.9558 8.75C35.4021 8.75 35.7871 8.40875 35.8308 7.95375C35.8571 7.63875 35.8746 7.32375 35.8746 7V2.625C35.8746 2.14375 35.4808 1.75 34.9996 1.75C34.5183 1.75 34.1246 2.14375 34.1246 2.625V7C34.1246 7.27125 34.1071 7.53375 34.0808 7.79625C34.0371 8.2775 34.3871 8.70625 34.8683 8.75H34.8771Z" fill="#F47929"/>
<path d="M20.125 9.625H26.25C27.6938 9.625 28.875 8.44375 28.875 7V2.625C28.875 2.14375 28.4812 1.75 28 1.75C27.5188 1.75 27.125 2.14375 27.125 2.625V7C27.125 7.48125 26.7312 7.875 26.25 7.875H20.125C19.6437 7.875 19.25 8.26875 19.25 8.75C19.25 9.23125 19.6437 9.625 20.125 9.625Z" fill="#F47929"/>
<path d="M15.75 27.125H21.7C22.1812 27.125 22.575 26.7313 22.575 26.25C22.575 25.7687 22.1812 25.375 21.7 25.375H15.75C11.41 25.375 7.875 21.84 7.875 17.5C7.875 15.4 8.6975 13.4225 10.185 11.935C11.6725 10.4475 13.65 9.625 15.75 9.625H16.625C17.1062 9.625 17.5 9.23125 17.5 8.75C17.5 8.26875 17.1062 7.875 16.625 7.875H15.75C13.1775 7.875 10.7625 8.8725 8.9425 10.6925C7.1225 12.5125 6.125 14.9275 6.125 17.5C6.125 22.8112 10.4387 27.125 15.75 27.125Z" fill="#F47929"/>
<path d="M20.125 46.375H15.75C11.41 46.375 7.875 42.84 7.875 38.5C7.875 36.4 8.6975 34.4225 10.185 32.935C11.6725 31.4475 13.65 30.625 15.75 30.625H23.415C23.8962 30.625 24.29 30.2313 24.29 29.75C24.29 29.2687 23.8962 28.875 23.415 28.875H15.75C13.1775 28.875 10.7625 29.8725 8.9425 31.6925C7.1225 33.5125 6.125 35.9275 6.125 38.5C6.125 43.8112 10.4387 48.125 15.75 48.125H20.125C20.6062 48.125 21 47.7313 21 47.25C21 46.7687 20.6062 46.375 20.125 46.375Z" fill="#F47929"/>
<path d="M26.25 46.375H23.625C23.1437 46.375 22.75 46.7687 22.75 47.25C22.75 47.7313 23.1437 48.125 23.625 48.125H26.25C26.7313 48.125 27.125 48.5187 27.125 49V53.375C27.125 53.8562 27.5188 54.25 28 54.25C28.4812 54.25 28.875 53.8562 28.875 53.375V49C28.875 47.5562 27.6937 46.375 26.25 46.375Z" fill="#F47929"/>
<path d="M49.4112 25.0424C49.2625 24.5787 48.7725 24.3249 48.3087 24.4737C47.845 24.6224 47.5912 25.1124 47.74 25.5762C47.9937 26.3637 48.1162 27.1774 48.1162 27.9999C48.1162 30.0999 47.2937 32.0774 45.8062 33.5649C44.3187 35.0524 42.3412 35.8749 40.2412 35.8749H15.7412C14.2975 35.8749 13.1162 37.0562 13.1162 38.4999C13.1162 39.9437 14.2975 41.1249 15.7412 41.1249H26.2412C30.5812 41.1249 34.1162 44.6599 34.1162 48.9999V53.3749C34.1162 53.8562 34.51 54.2499 34.9912 54.2499C35.4725 54.2499 35.8662 53.8562 35.8662 53.3749V48.9999C35.8662 43.6887 31.5525 39.3749 26.2412 39.3749H15.7412C15.26 39.3749 14.8662 38.9812 14.8662 38.4999C14.8662 38.0187 15.26 37.6249 15.7412 37.6249H40.2412C42.8137 37.6249 45.2287 36.6274 47.0487 34.8074C48.8687 32.9874 49.8662 30.5724 49.8662 27.9999C49.8662 27.0024 49.7087 26.0049 49.4025 25.0424H49.4112Z" fill="#F47929"/>
<path d="M15.75 16.625H22.4088C22.89 16.625 23.2838 16.2313 23.2838 15.75C23.2838 15.2687 22.89 14.875 22.4088 14.875H15.75C14.3062 14.875 13.125 16.0562 13.125 17.5C13.125 18.2088 13.405 18.8738 13.8862 19.3463C14.3762 19.8538 15.0412 20.125 15.75 20.125H21.245C21.7263 20.125 22.12 19.7312 22.12 19.25C22.12 18.7687 21.7263 18.375 21.245 18.375H15.75C15.5138 18.375 15.3038 18.2875 15.1288 18.1038C14.9713 17.9463 14.875 17.7275 14.875 17.5C14.875 17.0187 15.2687 16.625 15.75 16.625Z" fill="#F47929"/>
</svg>
