<svg width="56" height="56" viewBox="0 0 56 56" fill="none" xmlns="http://www.w3.org/2000/svg">
<path d="M29.4003 22.7413C26.1016 22.7413 24.5878 21.7525 22.8291 20.615C22.1028 20.1425 21.3416 19.6525 20.3616 19.1538C17.2728 17.5963 12.4341 19.1888 12.3903 19.2063C12.0928 19.3025 11.7691 19.2413 11.5328 19.0313C11.2966 18.8213 11.1916 18.5063 11.2616 18.2C13.3091 8.44375 18.8391 3.5 27.6678 3.5C34.0816 3.5 38.9203 7.63875 38.9203 13.1163C38.9203 18.5938 34.6503 22.7325 29.4003 22.7325V22.7413ZM16.9578 16.7125C18.3578 16.7125 19.8453 16.9313 21.1403 17.5875C22.2078 18.13 23.0391 18.6725 23.7741 19.145C25.4803 20.2563 26.6091 20.9913 29.3916 20.9913C33.6791 20.9913 37.1616 17.4563 37.1616 13.1163C37.1616 8.77625 33.0753 5.24125 27.6591 5.24125C20.1953 5.24125 15.3653 9.24 13.2828 17.1325C14.2366 16.9225 15.5491 16.7038 16.9491 16.7038L16.9578 16.7125Z" fill="#F47929"/>
<path d="M43.2337 18.3664C43.0149 18.3664 42.7962 18.2876 42.6299 18.1214C32.8299 8.66263 23.8611 13.4839 23.7736 13.5364C23.3536 13.7726 22.8199 13.6239 22.5836 13.1951C22.3474 12.7751 22.4961 12.2414 22.9249 12.0051C23.0211 11.9526 33.1274 6.51013 43.8462 16.8614C44.1961 17.1939 44.2049 17.7539 43.8637 18.0951C43.6887 18.2701 43.4611 18.3664 43.2337 18.3664Z" fill="#F47929"/>
<path d="M17.8586 52.5C12.1098 52.5 7.61232 49.7175 4.44482 44.17C1.24232 38.5613 2.37107 32.2613 7.06107 29.5225C9.25732 28.2363 11.8123 27.895 14.2623 28.5513C16.7298 29.2163 18.7948 30.8088 20.0723 33.04C21.7173 35.9275 21.6298 37.7388 21.5336 39.8475C21.4898 40.7225 21.4461 41.6325 21.5161 42.7438C21.7261 46.235 25.5148 49.6825 25.5498 49.7175C25.7773 49.9275 25.8823 50.2425 25.8211 50.5488C25.7598 50.855 25.5323 51.1 25.2348 51.1963C22.5836 52.0625 20.1248 52.5 17.8498 52.5H17.8586ZM11.8123 29.9688C10.4648 29.9688 9.13482 30.3275 7.94482 31.0275C4.10357 33.2763 3.24607 38.5525 5.96732 43.3038C9.69482 49.84 15.5311 52.0713 23.3273 49.9538C22.0148 48.51 19.9498 45.78 19.7748 42.8488C19.7048 41.6413 19.7486 40.6438 19.7923 39.76C19.8886 37.7038 19.9498 36.3475 18.5586 33.9063C17.5173 32.0775 15.8286 30.7738 13.8161 30.24C13.1511 30.065 12.4861 29.9775 11.8123 29.9775V29.9688Z" fill="#F47929"/>
<path d="M14.5517 44.1963C14.3942 44.1963 14.2367 44.1525 14.0967 44.065C14.0004 44.0038 4.30544 37.8788 7.80544 23.3275C7.91919 22.855 8.39169 22.5663 8.86419 22.68C9.33669 22.7938 9.62544 23.2663 9.51169 23.7388C6.30919 37.065 14.9279 42.5163 15.0154 42.5688C15.4267 42.8225 15.5579 43.3563 15.3042 43.7675C15.1379 44.0388 14.8492 44.1875 14.5604 44.1875L14.5517 44.1963Z" fill="#F47929"/>
<path d="M41.3526 50.3648C39.8301 50.3648 38.3426 49.971 37.0213 49.201C32.4801 46.5498 30.9138 40.6523 33.5388 36.0673C35.1838 33.1798 36.7851 32.3485 38.6401 31.3773C39.4101 30.9748 40.2151 30.5548 41.1338 29.9423C44.0213 28.0173 45.0713 22.9685 45.0888 22.9248C45.1501 22.6185 45.3776 22.3648 45.6751 22.2685C45.9726 22.1723 46.3051 22.2423 46.5326 22.4523C53.8388 29.1285 55.3088 36.4348 50.8988 44.161C49.1751 47.1798 46.6288 49.271 43.7326 50.0498C42.9451 50.2598 42.1488 50.3648 41.3613 50.3648H41.3526ZM46.3926 24.7535C45.8063 26.626 44.5113 29.7848 42.0963 31.4035C41.0988 32.0685 40.2238 32.5235 39.4451 32.9348C37.6426 33.871 36.4438 34.501 35.0526 36.9335C32.9088 40.696 34.1863 45.5173 37.8963 47.696C39.5151 48.641 41.3788 48.8773 43.2688 48.3698C45.7188 47.7135 47.8801 45.911 49.3763 43.3035C53.1038 36.7673 52.1063 30.5373 46.4013 24.7623L46.3926 24.7535Z" fill="#F47929"/>
<path d="M31.1152 51.6774C30.739 51.6774 30.389 51.4324 30.2752 51.0474C30.1352 50.5837 30.4065 50.0937 30.8615 49.9624C43.8115 46.1299 44.214 36.1462 44.2227 35.7262C44.2315 35.2537 44.6252 34.8687 45.0977 34.8687H45.1152C45.5965 34.8774 45.9815 35.2799 45.9727 35.7612C45.9727 35.8749 45.5702 47.4249 31.3602 51.6424C31.2815 51.6687 31.194 51.6774 31.1152 51.6774Z" fill="#F47929"/>
</svg>
