<svg width="56" height="56" viewBox="0 0 56 56" fill="none" xmlns="http://www.w3.org/2000/svg">
<g clip-path="url(#clip0_15141_1236)">
<mask id="mask0_15141_1236" style="mask-type:luminance" maskUnits="userSpaceOnUse" x="0" y="0" width="56" height="56">
<path d="M56 0H0V56H56V0Z" fill="white"/>
</mask>
<g mask="url(#mask0_15141_1236)">
<path d="M53.9005 38.8811H21.2864C20.1298 38.8811 19.1865 37.9378 19.1865 36.7812V35.6574C19.1865 31.2608 21.2126 27.5777 25.0433 25.0021C28.3654 22.7709 32.8195 21.5405 37.5934 21.5405C42.3674 21.5405 46.8215 22.7709 50.1436 25.0021C53.9743 27.5777 56.0004 31.2608 56.0004 35.6574V36.7812C56.0004 37.9378 55.057 38.8811 53.9005 38.8811ZM37.5934 23.1811C33.1476 23.1811 29.0134 24.313 25.962 26.3637C23.6242 27.9387 20.8271 30.826 20.8271 35.6574V36.7812C20.8271 37.0355 21.0321 37.2405 21.2864 37.2405H53.9005C54.1547 37.2405 54.3598 37.0355 54.3598 36.7812V35.6574C54.3598 30.826 51.5709 27.9387 49.2249 26.3637C46.1653 24.313 42.0393 23.1811 37.5934 23.1811Z" fill="#F47929"/>
<path d="M7.18518 50.4881C6.84887 50.4881 6.52896 50.2748 6.41412 49.9385C6.26647 49.512 6.49615 49.0444 6.92269 48.8967L20.6458 44.1392C21.0724 43.9915 21.5399 44.2212 21.6876 44.6477C21.8352 45.0743 21.6056 45.5418 21.179 45.6895L7.45587 50.4471C7.36564 50.4799 7.27541 50.4963 7.18518 50.4963V50.4881ZM5.24113 36.1989C4.89662 36.1989 4.57671 35.9857 4.46187 35.6411C4.31422 35.2146 4.5521 34.747 4.97865 34.5994L21.2036 29.1528C21.6302 29.0051 22.0977 29.243 22.2454 29.6696C22.393 30.0961 22.1551 30.5637 21.7286 30.7113L5.50362 36.1579C5.41339 36.1907 5.33136 36.1989 5.24113 36.1989Z" fill="#F47929"/>
<path d="M50.4874 34.7881C50.2741 34.7881 50.069 34.7061 49.905 34.5502C49.5851 34.2221 49.5851 33.7053 49.905 33.3854C50.2249 33.0655 50.7416 33.0655 51.0615 33.3854C51.3815 33.7135 51.3815 34.2303 51.0615 34.5502C50.8975 34.7143 50.6924 34.7881 50.4792 34.7881H50.4874Z" fill="#F47929"/>
<path d="M45.3282 34.7881C45.1149 34.7881 44.9098 34.7061 44.7458 34.5502C44.4259 34.2221 44.4259 33.7053 44.7458 33.3854C45.0657 33.0655 45.5825 33.0655 45.9024 33.3854C46.2223 33.7135 46.2223 34.2303 45.9024 34.5502C45.7383 34.7143 45.5332 34.7881 45.32 34.7881H45.3282Z" fill="#F47929"/>
<path d="M40.1768 34.7881C39.9635 34.7881 39.7585 34.7061 39.5944 34.5502C39.2745 34.2221 39.2745 33.7053 39.5944 33.3854C39.9143 33.0655 40.4311 33.0655 40.751 33.3854C41.0709 33.7135 41.0709 34.2303 40.751 34.5502C40.5869 34.7143 40.3819 34.7881 40.1686 34.7881H40.1768Z" fill="#F47929"/>
<path d="M35.0176 34.7881C34.8044 34.7881 34.5993 34.7061 34.4352 34.5502C34.1153 34.2221 34.1153 33.7053 34.4352 33.3854C34.7551 33.0655 35.2719 33.0655 35.5918 33.3854C35.9117 33.7135 35.9117 34.2303 35.5918 34.5502C35.4278 34.7143 35.2227 34.7881 35.0094 34.7881H35.0176Z" fill="#F47929"/>
<path d="M29.8575 34.7881C29.6442 34.7881 29.4391 34.7061 29.2751 34.5502C28.9552 34.2221 28.9552 33.7053 29.2751 33.3854C29.595 33.0655 30.1118 33.0655 30.4317 33.3854C30.7516 33.7135 30.7516 34.2303 30.4317 34.5502C30.2676 34.7143 30.0625 34.7881 29.8493 34.7881H29.8575Z" fill="#F47929"/>
<path d="M24.6989 34.7881C24.4938 34.7881 24.2805 34.7061 24.1247 34.5502C23.8048 34.2221 23.8048 33.7053 24.1247 33.3854C24.4446 33.0655 24.9614 33.0655 25.2813 33.3854C25.6012 33.7135 25.6012 34.2303 25.2813 34.5502C25.1172 34.7143 24.9122 34.7963 24.6989 34.7963V34.7881Z" fill="#F47929"/>
<path d="M47.9122 30.867C47.6497 30.867 47.3872 30.7358 47.2314 30.4979C46.9771 30.1124 47.0837 29.6038 47.461 29.3495C47.8384 29.0952 48.3469 29.2019 48.6012 29.5792C48.8555 29.9647 48.7489 30.4733 48.3716 30.7276C48.2321 30.8178 48.0763 30.867 47.9204 30.867H47.9122Z" fill="#F47929"/>
<path d="M42.7524 30.8671C42.5391 30.8671 42.3341 30.7851 42.17 30.6292H42.1618C41.8419 30.3011 41.8419 29.7761 42.1618 29.4562C42.4817 29.1363 42.9985 29.1363 43.3184 29.4562H43.3266C43.6465 29.7843 43.6465 30.3093 43.3266 30.6292C43.1625 30.7933 42.9575 30.8671 42.7442 30.8671H42.7524Z" fill="#F47929"/>
<path d="M37.5849 30.8587C37.3716 30.8587 37.1583 30.7766 37.0025 30.6126C36.6826 30.2845 36.6908 29.7677 37.0025 29.4478C37.3224 29.1279 37.8474 29.1361 38.1591 29.4478C38.479 29.7759 38.4708 30.2927 38.1591 30.6126C38.0032 30.7684 37.79 30.8505 37.5849 30.8505V30.8587Z" fill="#F47929"/>
<path d="M32.4257 30.8587C32.2124 30.8587 31.9992 30.7766 31.8433 30.6126C31.5234 30.2845 31.5316 29.7677 31.8433 29.4478C32.1632 29.1279 32.6882 29.1361 32.9999 29.4478C33.3198 29.7759 33.3116 30.2927 32.9999 30.6126C32.844 30.7684 32.6308 30.8505 32.4257 30.8505V30.8587Z" fill="#F47929"/>
<path d="M27.2663 30.8507C27.0038 30.8507 26.7413 30.7276 26.5855 30.4897C26.3312 30.1042 26.4296 29.5956 26.807 29.3414C27.1843 29.0871 27.6929 29.1855 27.9471 29.5628C28.2014 29.9484 28.103 30.4569 27.7257 30.7112C27.5862 30.8096 27.4222 30.8507 27.2663 30.8507Z" fill="#F47929"/>
<path d="M40.1609 26.9459C40.005 26.9459 39.8409 26.8967 39.7015 26.8065C39.3242 26.5522 39.2257 26.0436 39.48 25.6663C39.7343 25.2808 40.2429 25.1823 40.6202 25.4366C40.9975 25.6909 41.096 26.1995 40.8417 26.5768C40.6858 26.8229 40.4233 26.9459 40.1609 26.9459Z" fill="#F47929"/>
<path d="M35.001 26.9462C34.8451 26.9462 34.6811 26.897 34.5416 26.8068C34.1643 26.5525 34.0741 26.0439 34.3284 25.6666C34.5826 25.281 35.0912 25.1908 35.4685 25.4451C35.8459 25.6994 35.9361 26.208 35.6818 26.5853C35.526 26.8232 35.2635 26.9544 35.001 26.9544V26.9462Z" fill="#F47929"/>
<path d="M52.5224 55.992H22.6645C20.745 55.992 19.1865 54.4335 19.1865 52.5141V50.4388C19.1865 49.6677 19.8181 49.0361 20.5892 49.0361H36.8552C37.3063 49.0361 37.6755 49.4053 37.6755 49.8564C37.6755 50.3076 37.3063 50.6767 36.8552 50.6767H20.8189V52.5141C20.8189 53.523 21.6391 54.3515 22.6563 54.3515H52.5142C53.5231 54.3515 54.3516 53.5312 54.3516 52.5141V50.6767H40.7187C40.2675 50.6767 39.8984 50.3076 39.8984 49.8564C39.8984 49.4053 40.2675 49.0361 40.7187 49.0361H54.5895C55.3605 49.0361 55.9921 49.6677 55.9921 50.4388V52.5141C55.9921 54.4335 54.4336 55.992 52.5142 55.992H52.5224Z" fill="#F47929"/>
<path d="M37.5111 18.1612H22.5001C22.0489 18.1612 21.6798 17.7921 21.6798 17.3409C21.6798 16.8898 22.0489 16.5207 22.5001 16.5207H37.5111C37.79 16.5207 38.0278 16.2828 38.0278 16.0039V14.1255C38.0278 13.8384 37.79 13.6005 37.5111 13.6005H2.15732C1.87842 13.6005 1.64055 13.8384 1.64055 14.1255V16.0039C1.64055 16.2828 1.87842 16.5207 2.15732 16.5207H18.6038C19.0549 16.5207 19.4241 16.8898 19.4241 17.3409C19.4241 17.7921 19.0549 18.1612 18.6038 18.1612H2.15732C0.967921 18.1612 0 17.1933 0 16.0039V14.1255C0 12.9361 0.967921 11.96 2.15732 11.96H37.5111C38.7005 11.96 39.6684 12.9279 39.6684 14.1255V16.0039C39.6684 17.1933 38.7005 18.1612 37.5111 18.1612Z" fill="#F47929"/>
<path d="M22.2949 13.6003C21.8437 13.6003 21.4746 13.2312 21.4746 12.78V6.29167C21.4746 5.91435 21.7289 5.59444 22.0898 5.49601L29.2262 3.64219C29.7676 3.50275 30.0957 2.94496 29.9562 2.40358C29.8168 1.8622 29.259 1.53409 28.7094 1.67354L20.2032 3.88828C19.7439 4.01132 19.4403 4.39684 19.4403 4.8726V12.7718C19.4403 13.223 19.0712 13.5921 18.6201 13.5921C18.1689 13.5921 17.7998 13.223 17.7998 12.7718V4.88081C17.7998 3.6504 18.5955 2.61685 19.7849 2.30515L28.2993 0.0904139C29.7184 -0.278709 31.1702 0.574375 31.5394 1.99345C31.9085 3.41252 31.0554 4.8644 29.6363 5.23352L23.1152 6.93149V12.78C23.1152 13.2312 22.746 13.6003 22.2949 13.6003Z" fill="#F47929"/>
<path d="M22.6642 55.9921H9.59726C8.19459 55.9921 7.07082 54.9093 6.86575 53.359L1.96873 17.4557C1.91131 17.0045 2.22301 16.5944 2.67416 16.5288C3.12531 16.4714 3.53545 16.7831 3.60107 17.2342L8.48989 53.1457C8.57192 53.7445 8.94924 54.3597 9.59726 54.3597H22.6642C23.1153 54.3597 23.4845 54.7289 23.4845 55.18C23.4845 55.6312 23.1153 56.0003 22.6642 56.0003V55.9921ZM36.2069 23.2222C36.1741 23.2222 36.1331 23.2222 36.0921 23.2222C35.6409 23.1648 35.3292 22.7464 35.3866 22.2953L36.0757 17.2342C36.1331 16.7831 36.5514 16.4714 37.0026 16.5288C37.4537 16.5862 37.7654 17.0045 37.708 17.4557L37.019 22.5168C36.9615 22.9269 36.6088 23.2304 36.2069 23.2304V23.2222Z" fill="#F47929"/>
<path d="M43.2857 43.3926C42.2521 43.3926 41.2596 42.9989 40.4393 42.277C39.619 42.9989 38.6265 43.3844 37.593 43.3844C36.5594 43.3844 35.5669 42.9907 34.7466 42.2688C33.9264 42.9907 32.9338 43.3844 31.9003 43.3844C30.8667 43.3844 29.8578 42.9825 29.0375 42.2524C27.7087 43.2532 25.8713 43.4828 24.3538 42.802C22.6558 42.0474 21.6797 40.3166 21.6797 38.0526C21.6797 35.7887 22.0488 37.2324 22.5 37.2324C22.9511 37.2324 23.3202 37.6015 23.3202 38.0526C23.3202 39.6604 23.9272 40.8088 25.0182 41.3009C26.0517 41.7603 27.3724 41.547 28.2337 40.7842C28.9637 40.1279 29.5543 40.4478 29.9152 40.8252C30.4812 41.4158 31.1784 41.7439 31.9003 41.7439C32.6221 41.7439 33.3194 41.4158 33.8771 40.8334C33.8935 40.817 33.91 40.8006 33.9264 40.7842C34.6646 40.1279 35.247 40.4478 35.6161 40.8252C36.1739 41.4158 36.8793 41.7357 37.593 41.7357C38.3066 41.7357 39.0038 41.4158 39.578 40.8252C39.939 40.4396 40.5295 40.1197 41.2596 40.7842C41.276 40.8006 41.2924 40.8088 41.3006 40.8252C41.8584 41.4158 42.5638 41.7357 43.2857 41.7357C44.0075 41.7357 44.7047 41.4076 45.2625 40.8252C45.9187 40.1443 46.5421 40.4232 46.9441 40.7759C47.8054 41.547 49.126 41.7603 50.1595 41.3009C51.2587 40.8088 51.8575 39.6604 51.8575 38.0526C51.8575 36.4449 52.2266 37.2324 52.6778 37.2324C53.1289 37.2324 53.4981 37.6015 53.4981 38.0526C53.4981 40.3084 52.5219 42.0392 50.824 42.802C49.3065 43.4746 47.4773 43.2532 46.1484 42.2524C45.3281 42.9825 44.3192 43.3844 43.2857 43.3844V43.3926Z" fill="#F47929"/>
<path d="M52.1615 46.9199H23.0254C21.2044 46.9199 19.7197 45.4352 19.7197 43.606C19.7197 41.7768 21.2044 40.3003 23.0254 40.3003H23.452C23.9031 40.3003 24.2722 40.6694 24.2722 41.1206C24.2722 41.5717 23.9031 41.9408 23.452 41.9408H23.0254C22.1067 41.9408 21.3603 42.6873 21.3603 43.606C21.3603 44.5247 22.1067 45.2793 23.0254 45.2793H52.1615C53.0802 45.2793 53.8267 44.5329 53.8267 43.606C53.8267 42.6791 53.0802 41.9408 52.1615 41.9408H51.735C51.2838 41.9408 50.9147 41.5717 50.9147 41.1206C50.9147 40.6694 51.2838 40.3003 51.735 40.3003H52.1615C53.9825 40.3003 55.4672 41.785 55.4672 43.606C55.4672 45.427 53.9825 46.9199 52.1615 46.9199Z" fill="#F47929"/>
<path d="M52.2263 50.685C51.7751 50.685 51.406 50.3159 51.406 49.8647V46.1079C51.406 45.6567 51.7751 45.2876 52.2263 45.2876C52.6774 45.2876 53.0465 45.6567 53.0465 46.1079V49.8647C53.0465 50.3159 52.6774 50.685 52.2263 50.685ZM22.9589 50.685C22.5078 50.685 22.1387 50.3159 22.1387 49.8647V46.1079C22.1387 45.6567 22.5078 45.2876 22.9589 45.2876C23.4101 45.2876 23.7792 45.6567 23.7792 46.1079V49.8647C23.7792 50.3159 23.4101 50.685 22.9589 50.685Z" fill="#F47929"/>
</g>
</g>
<defs>
<clipPath id="clip0_15141_1236">
<rect width="56" height="56" fill="white"/>
</clipPath>
</defs>
</svg>
