<svg width="24" height="24" viewBox="0 0 24 24" fill="none" xmlns="http://www.w3.org/2000/svg">
<path d="M23.9374 9.20622C23.7803 8.72024 23.3493 8.37508 22.8393 8.32912L15.9123 7.70014L13.1731 1.2889C12.9712 0.819039 12.5112 0.514893 12.0001 0.514893C11.4891 0.514893 11.0291 0.819039 10.8271 1.29L8.08797 7.70014L1.15982 8.32912C0.65077 8.37618 0.220828 8.72024 0.0628038 9.20622C-0.0952203 9.69219 0.0507185 10.2252 0.435799 10.5612L5.67183 15.1533L4.12785 21.9545C4.01487 22.4546 4.20897 22.9715 4.62389 23.2715C4.84692 23.4326 5.10785 23.5146 5.37098 23.5146C5.59786 23.5146 5.8229 23.4535 6.02487 23.3326L12.0001 19.7614L17.9732 23.3326C18.4103 23.5956 18.9612 23.5716 19.3753 23.2715C19.7904 22.9706 19.9843 22.4535 19.8713 21.9545L18.3273 15.1533L23.5633 10.5621C23.9484 10.2252 24.0955 9.69311 23.9374 9.20622Z" fill="#D1D1D1"/>
</svg>
