<?xml version="1.0" encoding="UTF-8"?>
<svg id="Layer_1" xmlns="http://www.w3.org/2000/svg" version="1.1" viewBox="0 0 156 36">
  <!-- Generator: Adobe Illustrator 29.6.0, SVG Export Plug-In . SVG Version: 2.1.1 Build 207)  -->
  <defs>
    <style>
      .st0 {
        fill: #B0B0B0;
      }
    </style>
  </defs>
  <path class="st0" d="M13.29,18.77c0-3.53-1.3-5.29-3.89-5.29-.57,0-1.14.07-1.69.22-.54.15-.98.33-1.32.55v9.95c.27.05.61.1,1.03.15.42.02.87.04,1.36.04,1.49,0,2.62-.51,3.38-1.54.76-1.03,1.14-2.39,1.14-4.08h0ZM18.87,18.92c0,1.54-.23,2.94-.7,4.19-.44,1.25-1.09,2.31-1.95,3.19-.86.88-1.91,1.57-3.16,2.06-1.25.47-2.67.7-4.26.7-.66,0-1.36-.04-2.09-.11-.71-.05-1.42-.12-2.13-.22-.66-.09-1.32-.2-1.98-.33-.57-.13-1.13-.28-1.69-.44V.96L6.38.08v9.62c.61-.27,1.25-.48,1.91-.62.7-.15,1.41-.22,2.13-.22,1.37,0,2.58.24,3.64.73,1.03.45,1.94,1.14,2.64,2.02.71.88,1.25,1.95,1.62,3.19.37,1.22.55,2.59.55,4.11ZM37.73,27.92c-.93.27-2.13.51-3.6.74-1.53.25-3.08.37-4.63.37-1.64,0-3.01-.22-4.11-.66-1.08-.44-1.93-1.05-2.57-1.84-.64-.81-1.09-1.76-1.36-2.86-.27-1.1-.4-2.31-.4-3.64v-10.76h5.47v10.1c0,1.76.23,3.04.7,3.82.47.78,1.33,1.17,2.61,1.17.39,0,.81-.01,1.25-.04.44-.05.83-.1,1.18-.15v-14.91h5.47s0,18.66,0,18.66ZM58.53,9.26c-1.04,3.53-2.19,7.02-3.45,10.47-1.18,3.21-2.49,6.37-3.93,9.48-.51,1.1-1.03,2.03-1.54,2.79-.51.78-1.08,1.42-1.69,1.91-.61.51-1.32.89-2.09,1.1-.76.24-1.65.37-2.68.37-.86,0-1.65-.08-2.39-.26-.71-.15-1.3-.32-1.76-.51l.96-4.37c.56.2,1.06.33,1.51.4.44.07.91.11,1.4.11.98,0,1.73-.27,2.24-.81.54-.51.99-1.24,1.36-2.17-1.25-2.45-2.5-5.19-3.75-8.23-1.25-3.06-2.42-6.49-3.53-10.28h5.8c.24.95.53,1.99.84,3.12.34,1.1.7,2.23,1.06,3.38.37,1.13.74,2.23,1.1,3.3.39,1.08.76,2.06,1.1,2.94.32-.88.65-1.86.99-2.94.35-1.1.68-2.2.99-3.31.34-1.15.66-2.28.96-3.38.32-1.12.6-2.17.85-3.12h5.66,0ZM65.21,18.3c0,3.06,1.24,4.59,3.71,4.59.56,0,1.09-.07,1.58-.22.49-.15.91-.32,1.25-.51v-8.74c-.32-.05-.63-.09-.96-.11-.43-.05-.86-.08-1.29-.07-1.44,0-2.52.48-3.23,1.43s-1.07,2.17-1.07,3.64h0ZM77.22,26.16c0,3.16-.81,5.5-2.42,7.01-1.59,1.54-4.07,2.31-7.42,2.31-1.18,0-2.35-.11-3.53-.33-1.11-.18-2.2-.45-3.27-.81l.95-4.59c.86.34,1.75.61,2.68.81.96.2,2.03.29,3.23.29,1.57,0,2.67-.34,3.31-1.03.66-.69.99-1.57.99-2.65v-.7c-.59.27-1.2.48-1.84.62-.67.13-1.34.19-2.02.18-2.67,0-4.71-.78-6.13-2.35-1.42-1.59-2.13-3.81-2.13-6.65,0-1.42.22-2.71.66-3.86.44-1.18,1.08-2.18,1.91-3.01.86-.83,1.9-1.47,3.12-1.91,1.22-.47,2.61-.7,4.15-.7.66,0,1.33.04,2.02.11.71.05,1.41.12,2.09.22.68.1,1.33.22,1.95.37.64.12,1.2.26,1.69.4v16.23h0ZM98.58,18.88c0,1.52-.22,2.91-.66,4.19-.44,1.25-1.08,2.33-1.91,3.23-.85.89-1.87,1.59-3.01,2.06-1.15.49-2.45.73-3.89.73s-2.72-.25-3.89-.73c-1.12-.47-2.14-1.17-2.97-2.06-.83-.91-1.48-1.98-1.95-3.23-.46-1.27-.7-2.67-.7-4.19s.23-2.9.7-4.15c.49-1.25,1.15-2.31,1.98-3.19.86-.88,1.88-1.58,3.01-2.06,1.18-.49,2.45-.73,3.82-.73s2.67.24,3.82.73c1.14.46,2.16,1.17,3.01,2.06.83.88,1.48,1.95,1.95,3.19.47,1.25.7,2.63.7,4.15ZM93,18.88c0-1.69-.34-3.01-1.03-3.97-.66-.98-1.61-1.47-2.86-1.47s-2.22.49-2.9,1.47c-.68.95-1.03,2.28-1.03,3.97s.34,3.04,1.03,4.04c.69.98,1.65,1.47,2.9,1.47s2.2-.49,2.86-1.47c.69-1,1.03-2.35,1.03-4.04ZM119.05,18.88c0,1.52-.22,2.91-.66,4.19-.44,1.25-1.08,2.33-1.91,3.23-.85.89-1.87,1.59-3.01,2.06-1.15.49-2.45.73-3.89.73s-2.72-.25-3.89-.73c-1.12-.47-2.14-1.17-2.97-2.06-.83-.91-1.48-1.98-1.95-3.23-.47-1.27-.7-2.67-.7-4.19s.23-2.9.7-4.15c.49-1.25,1.15-2.31,1.98-3.19.86-.88,1.88-1.58,3.01-2.06,1.18-.49,2.45-.73,3.82-.73s2.67.24,3.82.73c1.14.46,2.17,1.17,3.01,2.06.83.88,1.48,1.95,1.95,3.19.47,1.25.7,2.63.7,4.15ZM113.47,18.88c0-1.69-.34-3.01-1.03-3.97-.66-.98-1.62-1.47-2.86-1.47s-2.22.49-2.9,1.47c-.68.95-1.03,2.28-1.03,3.97s.34,3.04,1.03,4.04c.69.98,1.65,1.47,2.9,1.47s2.2-.49,2.86-1.47c.68-1,1.03-2.35,1.03-4.04ZM126.12,18.77c0,1.69.38,3.05,1.14,4.08.76,1.03,1.89,1.54,3.38,1.54.49,0,.94-.01,1.36-.04.42-.05.76-.1,1.03-.15v-9.95c-.34-.22-.8-.4-1.36-.55-.54-.15-1.09-.22-1.65-.22-2.6,0-3.89,1.76-3.89,5.29h0ZM138.5,27.96c-.56.16-1.12.31-1.69.44-.67.13-1.34.24-2.02.33-.71.1-1.42.17-2.13.22-.71.07-1.4.11-2.06.11-1.59,0-3.01-.23-4.26-.7-1.25-.47-2.3-1.13-3.16-1.98-.86-.88-1.52-1.93-1.98-3.16-.44-1.25-.66-2.64-.66-4.19s.2-2.98.59-4.22c.39-1.27.96-2.35,1.69-3.23.72-.87,1.64-1.57,2.68-2.02,1.08-.47,2.3-.7,3.67-.7.76,0,1.43.07,2.02.22.61.15,1.23.35,1.84.62V.96l5.47-.88v27.88h0ZM147.33,24.65c1,0,1.71-.1,2.13-.29.42-.2.62-.58.62-1.14,0-.44-.27-.82-.81-1.14-.54-.34-1.36-.72-2.46-1.14-.8-.29-1.58-.62-2.35-.99-.64-.31-1.24-.72-1.76-1.21-.49-.49-.88-1.08-1.14-1.73-.27-.66-.4-1.46-.4-2.39,0-1.81.67-3.24,2.02-4.3,1.35-1.05,3.2-1.58,5.55-1.58,1.18,0,2.3.11,3.38.33,1.08.2,1.93.42,2.57.66l-.96,4.26c-.69-.23-1.39-.43-2.09-.59-.73-.17-1.57-.26-2.5-.26-1.71,0-2.57.48-2.57,1.43,0,.22.04.42.11.59.07.17.22.34.44.51.22.15.51.32.88.51.39.17.88.37,1.47.59,1.2.44,2.19.88,2.98,1.32.78.42,1.4.88,1.84,1.4.45.46.78,1.03.95,1.65.2.61.29,1.32.29,2.13,0,1.91-.72,3.35-2.17,4.33-1.42.98-3.44,1.47-6.06,1.47-1.71,0-3.15-.15-4.3-.44-1.13-.29-1.91-.54-2.35-.74l.92-4.44c.93.37,1.89.66,2.87.88.95.19,1.93.29,2.9.29h0Z"/>
</svg>