<svg width="156" height="36" fill="none" xmlns="http://www.w3.org/2000/svg"><path d="M13.287 18.774c0-3.526-1.297-5.289-3.893-5.289a6.67 6.67 0 00-1.689.22c-.539.148-.98.331-1.322.552v9.953c.27.049.612.098 1.028.146.416.025.87.037 1.36.037 1.493 0 2.619-.514 3.378-1.542.759-1.029 1.139-2.387 1.139-4.077zm5.583.147c0 1.543-.233 2.938-.698 4.187-.44 1.248-1.09 2.314-1.946 3.195-.857.881-1.91 1.567-3.159 2.057-1.249.465-2.669.698-4.26.698-.661 0-1.359-.037-2.094-.11-.71-.05-1.42-.123-2.13-.221a41.818 41.818 0 01-1.983-.33 27.49 27.49 0 01-1.69-.441V.962L6.384.08v9.623c.612-.27 1.249-.478 1.91-.625a9.807 9.807 0 012.13-.22c1.37 0 2.583.245 3.636.735a6.95 6.95 0 012.644 2.02c.71.88 1.249 1.946 1.616 3.195.367 1.224.55 2.595.55 4.113zm18.86 8.998c-.93.27-2.13.514-3.6.735a28.213 28.213 0 01-4.627.367c-1.64 0-3.012-.22-4.114-.661-1.077-.441-1.934-1.053-2.57-1.837-.637-.808-1.09-1.762-1.36-2.864-.269-1.102-.403-2.314-.403-3.636V9.262h5.472v10.1c0 1.763.233 3.036.698 3.82.465.783 1.334 1.175 2.607 1.175.392 0 .808-.013 1.249-.037.44-.05.832-.098 1.175-.147V9.262h5.473v18.657zM58.526 9.262a169.557 169.557 0 01-3.453 10.467 125.93 125.93 0 01-3.93 9.475c-.514 1.102-1.028 2.033-1.542 2.792-.514.783-1.077 1.42-1.69 1.91a5.553 5.553 0 01-2.093 1.101c-.759.245-1.652.367-2.68.367-.858 0-1.654-.085-2.388-.257-.71-.146-1.298-.318-1.763-.514l.955-4.37c.563.196 1.065.33 1.506.404.44.073.906.11 1.395.11.98 0 1.726-.27 2.24-.808.54-.514.992-1.236 1.36-2.167-1.25-2.448-2.498-5.19-3.747-8.227-1.248-3.06-2.423-6.488-3.525-10.283h5.803c.244.955.526 1.995.844 3.122.343 1.101.698 2.228 1.065 3.379.367 1.126.735 2.228 1.102 3.305.392 1.077.759 2.057 1.102 2.938.318-.881.649-1.86.991-2.938a105.8 105.8 0 00.992-3.305c.343-1.151.661-2.277.955-3.38.318-1.125.6-2.166.845-3.121h5.656zm6.68 9.035c0 3.06 1.236 4.59 3.709 4.59.563 0 1.089-.073 1.579-.22.49-.147.906-.318 1.248-.514v-8.74a8.618 8.618 0 00-.955-.111 9.848 9.848 0 00-1.285-.073c-1.444 0-2.522.477-3.232 1.432-.71.955-1.065 2.167-1.065 3.636zm12.009 7.86c0 3.158-.808 5.496-2.424 7.014-1.592 1.542-4.065 2.314-7.419 2.314-1.175 0-2.35-.11-3.526-.33a20.583 20.583 0 01-3.268-.809l.954-4.59c.857.342 1.751.611 2.681.807.955.196 2.033.294 3.232.294 1.567 0 2.67-.343 3.306-1.028.66-.686.991-1.567.991-2.645v-.697c-.587.269-1.2.477-1.836.624a10.32 10.32 0 01-2.02.184c-2.669 0-4.713-.784-6.133-2.35-1.42-1.592-2.13-3.808-2.13-6.648 0-1.42.22-2.706.66-3.857.441-1.175 1.078-2.179 1.91-3.011.858-.833 1.898-1.47 3.122-1.91 1.225-.465 2.608-.698 4.15-.698.661 0 1.335.037 2.02.11.71.05 1.408.123 2.094.22.685.099 1.334.221 1.946.368.637.123 1.2.257 1.69.404v16.233zm21.365-7.273c0 1.518-.22 2.914-.66 4.187-.442 1.249-1.078 2.326-1.91 3.232a8.674 8.674 0 01-3.012 2.057c-1.151.49-2.449.734-3.893.734-1.42 0-2.718-.245-3.893-.734a8.755 8.755 0 01-2.975-2.057c-.832-.906-1.481-1.983-1.947-3.232-.465-1.273-.697-2.669-.697-4.187 0-1.518.232-2.901.697-4.15.49-1.248 1.151-2.313 1.984-3.195a9.154 9.154 0 013.011-2.057c1.175-.49 2.449-.734 3.82-.734 1.395 0 2.669.245 3.82.734a8.674 8.674 0 013.01 2.057c.833.882 1.482 1.947 1.947 3.195.466 1.249.698 2.632.698 4.15zm-5.582 0c0-1.69-.343-3.011-1.029-3.966-.66-.98-1.615-1.47-2.864-1.47-1.249 0-2.216.49-2.902 1.47-.685.955-1.028 2.277-1.028 3.966 0 1.69.343 3.036 1.028 4.04.686.98 1.653 1.47 2.902 1.47 1.248 0 2.203-.49 2.864-1.47.686-1.004 1.029-2.35 1.029-4.04zm26.054 0c0 1.518-.22 2.914-.661 4.187-.441 1.249-1.077 2.326-1.91 3.232a8.668 8.668 0 01-3.011 2.057c-1.151.49-2.449.734-3.893.734-1.42 0-2.718-.245-3.893-.734a8.76 8.76 0 01-2.975-2.057c-.832-.906-1.481-1.983-1.946-3.232-.466-1.273-.698-2.669-.698-4.187 0-1.518.232-2.901.698-4.15.489-1.248 1.15-2.313 1.983-3.195a9.16 9.16 0 013.011-2.057c1.176-.49 2.449-.734 3.82-.734 1.395 0 2.669.245 3.819.734a8.664 8.664 0 013.012 2.057c.832.882 1.481 1.947 1.946 3.195.466 1.249.698 2.632.698 4.15zm-5.582 0c0-1.69-.343-3.011-1.028-3.966-.662-.98-1.616-1.47-2.865-1.47s-2.216.49-2.902 1.47c-.685.955-1.028 2.277-1.028 3.966 0 1.69.343 3.036 1.028 4.04.686.98 1.653 1.47 2.902 1.47s2.203-.49 2.865-1.47c.685-1.004 1.028-2.35 1.028-4.04zm12.649-.11c0 1.69.38 3.048 1.139 4.077.759 1.028 1.885 1.542 3.379 1.542.489 0 .942-.012 1.358-.037.417-.048.759-.097 1.029-.146v-9.953c-.343-.22-.796-.404-1.359-.551a6.258 6.258 0 00-1.653-.22c-2.595 0-3.893 1.762-3.893 5.288zm12.377 9.182a26.79 26.79 0 01-1.689.44 38.81 38.81 0 01-2.02.331 28.48 28.48 0 01-2.13.22c-.711.074-1.396.11-2.057.11-1.592 0-3.012-.232-4.26-.697-1.249-.465-2.302-1.127-3.159-1.983-.857-.882-1.518-1.935-1.983-3.159-.441-1.249-.661-2.644-.661-4.187 0-1.567.196-2.975.587-4.223.392-1.274.955-2.35 1.69-3.232a7.26 7.26 0 012.681-2.02c1.077-.465 2.301-.698 3.673-.698.759 0 1.432.073 2.019.22.613.147 1.225.355 1.837.625V.962l5.472-.882v27.876zm8.833-3.306c1.004 0 1.714-.098 2.13-.293.417-.196.625-.576.625-1.139 0-.44-.27-.82-.808-1.139-.539-.342-1.359-.722-2.461-1.138a27.18 27.18 0 01-2.35-.992 7.213 7.213 0 01-1.763-1.212 5.18 5.18 0 01-1.139-1.726c-.269-.66-.404-1.456-.404-2.387 0-1.812.674-3.244 2.02-4.297 1.347-1.053 3.195-1.58 5.546-1.58 1.175 0 2.301.111 3.379.331 1.077.196 1.934.417 2.571.661L153.72 14a19.664 19.664 0 00-2.094-.587c-.734-.171-1.567-.257-2.497-.257-1.714 0-2.571.477-2.571 1.432 0 .22.037.417.11.588.074.171.221.343.441.514.22.147.514.318.881.514.392.172.882.368 1.469.588 1.2.44 2.192.881 2.975 1.322.784.416 1.396.881 1.837 1.396a3.9 3.9 0 01.954 1.652c.196.612.294 1.322.294 2.13 0 1.91-.722 3.355-2.167 4.334-1.42.98-3.44 1.47-6.059 1.47-1.714 0-3.147-.148-4.297-.441-1.127-.294-1.91-.54-2.351-.735l.918-4.444a19.4 19.4 0 002.865.881 14.75 14.75 0 002.901.294z" fill="#B0B0B0"/></svg>