<svg width="47" height="32" viewBox="0 0 47 32" fill="none" xmlns="http://www.w3.org/2000/svg">
<rect x="1" y="0.5" width="45" height="31" rx="5.5" fill="white"/>
<rect x="1" y="0.5" width="45" height="31" rx="5.5" stroke="#F5F5F5"/>
<path fill-rule="evenodd" clip-rule="evenodd" d="M23.4053 22.4392C21.8266 23.7699 19.7787 24.5732 17.5409 24.5732C12.5478 24.5732 8.5 20.5736 8.5 15.6399C8.5 10.7061 12.5478 6.70654 17.5409 6.70654C19.7787 6.70654 21.8266 7.50987 23.4053 8.8406C24.984 7.50987 27.0319 6.70654 29.2697 6.70654C34.2628 6.70654 38.3106 10.7061 38.3106 15.6399C38.3106 20.5736 34.2628 24.5732 29.2697 24.5732C27.0319 24.5732 24.984 23.7699 23.4053 22.4392Z" fill="#ED0006"/>
<path fill-rule="evenodd" clip-rule="evenodd" d="M23.4053 22.4392C25.3492 20.8006 26.5818 18.3625 26.5818 15.6399C26.5818 12.9173 25.3492 10.4791 23.4053 8.8406C24.984 7.50987 27.0319 6.70654 29.2697 6.70654C34.2628 6.70654 38.3106 10.7061 38.3106 15.6399C38.3106 20.5736 34.2628 24.5732 29.2697 24.5732C27.0319 24.5732 24.984 23.7699 23.4053 22.4392Z" fill="#F9A000"/>
<path fill-rule="evenodd" clip-rule="evenodd" d="M23.405 22.4393C25.3489 20.8008 26.5815 18.3627 26.5815 15.6401C26.5815 12.9175 25.3489 10.4794 23.405 8.84082C21.4611 10.4794 20.2285 12.9175 20.2285 15.6401C20.2285 18.3627 21.4611 20.8008 23.405 22.4393Z" fill="#FF5E00"/>
</svg>
