<svg width="56" height="56" viewBox="0 0 56 56" fill="none" xmlns="http://www.w3.org/2000/svg">
<path d="M46.5614 46.5613C54.8389 38.2847 56.6283 25.382 50.9137 15.1856C50.6774 14.7647 50.1445 14.6133 49.7228 14.8505C49.301 15.0867 49.1505 15.6196 49.3868 16.0413C54.7208 25.557 53.0504 37.5987 45.3242 45.3241C40.6954 49.9528 34.5433 52.5017 28 52.5017C22.0824 52.5017 16.4877 50.4105 12.0479 46.5867L15.1078 46.2437C15.5882 46.1895 15.9338 45.7572 15.8795 45.2768C15.8253 44.7965 15.3852 44.4473 14.9127 44.5051L9.97416 45.0581C9.90241 45.066 9.84029 45.0975 9.77554 45.122C9.75366 45.1298 9.73179 45.1333 9.70991 45.143C9.63904 45.1762 9.57866 45.22 9.52004 45.269C9.49379 45.29 9.46229 45.2987 9.43779 45.3232C9.42729 45.3337 9.42379 45.3477 9.41416 45.3582C9.38529 45.3915 9.36604 45.4282 9.34329 45.465C9.29779 45.5332 9.25754 45.6006 9.23304 45.6758C9.23216 45.6793 9.23216 45.682 9.23129 45.6855C9.19191 45.8123 9.18666 45.9418 9.20679 46.0722L9.75454 50.9626C9.80441 51.4097 10.1833 51.7405 10.6225 51.7405C10.6558 51.7405 10.6882 51.7387 10.7214 51.7352C11.2018 51.681 11.5474 51.2487 11.4932 50.7683L11.2018 48.1687C15.9102 52.1045 21.7884 54.2508 27.9983 54.2508C35.0088 54.2508 41.6002 51.52 46.5597 46.5605L46.5614 46.5613Z" fill="#F47929"/>
<path d="M27.9996 3.49825C33.8787 3.49825 39.4385 5.56237 43.8651 9.338L40.842 9.67663C40.3616 9.73088 40.016 10.1631 40.0702 10.6435C40.1201 11.0906 40.499 11.4214 40.9382 11.4214C40.9715 11.4214 41.0039 11.4196 41.0371 11.4161L45.7245 10.8911C46.015 10.9664 46.3335 10.9042 46.561 10.6767C46.8305 10.4072 46.8795 10.01 46.7237 9.68538L46.1944 4.95775C46.1401 4.47737 45.6982 4.13 45.2275 4.186C44.7471 4.24025 44.4015 4.6725 44.4557 5.15287L44.7515 7.79275C40.0501 3.8815 34.1894 1.75 27.9996 1.75C20.9891 1.75 14.3977 4.48087 9.43825 9.44037C1.16074 17.7161 -0.628629 30.618 5.086 40.8144C5.24612 41.1005 5.54362 41.2615 5.84987 41.2615C5.99512 41.2615 6.14125 41.2256 6.27687 41.1495C6.69862 40.9132 6.84912 40.3804 6.61287 39.9586C1.27887 30.443 2.95012 18.4013 10.6755 10.6759C15.3042 6.04713 21.4564 3.49825 27.9996 3.49825Z" fill="#F47929"/>
<path d="M17.0894 20.5557C17.022 20.1392 16.6773 19.8154 16.2415 19.8154C15.9633 19.8154 15.7191 19.9484 15.559 20.1506C15.5581 20.1523 15.5564 20.1523 15.5555 20.1541C13.2324 22.9978 11.9531 26.5932 11.9531 30.2769C11.9531 30.5149 11.954 30.7433 11.9715 30.9306C12.2182 37.2271 16.1715 42.6284 21.6691 45.0128C21.6962 45.0268 21.7181 45.0443 21.7452 45.0583C21.8214 45.0977 21.901 45.1204 21.9806 45.1353C23.6431 45.8152 25.4342 46.2352 27.3102 46.3087C27.5386 46.3279 27.767 46.3297 28.0041 46.3297C30.616 46.3297 33.0774 45.6883 35.2588 44.5753C35.3034 44.5622 35.3428 44.5342 35.3848 44.5141C40.5236 41.8357 44.0464 36.4649 44.0464 30.2769C44.0464 25.2194 41.6226 20.4034 37.5635 17.3952C37.245 17.1581 36.8049 17.1668 36.4951 17.4153C36.1854 17.6647 36.0813 18.0908 36.2431 18.4539C37.4821 21.2356 36.4628 22.9681 35.0969 23.6619C33.9699 24.2351 32.45 24.1528 31.7255 22.8902C30.6948 21.0912 31.2434 19.9012 31.8786 18.5231C32.296 17.6174 32.7265 16.6821 32.6994 15.5953C32.6994 15.4964 32.695 15.3801 32.688 15.3608C32.3511 10.9499 27.3523 9.74245 27.1396 9.69257C26.7844 9.60857 26.4178 9.7582 26.2156 10.0618C26.0135 10.3646 26.0223 10.7636 26.234 11.0593C26.241 11.0689 26.9253 12.0376 26.6899 12.9869C26.5455 13.5688 26.0625 14.0737 25.2514 14.4884C25.2269 14.4981 25.2015 14.5094 25.1779 14.5217C21.0733 16.5841 19.6654 19.6492 20.4704 24.7706C20.6856 26.1347 19.948 26.6474 19.4886 26.8321C18.6723 27.1602 17.6643 26.9344 17.2416 26.3289C16.5058 25.2693 16.6948 22.7537 17.0885 20.8838C17.0938 20.8584 17.0885 20.8339 17.0911 20.8094C17.0973 20.7692 17.1147 20.7298 17.1147 20.6904C17.1147 20.6607 17.1008 20.6362 17.0981 20.6073C17.0964 20.5898 17.0911 20.5732 17.0876 20.5566L17.0894 20.5557ZM27.4196 44.5622C25.6364 44.4922 23.9371 44.0818 22.3753 43.4063C21.0461 42.6879 19.6829 41.4629 20.249 38.4906C20.6288 36.4991 20.2114 35.0667 19.661 34.1086C20.3837 34.2004 21.096 34.4813 21.2535 35.2041C21.6158 36.8631 22.3814 37.5569 22.9598 37.8466C23.581 38.1581 24.3108 38.1659 24.9618 37.8693C25.4351 37.6532 26.0118 37.3111 26.2743 36.5822C26.6453 35.5479 26.2445 34.0246 24.8454 31.1467C23.7228 28.8411 24.813 27.0351 25.9164 25.9308C25.9776 27.5723 26.6811 29.4973 28.9063 30.7381C32.3669 32.6674 33.5753 35.1236 32.7108 38.4678C32.6346 38.7627 32.7169 39.0759 32.9286 39.2947C33.1404 39.5143 33.4536 39.6088 33.7476 39.5406C34.5841 39.3551 35.8756 38.6699 36.7393 37.2446C36.8644 39.0444 36.4881 41.2582 34.5439 42.9793C32.5821 43.9943 30.3623 44.5788 28.005 44.5788C27.8195 44.5797 27.6392 44.5797 27.4196 44.5622ZM20.1431 28.4552C21.362 27.9652 22.5424 26.6684 22.2003 24.4984C21.4154 19.5057 23.119 17.5256 25.926 16.1054C25.947 16.0967 25.9689 16.0871 25.989 16.0766C27.3146 15.4151 28.1231 14.5103 28.3944 13.3877C28.5029 12.9362 28.509 12.4978 28.4565 12.0953C29.5599 12.7069 30.8111 13.7727 30.9424 15.4947C30.9441 15.5209 30.9441 15.5918 30.9494 15.6181C30.9669 16.3198 30.6528 17.0023 30.2888 17.7916C29.5931 19.3009 28.7278 21.1796 30.2074 23.7617C31.3081 25.6797 33.7511 26.3079 35.8896 25.2229C37.4235 24.4433 38.5943 22.8228 38.5418 20.6257C40.927 23.2367 42.2964 26.6886 42.2964 30.2778C42.2964 34.1803 40.7231 37.7188 38.1821 40.3018C39.1193 36.7686 37.5819 33.3246 37.56 33.2764C37.3876 32.9019 36.9738 32.7007 36.5748 32.7891C36.1723 32.8792 35.8879 33.2379 35.8905 33.6492C35.9036 35.3764 35.32 36.4098 34.711 37.0171C34.9096 33.7778 33.2498 31.1572 29.7559 29.2094C26.7678 27.5434 27.8458 24.3759 27.8921 24.2456C28.0164 23.9034 27.9157 23.5193 27.6392 23.2822C27.3636 23.0451 26.969 23.0048 26.6487 23.1789C24.5654 24.3199 21.1774 27.6134 23.2686 31.9123C24.61 34.6686 24.7465 35.6512 24.6249 35.9907C24.6083 36.0362 24.5785 36.1193 24.2329 36.2777C24.113 36.3319 23.9301 36.3766 23.7411 36.2812C23.4113 36.1158 23.1269 35.5873 22.9615 34.8313C22.3945 32.2299 19.2209 32.1249 17.6231 32.4329C17.2731 32.5003 17.0036 32.7759 16.9345 33.1251C16.8654 33.4742 17.0194 33.8338 17.3177 34.0298C17.3904 34.0771 19.087 35.2294 18.5279 38.1633C18.3371 39.1626 18.3345 40.0664 18.4771 40.8942C15.6911 38.3864 13.8729 34.8129 13.7154 30.8212C13.6996 30.6427 13.7014 30.4642 13.7014 30.2769C13.7014 28.2154 14.1511 26.1846 14.9981 24.3322C15.0393 25.4373 15.2536 26.5328 15.8057 27.3282C16.6965 28.6057 18.5603 29.0904 20.1423 28.4561L20.1431 28.4552Z" fill="#F47929"/>
</svg>
