<svg width="56" height="56" viewBox="0 0 56 56" fill="none" xmlns="http://www.w3.org/2000/svg">
<g clip-path="url(#clip0_15141_1243)">
<path d="M38.0827 5.26068C30.8621 5.26068 24.9877 11.1351 24.9877 18.3557C24.9877 20.2512 25.3932 22.0537 26.1208 23.6818L19.7567 24.4305L21.61 11.4572C21.6741 11.0086 21.3624 10.5932 20.9139 10.5291C20.4662 10.4669 20.05 10.7767 19.9859 11.2252L17.9818 25.2538C17.9458 25.5059 18.029 25.7603 18.2068 25.9426C18.362 26.1018 18.5741 26.1902 18.7939 26.1902C18.8258 26.1902 18.8578 26.1883 18.8897 26.1845L26.9461 25.2366C27.7759 26.5748 28.84 27.7531 30.0807 28.7139L18.5209 50.6171L21.3596 30.7464C21.3956 30.4943 21.3125 30.2399 21.1347 30.0575C20.9569 29.8753 20.7034 29.7857 20.4517 29.8157L7.09633 31.3869L20.8205 5.38296L19.9859 11.2252C19.9218 11.6738 20.4655 10.6 20.9139 10.664C21.3613 10.7278 21.546 11.9058 21.61 11.4572L23.113 0.936339C23.1695 0.541497 22.9335 0.163279 22.5541 0.0401236C22.1747 -0.0829228 21.7617 0.0847484 21.5756 0.437481L4.91715 32.001C4.77485 32.2705 4.79378 32.5966 4.96604 32.8479C5.13841 33.0992 5.43646 33.2354 5.73844 33.1986L19.5848 31.5695L16.2284 55.0636C16.172 55.4585 16.4079 55.8367 16.7874 55.9598C16.871 55.987 16.9563 56 17.0404 56C17.3378 56 17.6208 55.8375 17.7659 55.5625L31.4468 29.6405C33.394 30.7899 35.6624 31.4506 38.0826 31.4506C45.3032 31.4506 51.1776 25.5762 51.1776 18.3556C51.1777 11.1351 45.3033 5.26068 38.0827 5.26068ZM38.0827 29.81C31.7667 29.81 26.6283 24.6716 26.6283 18.3556C26.6283 12.0395 31.7667 6.9013 38.0827 6.9013C44.3986 6.9013 49.537 12.0396 49.537 18.3557C49.537 24.6717 44.3987 29.81 38.0827 29.81Z" fill="#F47929"/>
<path d="M44.8 11.6382C44.4798 11.318 43.9605 11.3178 43.6399 11.6381L39.227 16.0509C38.882 15.8789 38.4935 15.7817 38.0826 15.7817C36.6633 15.7817 35.5088 16.9363 35.5088 18.3555C35.5088 19.7746 36.6635 20.9293 38.0826 20.9293C39.5017 20.9293 40.6564 19.7746 40.6564 18.3555C40.6564 17.9446 40.559 17.5561 40.3871 17.2112L44.8 12.7984C45.1204 12.4779 45.1204 11.9586 44.8 11.6382ZM38.0826 19.2887C37.568 19.2887 37.1494 18.8701 37.1494 18.3555C37.1494 17.8409 37.568 17.4223 38.0826 17.4223C38.5972 17.4223 39.0158 17.8409 39.0158 18.3555C39.0158 18.8701 38.5973 19.2887 38.0826 19.2887Z" fill="#F47929"/>
</g>
<defs>
<clipPath id="clip0_15141_1243">
<rect width="56" height="56" fill="white"/>
</clipPath>
</defs>
</svg>
