<svg width="24" height="24" viewBox="0 0 24 24" fill="none" xmlns="http://www.w3.org/2000/svg">
<path fill-rule="evenodd" clip-rule="evenodd" d="M23.6004 11.9999C23.6004 18.4064 18.4069 23.5999 12.0004 23.5999C5.59389 23.5999 0.400391 18.4064 0.400391 11.9999C0.400391 5.5934 5.59389 0.399902 12.0004 0.399902C18.4069 0.399902 23.6004 5.5934 23.6004 11.9999ZM6.98518 14.1711L9.70518 16.8279C9.84386 16.9621 10.0103 17.0642 10.1927 17.1271C10.3751 17.19 10.5691 17.2121 10.761 17.1919C10.9529 17.1718 11.138 17.1098 11.3034 17.0103C11.4687 16.9109 11.6102 16.7764 11.718 16.6163L17.0952 8.4387C17.1404 8.36992 17.1714 8.29277 17.1863 8.2118C17.2011 8.13084 17.1996 8.04771 17.1817 7.96735C17.1638 7.887 17.13 7.81105 17.0822 7.74401C17.0345 7.67698 16.9737 7.62021 16.9036 7.5771L15.83 6.9027C15.6877 6.81358 15.5163 6.78329 15.3521 6.81823C15.1879 6.85316 15.0437 6.95058 14.95 7.0899L10.4088 13.9939L8.78958 12.4111C8.66862 12.2939 8.50681 12.2284 8.33838 12.2284C8.16996 12.2284 8.00814 12.2939 7.88718 12.4111L6.98518 13.2911C6.92635 13.3483 6.87958 13.4167 6.84764 13.4923C6.81571 13.5678 6.79926 13.6491 6.79926 13.7311C6.79926 13.8131 6.81571 13.8944 6.84764 13.9699C6.87958 14.0455 6.92635 14.1139 6.98518 14.1711Z" fill="#41A3A3"/>
</svg>
