<svg width="28" height="28" viewBox="0 0 28 28" fill="none" xmlns="http://www.w3.org/2000/svg">
<path d="M7.88 26.8747L0.626662 19.7899C0.469773 19.6374 0.345059 19.455 0.259898 19.2535C0.174737 19.052 0.130859 18.8354 0.130859 18.6166C0.130859 18.3978 0.174737 18.1812 0.259898 17.9797C0.345059 17.7782 0.469773 17.5958 0.626662 17.4433L3.03199 15.0966C3.35455 14.7841 3.78606 14.6093 4.2352 14.6093C4.68433 14.6093 5.11584 14.7841 5.4384 15.0966L9.75626 19.3174L21.8661 0.906737C22.116 0.535232 22.5005 0.275444 22.9384 0.182287C23.3764 0.0891297 23.8334 0.169904 24.2128 0.407537L27.0757 2.20594C27.2627 2.32092 27.4247 2.47228 27.5521 2.65105C27.6795 2.82981 27.7697 3.03234 27.8174 3.24662C27.865 3.46091 27.8692 3.68257 27.8295 3.89848C27.7899 4.11439 27.7073 4.32015 27.5867 4.50354L13.2475 26.3105C12.9601 26.7373 12.5827 27.096 12.1418 27.3612C11.7009 27.6264 11.2072 27.7917 10.6954 27.8455C10.1837 27.8993 9.66643 27.8403 9.18 27.6726C8.69356 27.5048 8.24981 27.2325 7.88 26.8747Z" fill="white"/>
</svg>
