<svg width="21" height="20" viewBox="0 0 21 20" fill="none" xmlns="http://www.w3.org/2000/svg">
<path fill-rule="evenodd" clip-rule="evenodd" d="M20.1663 10.0002C20.1663 15.3389 15.8384 19.6668 10.4997 19.6668C5.16092 19.6668 0.833008 15.3389 0.833008 10.0002C0.833008 4.66141 5.16092 0.333496 10.4997 0.333496C15.8384 0.333496 20.1663 4.66141 20.1663 10.0002ZM6.32033 11.8095L8.587 14.0235C8.70257 14.1353 8.84124 14.2204 8.99325 14.2728C9.14526 14.3252 9.30692 14.3437 9.46683 14.3269C9.62674 14.3101 9.78102 14.2584 9.91881 14.1755C10.0566 14.0926 10.1745 13.9805 10.2643 13.8472L14.7453 7.03249C14.783 6.97518 14.8088 6.91088 14.8212 6.84341C14.8336 6.77594 14.8323 6.70667 14.8174 6.63971C14.8025 6.57274 14.7743 6.50945 14.7345 6.45359C14.6947 6.39772 14.6441 6.35042 14.5857 6.31449L13.691 5.75249C13.5724 5.67823 13.4296 5.65299 13.2928 5.6821C13.1559 5.71121 13.0358 5.7924 12.9577 5.90849L9.17333 11.6618L7.824 10.3428C7.7232 10.2452 7.58835 10.1905 7.448 10.1905C7.30765 10.1905 7.1728 10.2452 7.072 10.3428L6.32033 11.0762C6.27131 11.1238 6.23233 11.1808 6.20572 11.2438C6.17911 11.3068 6.1654 11.3745 6.1654 11.4428C6.1654 11.5112 6.17911 11.5789 6.20572 11.6419C6.23233 11.7048 6.27131 11.7618 6.32033 11.8095Z" fill="#2E7474"/>
</svg>
