<svg width="258" height="30" viewBox="0 0 258 30" fill="none" xmlns="http://www.w3.org/2000/svg">
<path d="M100.795 18.0482C99.8151 18.1232 99.3507 18.1232 98.8863 18.1982C92.5395 19.1482 86.1927 20.0982 79.8459 21.0982C74.9955 21.8482 70.2999 22.7482 65.2431 23.1482C62.0439 23.3982 58.8447 23.4732 55.6455 23.0482C49.2987 22.1982 45.6867 19.1732 47.3379 16.0732C47.6991 15.4482 48.1635 14.8232 48.6279 14.1482C47.8023 13.8482 46.9767 14.0482 46.2027 14.1482C36.7083 15.2732 27.4719 16.7232 18.6999 18.8232C14.4171 19.8482 10.1859 20.9732 5.95467 22.0482C5.18067 22.2482 4.45827 22.4482 3.63267 22.5982C2.34267 22.8232 1.20747 22.6732 0.536674 22.2232C-0.185726 21.7732 -0.237326 21.0732 0.743073 20.5982C2.23947 19.8482 3.78747 19.1232 5.49027 18.4982C10.1859 16.7732 15.5007 15.5232 20.8155 14.3482C29.5359 12.4232 38.6691 11.1732 47.9571 10.1232C50.0727 9.87317 52.1367 10.0232 54.0459 10.3982C57.0903 10.9732 58.6899 12.4232 58.0707 14.0232C57.7611 14.7982 57.1419 15.5482 56.5743 16.2982C55.5939 17.6482 56.5743 18.5482 59.5671 18.5732C61.9407 18.5732 64.4691 18.4732 66.7395 18.1232C71.7963 17.3982 76.8015 16.5232 81.8067 15.6982C88.5663 14.5482 95.4291 13.5982 102.498 12.9482C104.717 12.7482 106.884 12.7232 109.051 13.1232C112.87 13.8482 114.676 15.5482 113.695 17.4982C113.231 18.4482 112.251 19.2982 111.012 20.0732C110.496 20.3982 109.929 20.7232 109.567 21.1982C110.187 21.0982 110.806 20.9982 111.373 20.8732C116.327 19.7732 121.281 18.7232 126.183 17.5732C136.09 15.2732 146.461 13.5732 157.246 12.5732C165.966 11.7732 174.738 11.6982 183.562 11.6482C192.231 11.5982 200.641 12.4482 209.104 13.1982C213.954 13.6232 218.805 14.0482 223.758 14.0982C227.164 14.1232 230.415 13.7232 233.562 13.1232C236.658 12.5232 239.754 11.8732 242.85 11.2732C244.863 10.8732 246.772 11.0732 247.907 11.7982C248.939 12.4982 248.991 13.4732 247.546 14.1982C245.017 15.4732 242.695 16.7982 239.496 17.7482C232.891 19.6482 225.719 20.1482 218.237 20.0482C212.2 19.9732 206.317 19.3732 200.383 18.8232C190.27 17.8732 180.053 17.7482 169.785 18.0232C159.361 18.2982 149.454 19.6732 139.65 21.1732C133.407 22.1482 127.369 23.4982 121.229 24.6482C116.74 25.4732 112.251 26.2982 107.761 27.0732C105.181 27.5232 102.498 27.7732 99.7635 27.6982C94.8099 27.5482 91.5591 25.4482 92.8491 23.2232C93.3651 22.3732 94.1391 21.5982 95.3259 20.9482C96.2547 20.4232 97.2867 19.9482 98.2671 19.4232C98.9895 19.0482 99.7119 18.6732 100.744 18.1232L100.795 18.0482Z" fill="#AB2D4C"/>
</svg>
