<svg width="46" height="33" viewBox="0 0 46 33" fill="none" xmlns="http://www.w3.org/2000/svg">
<rect x="0.5" y="1" width="45" height="31" fill="white"/>
<rect x="0.5" y="1" width="45" height="31" stroke="#F5F5F5"/>
<path fill-rule="evenodd" clip-rule="evenodd" d="M22.9053 22.9392C21.3266 24.2699 19.2787 25.0733 17.0409 25.0733C12.0478 25.0733 8 21.0737 8 16.1399C8 11.2062 12.0478 7.2066 17.0409 7.2066C19.2787 7.2066 21.3266 8.00994 22.9053 9.34066C24.484 8.00994 26.5319 7.2066 28.7697 7.2066C33.7628 7.2066 37.8106 11.2062 37.8106 16.1399C37.8106 21.0737 33.7628 25.0733 28.7697 25.0733C26.5319 25.0733 24.484 24.2699 22.9053 22.9392Z" fill="#ED0006"/>
<path fill-rule="evenodd" clip-rule="evenodd" d="M22.9062 22.9392C24.8502 21.3007 26.0828 18.8625 26.0828 16.1399C26.0828 13.4173 24.8502 10.9792 22.9062 9.34066C24.485 8.00993 26.5329 7.2066 28.7706 7.2066C33.7638 7.2066 37.8115 11.2062 37.8115 16.1399C37.8115 21.0737 33.7638 25.0733 28.7706 25.0733C26.5329 25.0733 24.485 24.2699 22.9062 22.9392Z" fill="#F9A000"/>
<path fill-rule="evenodd" clip-rule="evenodd" d="M22.905 22.9392C24.8489 21.3007 26.0815 18.8625 26.0815 16.1399C26.0815 13.4174 24.8489 10.9792 22.905 9.3407C20.9611 10.9792 19.7285 13.4174 19.7285 16.1399C19.7285 18.8625 20.9611 21.3007 22.905 22.9392Z" fill="#FF5E00"/>
</svg>
