<svg width="46" height="33" viewBox="0 0 46 33" fill="none" xmlns="http://www.w3.org/2000/svg">
<rect x="0.5" y="1" width="45" height="31" fill="white"/>
<rect x="0.5" y="1" width="45" height="31" stroke="#F5F5F5"/>
<path fill-rule="evenodd" clip-rule="evenodd" d="M14.3341 21.6443H11.5877L9.52833 13.5565C9.43058 13.1844 9.22304 12.8555 8.91774 12.7005C8.15584 12.311 7.31628 12.0009 6.40039 11.8446V11.5332H10.8245C11.4351 11.5332 11.893 12.0009 11.9694 12.5442L13.0379 18.3782L15.7829 11.5332H18.4529L14.3341 21.6443ZM19.9794 21.6443H17.3857L19.5214 11.5332H22.1151L19.9794 21.6443ZM25.4707 14.3343C25.547 13.7897 26.0049 13.4783 26.5392 13.4783C27.3788 13.4001 28.2933 13.5565 29.0565 13.9447L29.5145 11.7677C28.7512 11.4564 27.9117 11.3 27.1498 11.3C24.6324 11.3 22.8007 12.7005 22.8007 14.6443C22.8007 16.123 24.0982 16.8995 25.0141 17.3672C26.0049 17.8336 26.3865 18.145 26.3102 18.6114C26.3102 19.311 25.547 19.6224 24.7851 19.6224C23.8692 19.6224 22.9533 19.3892 22.1151 18.9996L21.6571 21.1779C22.573 21.5661 23.5639 21.7225 24.4798 21.7225C27.3024 21.7993 29.0565 20.4001 29.0565 18.3C29.0565 15.6553 25.4707 15.5003 25.4707 14.3343ZM38.1337 21.6443L36.0743 11.5332H33.8623C33.4043 11.5332 32.9464 11.8446 32.7937 12.311L28.9802 21.6443H31.6502L32.1831 20.1669H35.4637L35.769 21.6443H38.1337ZM34.2439 14.2561L35.0058 18.0668H32.8701L34.2439 14.2561Z" fill="#172B85"/>
</svg>
