<svg width="97" height="96" viewBox="0 0 97 96" fill="none" xmlns="http://www.w3.org/2000/svg">
<g clip-path="url(#clip0_17174_1420)">
<path d="M48.6004 0.300049C22.3004 0.300049 0.900391 21.7001 0.900391 48C0.900391 74.3 22.3004 95.7 48.6004 95.7C74.9004 95.7 96.3004 74.3 96.3004 48C96.3004 21.7001 74.9004 0.300049 48.6004 0.300049ZM48.6004 94C23.2004 94 2.60039 73.3 2.60039 48C2.60039 22.7001 23.3004 2.00005 48.6004 2.00005C73.9004 2.00005 94.6004 22.7001 94.6004 48C94.6004 73.3 74.0004 94 48.6004 94Z" fill="#111111"/>
<path d="M51.1002 14.3L49.5002 14.1L48.8002 12.6C48.8002 12.5 48.6002 12.5 48.5002 12.6L47.8002 14.1L46.2002 14.3C46.2002 14.3 46.0002 14.5 46.2002 14.6L47.4002 15.8L47.1002 17.5C47.1002 17.6 47.1002 17.7 47.3002 17.7L48.7002 16.9L50.1002 17.7C50.1002 17.8 50.4002 17.7 50.3002 17.5L50.1002 15.8L51.3002 14.6C51.3002 14.5 51.3002 14.3 51.2002 14.3H51.1002Z" fill="#111111"/>
<path d="M42.1 15.9001L41.6 14.9001C41.6 14.8001 41.4 14.8001 41.4 14.9001L40.9 15.9001H40C40 16.0001 40 16.1001 40 16.2001L40.7 17.0001L40.5 18.1001C40.5 18.2001 40.5 18.3001 40.7 18.2001L41.6 17.7001L42.5 18.2001C42.5 18.2001 42.7 18.2001 42.7 18.1001L42.5 17.0001L43.2 16.2001C43.2 16.1001 43.2 16.0001 43.2 16.0001H42.3L42.1 15.9001Z" fill="#111111"/>
<path d="M57.2996 16L56.2996 15.8L55.7996 14.8C55.7996 14.7 55.5996 14.7 55.5996 14.8L55.0996 15.8L54.0996 16C54.0996 16 54.0996 16.1 54.0996 16.2L54.7996 17L54.5996 18.1C54.5996 18.2 54.5996 18.3 54.7996 18.2L55.6996 17.7L56.5996 18.2C56.5996 18.2 56.7996 18.2 56.7996 18.1V17C56.6996 17 57.3996 16.2 57.3996 16.2C57.4996 16.2 57.4996 16.1 57.3996 16H57.2996Z" fill="#111111"/>
<path d="M60.4992 56.2H75.8992L64.6992 38L51.0992 60.5H55.2992L64.7992 43.9L70.4992 53.3H60.4992V56.2ZM42.7992 39.1H21.0992V48.4H32.1992V45.3H24.0992V42H42.7992C45.5992 42 48.5992 44.3 48.5992 47.6C48.5992 50.9 45.5992 53.2 43.4992 53.2H40.5992V45.3H37.4992V56.2H43.4992C47.2992 56.2 51.6992 52.9 51.6992 47.7C51.6992 42.5 47.5992 39.1 42.7992 39.1ZM21.0992 49.7V60.5H24.0992V52.7H32.1992V49.7H21.0992ZM67.9992 35H64.6992L77.9992 57.4L79.8992 54.3L67.9992 35ZM60.4992 57.4V60.5H76.1992L78.0992 57.4H60.4992ZM61.4992 35L55.2992 45C55.2992 45 53.5992 35.1 42.4992 35.1H17.1992V60.5H20.0992V38H43.2992C45.5992 38 52.4992 40.3 52.4992 47.5C52.4992 54.7 45.9992 57.3 42.9992 57.3H36.1992V45.3H33.1992V60.4H42.5992C48.5992 60.4 52.1992 56.1 54.0992 53.2C55.9992 50.3 64.6992 35 64.6992 35H61.4992Z" fill="#111111"/>
<path d="M30.9008 23.2999L29.9008 25.9999L29.5008 27.0999L29.1008 25.9999L28.1008 23.2999H26.3008V29.8999H27.9008V27.9999C27.9008 27.2999 27.8008 26.2999 27.7008 25.6999L28.2008 27.1999L29.1008 29.3999H29.7008L30.6008 27.1999L31.1008 25.6999C31.0008 26.3999 30.9008 27.3999 30.9008 27.9999V29.8999H32.5008V23.2999H30.9008Z" fill="#111111"/>
<path d="M37.4008 23.2999H35.3008L33.3008 29.8999H35.1008L35.4008 28.4999H37.2008L37.5008 29.8999H39.3008L37.4008 23.2999ZM35.7008 27.1999V26.6999C36.0008 26.0999 36.1008 25.2999 36.3008 24.5999C36.5008 25.1999 36.6008 25.9999 36.8008 26.6999V27.1999H35.7008Z" fill="#111111"/>
<path d="M42 23.2999H40V29.8999H42C43.9 29.8999 45.3 28.8999 45.3 26.5999C45.3 24.2999 43.9 23.2999 42 23.2999ZM41.9 28.4999V24.6999C42.8 24.6999 43.6 24.9999 43.6 26.4999C43.5 28.0999 42.8 28.4999 41.9 28.4999Z" fill="#111111"/>
<path d="M48.2 28.4V27.2H50.3V25.7H48.2V24.7H50.7V23.2H46.5V29.7999H50.8V28.2999C50.8 28.3999 48.2 28.4 48.2 28.4Z" fill="#111111"/>
<path d="M54.2012 23.2999V29.8999H56.0012V23.2999H54.2012Z" fill="#111111"/>
<path d="M61.1004 23.2999V25.1999C61.1004 25.9999 61.1004 26.9999 61.3004 27.6999L60.7004 26.1999L59.2004 23.2999H57.4004V29.8999H59.1004V27.9999C59.1004 27.1999 59.1004 26.1999 58.9004 25.4999L59.5004 26.9999L60.9004 29.8999H62.7004V23.2999H61.1004Z" fill="#111111"/>
<path d="M69.6 23.2999H67.5L65.5 29.8999H67.3L67.6 28.4999H69.4L69.7 29.8999H71.5L69.6 23.2999ZM67.9 27.1999V26.6999C68.2 26.0999 68.3 25.2999 68.5 24.5999C68.7 25.1999 68.8 25.9999 69 26.6999V27.1999H67.9Z" fill="#111111"/>
<path d="M29.1 69C29.6 68.7 29.9 68.3 29.9 67.6C29.9 66.4 29 66 27.9 66H26V70.9H27.3V69.3H27.8L28.6 70.9H30.1L29.1 69ZM27.8 68.2H27.3V67H27.8C28.3 67 28.6 67 28.6 67.6C28.6 68 28.3 68.2 27.8 68.2Z" fill="#111111"/>
<path d="M32.4992 69.8V68.9H34.0992V67.8H32.4992V67H34.3992V66H31.1992V70.9H34.4992V69.8H32.4992Z" fill="#111111"/>
<path d="M37.8004 68V69.1H38.5004V69.8C38.5004 69.8 38.3004 69.8 38.1004 69.8C37.2004 69.8 36.8004 69.3 36.8004 68.4C36.8004 67.5 37.3004 67 38.0004 67C38.7004 67 38.6004 67 38.8004 67.3L39.5004 66.5C39.2004 66.1 38.6004 65.8 37.9004 65.8C36.6004 65.8 35.4004 66.7 35.4004 68.4C35.4004 70.1 36.6004 70.9 38.0004 70.9C39.4004 70.9 39.3004 70.6 39.7004 70.3V67.9H37.8004V68Z" fill="#111111"/>
<path d="M41 66V70.9H42.3V66H41Z" fill="#111111"/>
<path d="M46.3 68.1L45.7 67.9C45.3 67.7 45 67.6 45 67.4C45 67.2 45.2 67.1 45.5 67.1C45.8 67.1 46.1 67.1 46.5 67.5L47.1 66.7C46.6 66.2 46 66 45.5 66C44.4 66 43.7 66.7 43.7 67.5C43.7 68.3 44.2 68.7 44.7 68.9L45.3 69.2C45.7 69.4 46 69.4 46 69.7C46 70 45.8 70.1 45.4 70.1C45 70.1 44.6 69.9 44.2 69.6L43.5 70.5C44 71 44.7 71.2 45.4 71.2C46.6 71.2 47.3 70.5 47.3 69.6C47.3 68.7 46.9 68.3 46.3 68.1Z" fill="#111111"/>
<path d="M47.9004 66V67.1H49.2004V70.9H50.5004V67.1H51.8004V66H47.9004Z" fill="#111111"/>
<path d="M54.2004 69.8V68.9H55.8004V67.8H54.2004V67H56.1004V66H52.9004V70.9H56.2004V69.8H54.2004Z" fill="#111111"/>
<path d="M60.6 69C61.1 68.7 61.4 68.3 61.4 67.6C61.4 66.4 60.5 66 59.4 66H57.5V70.9H58.8V69.3H59.3L60.1 70.9H61.6L60.6 69ZM59.3 68.2H58.8V67H59.3C59.8 67 60.1 67 60.1 67.6C60.1 68.2 59.8 68.2 59.3 68.2Z" fill="#111111"/>
<path d="M63.9992 69.8V68.9H65.5992V67.8H63.9992V67H65.8992V66H62.6992V70.9H65.9992V69.8H63.9992Z" fill="#111111"/>
<path d="M68.7008 66H67.3008V70.9H68.8008C70.2008 70.9 71.3008 70.2 71.3008 68.4C71.3008 66.6 70.2008 66 68.7008 66ZM68.6008 69.9V67C69.3008 67 69.9008 67.2 69.9008 68.4C69.9008 69.6 69.3008 69.9 68.6008 69.9Z" fill="#111111"/>
<path d="M36.2 74.6V73.5H33V78.4H34.3V76.6H35.9V75.5H34.3V74.6H36.2Z" fill="#111111"/>
<path d="M39.5 73.5H38L36.5 78.4H37.8L38 77.4H39.4L39.6 78.4H41L39.5 73.5ZM38.3 76.4V76.1C38.5 75.6 38.6 75 38.8 74.5C38.8 75 39 75.6 39.2 76.1V76.4H38.3Z" fill="#111111"/>
<path d="M44.8996 77C44.6996 77.2 44.3996 77.4 43.9996 77.4C43.3996 77.4 42.8996 76.9 42.8996 76C42.8996 75.1 43.3996 74.6 43.9996 74.6C44.5996 74.6 44.4996 74.6 44.7996 74.9L45.4996 74.1C45.1996 73.7 44.5996 73.4 43.9996 73.4C42.6996 73.4 41.5996 74.3 41.5996 76C41.5996 77.7 42.6996 78.5 43.9996 78.5C45.2996 78.5 45.1996 78.3 45.5996 77.8L44.8996 77Z" fill="#111111"/>
<path d="M46.5996 73.5V78.4H47.8996V73.5H46.5996Z" fill="#111111"/>
<path d="M50.7004 77.4001V73.6001H49.4004V78.5001H52.6004V77.4001H50.7004Z" fill="#111111"/>
<path d="M53.8008 73.5V78.4H55.1008V73.5H53.8008Z" fill="#111111"/>
<path d="M56.1992 73.5V74.6H57.4992V78.4H58.7992V74.6H60.0992V73.5H56.1992Z" fill="#111111"/>
<path d="M63.3008 73.5L62.9008 74.5C62.9008 74.9 62.6008 75.2 62.5008 75.6C62.5008 75.2 62.2008 74.9 62.1008 74.5L61.7008 73.5H60.3008L61.8008 76.7V78.4H63.1008V76.7L64.6008 73.5H63.3008Z" fill="#111111"/>
<path d="M48.5992 6.19995C25.4992 6.19995 6.69922 24.9 6.69922 48C6.69922 71.1 25.4992 89.8 48.4992 89.8C71.4992 89.8 90.3992 71.1 90.3992 48C90.3992 24.9 71.5992 6.19995 48.5992 6.19995ZM48.5992 89.2C25.8992 89.2 7.39922 70.7 7.39922 48C7.39922 25.2999 25.8992 6.79995 48.5992 6.79995C71.2992 6.79995 89.7992 25.2999 89.7992 48C89.7992 70.7 71.2992 89.2 48.5992 89.2Z" fill="#111111"/>
</g>
<defs>
<clipPath id="clip0_17174_1420">
<rect width="97" height="96" fill="white"/>
</clipPath>
</defs>
</svg>
